<svg width="1536" height="1024" viewBox="0 0 1536 1024" fill="none" xmlns="http://www.w3.org/2000/svg">
<path d="M720 56C721.589 56.1257 721.589 56.1257 723.211 56.2539C724.599 56.3571 725.987 56.4599 727.375 56.5625C728.074 56.6186 728.772 56.6746 729.492 56.7324C733.365 57.115 733.365 57.115 737 56C737 56.66 737 57.32 737 58C737.949 57.9536 738.897 57.9072 739.875 57.8594C750.118 57.5314 759.727 58.7089 769.799 60.5771C773.802 61.3174 777.501 62 781.582 62C782.38 62 783.178 62 784 62C784.66 62.66 785.32 63.32 786 64C788.826 64.932 791.645 65.7935 794.5 66.625C813.12 72.3013 830.611 80.8667 846.5 92.125C847.091 92.5417 847.681 92.9584 848.29 93.3877C851.494 95.7114 854.007 98.1281 856.562 101.125C859.831 103.629 862.016 104.368 866.117 104.391C867.541 104.406 867.541 104.406 868.994 104.421C872.697 104.363 876.389 104.221 880.086 103.998C882 104 882 104 883 105C884.53 105.227 886.069 105.397 887.609 105.543C922.458 109.155 953.837 121.076 979 146C979.65 146.601 980.299 147.201 980.969 147.82C985.631 152.207 989.324 157.27 993.082 162.426C995.359 165.481 996.353 166.784 1000 168C999.939 168.724 999.879 169.449 999.816 170.195C1000.04 173.611 1001.04 175.043 1002.94 177.875C1019.32 204.965 1024.41 238.208 1027.44 269.188C1029.13 286.111 1032.27 301.652 1039.64 317.043C1041 320 1041 320 1041 322C1041.99 322.33 1042.98 322.66 1044 323C1044 323.99 1044 324.98 1044 326C1044.33 326.66 1044.66 327.32 1045 328C1045.99 328.33 1046.98 328.66 1048 329C1048.1 329.718 1048.2 330.436 1048.31 331.176C1050.76 341.201 1060.19 351.995 1068 358.5C1068.99 359.325 1069.98 360.15 1071 361C1071 361.66 1071 362.32 1071 363C1072.64 364.362 1074.32 365.69 1076 367C1077.67 368.667 1079.33 370.333 1081 372C1087.45 378.19 1094.32 383.597 1101.45 388.973C1106.34 392.68 1111.1 396.502 1115.75 400.5C1116.31 400.98 1116.87 401.46 1117.45 401.954C1120.77 404.839 1124.01 407.767 1127 411C1127 411.66 1127 412.32 1127 413C1127.66 413 1128.32 413 1129 413C1130.64 414.859 1132.14 416.713 1133.62 418.688C1134.29 419.56 1134.29 419.56 1134.97 420.449C1150 440.54 1150 440.54 1150 447C1150.66 447.33 1151.32 447.66 1152 448C1152.76 449.93 1152.76 449.93 1153.47 452.445C1153.86 453.814 1153.86 453.814 1154.26 455.211C1154.52 456.173 1154.79 457.134 1155.06 458.125C1155.33 459.063 1155.6 460.002 1155.88 460.969C1162.2 483.484 1159.42 506.607 1154 529C1149.79 546.762 1150.13 562.8 1159.68 578.824C1162.62 583.299 1165.73 587.634 1168.87 591.973C1175.2 600.774 1180.98 609.628 1186.05 619.214C1186.91 620.83 1187.79 622.434 1188.68 624.035C1202.38 649.775 1205.98 679.326 1197.78 707.352C1192.98 722.495 1184.93 735.686 1175 748C1174.47 748.675 1173.93 749.351 1173.38 750.047C1170.31 753.806 1166.9 756.978 1163.2 760.117C1160.78 762.187 1158.46 764.341 1156.12 766.5C1151.38 770.798 1146.34 774.469 1141 778C1141.66 778.33 1142.32 778.66 1143 779C1142.67 779.99 1142.34 780.98 1142 782C1142.74 783.943 1142.74 783.943 1144 786C1144.45 786.841 1144.9 787.682 1145.37 788.548C1145.89 789.509 1146.41 790.471 1146.95 791.461C1153.97 804.424 1160.83 817.448 1167.44 830.625C1167.77 831.285 1168.1 831.944 1168.44 832.624C1169.38 834.489 1170.32 836.357 1171.25 838.227C1171.78 839.295 1172.31 840.363 1172.86 841.463C1174 844 1174 844 1174 846C1174.66 846.33 1175.32 846.66 1176 847C1176.7 848.99 1177.35 850.993 1178 853C1179.03 855.365 1180.11 857.708 1181.2 860.047C1182 862 1182 862 1182 864C1182.66 864.33 1183.32 864.66 1184 865C1185.62 869.241 1186.78 873.632 1188 878C1189.32 878.33 1190.64 878.66 1192 879C1192 881.97 1192 884.94 1192 888C1192.99 888.33 1193.98 888.66 1195 889C1195 890.32 1195 891.64 1195 893C1195.73 895.387 1195.73 895.387 1196.8 897.918C1197.2 898.909 1197.59 899.901 1198 900.922C1198.43 902 1198.87 903.077 1199.31 904.188C1203.51 914.863 1207.36 925.621 1211 936.5C1211.24 937.201 1211.47 937.902 1211.72 938.624C1218.74 959.45 1218.74 959.45 1217 965.438C1214.53 968.603 1212.74 969.525 1209 971C1205.99 971.368 1203.03 971.33 1200 971.25C1198.83 971.242 1198.83 971.242 1197.63 971.234C1193.33 971.176 1189.24 970.842 1185 970C1184.67 970.66 1184.34 971.32 1184 972C1184 971.34 1184 970.68 1184 970C1182.71 970.164 1181.42 970.327 1180.08 970.496C1175.26 971.031 1170.51 971.113 1165.66 971.062C1164.81 971.059 1163.96 971.055 1163.09 971.051C1160.41 971.039 1157.74 971.02 1155.06 971C1151.51 970.973 1147.96 970.953 1144.41 970.938C1143.6 970.929 1142.78 970.921 1141.94 970.912C1137.84 970.787 1137.84 970.787 1134 972C1134 971.34 1134 970.68 1134 970C1133.36 970.03 1132.73 970.061 1132.07 970.092C1112.07 970.993 1092.08 971.088 1072.06 971.062C1071.4 971.062 1070.73 971.061 1070.04 971.06C1061.69 971.048 1053.35 971.028 1045 971C1044.67 971.66 1044.34 972.32 1044 973C1043.33 972.675 1042.66 972.35 1041.97 972.016C1038.4 970.794 1035.14 970.725 1031.41 970.751C1030.65 970.748 1029.89 970.746 1029.11 970.743C1026.55 970.737 1024 970.745 1021.44 970.753C1019.6 970.751 1017.75 970.749 1015.9 970.745C1010.82 970.739 1005.74 970.745 1000.66 970.753C995.181 970.76 989.704 970.755 984.227 970.751C973.495 970.746 962.764 970.752 952.032 970.761C939.545 970.772 927.058 970.771 914.57 970.771C891.625 970.77 868.679 970.781 845.734 970.796C824.774 970.809 803.815 970.815 782.855 970.815C781.509 970.815 780.163 970.815 778.817 970.815C778.151 970.815 777.486 970.815 776.8 970.815C773.45 970.814 770.1 970.814 766.75 970.814C765.759 970.814 765.759 970.814 764.747 970.814C743.492 970.814 722.237 970.821 700.982 970.829C692.268 970.832 683.555 970.833 674.841 970.833C664.231 970.834 653.621 970.838 643.012 970.847C637.594 970.852 632.176 970.855 626.758 970.854C621.806 970.853 616.853 970.856 611.901 970.864C610.103 970.865 608.304 970.865 606.505 970.864C604.074 970.862 601.644 970.866 599.213 970.871C598.503 970.869 597.792 970.867 597.06 970.865C593.407 970.835 593.407 970.835 590 972C590 971.34 590 970.68 590 970C588.879 970.03 587.759 970.061 586.605 970.092C552.951 970.967 519.307 971.087 485.645 971.062C484.544 971.062 483.443 971.061 482.309 971.06C465.144 971.049 447.978 971.025 430.812 971C415.71 970.978 400.608 970.957 385.506 970.947C379.009 970.942 372.512 970.932 366.014 970.918C361.993 970.911 357.972 970.907 353.951 970.905C352.1 970.903 350.249 970.9 348.397 970.894C339.672 970.869 331.08 970.859 322.404 971.949C318.42 972.033 315.015 970.575 312 968C309.705 964.654 309.788 961.732 309.875 957.75C309.893 956.672 309.911 955.595 309.93 954.484C309.953 953.665 309.976 952.845 310 952C310.66 952 311.32 952 312 952C312.4 950.076 312.4 950.076 312.809 948.113C313.937 943.036 315.452 938.13 317.063 933.188C317.596 931.535 318.129 929.883 318.66 928.23C318.894 927.513 319.127 926.795 319.367 926.055C319.793 924.674 320.179 923.28 320.527 921.878C321.131 919.48 322.079 917.332 323.063 915.062C325.036 910.402 326.878 905.713 328.652 900.974C333.705 887.478 339.296 874.232 345 861C345.502 859.825 345.502 859.825 346.013 858.626C350.772 847.486 356.038 836.59 361.313 825.688C361.848 824.58 361.848 824.58 362.393 823.45C363.422 821.323 364.454 819.198 365.488 817.074C365.952 816.116 365.952 816.116 366.425 815.138C368.13 811.649 370.001 808.326 372 805C372.696 802.809 372.696 802.809 373 801C371.884 800.903 370.767 800.807 369.617 800.707C364.525 800.067 359.927 798.443 355.125 796.688C354.246 796.373 353.367 796.058 352.461 795.734C335.165 789.502 335.165 789.502 329.063 785.375C326.485 783.634 323.902 781.941 321.242 780.328C314.952 776.509 309.999 772.379 305 767C304.175 766.237 303.35 765.474 302.5 764.688C299.233 761.176 296.538 757.337 293.77 753.426C291.999 750.999 290.696 749.348 288 748C288.33 747.01 288.66 746.02 289 745C288.327 742.711 288.327 742.711 287.25 740.125C280.246 719.605 280.968 699.176 290.161 679.417C297.07 665.507 307.157 653.581 318.25 642.812C330.001 631.25 338.655 616.722 339.25 599.938C338.927 594.856 338.301 589.603 336 585C335.89 584.292 335.781 583.585 335.668 582.855C334.779 579.054 333.082 575.764 331.313 572.312C330.776 571.251 330.776 571.251 330.228 570.168C327.76 565.344 325.11 560.67 322.254 556.062C320.662 553.444 319.311 550.768 318 548C317.34 548 316.68 548 316 548C315.313 545.509 315 543.621 315 541C314.403 538.929 313.773 536.868 313.125 534.812C309.297 521.606 308.703 508.654 309 495C309 494.01 309 493.02 309 492C309.464 491.165 309.464 491.165 309.938 490.312C311.489 486.936 311.631 483.691 312 480C312.66 480 313.32 480 314 480C314.085 479.339 314.17 478.677 314.258 477.996C315.241 474.029 317.002 470.678 318.875 467.062C319.403 466.027 319.403 466.027 319.941 464.971C320.634 463.612 321.33 462.255 322.029 460.9C322.905 459.186 323.751 457.457 324.594 455.727C329.708 445.811 342.486 426.505 353 423C353.309 422.361 353.619 421.721 353.938 421.062C355.234 418.545 356.422 418.031 359 417C359 416.34 359 415.68 359 415C360.942 413.311 362.891 411.742 364.938 410.188C365.562 409.706 366.187 409.225 366.83 408.729C368.18 407.69 369.533 406.653 370.887 405.619C372.996 404.003 375.093 402.371 377.188 400.734C384.351 395.163 391.586 389.843 399.184 384.881C411.477 376.8 423.293 368.098 434 358C435.371 356.829 436.746 355.662 438.125 354.5C448.713 345.206 456.83 333.66 463.25 321.188C463.555 320.609 463.86 320.031 464.174 319.435C469.933 307.782 472.679 294.642 475.652 282.062C481.786 256.283 490.279 231.615 501.75 207.688C502.269 206.604 502.787 205.52 503.322 204.404C506.957 196.909 510.898 189.728 515.355 182.695C517.108 180.049 517.108 180.049 518 177C519.316 175.32 520.654 173.656 522 172C523.93 169.315 525.802 166.591 527.688 163.875C541.196 144.613 557.332 126.325 575.855 111.707C578.046 110.029 578.046 110.029 580 108C582.937 105.907 585.979 103.969 589 102C590.084 101.291 591.168 100.582 592.285 99.8516C613.575 86 613.575 86 617 86C617.33 85.34 617.66 84.68 618 84C619.907 82.9661 619.907 82.9661 622.426 81.8633C623.359 81.454 624.292 81.0447 625.253 80.623C626.767 79.9743 626.767 79.9743 628.312 79.3125C629.339 78.8684 630.365 78.4243 631.423 77.9668C639.103 74.6924 646.866 71.7855 654.79 69.1575C655.566 68.8993 656.342 68.641 657.141 68.375C658.154 68.0463 658.154 68.0463 659.188 67.7109C661.29 66.9604 661.29 66.9604 664 65C668.869 63.5373 674 62.8737 679 62C680.044 61.8175 680.044 61.8175 681.109 61.6313C694.203 59.3562 706.669 57.8119 720 58C720 57.34 720 56.68 720 56ZM1189 879C1190 881 1190 881 1190 881L1189 879Z" fill="black"/>
<path d="M645 654C644.879 654.536 644.758 655.072 644.633 655.625C638.462 684.484 640.691 710.857 656.688 736.188C677.225 765.166 706.27 783.275 741.3 789.402C778.143 795.074 815.344 787.619 845.812 766C867.606 749.183 884.838 725.623 889.25 698C891.106 682.703 888.814 668.792 885 654C944.401 664.445 1006.25 684.05 1054 722C1054.9 722.704 1055.79 723.408 1056.71 724.133C1072.82 737.026 1088.44 751.61 1101 768C1101.46 768.59 1101.91 769.18 1102.38 769.788C1121.63 794.758 1136.88 821.846 1151 850C1151.42 850.827 1151.83 851.654 1152.26 852.506C1170.9 889.925 1185.28 929.625 1196 970C1191.97 970.926 1189.06 970.85 1185 970C1184.67 970.66 1184.34 971.32 1184 972C1184 971.34 1184 970.68 1184 970C1182.71 970.164 1181.42 970.327 1180.08 970.496C1175.26 971.031 1170.51 971.113 1165.66 971.062C1164.81 971.059 1163.96 971.055 1163.09 971.051C1160.41 971.039 1157.74 971.02 1155.06 971C1151.51 970.973 1147.96 970.953 1144.41 970.938C1143.6 970.929 1142.78 970.921 1141.94 970.912C1137.84 970.787 1137.84 970.787 1134 972C1134 971.34 1134 970.68 1134 970C1133.36 970.03 1132.73 970.061 1132.07 970.092C1112.07 970.993 1092.08 971.088 1072.06 971.062C1071.4 971.062 1070.73 971.061 1070.04 971.06C1061.69 971.048 1053.35 971.028 1045 971C1044.67 971.66 1044.34 972.32 1044 973C1043 972.513 1043 972.513 1041.97 972.016C1038.4 970.794 1035.14 970.725 1031.41 970.751C1030.65 970.748 1029.89 970.746 1029.11 970.743C1026.55 970.737 1024 970.745 1021.44 970.753C1019.6 970.751 1017.75 970.749 1015.9 970.745C1010.82 970.739 1005.74 970.745 1000.66 970.753C995.181 970.76 989.704 970.755 984.227 970.751C973.495 970.746 962.763 970.752 952.032 970.761C939.545 970.772 927.058 970.771 914.57 970.771C891.625 970.77 868.679 970.781 845.734 970.796C824.774 970.809 803.815 970.815 782.855 970.815C781.509 970.815 780.163 970.815 778.817 970.815C778.151 970.815 777.486 970.815 776.8 970.815C773.45 970.814 770.1 970.814 766.75 970.814C765.759 970.814 765.759 970.814 764.747 970.814C743.492 970.814 722.237 970.821 700.982 970.829C692.268 970.832 683.555 970.833 674.841 970.833C664.231 970.834 653.621 970.838 643.012 970.847C637.594 970.852 632.176 970.855 626.758 970.854C621.806 970.853 616.853 970.856 611.901 970.864C610.103 970.865 608.304 970.865 606.505 970.864C604.074 970.862 601.644 970.866 599.213 970.871C598.503 970.869 597.792 970.867 597.06 970.865C593.407 970.835 593.407 970.835 590 972C590 971.34 590 970.68 590 970C588.827 970.03 587.655 970.059 586.447 970.09C541.022 971.202 495.598 971.155 450.163 971.129C441.725 971.124 433.287 971.127 424.849 971.132C416.584 971.137 408.318 971.137 400.053 971.135C395.17 971.133 390.287 971.133 385.404 971.136C380.843 971.139 376.282 971.137 371.721 971.131C370.068 971.13 368.415 971.13 366.762 971.133C355.144 971.147 343.596 970.706 332 970C332.66 969.01 333.32 968.02 334 967C334.699 964.338 335.33 961.683 335.938 959C349.277 903.68 372.579 845.912 405 799C405.417 798.393 405.834 797.786 406.264 797.161C414.451 785.305 423.19 773.843 432.949 763.234C434.864 761.148 436.718 759.023 438.562 756.875C445.401 749.066 452.896 742.471 461 736C462.16 735.051 463.319 734.1 464.477 733.148C511.931 694.339 568.468 674.782 626.827 658.72C631.663 657.385 636.472 655.983 641.259 654.478C643 654 643 654 645 654Z" fill="#817A46"/>
<path d="M825.688 178.938C826.681 178.947 827.675 178.956 828.699 178.965C829.838 178.982 829.838 178.982 831 179C831.692 180.762 831.692 180.762 832.398 182.559C845.462 215.091 867.684 244.231 891.65 269.571C892.791 270.779 893.922 271.996 895.051 273.215C903.9 282.481 914.279 289.962 925.453 296.149C929.859 299.352 930.225 303.428 931.09 308.619C931.205 309.364 931.319 310.108 931.438 310.875C931.626 312.081 931.626 312.081 931.818 313.311C933.917 327.474 934.985 341.8 936.277 356.056C937.145 370.381 937.145 370.381 941 384C943.811 385.965 944.972 386.001 948.5 385.875C952.466 384.884 953.589 384.242 956 381C956.536 379.825 957.072 378.649 957.625 377.438C962.656 366.986 971.665 359.819 982 355C989.11 352.63 997.617 352.901 1004.38 356.063C1014.76 362.136 1020.31 371.486 1023.88 382.789C1028.28 403.289 1023.72 426.726 1013.38 444.688C1004.86 457.801 993.114 467.756 978.07 472.352C972.095 473.614 965.834 473.945 960 472C960.058 470.903 960.116 469.806 960.176 468.676C960.223 467.222 960.268 465.767 960.312 464.313C960.354 463.591 960.396 462.87 960.439 462.127C960.534 458.002 960.323 456.433 957.766 453.008C954.926 450.946 953.862 450.378 950.438 450.563C949.694 450.585 948.95 450.606 948.184 450.629C945.589 451.07 944.136 451.423 942 453C938.936 458.682 937.752 464.811 936.312 471.063C929.936 497.393 919.713 523.46 903 545C902.568 545.558 902.135 546.116 901.689 546.691C881.877 571.844 856.471 592.436 826 603C825.222 603.271 824.444 603.541 823.642 603.819C794.284 613.784 760.115 616.362 730 608C729.192 607.781 728.384 607.561 727.552 607.335C682.912 594.906 644.553 567.152 621 527C620.567 526.265 620.134 525.53 619.688 524.773C610.67 509.204 605.103 492.824 600 475.63C599.668 474.557 599.337 473.484 598.996 472.379C598.708 471.417 598.42 470.455 598.123 469.463C596.832 466.632 595.659 465.566 593 464C588.094 463.043 584.18 463.254 579.938 465.938C577.682 469.503 577.605 471.807 577.359 475.914C577 478 577 478 574.75 480.438C566.106 485.349 556.189 485.177 546.57 483.348C530.143 478.377 518.892 465.714 511 451C501.936 432.448 498.167 408.333 503.836 388.149C508.383 375.851 513.831 364.992 525.375 357.938C534.753 355.512 543.268 356.951 552 361C555.32 363.039 558.162 365.338 561 368C561.615 368.574 562.23 369.147 562.863 369.738C567.694 374.741 570.372 380.53 573.129 386.828C575.292 390.495 577.281 391.992 581 394C585.802 394.7 589.027 393.764 593 391C596.811 384.648 598.074 378.629 599.25 371.375C601.192 360.215 603.335 349.113 605.649 338.025C606.008 336.301 606.363 334.577 606.716 332.852C607.213 330.419 607.72 327.989 608.23 325.559C608.379 324.823 608.528 324.088 608.681 323.331C609.771 318.229 609.771 318.229 612 316C613.815 315.489 613.815 315.489 616.066 315.098C641.985 310.221 667.24 301.409 691 290C691.815 289.61 692.631 289.221 693.471 288.819C710.827 280.396 727.571 269.852 742 257C743.452 255.728 743.452 255.728 744.934 254.43C756.935 243.777 766.806 231.886 776.42 219.094C806.885 178.716 806.885 178.716 825.688 178.938Z" fill="#FAC492"/>
<path d="M676 612C679.18 613.23 682.3 614.567 685.414 615.953C722.095 632.199 761.061 638.427 801 632C801.813 631.876 802.626 631.753 803.464 631.625C822.067 628.733 838.822 622.467 856 615C856.1 615.905 856.2 616.811 856.304 617.744C859.057 645.428 859.057 645.428 866.25 672.188C871.186 686.447 867.447 702.958 861.314 716.328C857.524 724.07 852.866 730.655 847 737C846.064 738.056 846.064 738.056 845.109 739.133C828.753 756.658 802.802 766.861 779.159 768.221C774.918 768.364 770.68 768.387 766.438 768.375C765.688 768.374 764.938 768.374 764.166 768.373C752.398 768.334 741.268 767.608 730 764C729.303 763.78 728.607 763.561 727.889 763.334C711.974 758.163 697.49 750.374 686 738C685.323 737.305 684.646 736.61 683.949 735.895C669.818 720.955 663.258 702.929 663.582 682.547C663.886 676.247 665.587 670.726 667.575 664.783C673.159 647.839 674.599 629.701 676 612Z" fill="#FAC492"/>
<path d="M817.25 486.875C828.646 496.498 839.824 508.129 842.414 523.449C842.689 527.826 842.424 529.464 839.625 533C835.922 535.821 833.83 536.148 829.168 536.328C824.984 535.695 822.579 533.773 820.078 530.434C819.475 529.445 818.872 528.456 818.25 527.438C814.357 521.374 810.039 516.141 805 511C804.461 510.437 803.922 509.874 803.367 509.293C793.785 500.168 780.184 495.566 767.198 495.637C752.376 496.019 739.477 503.78 729.236 514.086C724.762 518.876 721.701 524.161 718.719 529.969C716.396 534.066 714.508 536.497 710 538C704.645 538.346 701.362 538.464 697 535C694.311 530.966 694.354 527.658 695 523C699.918 505.669 714.639 489.937 730 481C758.84 465.545 790.851 466.361 817.25 486.875Z" fill="#010101"/>
<path d="M507 846C510.642 847.619 513.166 849.43 515 853C515.332 859.059 514.478 864.313 513.059 870.184C512.638 871.997 512.218 873.81 511.799 875.624C511.465 877.045 511.465 877.045 511.125 878.495C507.273 894.98 503.821 911.495 501 928.188C500.859 929.012 500.718 929.837 500.572 930.687C498.959 940.167 497.589 949.625 496.734 959.206C496.381 962.837 496.078 965.935 494 969C487.655 972.144 479.744 971.042 473 970C472.34 969.67 471.68 969.34 471 969C473.737 934.291 480.44 899.528 489.25 865.875C489.725 864.036 489.725 864.036 490.21 862.159C491.768 856.439 493.162 851.584 497 847C500.193 845.403 503.525 845.626 507 846Z" fill="#020000"/>
<path d="M1033 846C1039.29 849.917 1040.25 857.257 1042 864C1042.21 864.761 1042.41 865.521 1042.63 866.305C1049.88 892.965 1055.09 920.295 1059.06 947.625C1059.17 948.368 1059.28 949.111 1059.4 949.876C1059.7 951.971 1060 954.067 1060.29 956.164C1060.45 957.345 1060.61 958.525 1060.78 959.741C1061 963.028 1060.68 965.787 1060 969C1059.01 969 1058.02 969 1057 969C1056.67 969.66 1056.34 970.32 1056 971C1052.37 971 1048.74 971 1045 971C1044.67 971.66 1044.34 972.32 1044 973C1043.34 972.34 1042.68 971.68 1042 971C1042.33 970.34 1042.66 969.68 1043 969C1041.68 968.67 1040.36 968.34 1039 968C1037.53 959.8 1036.08 951.601 1034.78 943.371C1031.93 925.57 1028.36 908.006 1024.31 890.438C1023.95 888.87 1023.95 888.87 1023.59 887.271C1022.89 884.262 1022.19 881.254 1021.49 878.246C1021.18 876.915 1021.18 876.915 1020.86 875.558C1019.63 870.356 1018.22 865.25 1016.61 860.151C1015.79 857.253 1015.51 854.982 1016 852C1020.43 845.044 1025.32 843.978 1033 846Z" fill="#030101"/>
<path d="M789.809 411.578C798.442 417.412 804.392 423.651 809 433C809.495 433.99 809.495 433.99 810 435C810.121 439.47 809.833 442.959 807 446.5C802.986 448.507 799.493 449.311 795 449C790.099 446.746 787.068 443.007 783.711 438.902C779.727 434.472 776.552 433.245 770.75 432.687C763.201 433.317 759.199 436.511 754.25 442.125C753.533 442.994 752.817 443.863 752.078 444.758C749.482 447.558 747.594 448.78 743.816 449.301C739.078 449.325 735.773 449.201 732 446C729.754 442.304 729.68 439.699 730.273 435.496C733.183 425.5 742.682 416.644 751.5 411.687C753.321 410.767 755.154 409.869 757 409C757.714 408.658 758.428 408.317 759.164 407.965C769.383 403.588 780.367 406.273 789.809 411.578Z" fill="#020202"/>
<path d="M881 315C884.399 316.724 886.5 319.153 888.438 322.437C889.192 325.873 889.126 327.623 888 331C875.748 349.639 842.567 357.318 822 362C815.44 362.74 811.395 361.821 806 358C804.383 354.766 804.524 352.572 805 349C810.722 342.965 817.565 340.215 825.125 337C827.71 335.877 830.291 334.744 832.871 333.609C833.533 333.319 834.195 333.029 834.876 332.73C842.399 329.415 849.796 325.846 857.188 322.25C857.822 321.942 858.456 321.634 859.11 321.316C874.202 313.983 874.202 313.983 881 315Z" fill="#010101"/>
<path d="M663 319C667.685 320.288 672.128 322.044 676.625 323.875C677.891 324.377 679.157 324.877 680.425 325.376C683.014 326.398 685.6 327.432 688.182 328.473C691.828 329.939 695.495 331.347 699.168 332.746C701.383 333.601 703.598 334.456 705.812 335.312C706.825 335.696 707.837 336.079 708.879 336.474C714.845 338.825 720.372 341.453 725 346C726.415 349.65 726.378 351.098 724.875 354.687C722.643 357.441 721.308 358.663 718 360C710.916 360.715 704.884 359.452 698.215 357.183C697.315 356.889 696.415 356.595 695.488 356.292C693.592 355.669 691.699 355.04 689.808 354.403C686.974 353.45 684.134 352.519 681.291 351.592C672.576 348.725 663.914 345.717 655.379 342.348C654.686 342.084 653.993 341.821 653.28 341.55C648.977 339.795 646.494 337.93 644 334C643.324 330.028 643.801 328.362 645.75 324.812C650.845 318.444 655.123 317.988 663 319Z" fill="#010101"/>
<path d="M849 371C855.254 373.886 859.614 379.54 862.148 385.867C864.606 394.91 863.54 403.849 859 412C856.335 416.162 853.74 418.466 849 420C843.744 420.658 839.356 420.666 834.563 418.313C828.769 413.084 825.444 407.742 824.711 399.91C824.441 389.403 826.103 382.47 833.184 374.629C837.942 370.362 842.85 370.239 849 371Z" fill="#010101"/>
<path d="M697 370C703.689 373.029 706.705 378.731 709.313 385.313C711.167 395.261 710.03 403.462 705.188 412.313C701.289 417.102 696.967 419.585 690.875 420.438C685.467 419.827 681.986 417.654 678 414C672.668 406.374 672.294 398.057 673 389C674.654 380.77 678.108 375.744 685 371C688.719 369.14 692.941 369.569 697 370Z" fill="#010101"/>
<path d="M645 654C643.753 660.355 642.426 666.683 641 673C640.67 673 640.34 673 640 673C640.142 671.271 640.289 669.541 640.438 667.812C640.519 666.85 640.6 665.887 640.684 664.895C640.977 662.212 641.453 659.64 642 657C641.173 657.248 640.345 657.495 639.493 657.75C636.417 658.666 633.338 659.572 630.257 660.473C628.925 660.864 627.594 661.259 626.265 661.657C624.351 662.23 622.433 662.789 620.516 663.348C619.364 663.688 618.211 664.028 617.024 664.379C614.145 664.97 612.705 665.024 610 664C618.209 661.155 626.441 658.517 634.812 656.188C635.595 655.969 636.377 655.75 637.183 655.525C642.741 654 642.741 654 645 654Z" fill="#F18D79"/>
<path d="M667 668C667.66 668.33 668.32 668.66 669 669C668.847 670.114 668.693 671.227 668.535 672.375C667.927 677.241 667.667 682.104 667.437 687C667.394 687.87 667.351 688.74 667.307 689.637C667.202 691.758 667.1 693.879 667 696C666.01 696.33 665.02 696.66 664 697C663.912 693.854 663.859 690.709 663.812 687.562C663.787 686.684 663.762 685.806 663.736 684.9C663.668 678.72 664.672 673.725 667 668Z" fill="#F2EAE4"/>
<path d="M787 499C801.369 502.403 812.053 515.882 819.602 527.727C820.063 528.477 820.525 529.227 821 530C820.01 530 819.02 530 818 530C816.476 528.028 815.142 526.097 813.812 524C806.711 513.285 798.604 506.537 787 501C787 500.34 787 499.68 787 499Z" fill="#F9F7F5"/>
<path d="M478 911C478.33 911 478.66 911 479 911C479.151 916.417 478.593 921.442 477.687 926.777C477.554 927.589 477.421 928.4 477.284 929.236C476.861 931.804 476.431 934.371 476 936.938C475.71 938.688 475.421 940.439 475.133 942.189C474.428 946.461 473.716 950.731 473 955C470.882 951.167 470.686 948.4 471 944C471.463 943.11 471.463 943.11 471.935 942.202C473.35 939.276 473.755 936.47 474.289 933.266C474.618 931.322 474.618 931.322 474.953 929.34C475.177 927.977 475.401 926.613 475.625 925.25C475.856 923.871 476.088 922.492 476.32 921.113C476.886 917.743 477.446 914.372 478 911Z" fill="#F6917E"/>
<path d="M489 863C490.419 866.833 489.573 869.632 488.566 873.516C488.247 874.766 487.928 876.016 487.6 877.305C487.254 878.62 486.908 879.935 486.562 881.25C486.22 882.581 485.878 883.911 485.537 885.242C484.7 888.497 483.854 891.749 483 895C482.67 895 482.34 895 482 895C482.584 888.224 483.855 881.765 485.379 875.137C486.129 871.879 486.129 871.879 486 868C486.66 868 487.32 868 488 868C488.33 866.35 488.66 864.7 489 863Z" fill="#F68876"/>
<path d="M813 341C813.66 341.33 814.32 341.66 815 342C814.434 342.422 813.868 342.843 813.285 343.277C812.552 343.825 811.818 344.373 811.063 344.938C810.332 345.483 809.601 346.028 808.848 346.59C807.087 347.869 807.087 347.869 806 349C805.603 353.968 805.603 353.968 807.5 358.438C807.995 358.953 808.49 359.469 809 360C806.514 359.669 805.325 359.387 803.688 357.438C802.637 353.712 802.453 350.543 804 347C806.761 344.54 809.744 342.736 813 341Z" fill="#F7F5F2"/>
<path d="M363 881C363.33 881.66 363.66 882.32 364 883C363.11 885.49 362.166 887.887 361.125 890.312C359.351 894.488 357.682 898.482 357 903C356.34 903 355.68 903 355 903C354.67 903.66 354.34 904.32 354 905C354.617 899.627 356.407 895.117 358.5 890.188C358.981 889.024 358.981 889.024 359.473 887.838C361.852 882.148 361.852 882.148 363 881Z" fill="#F68B79"/>
<path d="M472 940C472.99 940 473.98 940 475 940C474.036 950.558 474.036 950.558 473 955C470.285 950.758 470.511 946.383 471.5 941.562C471.665 941.047 471.83 940.531 472 940Z" fill="#F47A68"/>
<path d="M867 686C867.33 686 867.66 686 868 686C867.67 690.29 867.34 694.58 867 699C866.01 699 865.02 699 864 699C863.822 694.463 863.954 691.092 866 687C866.33 686.67 866.66 686.34 867 686Z" fill="#F2E9E3"/>
<path d="M676 612C680.308 613.566 684.062 615.683 688 618C687.01 618.495 687.01 618.495 686 619C683.64 618.064 681.304 617.067 679 616C678.34 617.65 677.68 619.3 677 621C676.67 621 676.34 621 676 621C676 618.03 676 615.06 676 612Z" fill="#FAF8F6"/>
<path d="M496 958C496.33 958 496.66 958 497 958C497 962.29 497 966.58 497 971C493.04 971 489.08 971 485 971C485 970.67 485 970.34 485 970C487.97 969.34 490.94 968.68 494 968C494.66 964.7 495.32 961.4 496 958Z" fill="#E27665"/>
<path d="M794 414C795.98 414.66 797.96 415.32 800 416C800 416.99 800 417.98 800 419C800.66 419 801.32 419 802 419C803.289 420.531 803.289 420.531 804.625 422.5C805.071 423.15 805.517 423.799 805.977 424.469C806.483 425.227 806.483 425.227 807 426C804 426 804 426 802.281 424.391C801.4 423.331 801.4 423.331 800.5 422.25C799.912 421.554 799.324 420.858 798.719 420.141C797.1 418.125 795.536 416.079 794 414Z" fill="#F6F4F0"/>
<path d="M736 507C736.99 507.33 737.98 507.66 739 508C738.481 508.436 737.961 508.871 737.426 509.32C733.168 512.957 729.445 516.586 726 521C725.67 520.01 725.34 519.02 725 518C728.63 514.37 732.26 510.74 736 507Z" fill="#FCFBFA"/>
<path d="M653 316C655.97 316 658.94 316 662 316C661.67 316.99 661.34 317.98 661 319C657.7 319.33 654.4 319.66 651 320C651 319.34 651 318.68 651 318C651.66 318 652.32 318 653 318C653 317.34 653 316.68 653 316Z" fill="#EDE5DF"/>
<path d="M898 278C903.405 279.52 906.985 283.274 911 287C910.01 287.33 909.02 287.66 908 288C906.33 286.524 904.664 285.044 903 283.562C902.072 282.739 901.144 281.915 900.188 281.066C899.466 280.384 898.744 279.703 898 279C898 278.67 898 278.34 898 278Z" fill="#F2EFED"/>
<path d="M481 896C481.33 896 481.66 896 482 896C481.886 897.772 481.758 899.542 481.625 901.312C481.521 902.792 481.521 902.792 481.414 904.301C481 907 481 907 479 910C478.67 907.69 478.34 905.38 478 903C478.66 903 479.32 903 480 903C480.33 900.69 480.66 898.38 481 896Z" fill="#F98A77"/>
<path d="M933 353C933.99 353 934.98 353 936 353C936.125 356.375 936.125 356.375 936 360C935.34 360.66 934.68 361.32 934 362C932.522 359.043 932.94 356.258 933 353Z" fill="#F0E5DD"/>
<path d="M533 357C533 357.66 533 358.32 533 359C533.99 359.33 534.98 359.66 536 360C529.375 360.25 529.375 360.25 526 358C529 357 529 357 533 357Z" fill="#EDE4DD"/>
<path d="M847 355C847 355.66 847 356.32 847 357C844.69 357.33 842.38 357.66 840 358C839.67 357.34 839.34 356.68 839 356C844.75 353.875 844.75 353.875 847 355Z" fill="#F1EBE6"/>
<path d="M863 348C863 348.66 863 349.32 863 350C860.439 352.296 859.52 353 856 353C856 352.01 856 351.02 856 350C860.75 348 860.75 348 863 348Z" fill="#F1EBE6"/>
<path d="M742 56C744.64 56 747.28 56 750 56C750 56.33 750 56.66 750 57C747.36 57 744.72 57 742 57C742 56.67 742 56.34 742 56Z" fill="#090909"/>
<path d="M312 928C312.99 928.33 313.98 928.66 315 929C314.01 929.99 313.02 930.98 312 932C312 930.68 312 929.36 312 928Z" fill="#2E1D1C"/>
<path d="M309 521C309.33 521 309.66 521 310 521C310 523.31 310 525.62 310 528C309.67 528 309.34 528 309 528C309 525.69 309 523.38 309 521Z" fill="#151514"/>
<path d="M368 400C368.99 400 369.98 400 371 400C371 400.66 371 401.32 371 402C370.01 402 369.02 402 368 402C368 401.34 368 400.68 368 400Z" fill="#101110"/>
<path d="M1189 729C1189.66 729.99 1190.32 730.98 1191 732C1190.01 731.67 1189.02 731.34 1188 731C1188.33 730.34 1188.66 729.68 1189 729Z" fill="#161313"/>
<path d="M754 56C754.99 56.33 755.98 56.66 757 57C756.01 57.33 755.02 57.66 754 58C754 57.34 754 56.68 754 56Z" fill="#0D0C0B"/>
<path d="M1090 971C1091.49 971.99 1091.49 971.99 1093 973C1092.01 973 1091.02 973 1090 973C1090 972.34 1090 971.68 1090 971Z" fill="#FB705E"/>
<path d="M85 853C85.66 853 86.32 853 87 853C86.67 853.99 86.34 854.98 86 856C85.67 855.01 85.34 854.02 85 853Z" fill="#8A8888"/>
<path d="M85 789C85.66 789 86.32 789 87 789C86.67 789.99 86.34 790.98 86 792C85.67 791.01 85.34 790.02 85 789Z" fill="#8C8B8B"/>
<path d="M1199 647C1200 651 1200 651 1200 651L1199 647Z" fill="#161516"/>
<path d="M1188 622C1188.99 622.33 1189.98 622.66 1191 623C1190.01 623 1189.02 623 1188 623C1188 622.67 1188 622.34 1188 622Z" fill="#181716"/>
<path d="M376 399C376.66 399.33 377.32 399.66 378 400C377.01 400 376.02 400 375 400C375.33 399.67 375.66 399.34 376 399Z" fill="#0D0D0C"/>
<path d="M85 213C85.66 213 86.32 213 87 213C86.67 213.99 86.34 214.98 86 216C85.67 215.01 85.34 214.02 85 213Z" fill="#A4A5A5"/>
<path d="M1014 198C1015 202 1015 202 1015 202L1014 198Z" fill="#090909"/>
<path d="M585 97C586 101 586 101 586 101L585 97Z" fill="#0F100F"/>
<path d="M655 65C655.99 66.485 655.99 66.485 657 68C656.34 68 655.68 68 655 68C655 67.01 655 66.02 655 65Z" fill="#0F0E0C"/>
<path d="M765 58C769 59 769 59 769 59L765 58Z" fill="#0C0C0A"/>
<path d="M85 933C85.66 933 86.32 933 87 933C86.67 933.66 86.34 934.32 86 935C85.67 934.34 85.34 933.68 85 933Z" fill="#898685"/>
<path d="M85 869C85.66 869 86.32 869 87 869C86.67 869.66 86.34 870.32 86 871C85.67 870.34 85.34 869.68 85 869Z" fill="#8A8787"/>
<path d="M85 821C85.66 821 86.32 821 87 821C86.67 821.66 86.34 822.32 86 823C85.67 822.34 85.34 821.68 85 821Z" fill="#8C8A8A"/>
<path d="M85 781C85.66 781 86.32 781 87 781C86.67 781.66 86.34 782.32 86 783C85.67 782.34 85.34 781.68 85 781Z" fill="#8E8C8C"/>
<path d="M85 693C85.66 693 86.32 693 87 693C86.67 693.66 86.34 694.32 86 695C85.67 694.34 85.34 693.68 85 693Z" fill="#919190"/>
<path d="M296 666C296.33 666.66 296.66 667.32 297 668C296.34 667.67 295.68 667.34 295 667C295.33 666.67 295.66 666.34 296 666Z" fill="#100E0F"/>
<path d="M317 641C317.99 641.495 317.99 641.495 319 642C318.01 642.495 318.01 642.495 317 643C317 642.34 317 641.68 317 641Z" fill="#0E0E0E"/>
<path d="M1190 624C1190.66 624.66 1191.32 625.32 1192 626C1191.34 626 1190.68 626 1190 626C1190 625.34 1190 624.68 1190 624Z" fill="#141312"/>
<path d="M316 467C316.33 467.66 316.66 468.32 317 469C316.34 468.67 315.68 468.34 315 468C315.33 467.67 315.66 467.34 316 467Z" fill="#141413"/>
<path d="M995 162C995.99 162.495 995.99 162.495 997 163C996.01 163.495 996.01 163.495 995 164C995 163.34 995 162.68 995 162Z" fill="#0F0E0D"/>
<path d="M998 160C998.66 160 999.32 160 1000 160C999.67 160.66 999.34 161.32 999 162C998.67 161.34 998.34 160.68 998 160Z" fill="#111110"/>
<path d="M926 112C929 113 929 113 929 113L926 112Z" fill="#0B0B09"/>
<path d="M888 104C891 105 891 105 891 105L888 104Z" fill="#080807"/>
<path d="M640 72C643 73 643 73 643 73L640 72Z" fill="#0A0909"/>
<path d="M659 65C659.33 65.66 659.66 66.32 660 67C659.34 66.67 658.68 66.34 658 66C658.33 65.67 658.66 65.34 659 65Z" fill="#0C0D0C"/>
<path d="M712 56C715 57 715 57 715 57L712 56Z" fill="#090908"/>
<path d="M948 1021C950 1022 950 1022 950 1022L948 1021Z" fill="#FD755E"/>
<path d="M948 1013C950 1014 950 1014 950 1014L948 1013Z" fill="#FC755F"/>
<path d="M948 997C950 998 950 998 950 998L948 997Z" fill="#FD745F"/>
<path d="M1090 979C1092 980 1092 980 1092 980L1090 979Z" fill="#FA715E"/>
<path d="M1198 972C1200 973 1200 973 1200 973L1198 972Z" fill="#A55347"/>
<path d="M1187 972C1189 973 1189 973 1189 973L1187 972Z" fill="#D66457"/>
<path d="M478 972C480 973 480 973 480 973L478 972Z" fill="#C3584B"/>
<path d="M84 818C86 819 86 819 86 819L84 818Z" fill="#8C8B8A"/>
<path d="M317 779C319 780 319 780 319 780L317 779Z" fill="#100D0D"/>
<path d="M1169 755C1171 756 1171 756 1171 756L1169 755Z" fill="#141310"/>
<path d="M288 752C290 753 290 753 290 753L288 752Z" fill="#141311"/>
<path d="M85 749C87 750 87 750 87 750L85 749Z" fill="#8F8E8D"/>
<path d="M328 627C330 628 330 628 330 628L328 627Z" fill="#0E0E0D"/>
<path d="M312 469C314 470 314 470 314 470L312 469Z" fill="#171614"/>
<path d="M393 384C395 385 395 385 395 385L393 384Z" fill="#0E0E0E"/>
<path d="M403 380C405 381 405 381 405 381L403 380Z" fill="#0E0E0B"/>
<path d="M409 376C411 377 411 377 411 377L409 376Z" fill="#080706"/>
<path d="M1069 355C1071 356 1071 356 1071 356L1069 355Z" fill="#0F100E"/>
<path d="M1068 353C1070 354 1070 354 1070 354L1068 353Z" fill="#100F0E"/>
<path d="M1090 347C1092 348 1092 348 1092 348L1090 347Z" fill="#20201F"/>
<path d="M85 341C87 342 87 342 87 342L85 341Z" fill="#A5A4A4"/>
<path d="M1090 323C1092 324 1092 324 1092 324L1090 323Z" fill="#272626"/>
<path d="M1090 315C1092 316 1092 316 1092 316L1090 315Z" fill="#292726"/>
<path d="M1044 307C1046 308 1046 308 1046 308L1044 307Z" fill="#121412"/>
<path d="M1042 301C1044 302 1044 302 1044 302L1042 301Z" fill="#121413"/>
<path d="M1042 293C1044 294 1044 294 1044 294L1042 293Z" fill="#131413"/>
<path d="M1090 291C1092 292 1092 292 1092 292L1090 291Z" fill="#2B2B2B"/>
<path d="M1042 261C1044 262 1044 262 1044 262L1042 261Z" fill="#151616"/>
<path d="M1090 251C1092 252 1092 252 1092 252L1090 251Z" fill="#2F2F2E"/>
<path d="M1090 243C1092 244 1092 244 1092 244L1090 243Z" fill="#303030"/>
<path d="M1090 227C1092 228 1092 228 1092 228L1090 227Z" fill="#333331"/>
<path d="M489 227C491 228 491 228 491 228L489 227Z" fill="#0D0D0E"/>
<path d="M492 219C494 220 494 220 494 220L492 219Z" fill="#110F10"/>
<path d="M1090 163C1092 164 1092 164 1092 164L1090 163Z" fill="#413F3E"/>
<path d="M528 152C530 153 530 153 530 153L528 152Z" fill="#100F0F"/>
<path d="M1090 147C1092 148 1092 148 1092 148L1090 147Z" fill="#454443"/>
<path d="M1090 123C1092 124 1092 124 1092 124L1090 123Z" fill="#4B4B4A"/>
<path d="M563 120C565 121 565 121 565 121L563 120Z" fill="#0D0D0C"/>
<path d="M570 114C572 115 572 115 572 115L570 114Z" fill="#0D0C0C"/>
<path d="M569 112C571 113 571 113 571 113L569 112Z" fill="#0A0D0D"/>
<path d="M1090 107C1092 108 1092 108 1092 108L1090 107Z" fill="#515050"/>
<path d="M909 107C911 108 911 108 911 108L909 107Z" fill="#0B0B0B"/>
<path d="M588 97C590 98 590 98 590 98L588 97Z" fill="#10100E"/>
<path d="M1090 91C1092 92 1092 92 1092 92L1090 91Z" fill="#555555"/>
<path d="M608 88C610 89 610 89 610 89L608 88Z" fill="#0A0C0B"/>
<path d="M1090 83C1092 84 1092 84 1092 84L1090 83Z" fill="#585857"/>
<path d="M648 69C650 70 650 70 650 70L648 69Z" fill="#0D0D0C"/>
<path d="M652 68C654 69 654 69 654 69L652 68Z" fill="#0D0C0B"/>
<path d="M1090 67C1092 68 1092 68 1092 68L1090 67Z" fill="#5D5D5C"/>
<path d="M1090 59C1092 60 1092 60 1092 60L1090 59Z" fill="#5F5F5E"/>
<path d="M770 59C772 60 772 60 772 60L770 59Z" fill="#0C0D0D"/>
<path d="M759 57C761 58 761 58 761 58L759 57Z" fill="#0B0C0B"/>
<path d="M699 57C701 58 701 58 701 58L699 57Z" fill="#0D0D0A"/>
<path d="M751 56C753 57 753 57 753 57L751 56Z" fill="#0A0C0A"/>
<path d="M1090 51C1092 52 1092 52 1092 52L1090 51Z" fill="#616161"/>
<path d="M1090 43C1092 44 1092 44 1092 44L1090 43Z" fill="#646464"/>
<path d="M948 37C950 38 950 38 950 38L948 37Z" fill="#424242"/>
<path d="M1090 35C1092 36 1092 36 1092 36L1090 35Z" fill="#686767"/>
<path d="M1090 27C1092 28 1092 28 1092 28L1090 27Z" fill="#6A6A6A"/>
<path d="M948 21C950 22 950 22 950 22L948 21Z" fill="#494948"/>
<path d="M1090 11C1092 12 1092 12 1092 12L1090 11Z" fill="#706F6F"/>
<path d="M85 5C87 6 87 6 87 6L85 5Z" fill="#B4B5B5"/>
<path d="M1090 3C1092 4 1092 4 1092 4L1090 3Z" fill="#727371"/>
</svg>
