<svg width="1536" height="1024" viewBox="0 0 1536 1024" fill="none" xmlns="http://www.w3.org/2000/svg">
<path d="M794.301 63.2655C797 63.9998 799.219 64.1417 802 63.9999C802.33 64.6599 802.66 65.3199 803 65.9999C805.488 67.0626 807.972 68.0433 810.5 68.9999C824.243 74.4423 837.925 82.0983 849 91.9999C849 92.6599 849 93.3199 849 93.9999C849.572 94.2345 850.145 94.4691 850.734 94.7108C853.517 96.2939 855.171 98.199 857.25 100.625C858.31 101.851 858.31 101.851 859.391 103.101C859.922 103.728 860.453 104.354 861 105C861.66 104.67 862.32 104.34 863 104C863 104.66 863 105.32 863 106C865.97 106 868.94 106 872 106C872 105.34 872 104.68 872 104C875.125 103.971 878.25 103.953 881.375 103.937C882.264 103.929 883.154 103.921 884.07 103.912C884.921 103.909 885.772 103.906 886.648 103.902C887.434 103.897 888.219 103.892 889.029 103.886C891 104 891 104 893 105C894.403 105.24 895.814 105.438 897.227 105.613C898.517 105.781 898.517 105.781 899.833 105.952C900.754 106.071 901.676 106.19 902.625 106.312C928.142 109.761 928.142 109.761 936 115C937.334 115.705 938.677 116.393 940.027 117.066C961.567 127.976 980.038 142.721 993.59 162.969C994.977 165.096 994.977 165.096 997 167C999.194 170.56 1001.08 174.286 1003 178C1003.51 178.985 1003.51 178.985 1004.03 179.99C1011.99 195.562 1017.98 211.971 1022 229C1022.66 229 1023.32 229 1024 229C1023.94 230.134 1023.88 231.269 1023.81 232.437C1023.79 238.017 1024.85 243.344 1025.93 248.795C1026.8 253.289 1027.14 257.42 1027 262C1027.66 262.33 1028.32 262.66 1029 263C1029.16 264.828 1029.22 266.665 1029.25 268.5C1029.66 275.843 1031.15 282.735 1032.88 289.875C1033.13 290.944 1033.39 292.013 1033.65 293.115C1035.09 298.922 1036.78 304.443 1039 310C1039.33 310.99 1039.66 311.98 1040 313C1040.98 315.008 1041.98 317.009 1043 319C1043.99 319 1044.98 319 1046 319C1045.34 319.99 1044.68 320.98 1044 322C1044.47 322.577 1044.95 323.155 1045.44 323.75C1047 326 1047 326 1047.48 327.928C1050.47 339.856 1061.92 351.145 1070 360C1070.47 360.515 1070.93 361.03 1071.41 361.561C1075.55 366.143 1079.75 370.666 1083.97 375.18C1087 378.433 1090.01 381.706 1093 385C1093.46 385.511 1093.93 386.022 1094.41 386.549C1118.64 413.501 1132.41 443.976 1131.24 480.449C1130.66 489.149 1128.65 497.611 1126.68 506.084C1121.63 527.869 1116.95 549.54 1129.16 569.939C1133.8 577.606 1133.8 577.606 1139.47 584.465C1161.41 606.444 1176.98 641.14 1177.25 672.062C1177.07 696.377 1168.57 717.665 1153 736C1152.18 736.995 1151.36 737.99 1150.52 739.016C1143.22 747.466 1134.51 755.087 1125 761C1124.34 761 1123.68 761 1123 761C1123.36 761.663 1123.72 762.327 1124.1 763.011C1125.73 766.007 1127.37 769.003 1129 772C1129.5 772.92 1130 773.839 1130.52 774.787C1134.37 781.846 1138.19 788.92 1142 796C1142.52 796.971 1143.05 797.942 1143.59 798.943C1155.43 820.921 1165.21 843.649 1174 867C1174.47 868.227 1174.93 869.454 1175.41 870.719C1182.92 890.561 1189.51 910.502 1195 931C1195.44 932.619 1195.44 932.619 1195.88 934.271C1196.65 937.176 1197.4 940.085 1198.12 943C1198.44 944.236 1198.44 944.236 1198.77 945.497C1199.91 950.299 1200.17 954.1 1199 959C1196.92 961.897 1195.42 963.645 1191.89 964.527C1189.94 964.78 1187.97 964.9 1186 965C1185.67 965.99 1185.34 966.98 1185 968C1184.81 967.443 1184.63 966.886 1184.44 966.312C1182.19 962.696 1179.92 960.565 1176 959C1171.54 958.489 1167.14 958.657 1162.67 958.872C1159.62 959.018 1156.57 959.131 1153.52 959.242C1150 959.371 1146.48 959.501 1142.96 959.639C1120.42 960.513 1120.42 960.513 1113.2 959.43C1110.11 958.709 1110.11 958.709 1108 960C1104.88 960.237 1101.75 960.185 1098.62 960.187C1097.76 960.2 1096.9 960.212 1096.01 960.224C1095.17 960.226 1094.34 960.228 1093.48 960.23C1092.71 960.234 1091.95 960.239 1091.17 960.243C1088.74 959.97 1087.11 959.208 1085 958C1084.67 958.66 1084.34 959.32 1084 960C1083.5 959.835 1083.01 959.67 1082.5 959.5C1077.74 958.549 1072.64 958.453 1068 960C1068 959.34 1068 958.68 1068 958C1059.38 957.859 1059.38 957.859 1051.94 961.437C1051.3 962.283 1050.66 963.129 1050 964C1047.81 965.187 1047.81 965.187 1046 966C1045.34 966.66 1044.68 967.32 1044 968C1043.6 967.519 1043.2 967.038 1042.79 966.543C1040.57 964.626 1039.21 964.522 1036.31 964.312C1035.5 964.247 1034.7 964.181 1033.86 964.113C1032.94 964.057 1032.94 964.057 1032 964C1032.17 963.361 1032.33 962.721 1032.5 962.062C1033.04 960.192 1033.04 960.192 1033 959C1016.5 959 1000 959 983 959C983 959.33 983 959.66 983 960C961.22 960 939.44 960 917 960C917 959.67 917 959.34 917 959C910.913 958.975 904.826 958.957 898.738 958.945C896.666 958.94 894.594 958.933 892.522 958.924C889.549 958.912 886.575 958.907 883.602 958.902C882.671 958.897 881.741 958.892 880.783 958.887C879.491 958.886 879.492 958.886 878.174 958.886C877.035 958.883 877.035 958.883 875.873 958.88C873.908 958.884 873.908 958.884 872 960C872 959.34 872 958.68 872 958C867.38 958.33 862.76 958.66 858 959C858 959.33 858 959.66 858 960C852.667 960 847.333 960 842 960C840.904 960.011 839.809 960.023 838.68 960.035C836.796 960.049 836.796 960.049 834.875 960.062C832.984 960.08 832.984 960.08 831.055 960.098C828 960 828 960 827 959C824.756 958.9 822.508 958.869 820.262 958.867C819.246 958.866 819.246 958.866 818.21 958.864C816.773 958.863 815.336 958.865 813.9 958.87C811.707 958.875 809.515 958.87 807.322 958.863C805.927 958.864 804.532 958.865 803.137 958.867C801.865 958.868 800.594 958.869 799.284 958.87C796.636 958.975 794.506 959.207 792 960C792 959.34 792 958.68 792 958C790.02 958.33 788.04 958.66 786 959C786 959.33 786 959.66 786 960C784.35 960 782.7 960 781 960C781 959.67 781 959.34 781 959C776.38 959 771.76 959 767 959C767 959.33 767 959.66 767 960C734 960 701 960 668 960C668 959.67 668 959.34 668 959C663.355 958.975 658.71 958.957 654.066 958.945C652.486 958.94 650.906 958.933 649.325 958.924C647.054 958.912 644.783 958.907 642.512 958.902C641.805 958.897 641.099 958.892 640.371 958.887C637.297 958.886 634.941 959.02 632 960C632 959.34 632 958.68 632 958C619.79 958.33 607.58 958.66 595 959C595 959.33 595 959.66 595 960C582.13 960 569.26 960 556 960C556 959.67 556 959.34 556 959C548.42 958.873 540.84 958.785 533.258 958.725C530.68 958.7 528.102 958.666 525.524 958.623C521.815 958.562 518.108 958.534 514.398 958.512C513.248 958.486 512.098 958.46 510.913 958.433C504.128 958.322 504.128 958.322 498.374 961.48C497.59 962.311 496.807 963.143 496 964C491.837 965.422 488.213 965.539 484.188 963.75C482.83 962.664 481.49 961.554 480.18 960.411C477.542 958.703 476.056 958.638 472.938 958.672C471.976 958.677 471.014 958.682 470.023 958.687C468.527 958.718 468.527 958.718 467 958.75C466.002 958.755 465.005 958.76 463.977 958.766C458.948 958.736 458.948 958.736 454.009 959.504C451.554 960.11 449.318 960.13 446.789 960.133C445.292 960.135 445.292 960.135 443.766 960.137C442.729 960.133 441.693 960.129 440.625 960.125C439.596 960.129 438.568 960.133 437.508 960.137C432.531 960.13 427.909 959.879 423 959C422.34 959.33 421.68 959.66 421 960C419.139 959.766 417.278 959.527 415.42 959.266C410.855 958.764 406.275 958.857 401.688 958.875C400.699 958.871 399.711 958.867 398.693 958.863C397.747 958.864 396.8 958.866 395.824 958.867C394.969 958.868 394.114 958.869 393.233 958.87C390.828 958.912 390.828 958.912 388 960C385.559 960.084 383.147 960.116 380.707 960.098C380.001 960.096 379.295 960.095 378.568 960.093C376.316 960.088 374.064 960.075 371.812 960.062C370.285 960.057 368.757 960.053 367.229 960.049C363.486 960.038 359.743 960.02 356 960C356 960.66 356 961.32 356 962C352.442 964.616 349.355 965.493 345 966C345 965.34 345 964.68 345 964C344.257 963.959 343.515 963.917 342.75 963.875C339.766 962.925 338.353 961.912 336.723 959.219C335.049 954.08 335.432 948.317 336 943C336.66 942.01 337.32 941.02 338 940C338.775 937.355 339.478 934.738 340.125 932.062C340.307 931.346 340.489 930.63 340.676 929.892C341.521 926.465 342 923.552 342 920C342.66 920 343.32 920 344 920C344.102 919.339 344.205 918.677 344.31 917.996C345.486 910.937 347.338 904.335 349.625 897.562C350.268 895.649 350.907 893.734 351.539 891.816C351.96 890.57 351.96 890.57 352.389 889.299C353.171 886.752 353.171 886.752 353 883C353.66 883 354.32 883 355 883C355.226 881.795 355.451 880.589 355.684 879.348C357.409 871.578 360.574 864.259 363.455 856.861C365.749 850.843 367.61 845.447 368 839C368.66 839 369.32 839 370 839C370.29 838.304 370.58 837.607 370.879 836.89C377.349 821.429 384.156 806.203 391.542 791.157C392.109 790.001 392.677 788.844 393.262 787.652C393.767 786.631 394.272 785.61 394.792 784.558C396.076 781.971 396.076 781.971 397 779C395.899 778.654 395.899 778.654 394.775 778.301C363.259 768.315 333.886 755.081 316.508 725.152C315.113 722.707 315.113 722.707 312 722C312.33 721.01 312.66 720.02 313 719C312.312 716.427 312.312 716.427 311.188 713.687C310.815 712.715 310.442 711.743 310.059 710.742C309.535 709.385 309.535 709.385 309 708C308.323 706.003 307.65 704.005 307 702C306.67 702 306.34 702 306 702C305.67 699.69 305.34 697.38 305 695C305.33 695 305.66 695 306 695C306.037 693.924 306.075 692.847 306.113 691.738C307.449 659.595 323.4 637.701 344.625 614.937C354.743 604.731 354.743 604.731 360 592C360.66 592 361.32 592 362 592C365.615 584.984 368 578.941 368 571C368 570.126 368 569.252 368 568.351C367.662 560.986 365.485 554.492 362 548C361.34 547.67 360.68 547.34 360 547C359.649 545.003 359.32 543.002 359 541C357.78 537.631 356.422 534.337 355.059 531.023C354 528 354 528 354 524C353.34 523.67 352.68 523.34 352 523C351.35 512.429 350.72 501.896 351.375 491.312C351.418 490.613 351.461 489.914 351.506 489.193C351.838 484.637 352.934 481.061 354.812 476.937C356.243 473.759 357.566 470.567 358.812 467.312C370.851 437.123 392.842 411.361 414.602 387.68C417.774 384.135 420.741 380.443 423.723 376.738C426.036 373.956 428.462 371.325 430.938 368.687C434.766 364.523 438.205 360.213 441.5 355.625C442.132 354.75 442.132 354.75 442.777 353.858C445.005 350.691 446.738 347.664 448 344C448.66 344 449.32 344 450 344C450.267 343.295 450.534 342.59 450.809 341.863C452.059 338.857 453.533 336.062 455.062 333.187C462.945 317.833 472.502 297.489 472 280C472.66 280 473.32 280 474 280C475.592 274.429 476.207 269.789 476 264C476.99 264 477.98 264 479 264C479.229 262.822 479.459 261.643 479.695 260.43C481.085 254.183 483.154 248.161 485.204 242.108C485.871 240.137 486.532 238.164 487.191 236.191C489.441 229.483 491.759 222.805 494.208 216.167C494.834 214.455 495.423 212.729 496 211C496.66 210.34 497.32 209.68 498 209C498.875 207.35 499.7 205.673 500.496 203.984C500.972 202.98 501.449 201.976 501.939 200.941C502.434 199.888 502.928 198.835 503.438 197.75C504.415 195.682 505.393 193.614 506.371 191.547C506.829 190.577 507.286 189.607 507.757 188.607C508.741 186.543 509.757 184.495 510.785 182.453C512.09 179.96 512.09 179.96 513 177C513.33 177.33 513.66 177.66 514 178C514.583 177.031 515.165 176.061 515.766 175.062C531.226 149.653 550.462 126.329 574 108C576.756 105.749 579.482 103.518 582 101C583.66 99.9884 585.328 98.9911 587 97.9999C588.149 97.247 589.293 96.4873 590.434 95.7225C613.599 80.2721 649.62 57.1044 679 58.9999C679.33 58.0099 679.66 57.0199 680 55.9999C680 56.6599 680 57.3199 680 57.9999C680.86 57.8714 680.86 57.8714 681.737 57.7404C719.1 52.1914 758.098 50.9612 794.301 63.2655ZM477 265C478 268 478 268 478 268L477 265ZM745 958C745 958.33 745 958.66 745 959C748.3 959 751.6 959 755 959C755 958.67 755 958.34 755 958C751.7 958 748.4 958 745 958ZM829 958C829 958.33 829 958.66 829 959C830.98 959 832.96 959 835 959C835 958.67 835 958.34 835 958C833.02 958 831.04 958 829 958Z" fill="black"/>
<path d="M892 644C898.793 644.611 905.204 645.827 911.812 647.5C912.847 647.761 913.881 648.023 914.946 648.292C966.82 661.743 1016.91 682.67 1057 719C1058.11 719.986 1059.22 720.972 1060.32 721.957C1072.52 732.903 1083.15 744.922 1093 758C1093.79 759.029 1094.57 760.057 1095.38 761.117C1103.82 772.502 1110.87 784.773 1118 797C1118.48 797.82 1118.96 798.641 1119.45 799.486C1146.7 846.351 1164.85 899.375 1177.15 951.992C1177.32 952.697 1177.48 953.402 1177.65 954.128C1178 956 1178 956 1178 959C1177.01 958.988 1176.03 958.977 1175.01 958.965C1165.45 958.892 1155.93 959.114 1146.38 959.5C1120.52 960.529 1120.52 960.529 1113.2 959.43C1110.11 958.71 1110.11 958.71 1108 960C1104.88 960.238 1101.75 960.185 1098.62 960.188C1097.76 960.2 1096.9 960.212 1096.01 960.225C1094.75 960.228 1094.75 960.228 1093.48 960.23C1092.71 960.235 1091.95 960.239 1091.17 960.243C1088.74 959.97 1087.11 959.208 1085 958C1084.67 958.66 1084.34 959.32 1084 960C1083.5 959.835 1083.01 959.67 1082.5 959.5C1077.74 958.549 1072.64 958.453 1068 960C1068 959.34 1068 958.68 1068 958C1059.38 957.859 1059.38 957.859 1051.94 961.438C1050.98 962.706 1050.98 962.706 1050 964C1047.81 965.188 1047.81 965.188 1046 966C1045.34 966.66 1044.68 967.32 1044 968C1043.6 967.519 1043.2 967.038 1042.79 966.543C1040.57 964.626 1039.21 964.523 1036.31 964.312C1035.1 964.214 1035.1 964.214 1033.86 964.113C1033.25 964.076 1032.63 964.039 1032 964C1032.17 963.361 1032.33 962.721 1032.5 962.062C1033.04 960.192 1033.04 960.192 1033 959C1016.5 959 1000 959 983 959C983 959.33 983 959.66 983 960C961.22 960 939.44 960 917 960C917 959.67 917 959.34 917 959C910.913 958.975 904.826 958.957 898.738 958.945C896.666 958.94 894.594 958.933 892.522 958.925C889.549 958.912 886.575 958.907 883.602 958.902C882.671 958.897 881.741 958.892 880.783 958.887C879.491 958.887 879.492 958.887 878.174 958.886C877.415 958.884 876.655 958.882 875.873 958.88C873.908 958.884 873.908 958.884 872 960C872 959.34 872 958.68 872 958C867.38 958.33 862.76 958.66 858 959C858 959.33 858 959.66 858 960C852.667 960 847.333 960 842 960C840.904 960.012 839.809 960.023 838.68 960.035C836.796 960.049 836.796 960.049 834.875 960.062C832.984 960.08 832.984 960.08 831.055 960.098C828 960 828 960 827 959C824.756 958.9 822.508 958.869 820.262 958.867C819.585 958.866 818.907 958.865 818.21 958.864C816.773 958.864 815.336 958.865 813.9 958.87C811.707 958.875 809.515 958.87 807.322 958.863C805.927 958.864 804.532 958.865 803.137 958.867C801.865 958.868 800.594 958.869 799.284 958.871C796.636 958.975 794.506 959.207 792 960C792 959.34 792 958.68 792 958C790.02 958.33 788.04 958.66 786 959C786 959.33 786 959.66 786 960C784.35 960 782.7 960 781 960C781 959.67 781 959.34 781 959C776.38 959 771.76 959 767 959C767 959.33 767 959.66 767 960C734 960 701 960 668 960C668 959.67 668 959.34 668 959C663.355 958.975 658.71 958.957 654.066 958.945C652.486 958.94 650.906 958.933 649.325 958.925C647.054 958.912 644.783 958.907 642.512 958.902C641.805 958.897 641.099 958.892 640.371 958.887C637.297 958.886 634.941 959.02 632 960C632 959.34 632 958.68 632 958C619.79 958.33 607.58 958.66 595 959C595 959.33 595 959.66 595 960C582.13 960 569.26 960 556 960C556 959.67 556 959.34 556 959C548.42 958.873 540.84 958.786 533.258 958.725C530.68 958.7 528.102 958.666 525.524 958.623C521.815 958.562 518.108 958.534 514.398 958.512C513.248 958.486 512.098 958.46 510.913 958.434C504.128 958.322 504.128 958.322 498.374 961.48C497.59 962.311 496.807 963.143 496 964C491.837 965.422 488.213 965.539 484.188 963.75C482.83 962.664 481.49 961.555 480.18 960.411C477.542 958.703 476.056 958.639 472.938 958.672C471.976 958.677 471.014 958.682 470.023 958.688C468.527 958.718 468.527 958.718 467 958.75C466.002 958.755 465.005 958.76 463.977 958.766C458.948 958.736 458.948 958.736 454.009 959.504C451.554 960.11 449.318 960.13 446.789 960.133C445.292 960.135 445.292 960.135 443.766 960.137C442.729 960.133 441.693 960.129 440.625 960.125C439.082 960.131 439.082 960.131 437.508 960.137C432.531 960.13 427.909 959.879 423 959C422.34 959.33 421.68 959.66 421 960C419.139 959.766 417.278 959.528 415.42 959.267C410.855 958.764 406.275 958.857 401.688 958.875C400.205 958.869 400.205 958.869 398.693 958.863C397.747 958.865 396.8 958.866 395.824 958.867C394.969 958.868 394.114 958.869 393.233 958.871C390.828 958.913 390.828 958.913 388 960C386.648 960.092 385.292 960.131 383.938 960.133C382.749 960.136 382.749 960.136 381.536 960.139C380.699 960.134 379.862 960.13 379 960.125C378.149 960.123 377.299 960.121 376.423 960.119C370.237 960.077 364.145 959.727 358 959C365.107 881.624 406.303 788.917 459 733C459.69 732.268 460.379 731.536 461.09 730.781C466.337 725.373 472.069 720.635 478 716C478.577 715.546 479.155 715.092 479.75 714.625C521.58 681.934 570.861 664.011 621.562 650.188C622.373 649.964 623.184 649.741 624.019 649.511C626.303 648.886 628.59 648.275 630.879 647.668C631.558 647.482 632.238 647.296 632.938 647.105C636.184 646.264 637.744 645.915 641 647C640.651 647.785 640.301 648.57 639.941 649.379C639.486 650.429 639.031 651.48 638.562 652.562C637.884 654.111 637.884 654.111 637.191 655.691C630.91 673.134 635.216 694.748 642.598 711.172C657.753 741.736 684.717 761.814 716.527 772.675C729.064 776.772 742.005 780.082 755.238 780.273C756.028 780.286 756.818 780.299 757.631 780.312C800.1 780.856 837.831 771.269 869 741C880.677 729.359 888.828 716.616 894 701C894.414 699.757 894.828 698.515 895.254 697.234C900.684 679.332 899.105 661.154 892 644ZM745 958C745 958.33 745 958.66 745 959C748.3 959 751.6 959 755 959C755 958.67 755 958.34 755 958C751.7 958 748.4 958 745 958ZM829 958C829 958.33 829 958.66 829 959C830.98 959 832.96 959 835 959C835 958.67 835 958.34 835 958C833.02 958 831.04 958 829 958Z" fill="#F5A161"/>
<path d="M832 180C833.355 182.605 834.47 185.169 835.41 187.949C843.372 210.888 855.657 230.304 871 249C871.456 249.56 871.911 250.12 872.381 250.697C882.603 263.197 893.924 274.815 906.138 285.376C925.921 302.629 937.648 323.643 939.823 349.944C940.018 353.306 940.092 356.656 940.141 360.023C940.16 361.229 940.179 362.434 940.199 363.676C940.233 366.165 940.251 368.655 940.254 371.145C940.109 378.273 940.109 378.273 943.297 384.312C946.614 386.383 948.279 386.761 952.082 386.461C955.686 385.595 956.864 384.002 959 381C959.78 379.116 960.526 377.219 961.25 375.312C965.367 364.885 972.899 357.728 983 353C990.21 350.811 997.225 351.991 1004 355C1014.87 361.819 1020.42 370.888 1024 383C1029.15 405.502 1024.1 430.584 1012 450C1004.49 461.179 993.561 471.291 980 474C972.47 474.705 966.684 474.812 960 471C960.046 469.964 960.093 468.927 960.141 467.859C960.178 466.49 960.215 465.12 960.25 463.75C960.3 462.727 960.3 462.727 960.352 461.684C960.419 458.185 960.293 456.375 958.109 453.578C955.001 451.253 953.452 450.833 949.625 451.125C948.854 451.169 948.083 451.213 947.289 451.258C943.798 452.39 942.897 453.846 941 457C939.816 460.634 939.009 464.333 938.188 468.062C932.669 491.354 924.306 513.59 910 533C909.613 533.526 909.227 534.053 908.829 534.595C903.289 542.095 897.421 549.231 891 556C890.543 556.489 890.086 556.979 889.616 557.483C862.721 586.145 822.515 608.932 782.594 611.193C741.789 612.072 703.735 603.127 670 579C668.942 578.245 667.883 577.489 666.793 576.711C644.017 560.003 625.696 538.62 612 514C611.659 513.391 611.317 512.783 610.966 512.156C603.047 497.823 597.679 482.183 593.746 466.318C592.612 462.796 591.031 461.067 588 459C584.028 457.865 581.984 457.563 578.188 459.25C575.79 460.987 575.79 460.987 574 464C573.978 467.31 574.196 470.569 574.418 473.871C574 477 574 477 571.738 479.348C564.877 483.488 555.999 482.783 548.281 481.574C534.046 477.807 523.236 468.567 515.73 456.184C508.915 443.646 503.723 430.389 503 416C502.936 414.766 502.871 413.533 502.805 412.262C502.196 394.931 505.691 377.65 517.813 364.5C523.841 359.038 529.83 355.751 538.063 355.5C549.118 356.079 555.434 359.902 563 368C567.385 373.347 569.471 379.562 571.691 386.047C573.352 389.793 575.319 392.16 579 394C584.794 394.52 584.794 394.52 589.938 392.188C593.43 388.484 593.284 384.444 593.613 379.605C593.725 378.087 593.838 376.569 593.951 375.051C594.01 374.256 594.068 373.462 594.129 372.643C595.551 353.641 598.274 335.478 603 317C604.085 316.825 605.17 316.649 606.288 316.469C629.067 312.767 651.648 308.818 674 303C674.914 302.765 675.827 302.53 676.769 302.288C698.829 296.493 720.267 287.407 740 276C740.675 275.61 741.35 275.22 742.045 274.819C758.007 265.472 773.205 254.524 786.416 241.554C788.103 239.899 789.811 238.266 791.52 236.633C808.511 220.217 821.288 201.009 832 180Z" fill="#FAC492"/>
<path d="M670 602C670.825 602.485 671.65 602.969 672.5 603.469C688.141 612.586 703.523 620.028 721 625C722.321 625.39 722.321 625.39 723.669 625.787C750.53 633.395 785.156 633.761 812 626C812.849 625.764 813.697 625.528 814.571 625.285C829.255 621.097 844.815 615.396 857.473 606.699C860 605 860 605 862 605C862.009 605.552 862.019 606.105 862.028 606.674C862.403 624.416 864.716 638.766 873.195 654.477C879.091 665.987 878.787 680.28 874.875 692.5C866.01 718.141 847.063 736.464 823.019 748.252C792.321 762.781 756.042 764.532 723.902 753.438C697.387 743.837 673.732 727.905 661 702C657.282 693.281 655.792 685.617 655.688 676.188C655.659 675.323 655.63 674.459 655.6 673.568C655.539 667.378 656.789 663.262 660 658C667.838 644.123 668.964 628.677 669.563 613C669.606 611.939 669.649 610.878 669.693 609.785C669.799 607.19 669.901 604.595 670 602Z" fill="#FAC492"/>
<path d="M828 482C832.576 485.152 832.576 485.152 834 488C834.944 495.552 832.513 500.019 828 506C815.308 521.341 796.516 528.959 777 531C754.149 532.454 729.469 529.124 711.688 513.562C698.07 500.68 698.07 500.68 697.562 491.937C698.047 487.577 698.895 486.014 702 483C705.064 481.468 707.617 481.77 711 482C715.013 483.956 717.202 486.235 719.812 489.812C728.205 500.584 739.559 506.111 753 508C753.727 508.111 754.454 508.222 755.203 508.336C772.532 510.642 789.121 508.35 804 499C809.045 495.139 812.273 490.371 815.445 484.918C818.885 480.674 823.025 480.549 828 482Z" fill="#020202"/>
<path d="M517 822C519.789 823.24 521.443 824.285 523.312 826.688C525.266 833.259 523.587 839.667 521.84 846.071C521.374 847.852 520.909 849.633 520.444 851.415C520.075 852.81 520.075 852.81 519.699 854.232C515.694 869.452 511.972 884.707 509.125 900.188C508.986 900.942 508.847 901.696 508.703 902.473C507.022 911.728 505.707 920.995 504.641 930.34C504.477 931.758 504.477 931.758 504.311 933.204C503.788 937.801 503.298 942.399 502.86 947.005C502.686 948.662 502.511 950.319 502.336 951.977C502.244 953.11 502.244 953.11 502.15 954.266C501.735 958.018 501.256 959.742 498.559 962.457C494.757 964.75 491.401 965.216 487 965C483.718 963.573 481.291 961.74 479 959C477.59 951.067 479.594 942.043 480.562 934.125C480.648 933.419 480.733 932.712 480.821 931.984C483.877 907.077 488.988 882.378 495.214 858.079C495.772 855.895 496.319 853.708 496.86 851.519C497.743 847.946 498.65 844.379 499.562 840.813C499.966 839.172 499.966 839.172 500.377 837.498C501.961 831.463 503.474 827.365 508 823C511.064 821.468 513.617 821.771 517 822Z" fill="#020302"/>
<path d="M1021.86 821.602C1025.39 822.259 1026.71 823.187 1029 826C1033.75 836.13 1035.82 847.619 1038.44 858.437C1038.68 859.439 1038.92 860.44 1039.18 861.472C1043.08 877.566 1046.45 893.631 1049 910C1049.38 912.362 1049.76 914.724 1050.14 917.086C1052.09 929.325 1054.02 941.523 1054.31 953.937C1054.37 955.529 1054.37 955.529 1054.43 957.152C1053.89 960.703 1052.76 961.79 1050 964C1048.68 964.697 1047.35 965.37 1046 966C1045.34 966.66 1044.68 967.32 1044 968C1043.6 967.519 1043.2 967.038 1042.79 966.543C1040.57 964.626 1039.21 964.523 1036.31 964.312C1035.1 964.214 1035.1 964.214 1033.86 964.113C1033.25 964.076 1032.63 964.039 1032 964C1032.19 963.422 1032.37 962.845 1032.56 962.25C1033.06 959.671 1032.64 958.538 1032 956C1031.67 953.53 1031.37 951.065 1031.09 948.59C1027.03 914.109 1021.14 880.186 1012.06 846.651C1011.74 845.45 1011.74 845.45 1011.42 844.226C1011.03 842.746 1010.62 841.268 1010.21 839.794C1009 835.205 1008.93 831.622 1010 827C1013.3 822.154 1016.25 821.211 1021.86 821.602Z" fill="#030403"/>
<path d="M653.937 388.531C658.131 389.484 660.472 391.205 662.844 394.777C663.39 395.82 663.937 396.863 664.5 397.937C667.273 403.215 670.041 406.4 675.312 409.25C679.871 410.522 683.793 410.969 688.152 409.055C693.056 406.151 696.274 402.893 699.207 397.976C699.634 397.262 700.06 396.548 700.5 395.812C701.072 394.801 701.072 394.801 701.656 393.769C703.249 391.673 704.562 390.946 707 390C711.047 389.472 712.715 389.839 716.312 391.875C719.669 394.529 719.889 395.146 720.437 399.375C720.288 407.591 715.292 415.024 709.875 420.875C700.417 429.722 689.927 432.492 677.379 432.277C666.201 431.795 657.827 426.215 650.312 418.312C645.541 412.565 641.44 405.813 641.875 398.125C642.483 395.02 643.228 393.662 645.062 390.937C648.357 388.764 650.101 388.469 653.937 388.531Z" fill="#020202"/>
<path d="M886 390C888.728 392.129 889.711 393.591 890.406 396.98C891.01 405.502 886.643 412.286 881.438 418.687C874.308 426.26 865.378 431.079 855 432C854.201 432.081 853.402 432.162 852.578 432.246C842.588 432.771 833.602 429.35 826.031 422.918C819.362 416.62 812.944 409.915 812.562 400.312C812.74 396.514 813.555 394.009 816 391C819.475 389.262 823.2 389.551 827 390C831.699 392.456 833.316 396.294 835.68 400.812C838.209 405.003 842.316 408.484 847 410C853.206 410.62 857.985 409.902 863 406C865.325 403.176 867.17 400.161 869 397C873.45 389.641 877.528 387.653 886 390Z" fill="#020202"/>
<path d="M884.758 334.938C888.264 338.162 889.866 340.752 890.375 345.5C889.973 349.249 889.34 351.074 887 354C883.556 356.583 880.181 356.314 876 356C873.488 354.794 871.317 353.62 869 352.125C861.443 347.351 854.746 345.628 845.812 345.688C844.979 345.69 844.145 345.693 843.287 345.696C835.578 345.825 828.539 347.122 821.395 350.078C818.053 351.364 815.555 351.374 812 351C808.889 349.356 806.711 347.97 804.625 345.125C803.393 340.935 803.566 338.041 805.25 334C810.238 327.309 820.63 324.209 828.465 322.465C848.664 319.809 868.105 322.683 884.758 334.938Z" fill="#030303"/>
<path d="M715 331C717.688 333.304 718.77 334.658 719.367 338.141C719.599 342.26 719.348 344.443 717.125 348C714.049 350.895 711.91 351.387 707.684 351.363C703.433 350.788 699.472 349.323 695.456 347.867C683.703 343.624 671.841 343.88 660.41 349.207C657.299 350.921 654.376 352.728 651.5 354.813C647.679 356.628 644.148 356.646 640 356C637 354.563 637 354.563 635 352C633.543 347.456 633.458 344.151 635.5 339.813C654.358 318.597 691.376 315.458 715 331Z" fill="#020202"/>
<path d="M787.938 433.75C791.761 435.31 793.615 436.604 796 440C796.836 444.248 796.938 446.381 794.773 450.117C788.627 457.837 779.687 461.87 770 463C758.926 463.841 748.827 462.113 740 455C737.495 452.025 737.046 450.371 736.562 446.5C737.071 442.431 738.133 440.867 741 438C744.139 436.431 746.508 436.723 750 437C751.395 437.623 752.77 438.294 754.125 439C759.993 441.76 765.637 442.158 772 441C775.286 439.375 778.268 437.507 781.34 435.512C784 434 784 434 787.938 433.75Z" fill="#030202"/>
<path d="M638 646C638.99 646.33 639.98 646.66 641 647C640.476 648.178 640.476 648.178 639.941 649.379C639.486 650.429 639.031 651.48 638.563 652.562C638.11 653.595 637.658 654.628 637.191 655.691C634.723 662.548 634.738 669.726 634.438 676.938C634.394 677.908 634.351 678.878 634.307 679.877C634.201 682.251 634.099 684.626 634 687C633.67 687 633.34 687 633 687C632.133 659.734 632.133 659.734 638 648C637.34 647.67 636.68 647.34 636 647C636.66 646.67 637.32 646.34 638 646Z" fill="#F5A161"/>
<path d="M362 940C363.27 943.809 362.521 945.816 361.562 949.688C361.131 951.457 361.131 951.457 360.691 953.262C360.463 954.165 360.235 955.069 360 956C362.97 956 365.94 956 369 956C369 956.66 369 957.32 369 958C365.37 958.33 361.74 958.66 358 959C359.579 942.421 359.579 942.421 362 940Z" fill="#F5A161"/>
<path d="M670 602C671.65 603.32 673.3 604.64 675 606C674.01 606 673.02 606 672 606C672.012 606.846 672.023 607.691 672.035 608.562C672.085 614.816 671.969 620.82 671 627C670.67 627 670.34 627 670 627C670 618.75 670 610.5 670 602Z" fill="#FAC492"/>
<path d="M901 646C907.69 646.54 913.635 647.887 920 650C920 650.33 920 650.66 920 651C917.77 650.94 915.541 650.851 913.312 650.75C912.071 650.704 910.83 650.657 909.551 650.609C905.584 649.929 903.873 648.747 901 646Z" fill="#F5A161"/>
<path d="M672 624C672 626.64 672 629.28 672 632C671.67 632 671.34 632 671 632C670.67 633.98 670.34 635.96 670 638C669.34 637.67 668.68 637.34 668 637C668.113 635.02 668.241 633.041 668.375 631.062C668.445 629.96 668.514 628.858 668.586 627.723C668.723 626.824 668.859 625.926 669 625C671 624 671 624 672 624Z" fill="#FAC492"/>
<path d="M806 629C806 629.66 806 630.32 806 631C804.35 630.67 802.7 630.34 801 630C801 630.66 801 631.32 801 632C798.69 631.67 796.38 631.34 794 631C797.364 627.636 801.618 627.539 806 629Z" fill="#FAC492"/>
<path d="M493 862C494.381 865.767 493.596 868.448 492.563 872.25C492.275 873.328 491.988 874.405 491.691 875.516C491.463 876.335 491.235 877.155 491 878C490.057 874.584 489.919 871.549 490 868C490.66 868 491.32 868 492 868C492.33 866.02 492.66 864.04 493 862Z" fill="#F5A161"/>
<path d="M680 304C676.555 306.296 674.062 306.54 670 307C670.33 306.01 670.66 305.02 671 304C674.478 302.84 676.459 303.292 680 304ZM667 307C670 308 670 308 670 308L667 307Z" fill="#FAC492"/>
<path d="M1008 959C1015.59 959 1023.18 959 1031 959C1031 959.33 1031 959.66 1031 960C1023.41 960 1015.82 960 1008 960C1008 959.67 1008 959.34 1008 959Z" fill="#A9B29C"/>
<path d="M877 959C884.59 959 892.18 959 900 959C900 959.33 900 959.66 900 960C892.41 960 884.82 960 877 960C877 959.67 877 959.34 877 959Z" fill="#BCC5AE"/>
<path d="M870 699C870.66 699.33 871.32 699.66 872 700C870.68 702.64 869.36 705.28 868 708C867.34 708 866.68 708 866 708C866.875 703.25 866.875 703.25 868 701C868.66 701 869.32 701 870 701C870 700.34 870 699.68 870 699Z" fill="#FAC492"/>
<path d="M641 552C645.274 553.583 647.265 556.506 650 560C649.67 560.66 649.34 561.32 649 562C647.661 560.715 646.329 559.421 645 558.125C643.886 557.046 643.886 557.046 642.75 555.945C641 554 641 554 641 552Z" fill="#FAC492"/>
<path d="M963 461C964 465 964 465 964 465L963 461ZM960 465C960.99 465 961.98 465 963 465C963 466.98 963 468.96 963 471C962.01 471 961.02 471 960 471C960 469.02 960 467.04 960 465Z" fill="#FAC492"/>
<path d="M1004 356C1011.57 360 1011.57 360 1014 364C1013.01 364 1012.02 364 1011 364C1011 363.34 1011 362.68 1011 362C1010.4 361.711 1009.8 361.423 1009.19 361.125C1007 360 1007 360 1004 358C1004 357.34 1004 356.68 1004 356Z" fill="#FAC492"/>
<path d="M938 342C938.33 342 938.66 342 939 342C939.293 348.055 939.293 348.055 939 350C937.515 350.99 937.515 350.99 936 352C935.805 345.945 935.805 345.945 936 344C936.66 343.34 937.32 342.68 938 342Z" fill="#FAC492"/>
<path d="M648 959C654.27 959 660.54 959 667 959C667 959.33 667 959.66 667 960C660.73 960 654.46 960 648 960C648 959.67 648 959.34 648 959Z" fill="#F5A161"/>
<path d="M776 608C779.3 608 782.6 608 786 608C786 608.99 786 609.98 786 611C781.061 611.337 780.215 611.161 776 608Z" fill="#FAC492"/>
<path d="M848 408C849.98 408 851.96 408 854 408C854.33 408.99 854.66 409.98 855 411C852.36 411 849.72 411 847 411C847.33 410.01 847.66 409.02 848 408Z" fill="#FAC492"/>
<path d="M775 757C777.31 757 779.62 757 782 757C782 757.99 782 758.98 782 760C779.36 760 776.72 760 774 760C774.33 759.01 774.66 758.02 775 757Z" fill="#FAC492"/>
<path d="M889 349C890.32 349.33 891.64 349.66 893 350C891.35 351.65 889.7 353.3 888 355C887.67 354.34 887.34 353.68 887 353C887.938 350.875 887.938 350.875 889 349ZM885 354C887 355 887 355 887 355L885 354Z" fill="#FAC492"/>
<path d="M960 380C960.33 381.32 960.66 382.64 961 384C959.188 385.562 959.188 385.562 957 387C956.01 386.67 955.02 386.34 954 386C956 384 958 382 960 380Z" fill="#FAC492"/>
<path d="M964 369C964.99 369 965.98 369 967 369C966.34 370.98 965.68 372.96 965 375C964.01 375 963.02 375 962 375C962.66 373.02 963.32 371.04 964 369Z" fill="#FAC492"/>
<path d="M599 333C599.33 333.99 599.66 334.98 600 336C600.66 336 601.32 336 602 336C600.25 340.875 600.25 340.875 598 342C598.33 339.03 598.66 336.06 599 333Z" fill="#FAC492"/>
<path d="M984 959C989.28 959 994.56 959 1000 959C1000 959.33 1000 959.66 1000 960C994.72 960 989.44 960 984 960C984 959.67 984 959.34 984 959Z" fill="#B8C1AA"/>
<path d="M636 959C639.63 959 643.26 959 647 959C647 959.33 647 959.66 647 960C643.37 960 639.74 960 636 960C636 959.67 636 959.34 636 959Z" fill="#BBC4AE"/>
<path d="M908 959C910.64 959 913.28 959 916 959C916 959.33 916 959.66 916 960C913.36 960 910.72 960 908 960C908 959.67 908 959.34 908 959Z" fill="#BCC5AE"/>
<path d="M772 959C774.64 959 777.28 959 780 959C780 959.33 780 959.66 780 960C777.36 960 774.72 960 772 960C772 959.67 772 959.34 772 959Z" fill="#BAC3AC"/>
<path d="M547 959C549.64 959 552.28 959 555 959C555 959.33 555 959.66 555 960C552.36 960 549.72 960 547 960C547 959.67 547 959.34 547 959Z" fill="#020302"/>
<path d="M1192 965C1192.66 965.33 1193.32 965.66 1194 966C1193.34 966.66 1192.68 967.32 1192 968C1191.34 968 1190.68 968 1190 968C1190 967.34 1190 966.68 1190 966C1190.66 965.67 1191.32 965.34 1192 965Z" fill="#646D5D"/>
<path d="M820 959C822.31 959 824.62 959 827 959C827 959.33 827 959.66 827 960C824.69 960 822.38 960 820 960C820 959.67 820 959.34 820 959Z" fill="#BBC5AD"/>
<path d="M524 959C526.31 959 528.62 959 531 959C531 959.33 531 959.66 531 960C528.69 960 526.38 960 524 960C524 959.67 524 959.34 524 959Z" fill="#020302"/>
<path d="M336 936C336.66 936 337.32 936 338 936C337.67 937.65 337.34 939.3 337 941C336 937.125 336 937.125 336 936Z" fill="#2E332B"/>
<path d="M1045 313C1045.66 313.66 1046.32 314.32 1047 315C1045.51 315.99 1045.51 315.99 1044 317C1044.33 315.68 1044.66 314.36 1045 313Z" fill="#0D0E0D"/>
<path d="M336 960C338 962 338 962 338 964C337.34 964 336.68 964 336 964C336 962.68 336 961.36 336 960Z" fill="#52594B"/>
<path d="M1001 959C1002.98 959 1004.96 959 1007 959C1007 959.33 1007 959.66 1007 960C1005.02 960 1003.04 960 1001 960C1001 959.67 1001 959.34 1001 959Z" fill="#B6BFA8"/>
<path d="M797 959C798.98 959 800.96 959 803 959C803 959.33 803 959.66 803 960C801.02 960 799.04 960 797 960C797 959.67 797 959.34 797 959Z" fill="#BCC6AF"/>
<path d="M596 959C597.98 959 599.96 959 602 959C602 959.33 602 959.66 602 960C600.02 960 598.04 960 596 960C596 959.67 596 959.34 596 959Z" fill="#020302"/>
<path d="M516 959C517.98 959 519.96 959 522 959C522 959.33 522 959.66 522 960C520.02 960 518.04 960 516 960C516 959.67 516 959.34 516 959Z" fill="#020302"/>
<path d="M393 779C394.32 779.33 395.64 779.66 397 780C395.68 780 394.36 780 393 780C393 779.67 393 779.34 393 779Z" fill="#0B0C0A"/>
<path d="M998 167C998.99 167.495 998.99 167.495 1000 168C999.67 168.99 999.34 169.98 999 171C998.67 169.68 998.34 168.36 998 167Z" fill="#070807"/>
<path d="M1059 959C1060.65 959 1062.3 959 1064 959C1064 959.33 1064 959.66 1064 960C1062.35 960 1060.7 960 1059 960C1059 959.67 1059 959.34 1059 959Z" fill="#A2A994"/>
<path d="M532 959C533.65 959 535.3 959 537 959C537 959.33 537 959.66 537 960C535.35 960 533.7 960 532 960C532 959.67 532 959.34 532 959Z" fill="#020302"/>
<path d="M314 723C314.99 723.495 314.99 723.495 316 724C315.67 724.99 315.34 725.98 315 727C314.67 725.68 314.34 724.36 314 723Z" fill="#0F110F"/>
<path d="M1125 521C1125.33 521.99 1125.66 522.98 1126 524C1125.34 524 1124.68 524 1124 524C1124.33 523.01 1124.66 522.02 1125 521Z" fill="#0B0C0B"/>
<path d="M1041 314C1041.66 314 1042.32 314 1043 314C1042.67 315.32 1042.34 316.64 1042 318C1041.67 316.68 1041.34 315.36 1041 314Z" fill="#0C0D0B"/>
<path d="M774 56C774.99 56.33 775.98 56.66 777 57C776.01 57.33 775.02 57.66 774 58C774 57.34 774 56.68 774 56Z" fill="#070605"/>
<path d="M815 959C819 960 819 960 819 960L815 959Z" fill="#BCC5AE"/>
<path d="M620 959C624 960 624 960 624 960L620 959Z" fill="#BAC4AE"/>
<path d="M85 853C85.66 853 86.32 853 87 853C86.67 853.99 86.34 854.98 86 856C85.67 855.01 85.34 854.02 85 853Z" fill="#8A8C89"/>
<path d="M370 771C370.66 771 371.32 771 372 771C372 771.66 372 772.32 372 773C371.34 773 370.68 773 370 773C370 772.34 370 771.68 370 771Z" fill="#0D0E0B"/>
<path d="M85 693C85.66 693 86.32 693 87 693C86.67 693.99 86.34 694.98 86 696C85.67 695.01 85.34 694.02 85 693Z" fill="#838682"/>
<path d="M305 690C306 694 306 694 306 694L305 690Z" fill="#0D0E0D"/>
<path d="M305 679C306 683 306 683 306 683L305 679Z" fill="#0D0F0E"/>
<path d="M306 673C307 677 307 677 307 677L306 673Z" fill="#0E110F"/>
<path d="M321 639C321.66 639 322.32 639 323 639C323 639.66 323 640.32 323 641C322.34 641 321.68 641 321 641C321 640.34 321 639.68 321 639Z" fill="#0E100F"/>
<path d="M85 533C85.66 533 86.32 533 87 533C86.67 533.99 86.34 534.98 86 536C85.67 535.01 85.34 534.02 85 533Z" fill="#868885"/>
<path d="M85 213C85.66 213 86.32 213 87 213C86.67 213.99 86.34 214.98 86 216C85.67 215.01 85.34 214.02 85 213Z" fill="#8B8D8B"/>
<path d="M553 123C553.66 123 554.32 123 555 123C555 123.66 555 124.32 555 125C554.34 125 553.68 125 553 125C553 124.34 553 123.68 553 123Z" fill="#080906"/>
<path d="M769 56C773 57 773 57 773 57L769 56Z" fill="#060706"/>
<path d="M948 1013C948.99 1013.5 948.99 1013.5 950 1014C949.01 1014.5 949.01 1014.5 948 1015C948 1014.34 948 1013.68 948 1013Z" fill="#B1BAA6"/>
<path d="M948 1005C948.99 1005.5 948.99 1005.5 950 1006C949.01 1006.5 949.01 1006.5 948 1007C948 1006.34 948 1005.68 948 1005Z" fill="#B1BAA6"/>
<path d="M1036 964C1036.66 964 1037.32 964 1038 964C1037.67 964.66 1037.34 965.32 1037 966C1036.67 965.34 1036.34 964.68 1036 964Z" fill="#85907C"/>
<path d="M1177 960C1177.33 960.66 1177.66 961.32 1178 962C1177.34 961.67 1176.68 961.34 1176 961C1176.33 960.67 1176.66 960.34 1177 960Z" fill="#778370"/>
<path d="M901 959C904 960 904 960 904 960L901 959Z" fill="#BDC7AF"/>
<path d="M863 959C866 960 866 960 866 960L863 959Z" fill="#BBC5AD"/>
<path d="M808 959C811 960 811 960 811 960L808 959Z" fill="#BDC6AE"/>
<path d="M804 959C807 960 807 960 807 960L804 959Z" fill="#BDC7AE"/>
<path d="M788 959C791 960 791 960 791 960L788 959Z" fill="#BBC4AE"/>
<path d="M768 959C771 960 771 960 771 960L768 959Z" fill="#BAC5AD"/>
<path d="M608 959C611 960 611 960 611 960L608 959Z" fill="#BAC5AD"/>
<path d="M344 897C344.66 897 345.32 897 346 897C345.67 897.66 345.34 898.32 345 899C344.67 898.34 344.34 897.68 344 897Z" fill="#212621"/>
<path d="M85 869C85.66 869 86.32 869 87 869C86.67 869.66 86.34 870.32 86 871C85.67 870.34 85.34 869.68 85 869Z" fill="#8B8C89"/>
<path d="M85 821C85.66 821 86.32 821 87 821C86.67 821.66 86.34 822.32 86 823C85.67 822.34 85.34 821.68 85 821Z" fill="#8B8D89"/>
<path d="M85 781C85.66 781 86.32 781 87 781C86.67 781.66 86.34 782.32 86 783C85.67 782.34 85.34 781.68 85 781Z" fill="#8A8C87"/>
<path d="M1124 762C1124.99 762.495 1124.99 762.495 1126 763C1125.01 763.495 1125.01 763.495 1124 764C1124 763.34 1124 762.68 1124 762Z" fill="#0F0F0D"/>
<path d="M344 757C344.66 757 345.32 757 346 757C345.67 757.66 345.34 758.32 345 759C344.67 758.34 344.34 757.68 344 757Z" fill="#0C0F0C"/>
<path d="M354 474C354.33 474.66 354.66 475.32 355 476C354.34 475.67 353.68 475.34 353 475C353.33 474.67 353.66 474.34 354 474Z" fill="#0D0E0B"/>
<path d="M400 399C400.66 399.66 401.32 400.32 402 401C401.34 401 400.68 401 400 401C400 400.34 400 399.68 400 399Z" fill="#0A0B0B"/>
<path d="M433 363C433.33 363.66 433.66 364.32 434 365C433.34 364.67 432.68 364.34 432 364C432.33 363.67 432.66 363.34 433 363Z" fill="#0A0A09"/>
<path d="M1070 354C1070.33 354.66 1070.66 355.32 1071 356C1070.34 355.67 1069.68 355.34 1069 355C1069.33 354.67 1069.66 354.34 1070 354Z" fill="#0C0D0B"/>
<path d="M464 304C464.66 304 465.32 304 466 304C465.67 304.66 465.34 305.32 465 306C464.67 305.34 464.34 304.68 464 304Z" fill="#090909"/>
<path d="M85 205C85.66 205 86.32 205 87 205C86.67 205.66 86.34 206.32 86 207C85.67 206.34 85.34 205.68 85 205Z" fill="#8B8D8A"/>
<path d="M998 154C998.33 154.66 998.66 155.32 999 156C998.34 155.67 997.68 155.34 997 155C997.33 154.67 997.66 154.34 998 154Z" fill="#121411"/>
<path d="M562 114C562.99 114.495 562.99 114.495 564 115C563.01 115.495 563.01 115.495 562 116C562 115.34 562 114.68 562 114Z" fill="#090A09"/>
<path d="M934 112C934.66 112.66 935.32 113.32 936 114C935.34 114 934.68 114 934 114C934 113.34 934 112.68 934 112Z" fill="#060604"/>
<path d="M912 105C912.99 105.495 912.99 105.495 914 106C913.01 106.495 913.01 106.495 912 107C912 106.34 912 105.68 912 105Z" fill="#080808"/>
<path d="M894 104C897 105 897 105 897 105L894 104Z" fill="#050404"/>
<path d="M997 91C997.66 91 998.32 91 999 91C998.67 91.66 998.34 92.32 998 93C997.67 92.34 997.34 91.68 997 91Z" fill="#2A2D29"/>
<path d="M681 56C684 57 684 57 684 57L681 56Z" fill="#060706"/>
<path d="M948 1021C950 1022 950 1022 950 1022L948 1021Z" fill="#B2B9A6"/>
<path d="M1090 1019C1092 1020 1092 1020 1092 1020L1090 1019Z" fill="#ACB3A1"/>
<path d="M84 1018C86 1019 86 1019 86 1019L84 1018Z" fill="#8F918E"/>
<path d="M1090 1011C1092 1012 1092 1012 1092 1012L1090 1011Z" fill="#ABB3A1"/>
<path d="M1090 1003C1092 1004 1092 1004 1092 1004L1090 1003Z" fill="#ABB2A0"/>
<path d="M948 997C950 998 950 998 950 998L948 997Z" fill="#B2B9A6"/>
<path d="M1090 995C1092 996 1092 996 1092 996L1090 995Z" fill="#A9B29E"/>
<path d="M1090 987C1092 988 1092 988 1092 988L1090 987Z" fill="#AAB29F"/>
<path d="M1090 979C1092 980 1092 980 1092 980L1090 979Z" fill="#AAB3A0"/>
<path d="M496 967C498 968 498 968 498 968L496 967Z" fill="#88937F"/>
<path d="M341 967C343 968 343 968 343 968L341 967Z" fill="#5F6858"/>
<path d="M1181 964C1183 965 1183 965 1183 965L1181 964Z" fill="#6D7666"/>
<path d="M1196 963C1198 964 1198 964 1198 964L1196 963Z" fill="#575E52"/>
<path d="M1090 963C1092 964 1092 964 1092 964L1090 963Z" fill="#B0BAA4"/>
<path d="M905 959C907 960 907 960 907 960L905 959Z" fill="#BCC6AE"/>
<path d="M868 959C870 960 870 960 870 960L868 959Z" fill="#BCC5AF"/>
<path d="M860 959C862 960 862 960 862 960L860 959Z" fill="#BBC2AD"/>
<path d="M812 959C814 960 814 960 814 960L812 959Z" fill="#BDC6AF"/>
<path d="M628 959C630 960 630 960 630 960L628 959Z" fill="#BDC5B0"/>
<path d="M625 959C627 960 627 960 627 960L625 959Z" fill="#BCC5AE"/>
<path d="M616 959C618 960 618 960 618 960L616 959Z" fill="#BAC5AD"/>
<path d="M544 959C546 960 546 960 546 960L544 959Z" fill="#B7C1AA"/>
<path d="M540 959C542 960 542 960 542 960L540 959Z" fill="#B7BFAA"/>
<path d="M413 959C415 960 415 960 415 960L413 959Z" fill="#BAC2AC"/>
<path d="M397 959C399 960 399 960 399 960L397 959Z" fill="#B7BFA9"/>
<path d="M84 954C86 955 86 955 86 955L84 954Z" fill="#8B8E89"/>
<path d="M368 835C370 836 370 836 370 836L368 835Z" fill="#161815"/>
<path d="M369 832C371 833 371 833 371 833L369 832Z" fill="#161813"/>
<path d="M84 818C86 819 86 819 86 819L84 818Z" fill="#8B8E89"/>
<path d="M373 772C375 773 375 773 375 773L373 772Z" fill="#0D0E0B"/>
<path d="M84 770C86 771 86 771 86 771L84 770Z" fill="#898B87"/>
<path d="M85 749C87 750 87 750 87 750L85 749Z" fill="#878A85"/>
<path d="M321 632C323 633 323 633 323 633L321 632Z" fill="#131413"/>
<path d="M328 627C330 628 330 628 330 628L328 627Z" fill="#12120F"/>
<path d="M1139 582C1141 583 1141 583 1141 583L1139 582Z" fill="#0D0F0D"/>
<path d="M1125 547C1127 548 1127 548 1127 548L1125 547Z" fill="#0D0E0E"/>
<path d="M360 459C362 460 362 460 362 460L360 459Z" fill="#09090A"/>
<path d="M1118 415C1120 416 1120 416 1120 416L1118 415Z" fill="#10100E"/>
<path d="M1118 409C1120 410 1120 410 1120 410L1118 409Z" fill="#111210"/>
<path d="M1090 371C1092 372 1092 372 1092 372L1090 371Z" fill="#141514"/>
<path d="M425 371C427 372 427 372 427 372L425 371Z" fill="#0A0B09"/>
<path d="M85 365C87 366 87 366 87 366L85 365Z" fill="#8C8D8A"/>
<path d="M1090 355C1092 356 1092 356 1092 356L1090 355Z" fill="#181C19"/>
<path d="M1090 347C1092 348 1092 348 1092 348L1090 347Z" fill="#1C1E1B"/>
<path d="M85 341C87 342 87 342 87 342L85 341Z" fill="#8C8D8A"/>
<path d="M1090 323C1092 324 1092 324 1092 324L1090 323Z" fill="#222421"/>
<path d="M1090 315C1092 316 1092 316 1092 316L1090 315Z" fill="#242622"/>
<path d="M1090 307C1092 308 1092 308 1092 308L1090 307Z" fill="#242723"/>
<path d="M1044 307C1046 308 1046 308 1046 308L1044 307Z" fill="#101310"/>
<path d="M84 306C86 307 86 307 86 307L84 306Z" fill="#8C8D8C"/>
<path d="M1090 299C1092 300 1092 300 1092 300L1090 299Z" fill="#262926"/>
<path d="M85 293C87 294 87 294 87 294L85 293Z" fill="#8C8D8C"/>
<path d="M1090 291C1092 292 1092 292 1092 292L1090 291Z" fill="#272A26"/>
<path d="M1090 275C1092 276 1092 276 1092 276L1090 275Z" fill="#2A2B27"/>
<path d="M1090 251C1092 252 1092 252 1092 252L1090 251Z" fill="#2A2D2A"/>
<path d="M1090 243C1092 244 1092 244 1092 244L1090 243Z" fill="#2B2E2B"/>
<path d="M1090 235C1092 236 1092 236 1092 236L1090 235Z" fill="#2C2E2B"/>
<path d="M1090 219C1092 220 1092 220 1092 220L1090 219Z" fill="#2D302C"/>
<path d="M1090 211C1092 212 1092 212 1092 212L1090 211Z" fill="#2D312D"/>
<path d="M1090 187C1092 188 1092 188 1092 188L1090 187Z" fill="#31332F"/>
<path d="M1090 179C1092 180 1092 180 1092 180L1090 179Z" fill="#313430"/>
<path d="M1090 163C1092 164 1092 164 1092 164L1090 163Z" fill="#353632"/>
<path d="M995 162C997 163 997 163 997 163L995 162Z" fill="#0A0B0A"/>
<path d="M1090 147C1092 148 1092 148 1092 148L1090 147Z" fill="#383A36"/>
<path d="M85 133C87 134 87 134 87 134L85 133Z" fill="#8C8E8C"/>
<path d="M1090 131C1092 132 1092 132 1092 132L1090 131Z" fill="#3A3C39"/>
<path d="M545 128C547 129 547 129 547 129L545 128Z" fill="#070A08"/>
<path d="M1090 123C1092 124 1092 124 1092 124L1090 123Z" fill="#3C3F3A"/>
<path d="M867 104C869 105 869 105 869 105L867 104Z" fill="#040605"/>
<path d="M864 104C866 105 866 105 866 105L864 104Z" fill="#050404"/>
<path d="M852 93C854 94 854 94 854 94L852 93Z" fill="#0A0B09"/>
<path d="M1090 83C1092 84 1092 84 1092 84L1090 83Z" fill="#454844"/>
<path d="M611 81C613 82 613 82 613 82L611 81Z" fill="#090806"/>
<path d="M624 74C626 75 626 75 626 75L624 74Z" fill="#070806"/>
<path d="M822 73C824 74 824 74 824 74L822 73Z" fill="#070708"/>
<path d="M1090 67C1092 68 1092 68 1092 68L1090 67Z" fill="#494D47"/>
<path d="M649 64C651 65 651 65 651 65L649 64Z" fill="#080908"/>
<path d="M1090 59C1092 60 1092 60 1092 60L1090 59Z" fill="#4B4E49"/>
<path d="M670 58C672 59 672 59 672 59L670 58Z" fill="#080A08"/>
<path d="M676 57C678 58 678 58 678 58L676 57Z" fill="#070A08"/>
<path d="M673 57C675 58 675 58 675 58L673 57Z" fill="#090B08"/>
<path d="M1090 51C1092 52 1092 52 1092 52L1090 51Z" fill="#4C504B"/>
<path d="M1090 43C1092 44 1092 44 1092 44L1090 43Z" fill="#4F524E"/>
<path d="M997 43C999 44 999 44 999 44L997 43Z" fill="#3B3F3A"/>
<path d="M1090 35C1092 36 1092 36 1092 36L1090 35Z" fill="#525550"/>
<path d="M1090 27C1092 28 1092 28 1092 28L1090 27Z" fill="#545753"/>
<path d="M1090 11C1092 12 1092 12 1092 12L1090 11Z" fill="#595B57"/>
<path d="M85 5C87 6 87 6 87 6L85 5Z" fill="#939493"/>
</svg>
