<svg width="1024" height="1536" viewBox="0 0 1024 1536" fill="none" xmlns="http://www.w3.org/2000/svg">
<path d="M516.255 187.918C529.512 187.479 542.306 188.776 555.424 190.637C563.179 191.767 563.179 191.767 571 192C570.67 192.66 570.34 193.32 570 194C571.016 194.352 572.032 194.704 573.078 195.067C588.859 200.668 604.197 208.765 615 222C615 222.66 615 223.32 615 224C616.32 224 617.64 224 619 224C619 224.66 619 225.32 619 226C619.727 226.014 620.454 226.029 621.203 226.043C633.471 226.625 642.894 230.851 652 239C652.677 239.584 653.354 240.168 654.051 240.77C660.061 246.313 664.054 252.891 668 260C668.474 260.851 668.949 261.702 669.438 262.578C677.925 279.447 681.193 301.306 680 320C679.67 320.33 679.34 320.66 679 321C678.686 322.823 678.378 324.646 678.099 326.474C676.907 334.248 675.156 341.099 672.086 348.363C670.188 352.972 669.948 356.266 670.375 361.266C670.474 362.534 670.573 363.803 670.675 365.109C670.755 366.122 670.755 366.122 670.837 367.154C671.819 379.786 672.132 392.275 671.688 404.938C671.664 405.642 671.641 406.347 671.617 407.073C671.212 418.788 671.212 418.788 670 420C669.702 421.679 669.462 423.368 669.246 425.059C669.114 426.084 668.982 427.11 668.846 428.166C668.644 429.786 668.644 429.786 668.438 431.438C668.299 432.513 668.16 433.589 668.018 434.697C667.29 439.833 667.29 439.833 667 445C667.66 445.33 668.32 445.66 669 446C668.34 446 667.68 446 667 446C667 447.32 667 448.64 667 450C667.66 450.33 668.32 450.66 669 451C669.133 451.874 669.266 452.748 669.402 453.649C670.105 457.589 671.539 460.179 673.563 463.625C673.915 464.228 674.268 464.832 674.632 465.453C677.65 470.554 680.893 475.487 684.238 480.379C685.421 482.139 686.544 483.941 687.606 485.778C688.807 488.12 688.807 488.12 691 489C690.807 489.571 690.613 490.142 690.414 490.731C689.918 493.449 690.385 494.756 691.375 497.313C697.18 512.422 694.803 530.977 690 546C689.67 547.087 689.34 548.174 689 549.293C687.868 552.358 686.447 553.88 684 556C684.85 556.959 685.699 557.918 686.574 558.906C690.282 563.237 693.559 567.823 696.813 572.5C697.429 573.387 698.046 574.273 698.681 575.187C703.804 582.612 708.587 590.135 713 598C713.708 599.259 713.708 599.259 714.431 600.543C727.186 623.344 738.429 646.759 748.175 670.999C748.981 673.022 748.981 673.022 750 675C751.199 673.892 751.199 673.892 752.422 672.762C754.73 670.629 757.041 668.498 759.352 666.367C761.622 664.274 763.888 662.175 766.148 660.071C772.563 654.115 779.179 648.487 786 643C787.311 641.922 788.621 640.843 789.93 639.762C809.792 623.398 809.792 623.398 816 623C824.11 626.011 836.476 631.551 841.266 638.957C842 641 842 641 842 645C842.66 645.33 843.32 645.66 844 646C836.258 675.24 828.504 704.39 818.431 732.925C817.183 736.463 815.971 740.012 814.768 743.565C813.797 746.431 812.813 749.292 811.825 752.152C811.369 753.48 810.915 754.809 810.466 756.14C807.034 766.265 803.196 774.758 794.938 781.813C794.122 782.52 793.306 783.228 792.465 783.957C790 786 790 786 787.172 787.621C784.626 790.41 784.703 791.009 784.801 794.641C784.951 796.512 785.123 798.382 785.313 800.25C787.141 825.59 779.749 847.983 764 868C763.304 868.9 762.608 869.8 761.891 870.727C758.468 875.088 754.969 879.12 751 883C755.061 883.842 759.124 884.672 763.188 885.5C764.338 885.739 765.489 885.977 766.674 886.223C768.342 886.561 768.342 886.561 770.043 886.906C771.064 887.116 772.085 887.325 773.138 887.541C775.969 888.083 775.969 888.083 778.747 887.944C781 888 781 888 783 890C783.598 889.835 784.196 889.67 784.813 889.5C787.744 888.83 789.338 889.743 792 891C791.67 891.66 791.34 892.32 791 893C792.1 893.436 793.199 893.872 794.332 894.321C802.131 897.45 809.649 900.636 816.898 904.934C819.053 906.226 819.053 906.226 822 906C822.66 906.66 823.32 907.32 824 908C823.67 908.33 823.34 908.66 823 909C823.762 909.546 824.524 910.091 825.309 910.653C839.495 921.013 851.316 933.442 858 950C858 950.66 858 951.32 858 952C858.99 952.33 859.98 952.66 861 953C860.34 953 859.68 953 859 953C859.33 953.598 859.66 954.196 860 954.813C861 957 861 957 861 960C861.66 960.33 862.32 960.66 863 961C870.065 985.293 865.284 1013.45 855 1036C854.717 1036.64 854.434 1037.27 854.142 1037.93C849.053 1049.23 842.488 1059.15 835 1069C834.483 1069.68 833.966 1070.36 833.433 1071.06C824.618 1082.54 814.899 1093.66 803.613 1102.78C800.888 1104.73 800.888 1104.73 800.125 1107.31C800.084 1107.87 800.043 1108.43 800 1109C799.01 1108.67 798.02 1108.34 797 1108C794.961 1109.45 793.169 1110.9 791.313 1112.56C790.242 1113.49 789.171 1114.42 788.098 1115.34C787.573 1115.79 787.049 1116.25 786.508 1116.72C783.461 1119.31 780.228 1121.64 777 1124C779.603 1124.84 782.207 1125.67 784.813 1126.5C785.551 1126.74 786.289 1126.98 787.049 1127.22C790.133 1128.2 792.745 1129 796 1129C795.67 1129.66 795.34 1130.32 795 1131C795.771 1131.06 796.542 1131.12 797.336 1131.18C798.339 1131.27 799.342 1131.35 800.375 1131.44C801.373 1131.52 802.371 1131.6 803.398 1131.68C806 1132 806 1132 808 1133C808 1133.99 808 1134.98 808 1136C808.784 1136.21 809.568 1136.41 810.375 1136.63C826.622 1142.79 840.351 1155.58 847.523 1171.31C854.56 1188.9 852.646 1206.37 845.598 1223.7C842.645 1229.8 839.109 1235.62 835 1241C834.34 1241 833.68 1241 833 1241C832.765 1241.57 832.531 1242.14 832.289 1242.73C826.241 1253.37 810.044 1260.12 799 1264C790.667 1265.77 782.175 1266.26 773.688 1266.69C772.281 1266.76 772.281 1266.76 770.846 1266.83C769.972 1266.87 769.099 1266.91 768.199 1266.95C767.414 1266.98 766.628 1267.02 765.819 1267.05C764 1267 764 1267 763 1266C759.736 1265.31 756.425 1264.87 753.125 1264.38C751.739 1264.15 751.739 1264.15 750.324 1263.93C748.992 1263.73 748.992 1263.73 747.633 1263.52C746.817 1263.4 746.001 1263.27 745.161 1263.15C742.817 1262.85 742.817 1262.85 740 1264C739.67 1263.34 739.34 1262.68 739 1262C736.575 1260.98 736.575 1260.98 733.609 1260.09C732.507 1259.74 731.405 1259.39 730.27 1259.03C728.527 1258.49 728.527 1258.49 726.75 1257.94C725.604 1257.57 724.458 1257.21 723.277 1256.83C714.803 1254.02 714.803 1254.02 706 1253C705.34 1252.34 704.68 1251.68 704 1251C701.435 1249.29 699.12 1248.1 696.313 1246.88C695.504 1246.52 694.696 1246.17 693.863 1245.8C693.248 1245.54 692.634 1245.27 692 1245C691.67 1245.66 691.34 1246.32 691 1247C688.5 1244.5 688.5 1244.5 686 1242C683.742 1240.84 681.477 1239.72 679.188 1238.63C665.585 1231.95 651.928 1224.78 639.961 1215.43C637.957 1213.82 637.957 1213.82 635 1213C632.813 1211.06 632.813 1211.06 631 1209C631 1208.34 631 1207.68 631 1207C628.03 1207.66 625.06 1208.32 622 1209C622.66 1210.32 623.32 1211.64 624 1213C623.01 1212.67 622.02 1212.34 621 1212C621 1211.34 621 1210.68 621 1210C619.843 1210.42 618.685 1210.84 617.492 1211.28C615.953 1211.83 614.414 1212.38 612.875 1212.94C611.734 1213.35 611.734 1213.35 610.57 1213.78C606.388 1215.28 602.432 1216.44 598 1217C598.66 1217.33 599.32 1217.66 600 1218C599.67 1219.32 599.34 1220.64 599 1222C598.34 1220.68 597.68 1219.36 597 1218C595.35 1218 593.7 1218 592 1218C591.67 1218.99 591.34 1219.98 591 1221C590.753 1220.44 590.505 1219.89 590.25 1219.31C589.077 1216.94 589.077 1216.94 587.242 1214.99C584.164 1210.88 582.095 1206.43 579.875 1201.81C579.001 1200 578.124 1198.2 577.242 1196.39C576.859 1195.6 576.476 1194.8 576.082 1193.98C575.041 1191.85 575.041 1191.85 573 1190C572.01 1190 571.02 1190 570 1190C570.222 1189.27 570.444 1188.55 570.672 1187.8C571.087 1184.26 570.276 1183.13 568.25 1180.25C567.719 1179.47 567.188 1178.69 566.641 1177.89C565.05 1175.73 565.05 1175.73 562 1175C561.01 1174.67 560.02 1174.34 559 1174C556.934 1174.82 556.934 1174.82 554.797 1176.17C553.981 1176.65 553.165 1177.13 552.324 1177.63C551.475 1178.14 550.625 1178.66 549.75 1179.19C548.078 1180.18 546.406 1181.17 544.734 1182.17C543.935 1182.65 543.135 1183.13 542.311 1183.62C539.231 1185.46 536.12 1187.23 533 1189C533.133 1189.66 533.266 1190.33 533.402 1191.01C533.935 1193.67 534.468 1196.34 535 1199C535.235 1200.17 535.235 1200.17 535.474 1201.36C535.976 1203.88 536.461 1206.41 536.945 1208.93C539.273 1220.77 542.072 1232.28 545.764 1243.78C546.055 1244.68 546.345 1245.59 546.645 1246.52C546.906 1247.31 547.167 1248.11 547.437 1248.93C548 1251 548 1251 548 1254C548.66 1254.33 549.32 1254.66 550 1255C550.676 1256.87 550.676 1256.87 551.313 1259.44C552.266 1263.17 553.243 1266.89 554.305 1270.59C554.533 1271.39 554.76 1272.19 554.995 1273.01C555.452 1274.61 555.911 1276.21 556.374 1277.8C556.69 1278.92 556.69 1278.92 557.012 1280.06C557.202 1280.72 557.393 1281.39 557.589 1282.07C558 1284 558 1284 558 1288C558.66 1288.33 559.32 1288.66 560 1289C560.478 1306.92 559.465 1320.44 548 1335C545.875 1336.88 545.875 1336.88 543 1339C542.361 1339.48 541.721 1339.95 541.063 1340.45C529.69 1348.53 516.755 1351.74 502.938 1349.5C496.663 1348.06 491.037 1345.86 485.277 1342.99C482.955 1341.8 482.955 1341.8 480 1342C480.33 1341.34 480.66 1340.68 481 1340C479.693 1339.11 479.693 1339.11 478.359 1338.2C471.979 1333.78 465.859 1329.24 460.125 1324C459.608 1323.53 459.091 1323.06 458.558 1322.58C457.328 1321.43 456.158 1320.22 455 1319C455 1318.34 455 1317.68 455 1317C454.01 1316.67 453.02 1316.34 452 1316C449.42 1313.58 447.256 1310.72 445 1308C444.527 1307.44 444.054 1306.88 443.567 1306.3C436.884 1298.35 430.596 1290.33 425.071 1281.52C424.094 1279.98 423.053 1278.49 422 1277C421.34 1277 420.68 1277 420 1277C419.812 1276.12 419.812 1276.12 419.62 1275.21C418.636 1271.7 416.594 1268.77 414.688 1265.69C413.899 1264.4 413.111 1263.11 412.324 1261.82C411.747 1260.88 411.747 1260.88 411.158 1259.92C409.383 1256.98 407.691 1253.99 406 1251C405.34 1251 404.68 1251 404 1251C403.67 1250.01 403.34 1249.02 403 1248C402.258 1247.35 402.258 1247.35 401.5 1246.69C400 1245 400 1245 399.625 1242.44C398.724 1237.48 396.362 1233.41 394 1229C393.34 1229.33 392.68 1229.66 392 1230C391.784 1228.39 391.784 1228.39 391.563 1226.75C391.021 1222.81 391.021 1222.81 390 1219C389.34 1218.67 388.68 1218.34 388 1218C387.333 1216 386.667 1214 386 1212C385.34 1211.67 384.68 1211.34 384 1211C383.594 1209.01 383.271 1207.01 383 1205C382.674 1203.33 382.343 1201.67 382 1200C381.01 1200 380.02 1200 379 1200C378.918 1198.85 378.835 1197.69 378.75 1196.5C378.179 1191.19 376.805 1186.12 375.447 1180.96C374.249 1176.31 373.492 1171.83 373.274 1167.02C372.958 1164.69 372.147 1163.04 371 1161C371.66 1161 372.32 1161 373 1161C373.221 1158.54 373.428 1156.08 373.625 1153.63C373.69 1152.93 373.754 1152.23 373.82 1151.51C373.961 1149.68 373.988 1147.84 374 1146C371.319 1143.32 369.608 1143.61 365.875 1143.38C364.779 1143.3 363.684 1143.23 362.555 1143.15C361.712 1143.1 360.869 1143.05 360 1143C360 1143.33 360 1143.66 360 1144C358.104 1143.89 356.208 1143.76 354.313 1143.63C353.257 1143.56 352.201 1143.49 351.113 1143.41C348.093 1143.01 345.759 1142.26 343 1141C343 1140.34 343 1139.68 343 1139C341.889 1138.69 340.778 1138.37 339.633 1138.05C331.582 1135.74 323.682 1133.38 316 1130C316 1130.66 316 1131.32 316 1132C315.34 1132 314.68 1132 314 1132C313.753 1131.36 313.505 1130.72 313.25 1130.06C312.199 1127.86 312.199 1127.86 310.125 1127.25C307.695 1126.92 307.695 1126.92 304 1127C304 1126.01 304 1125.02 304 1124C300.055 1120.78 296.101 1120.48 291.188 1120.31C290.495 1120.28 289.802 1120.24 289.088 1120.21C287.393 1120.13 285.696 1120.06 284 1120C285.32 1119.34 286.64 1118.68 288 1118C285.705 1112.28 282.338 1109.34 277.688 1105.56C273.063 1101.77 268.986 1098.06 265.335 1093.3C263.953 1091.65 263.953 1091.65 261 1092C258.63 1089.56 257.182 1087.56 256.125 1084.31C254.732 1080.21 252.614 1076.84 250.34 1073.17C249 1071 249 1071 248 1069C247.01 1069 246.02 1069 245 1069C244.34 1068.01 243.68 1067.02 243 1066C242.01 1066.66 241.02 1067.32 240 1068C239.973 1066.23 239.954 1064.46 239.938 1062.69C239.926 1061.7 239.914 1060.72 239.902 1059.7C240 1057 240 1057 241 1054C240.619 1051.75 240.619 1051.75 239.813 1049.44C239.572 1048.65 239.33 1047.87 239.082 1047.06C237.767 1044.56 236.594 1043.99 234 1043C234.33 1042.67 234.66 1042.34 235 1042C234.747 1038.98 234.747 1038.98 234 1036C233.34 1035.67 232.68 1035.34 232 1035C232 1034.01 232 1033.02 232 1032C232.66 1031.67 233.32 1031.34 234 1031C234.152 1027.37 234.152 1027.37 233 1024C232.904 1022.56 232.869 1021.11 232.867 1019.67C232.865 1018.79 232.863 1017.92 232.861 1017.01C232.866 1016.08 232.87 1015.15 232.875 1014.19C232.877 1013.24 232.879 1012.3 232.881 1011.33C232.925 1004.18 233.261 997.116 234 990C233.34 990 232.68 990 232 990C232 989.34 232 988.68 232 988C232.66 987.67 233.32 987.34 234 987C234.47 983.954 234.47 983.954 234.625 980.438C234.7 979.24 234.775 978.043 234.852 976.809C234.901 975.882 234.95 974.955 235 974C234.01 973.67 233.02 973.34 232 973C232.313 971.063 232.313 971.063 233 969C233.99 968.67 234.98 968.34 236 968C237.955 965.016 238 963.736 238 960C238.66 960 239.32 960 240 960C240.182 959.182 240.182 959.182 240.367 958.348C241.578 952.899 242.789 947.449 244 942C244.66 942 245.32 942 246 942C246.133 941.374 246.266 940.747 246.402 940.102C246.579 939.285 246.756 938.467 246.938 937.625C247.199 936.407 247.199 936.407 247.465 935.164C250.82 921.598 260.738 907.524 267 895C266.34 895 265.68 895 265 895C265.66 893.68 266.32 892.36 267 891C267.33 891.33 267.66 891.66 268 892C268.33 891.01 268.66 890.02 269 889C268.34 888.67 267.68 888.34 267 888C267.99 887.34 268.98 886.68 270 886C268.975 885.795 267.95 885.59 266.895 885.379C261.263 884.253 255.632 883.127 250 882C249.67 882.66 249.34 883.32 249 884C248.928 883.37 248.856 882.74 248.781 882.09C248.524 881.4 248.266 880.711 248 880C245.986 879.033 245.986 879.033 243.5 878.563C228.427 874.543 215.673 862.987 205 852C204.34 851.34 203.68 850.68 203 850C202.315 848.676 201.651 847.341 201 846C199.385 842.846 198.488 841.279 195.375 839.5C193 838 193 838 192.188 835.313C192.126 834.55 192.064 833.786 192 833C192.33 833.66 192.66 834.32 193 835C193 830.804 192.212 828.276 190.75 824.375C190.332 823.228 189.915 822.081 189.484 820.899C187.929 817.861 187.177 817.046 184 816C184 813.36 184 810.72 184 808C184.66 808 185.32 808 186 808C185.675 806.977 185.35 805.953 185.016 804.899C183.441 798.554 183.704 792.123 183.75 785.625C183.753 784.946 183.756 784.266 183.759 783.565C184.053 728.414 198.442 675.372 222.003 625.661C222.398 624.823 222.793 623.985 223.199 623.121C223.548 622.394 223.897 621.666 224.257 620.916C225.181 618.877 225.181 618.877 225 616C223.466 613.882 223.466 613.882 221.5 611.813C220.85 611.097 220.201 610.382 219.531 609.645C219.026 609.102 218.521 608.559 218 608C217.34 608.33 216.68 608.66 216 609C215.897 608.113 215.794 607.226 215.688 606.313C214.982 602.911 214.007 600.81 212 598C211.34 597.67 210.68 597.34 210 597C210 596.34 210 595.68 210 595C209.67 594.67 209.34 594.34 209 594C209.089 592.475 209.245 590.953 209.438 589.438C209.539 588.611 209.641 587.785 209.746 586.934C209.83 586.296 209.914 585.658 210 585C209.34 584.67 208.68 584.34 208 584C208.66 584 209.32 584 210 584C209.844 583.325 209.688 582.649 209.527 581.953C209.235 580.615 209.235 580.615 208.938 579.25C208.642 577.928 208.642 577.928 208.34 576.578C207.986 573.89 208.198 572.555 209 570C209.24 568.951 209.48 567.902 209.727 566.821C213.597 550.902 221.25 534.869 234 524C234.66 524 235.32 524 236 524C236.248 523.43 236.495 522.861 236.75 522.274C238.194 519.648 239.934 517.791 242 515.625C245.132 512.199 246.858 509.569 248 505C248.66 504.67 249.32 504.34 250 504C250.324 494.21 249.925 485.413 247.734 475.805C246.471 469.259 246.254 462.651 246 456C245.34 456 244.68 456 244 456C244.33 455.01 244.66 454.02 245 453C245.33 453 245.66 453 246 453C246.124 452.103 246.248 451.206 246.375 450.281C249.637 430.549 259.459 414.934 275.75 403.133C285.124 396.981 294.963 391.646 304.811 386.299C311.346 382.69 317.274 378.797 323 374C322.67 373.01 322.34 372.02 322 371C322.66 370.34 323.32 369.68 324 369C326.125 369.375 326.125 369.375 328 370C338.981 358.607 338.981 358.607 344 344C344.468 343.555 344.937 343.109 345.419 342.65C347.426 340.556 347.858 338.827 348.606 336.035C348.867 335.071 349.128 334.106 349.397 333.112C349.658 332.105 349.919 331.099 350.188 330.063C350.597 328.559 350.597 328.559 351.014 327.026C352.129 322.836 353 319.365 353 315C353.66 315 354.32 315 355 315C355 313.35 355 311.7 355 310C354.34 309.67 353.68 309.34 353 309C353.66 307.35 354.32 305.7 355 304C355.66 304.33 356.32 304.66 357 305C357.66 302.03 358.32 299.06 359 296C359.66 296 360.32 296 361 296C361.193 295.409 361.387 294.817 361.586 294.207C362.718 290.773 363.833 287.392 365.25 284.063C365.498 283.382 365.745 282.701 366 282C365.67 281.34 365.34 280.68 365 280C365.99 280 366.98 280 368 280C368.308 278.815 368.308 278.815 368.621 277.606C370.481 272.742 373.22 268.657 376.063 264.313C377.16 262.623 378.256 260.932 379.348 259.239C379.833 258.496 380.317 257.754 380.817 256.99C382.148 254.913 382.148 254.913 383 252C384.634 250.301 386.306 248.639 388 247C389.779 245.048 391.549 243.091 393.313 241.125C397.116 236.914 400.996 233.05 405.441 229.5C407.131 228.059 407.131 228.059 407.965 225.875C408.307 225.256 408.648 224.638 409 224C410.326 223.64 411.662 223.312 413 223C415.027 221.583 416.98 220.132 418.938 218.625C431.168 209.58 445.001 202.38 459.578 198C460.377 197.67 461.177 197.34 462 197C462.33 196.01 462.66 195.02 463 194C466.928 192.412 470.1 191.917 474.313 192.063C479.238 192.182 483.801 191.437 488.625 190.563C497.847 188.926 506.896 188.26 516.255 187.918ZM471 193C475 194 475 194 475 194L471 193ZM464 195C468 196 468 196 468 196L464 195ZM210 590C211 592 211 592 211 592L210 590ZM186 809C187 813 187 813 187 813L186 809ZM195 836C196 838 196 838 196 838L195 836ZM236 969C237 973 237 973 237 973L236 969ZM235 1032C236 1036 236 1036 236 1036L235 1032ZM236 1037C237 1039 237 1039 237 1039L236 1037ZM242 1057C243 1059 243 1059 243 1059L242 1057ZM243 1059C244 1062 244 1062 244 1062L243 1059ZM241 1062C241.66 1062.66 242.32 1063.32 243 1064C243 1063.34 243 1062.68 243 1062C242.34 1062 241.68 1062 241 1062ZM246 1066C247 1068 247 1068 247 1068L246 1066ZM259 1086C260 1088 260 1088 260 1088L259 1086ZM348 1140C352 1141 352 1141 352 1141L348 1140ZM564 1173C565 1175 565 1175 565 1175L564 1173ZM380 1197C381 1199 381 1199 381 1199L380 1197Z" fill="#020101"/>
<path d="M624.758 888.203C627.793 889.282 630.192 890.97 632.875 892.75C643.793 899.759 655.219 903.178 668.125 903.187C669.025 903.2 669.925 903.212 670.852 903.224C676.31 903.236 681.232 902.643 686.553 901.461C690.581 900.702 694.6 900.703 698.688 900.625C708.625 900.289 717.566 898.547 726.852 894.871C735.146 892.576 743.528 894.551 751.812 896.125C753.597 896.463 753.597 896.463 755.418 896.807C786.416 902.884 818.286 914.211 838.121 940.133C843.642 948.557 848.566 958.192 851 968C851.202 968.753 851.405 969.506 851.613 970.281C857.8 997.552 848.564 1026.17 834.106 1049.28C828.136 1058.56 821.533 1066.93 814 1075C812.828 1076.35 811.661 1077.7 810.5 1079.06C803.339 1087.24 795.493 1094.24 787 1101C785.841 1101.95 784.684 1102.9 783.527 1103.85C747.92 1132.97 706.176 1155.81 665.394 1176.77C663.745 1177.62 662.098 1178.47 660.454 1179.33C611.273 1205 611.273 1205 595 1205C594.29 1203.55 594.29 1203.55 593.566 1202.06C583.123 1180.81 571.34 1160.14 556 1142C554.747 1140.42 553.497 1138.84 552.25 1137.25C544.896 1128.06 537.155 1119.18 529.23 1110.48C527.988 1109.1 526.753 1107.71 525.551 1106.29C522.17 1102.33 518.645 1098.61 514.906 1094.98C514.022 1094.13 513.138 1093.27 512.227 1092.38C510.385 1090.6 508.536 1088.83 506.68 1087.07C505.806 1086.22 504.932 1085.36 504.031 1084.48C502.833 1083.34 502.833 1083.34 501.611 1082.16C500 1080 500 1080 500.143 1077.85C503.436 1070.75 511.902 1065.28 517.879 1060.5C520.14 1058.69 522.371 1056.86 524.59 1055C534.616 1046.63 545.088 1039.16 556 1032C557.158 1031.24 557.158 1031.24 558.34 1030.46C573.284 1020.65 588.919 1012.28 604.703 1003.92C607.448 1002.47 610.193 1001.02 612.938 999.562C613.969 999.017 613.969 999.017 615.021 998.46C626.58 992.337 638.016 986.023 649.36 979.509C652.001 977.999 654.651 976.509 657.305 975.023C666.665 969.765 675.867 964.307 684.938 958.562C685.855 957.983 686.773 957.404 687.719 956.807C695.96 952.009 695.96 952.009 702 945C702.25 942 702.25 942 702 939C700.199 936.835 700.199 936.835 697.824 936.543C693.588 937.228 691.088 939.652 687.812 942.312C679.273 948.962 670.333 954.541 661 960C660.049 960.56 659.097 961.121 658.117 961.699C641.953 971.21 625.537 980.195 608.96 988.963C603.171 992.026 597.386 995.096 591.6 998.166C589.474 999.293 587.346 1000.42 585.218 1001.54C583.915 1002.23 582.612 1002.92 581.309 1003.61C580.162 1004.22 579.015 1004.83 577.834 1005.45C574.921 1006.99 574.921 1006.99 572 1009C568.621 1008.65 566.33 1007.06 563.578 1005.16C562.726 1004.57 561.874 1003.99 560.996 1003.39C560.09 1002.77 559.184 1002.14 558.25 1001.5C550.039 995.94 541.777 990.759 533.031 986.092C530.874 984.932 528.736 983.74 526.598 982.547C499.424 967.57 469.429 958.521 439 953C438.31 952.869 437.62 952.737 436.91 952.602C429.525 951.213 422.245 950.815 414.75 950.75C413.914 950.74 413.079 950.731 412.218 950.721C407.631 950.547 407.631 950.547 404 953C403.924 956.046 403.924 956.046 405 959C409.57 961.696 414.843 961.445 420 961.75C467.96 965.325 522.023 984.464 559 1016C555.591 1019.81 551.715 1022.16 547.375 1024.75C541.768 1028.18 536.522 1031.74 531.469 1035.96C529.173 1037.86 526.824 1039.66 524.444 1041.46C511.986 1050.86 500.376 1061.33 489 1072C488.105 1072.8 488.105 1072.8 487.191 1073.62C485.717 1075.06 485.717 1075.06 485.687 1077.87C485.997 1080.97 486.791 1083.16 488 1086C470.167 1103.3 451.359 1111 426.71 1111.95C414.657 1112.44 404.024 1114.21 394.062 1121.37C393.022 1122.1 391.982 1122.83 390.91 1123.59C388.624 1125.48 387.182 1126.95 385.43 1129.25C383 1132 383 1132 380.66 1132.73C344.266 1131.3 309.185 1116.98 282 1093C281.136 1092.24 280.273 1091.48 279.383 1090.7C258.54 1071.04 246.62 1042.51 245.727 1014.1C245.155 982.198 252.206 953.765 266 925C266.423 924.117 266.846 923.235 267.281 922.325C268.613 919.565 269.958 916.812 271.312 914.062C271.733 913.203 272.154 912.344 272.587 911.459C272.988 910.659 273.388 909.859 273.801 909.035C274.153 908.327 274.505 907.62 274.868 906.891C276.093 904.845 277.139 903.496 279 902C280.968 901.909 280.968 901.909 283.239 902.314C284.098 902.459 284.957 902.603 285.841 902.752C286.774 902.927 287.707 903.101 288.668 903.281C290.129 903.534 290.129 903.534 291.619 903.791C293.717 904.155 295.813 904.528 297.908 904.907C301.209 905.504 304.514 906.081 307.821 906.651C312.217 907.412 316.612 908.178 321.006 908.952C340.706 912.409 360.459 915.282 380.312 917.687C381.568 917.842 381.568 917.842 382.849 917.999C406.479 920.884 430.008 922.341 453.816 922.261C457.564 922.25 461.312 922.261 465.061 922.273C506.245 922.298 608.032 886.27 624.758 888.203Z" fill="#FE8D82"/>
<path d="M418 505C418.034 505.582 418.069 506.165 418.104 506.765C419.773 533.094 427.053 555 447.219 572.941C469.301 591.607 494.49 597.629 523 596C539.915 594.084 557.214 584.166 568.187 571.375C574.015 563.664 578.437 555.4 580.344 545.924C581.998 537.825 581.998 537.825 585.195 535.191C587.875 534 587.875 534 590.797 533.058C593.88 532.039 596.5 530.676 599.314 529.072C607.857 524.306 607.857 524.306 612.312 525.125C613.897 525.691 615.456 526.329 617 527C618.289 527.483 619.579 527.961 620.871 528.437C630.217 531.976 638.769 536.291 647 542C647.617 542.423 648.234 542.847 648.87 543.284C692.79 573.817 715.951 625.817 735.375 674C735.957 675.414 735.957 675.414 736.55 676.858C736.892 677.73 737.234 678.601 737.586 679.5C738.035 680.629 738.035 680.629 738.494 681.781C739.123 684.538 738.821 686.306 738 689C735.814 691.671 734.074 693.56 730.855 694.878C726.494 695.063 723.403 693.111 719.562 691.187C710.751 686.994 701.752 683.678 692.5 680.625C691.249 680.208 689.998 679.792 688.709 679.364C681.931 677.152 675.159 675.201 668.213 673.591C666 673 666 673 665 672C664.806 669.518 664.67 667.056 664.57 664.57C664.497 663.037 664.422 661.505 664.348 659.972C664.234 657.547 664.125 655.123 664.026 652.697C663.928 650.362 663.813 648.029 663.695 645.695C663.658 644.607 663.658 644.607 663.619 643.498C663.461 640.565 663.34 638.478 661.613 636.046C659.242 634.508 657.76 634.517 655 635C652.437 637.453 652.014 638.854 651.672 642.425C651.698 643.708 651.723 644.991 651.75 646.312C651.765 647.587 651.781 648.862 651.797 650.175C651.938 653.954 651.938 653.954 652.516 657.48C653.054 661.393 653.069 665.054 653 669C652.154 668.909 651.308 668.818 650.436 668.724C647.239 668.384 644.04 668.049 640.842 667.718C639.468 667.575 638.095 667.429 636.723 667.281C619.359 664.576 619.359 664.576 603 669C599.052 672.363 596.609 676.56 594.18 681.089C593.656 682.061 593.132 683.033 592.592 684.034C592.067 685.013 591.541 685.991 591 687C590.048 688.752 589.095 690.503 588.141 692.253C587.669 693.119 587.198 693.985 586.712 694.877C586.23 695.763 585.747 696.649 585.25 697.562C584.738 698.502 584.227 699.441 583.7 700.409C579.86 707.451 575.975 714.467 572.034 721.453C570.452 724.277 569.026 726.921 568 730C563.154 727.852 559.53 724.695 557 720C557.256 717.536 558.071 715.731 559.059 713.464C561.371 707.411 560.889 701.5 558.746 695.472C555.029 687.53 550.309 681.116 544 675C543.46 674.45 542.92 673.901 542.363 673.336C533.451 664.94 521.737 659.857 510 657C509.259 656.766 508.518 656.533 507.754 656.293C504.962 655.996 503.217 656.326 500.5 656.921C493.445 658.16 486.412 658.904 480.132 654.77C471.745 648.209 464.652 640.039 457.606 632.1C454.264 628.337 450.85 624.92 446.969 621.702C441.524 616.995 436.63 611.619 431.602 606.474C430.264 605.12 430.264 605.12 428.898 603.738C428.101 602.924 427.304 602.109 426.482 601.27C421.298 596.527 415.981 593.078 408.766 592.964C403.535 593.324 400.071 594.51 396 598C392.922 601.591 392.376 604.96 392.619 609.568C393.92 617.877 401.759 624.167 407.43 629.757C408.338 630.664 409.247 631.571 410.183 632.505C412.096 634.414 414.015 636.318 415.937 638.218C418.383 640.636 420.821 643.063 423.256 645.493C425.602 647.834 427.953 650.171 430.305 652.507C431.172 653.37 432.038 654.233 432.932 655.121C436.559 658.707 440.179 662.209 444.106 665.468C445.061 666.303 446.016 667.139 447 668C447 668.66 447 669.32 447 670C445.555 671.149 444.067 672.243 442.562 673.312C425.081 687.046 417.701 711.688 411 732C397.794 733.599 384.572 734.536 371.297 735.302C364.177 735.718 357.088 736.199 350 737C351.305 729.246 353.511 721.989 356.062 714.562C356.867 712.186 357.672 709.81 358.477 707.433C358.891 706.216 359.305 704.999 359.731 703.745C361.01 699.971 362.27 696.192 363.523 692.41C363.928 691.189 364.333 689.968 364.75 688.71C365.527 686.364 366.304 684.017 367.08 681.67C367.611 680.073 367.611 680.073 368.152 678.445C368.462 677.512 368.771 676.579 369.09 675.617C369.703 673.854 370.373 672.111 371.096 670.39C372.331 667.124 372.326 664.455 372 661C369.254 658.753 369.254 658.753 366.5 659.062C363.049 660.356 362.695 661.706 361 665C359.593 668.376 358.354 671.805 357.125 675.25C356.559 676.825 356.559 676.825 355.982 678.432C350.581 693.723 345.809 709.23 340.979 724.707C339.694 728.82 338.378 732.918 337 737C328.611 738.081 320.22 739.105 311.809 740C311.04 740.082 310.271 740.164 309.479 740.249C306.33 740.586 303.18 740.922 300.03 741.25C297.685 741.494 295.34 741.746 292.996 742C291.944 742.106 291.944 742.106 290.871 742.214C286.371 742.709 282.302 743.655 278 745C277.323 748.403 277.323 748.403 277 752C278.891 754.353 278.891 754.353 282.072 754.06C283.425 753.976 284.778 753.88 286.129 753.773C286.876 753.721 287.624 753.669 288.394 753.616C297.84 752.925 307.261 751.927 316.681 750.958C334.437 749.14 352.198 747.482 370 746.187C370.835 746.124 371.669 746.061 372.529 745.996C384.37 745.11 396.127 744.857 408 745C407.769 745.787 407.539 746.575 407.301 747.386C404.893 755.99 404.697 764.361 404.687 773.25C404.682 774.445 404.677 775.64 404.672 776.872C404.793 792.453 408.646 806.49 419.691 818.031C425.691 823.147 432.489 826.693 440 829C434.588 833.368 428.103 836.051 421.875 839.062C421.186 839.396 420.497 839.73 419.787 840.074C406.469 846.501 392.93 852.029 379 857C377.653 857.494 377.653 857.494 376.279 857.998C350.733 867.343 323.223 873.162 296 874C294.061 874.079 294.061 874.079 292.082 874.16C266.36 874.753 241.449 868.439 222 851C221.364 850.458 220.729 849.917 220.074 849.359C204.119 834.834 197.791 812.204 196.698 791.341C196.529 786.602 196.525 781.867 196.562 777.125C196.566 776.281 196.569 775.438 196.573 774.569C196.76 742.048 203.611 709.773 214 679C214.333 678.01 214.666 677.021 215.009 676.002C227.245 640.226 244.63 606.072 269 577C269.427 576.478 269.854 575.957 270.294 575.42C306.136 531.704 355.402 511.415 410.594 505.196C413.074 504.994 415.513 504.966 418 505Z" fill="#4FC5D8"/>
<path d="M604 263C631.182 280.291 648.211 314.969 655.191 345.465C663.982 391.657 660.095 444.691 634 485C631.211 488.885 628.226 492.473 625 496C623.846 497.276 623.846 497.276 622.668 498.578C607.868 514.167 584.04 527.969 562.024 529.161C532.559 529.537 532.559 529.537 520 526C519.294 525.801 518.588 525.603 517.861 525.398C496.289 519.163 478.137 508.586 462 493C461.269 492.321 460.538 491.641 459.785 490.941C446.192 477.994 436.661 460.942 429.599 443.712C427.722 439.155 427.722 439.155 424 436C420.458 436.316 417.374 436.875 414 438C404.401 438.901 396.388 436.875 388.848 430.789C379.155 421.404 375.22 407.596 374.688 394.438C374.94 385.605 378.266 376.795 384.516 370.465C390.014 365.702 394.02 364.535 401.18 364.688C408.759 365.527 412.321 369.268 417 375C425.007 380.919 432.078 382.049 442 381C454.153 377.159 462.458 367.867 470.672 358.605C484.705 342.9 498.214 334.408 518.786 329.286C550.819 321.297 579.446 303.904 596.918 275.32C599.345 271.25 601.691 267.138 604 263Z" fill="#FDC486"/>
<path d="M540 747C544.56 750.805 548.851 754.75 553 759C551.595 762.668 549.97 766.134 548.164 769.621C547.6 770.711 547.036 771.801 546.455 772.923C545.549 774.663 545.549 774.663 544.625 776.438C544.161 777.331 544.161 777.331 543.687 778.242C539.396 786.499 535.027 794.71 530.562 802.875C529.828 804.225 529.828 804.225 529.078 805.602C526.991 809.423 524.885 813.224 522.664 816.969C518.687 823.459 518.687 823.459 518.062 830.812C518.372 831.864 518.681 832.916 519 834C530.264 838.657 542.187 841.66 553.938 844.812C555.831 845.321 555.831 845.321 557.763 845.84C564.872 847.729 572 849.485 579.172 851.117C580.692 851.468 582.211 851.818 583.731 852.169C586.658 852.843 589.589 853.49 592.525 854.122C593.865 854.428 595.204 854.735 596.543 855.043C597.719 855.301 598.895 855.559 600.106 855.825C603.658 857.267 604.402 858.584 606 862C606.868 863.58 606.868 863.58 607.754 865.191C608.351 866.304 608.948 867.416 609.562 868.562C610.462 870.235 610.462 870.235 611.379 871.941C612.619 874.281 613.832 876.624 615 879C603.358 885.26 591.578 889.963 579 894C578.18 894.266 577.36 894.531 576.515 894.805C559.277 900.334 541.82 904.379 523.938 907.188C522.959 907.342 521.98 907.497 520.972 907.657C517.653 908.152 514.331 908.587 511 909C510.297 909.088 509.594 909.177 508.869 909.267C492.558 911.249 476.288 911.359 459.875 911.312C458.487 911.31 457.099 911.308 455.711 911.306C435.456 911.263 415.398 910.805 395.281 908.285C392.775 907.972 390.269 907.669 387.762 907.366C364.766 904.564 341.894 901.185 319.093 897.088C314.233 896.215 309.368 895.373 304.5 894.547C303.819 894.431 303.137 894.315 302.435 894.196C299.221 893.649 296.006 893.104 292.791 892.56C291.674 892.369 290.557 892.178 289.406 891.98C287.942 891.731 287.942 891.731 286.447 891.477C284 891 284 891 281 890C281.66 888.35 282.32 886.7 283 885C283.778 884.991 284.556 884.981 285.357 884.972C303.226 884.704 320.434 883.574 338 880C338.981 879.803 339.963 879.606 340.974 879.403C375.018 872.374 407.297 859.337 438.426 844.108C439.751 843.461 441.077 842.817 442.406 842.177C452.996 837.126 452.996 837.126 460 828C462.37 827.222 464.722 826.535 467.125 825.875C483.42 821.035 499.775 811.996 508.898 797.137C510.039 795.021 510.039 795.021 510.852 792.77C511.725 790.528 512.446 788.844 514 787C516.695 785.973 519.357 785.415 522.176 784.812C527.758 783.207 531.361 779.642 534.379 774.777C538.171 766.651 537.961 757.625 536 749C537.32 748.34 538.64 747.68 540 747Z" fill="#4FC4D7"/>
<path d="M601 692C606.286 692.61 611.474 693.41 616.684 694.504C617.428 694.659 618.173 694.814 618.941 694.973C621.441 695.497 623.939 696.029 626.438 696.562C627.309 696.748 628.18 696.933 629.078 697.124C651.027 701.813 672.796 707.259 694.574 712.678C695.271 712.851 695.969 713.025 696.687 713.204C699.991 714.026 703.294 714.85 706.596 715.677C707.763 715.969 708.93 716.26 710.132 716.561C711.149 716.815 712.166 717.07 713.214 717.333C715.8 717.952 718.389 718.498 721 719C718.606 726.457 715.821 733.72 712.938 741C712.46 742.21 711.983 743.42 711.491 744.667C706.703 756.795 701.86 768.901 697 781C693.043 779.804 689.862 778.424 686.438 776.125C677.654 770.744 667.36 767.378 657 769C652.885 770.341 650.485 772.24 648.125 775.938C647.128 778.652 646.527 781.169 646 784C645.143 784.026 644.286 784.052 643.402 784.078C636.521 784.419 631.501 784.695 626 789C623.28 792.188 622.775 795.095 622.125 799.125C621.294 803.793 621.294 803.793 618.688 805.625C617.357 806.306 617.357 806.306 616 807C611.384 812.117 610.676 816.757 610.371 823.453C609.783 827.488 607.808 829.124 605 832C602.798 836.183 602.473 840.353 602 845C595.27 843.708 588.61 842.232 581.961 840.574C581.036 840.345 580.112 840.115 579.159 839.879C577.214 839.395 575.27 838.91 573.326 838.424C570.405 837.695 567.482 836.973 564.559 836.252C553.579 833.523 542.747 830.54 532 827C532 822.916 532.366 821.854 534.281 818.449C535.038 817.082 535.038 817.082 535.811 815.686C536.368 814.697 536.926 813.707 537.5 812.688C541.547 805.384 545.52 798.059 549.32 790.625C549.679 789.923 550.038 789.221 550.408 788.498C551.836 785.704 553.261 782.908 554.676 780.107C555.667 778.146 556.665 776.188 557.664 774.23C558.236 773.1 558.808 771.97 559.397 770.805C560.765 768.411 561.929 766.781 564 765C565.502 766.1 565.502 766.1 567.035 767.223C568.377 768.17 569.719 769.117 571.062 770.062C571.719 770.548 572.376 771.033 573.053 771.533C576.644 774.028 578.373 775.001 582.871 774.996C586.269 774.273 586.269 774.273 588 771C589.038 764.839 585.9 760.092 583.125 754.812C582.665 753.911 582.205 753.009 581.73 752.08C579.942 748.6 578.173 745.259 576 742C576.262 736.777 578.385 732.823 580.824 728.328C581.208 727.606 581.592 726.883 581.988 726.139C582.8 724.614 583.616 723.091 584.436 721.57C585.674 719.275 586.9 716.974 588.123 714.672C592.219 706.992 596.395 699.391 601 692Z" fill="#FEB851"/>
<path d="M531.898 679.211C534.374 681.39 536.709 683.629 539 686C539.893 686.915 539.893 686.915 540.805 687.848C545.402 692.868 549.144 698.342 549.437 705.313C549 709 549 709 547.875 711C545.032 712.517 543.192 712.405 540 712C537.85 710.19 536.147 708.522 534.312 706.438C523.233 694.666 508.162 686.393 491.769 685.817C490.221 685.787 488.673 685.765 487.125 685.75C486.374 685.741 485.624 685.731 484.851 685.722C481.039 685.745 479.244 685.838 476 688C475.333 690.457 475.333 690.457 476 693C480.242 696.405 484.299 696.527 489.5 696.875C504.347 698.228 517.097 704.022 527.394 715.004C533.84 723.018 535.965 729.76 535 740C533.02 740.99 533.02 740.99 531 742C530.468 741.182 530.468 741.182 529.926 740.348C522.618 729.996 512.171 723.318 500 720C499.227 719.777 498.453 719.554 497.656 719.325C490.789 717.642 478.506 715.747 472 719C471.75 722.417 471.75 722.417 472 726C475.581 728.388 478.24 728.28 482.375 728.375C497.041 729.034 510.042 733.977 520.238 744.793C524.095 749.625 526.667 754.543 527.5 760.688C526.806 765.285 525.359 769.059 522.687 772.875C520.254 774.498 517.868 774.682 515 775C514.902 774.348 514.804 773.696 514.703 773.024C513.236 764.449 510.013 759.19 503.324 753.614C495.959 748.502 486.872 746.42 478 748C475.433 751.851 476.167 753.586 477 758C478.125 758.022 478.125 758.022 479.273 758.043C488.064 758.453 495.267 760.177 501.562 766.625C504.431 771.365 504.682 775.78 503.539 781.176C501.81 787.065 499.001 791.395 495 796C494.447 796.659 493.894 797.318 493.324 797.996C482.996 809.342 466.291 816.913 451.086 818.258C442.135 818.598 435.982 816.503 428.875 811.125C419.792 802.64 415.735 789.07 414.758 777.012C414.037 746.775 425.556 708.325 445.625 685.364C468.2 662.9 506.412 659.77 531.898 679.211Z" fill="#FDC587"/>
<path d="M457 1121C458.387 1122.68 458.387 1122.68 459.688 1124.87C470.351 1141.62 485.439 1155.83 501 1168C514.926 1179.44 521.805 1190.06 524.438 1207.81C527.5 1228.19 533.594 1247.35 540.142 1266.84C551.896 1301.92 551.896 1301.92 543.934 1319.33C540.794 1324.75 536.531 1329.75 530.512 1331.88C528 1332 528 1332 526.113 1330.66C508.36 1309.4 495.84 1284.08 483.006 1259.69C478.592 1251.31 474.067 1243 469.492 1234.7C468.461 1232.84 467.433 1230.97 466.406 1229.1C457.641 1213.14 448.406 1197.52 438.864 1182.03C437.276 1179.45 435.696 1176.86 434.121 1174.27C419.614 1150.49 419.614 1150.49 400 1131C402.413 1128.19 404.726 1127.11 408.188 1125.87C409.089 1125.54 409.99 1125.21 410.918 1124.87C417.76 1122.94 424.754 1122.83 431.812 1122.56C438.319 1122.29 444.546 1121.81 450.906 1120.3C453.339 1119.95 454.731 1120.04 457 1121Z" fill="#C381C1"/>
<path d="M760 1134C785.101 1136.73 814.319 1147.91 830.98 1167.28C837.781 1176.44 839.286 1185.78 838 1197C835.91 1206.94 828.796 1214.55 820.688 1220.31C800.811 1232.56 774.843 1233.02 752.487 1228.05C721.728 1220.37 692.623 1207.11 666 1190C670.601 1185.87 675.84 1183.38 681.312 1180.62C692.807 1174.73 703.951 1168.34 715.057 1161.74C717.943 1160.03 720.837 1158.34 723.734 1156.64C742.889 1146.69 742.889 1146.69 760 1134Z" fill="#C281C1"/>
<path d="M278 902C284.667 903.083 291.334 904.167 298.001 905.253C300.261 905.621 302.522 905.989 304.782 906.356C317.871 908.482 330.95 910.644 344 913C343.959 914.094 343.917 915.189 343.875 916.316C343.674 920.084 343.674 920.084 346 922.938C348.7 927.072 348.558 929.134 348 934C343.393 939.623 336 941.357 329.312 943.312C321.559 945.593 315 948.937 308 953C307.242 953.362 306.484 953.724 305.703 954.098C303.387 955.325 303.058 956.62 302 959C301.319 960.011 300.639 961.021 299.937 962.062C296.338 967.519 296.534 972.651 297 979C299.336 987.175 305.425 994.105 310.937 1000.44C312.918 1002.9 313.721 1003.93 314 1007C314.186 1008.09 314.371 1009.19 314.562 1010.31C313.848 1015 312.448 1016.47 308.812 1019.37C303.005 1022.74 296.435 1024.23 290 1026C281.838 1028.44 274.358 1032.64 268.312 1038.69C265.572 1045.6 266.153 1052.59 268.875 1059.44C269.572 1060.96 270.28 1062.48 271 1064C273.19 1068.93 274.263 1074.04 275.412 1079.29C276.571 1084.33 276.571 1084.33 280 1088C279.67 1088.66 279.34 1089.32 279 1090C264.403 1075.07 253.844 1057.45 249 1037C248.701 1035.91 248.402 1034.81 248.094 1033.69C237.523 989.055 255.124 943.774 276 905C276.66 904.01 277.32 903.02 278 902Z" fill="#FD8D82"/>
<path d="M828 655C829.634 658.268 827.926 661.413 826.93 664.758C826.697 665.556 826.465 666.355 826.226 667.178C825.451 669.829 824.664 672.477 823.875 675.125C823.606 676.034 823.338 676.944 823.061 677.88C815.687 702.824 807.965 727.723 798.938 752.125C798.592 753.066 798.246 754.007 797.89 754.977C792.881 768.132 783.845 775.381 772.842 783.616C770.963 785.028 769.098 786.455 767.234 787.887C760.075 793.358 752.795 798.603 745.312 803.625C744.558 804.134 743.804 804.643 743.027 805.167C739.452 807.537 736.098 809.626 732 811C731.464 810.49 730.928 809.979 730.375 809.453C722.705 802.339 714.428 796.18 706 790C707.855 783.481 709.989 777.181 712.547 770.906C712.881 770.075 713.215 769.244 713.56 768.388C714.619 765.757 715.684 763.128 716.75 760.5C717.796 757.91 718.841 755.319 719.884 752.728C720.574 751.019 721.266 749.312 721.962 747.605C723.686 743.358 725.341 739.103 726.876 734.784C727.177 733.954 727.479 733.125 727.789 732.27C728.354 730.703 728.903 729.129 729.431 727.549C730.725 724 731.483 722.283 734.856 720.438C737.688 719.812 737.688 719.812 740.832 719.457C751.76 717.881 761.656 707.813 770 701C771.294 699.953 772.588 698.906 773.883 697.859C777.93 694.583 781.966 691.293 786 688C799.804 676.733 813.687 665.617 828 655Z" fill="#FDB851"/>
<path d="M818 928C821.915 927.347 823.891 927.259 827.246 929.5C830.888 932.824 832.799 934.96 833.75 939.875C833.059 945.724 831.333 951.677 827.094 955.898C825.114 957.413 823.157 958.753 821 960C820.404 960.375 819.809 960.75 819.195 961.137C811.017 964.352 799.864 962.256 792 959C788.606 957.494 785.225 955.959 781.844 954.425C776.821 952.207 772.553 951 767 951C766.34 951.33 765.68 951.66 765 952C764.706 956.989 765.185 960.984 766.5 965.812C767.896 971.532 768.365 976.953 768.438 982.812C768.459 983.6 768.481 984.388 768.504 985.2C768.485 990.91 767.157 995.219 764 1000C756.782 1007.03 748.818 1008.44 739.129 1008.43C733.611 1008.07 728.647 1006.04 723.497 1004.15C717.683 1002.08 712.193 1000.78 706 1002C705.01 1002.66 704.02 1003.32 703 1004C702.768 1007.13 702.718 1009.9 703.501 1012.96C704.416 1016.71 704.269 1020.53 704.312 1024.37C704.342 1025.21 704.371 1026.05 704.4 1026.91C704.457 1032.48 703.7 1035.59 700 1040C692.826 1047.01 685.83 1048.55 676.127 1048.65C668.766 1048.4 662.344 1046.03 655.488 1043.51C647.891 1040.77 640.851 1039.38 633 1042C630.573 1046.85 631.918 1053.74 632.5 1059C633.502 1068.27 634.399 1077.97 628.438 1085.75C623.558 1090.9 617.851 1093.17 610.812 1093.56C600.952 1093.18 591.645 1088.63 583.086 1084.02C579.742 1082.39 576.7 1081.85 573 1081.81C572.34 1081.8 571.68 1081.78 571 1081.77C568.541 1082.05 567.028 1082.57 565 1084C564.447 1086.02 564.447 1086.02 564.5 1088.31C564.255 1091.55 563.952 1093.09 562.438 1096.06C558.81 1098.95 556.558 1098.51 552 1098C548.593 1094.59 548.822 1090.85 548.75 1086.19C548.831 1080.12 549.267 1075.91 553.582 1071.32C560.456 1065.07 566.965 1064.46 575.945 1064.7C583.046 1065.09 588.75 1067.83 594.984 1071.05C595.689 1071.41 596.393 1071.77 597.119 1072.14C598.507 1072.86 599.887 1073.6 601.256 1074.36C605.599 1076.66 608.973 1077.86 614 1077C616.667 1074.21 616.989 1072.49 617.074 1068.64C616.947 1067.38 616.819 1066.12 616.688 1064.81C616.567 1063.39 616.451 1061.98 616.34 1060.56C616.28 1059.82 616.221 1059.08 616.16 1058.32C615.885 1054.34 615.795 1050.36 615.75 1046.37C615.718 1045.26 615.718 1045.26 615.686 1044.12C615.654 1039.3 616.373 1036.04 619 1032C625.492 1025.91 634.093 1023 642.875 1022.56C650.212 1022.81 656.821 1025.78 663.594 1028.38C671.687 1031.41 677.5 1033.26 686 1031C685.976 1029.55 685.976 1029.55 685.952 1028.07C685.898 1024.45 685.864 1020.84 685.835 1017.23C685.82 1015.67 685.8 1014.11 685.774 1012.55C685.737 1010.3 685.72 1008.05 685.707 1005.8C685.692 1005.11 685.676 1004.42 685.66 1003.71C685.658 998.257 686.993 994.274 690.613 990.172C696.817 984.98 702.171 983.45 710.262 983.531C715.037 984.13 719.371 985.518 723.938 987C731.516 989.446 738.989 991.833 747 990C749.853 988.295 749.853 988.295 752 986C753.225 977.427 749.925 968.835 747.312 960.75C745.599 955.093 745.109 950.526 747.125 944.812C750.677 939.484 755.71 935.505 762 934C774.862 932.672 784.941 937.156 796.119 942.947C800.949 945.348 804.474 946.628 810 946C814.308 944.418 814.308 944.418 817 941C817.23 938.795 817.411 936.586 817.562 934.375C817.646 933.186 817.73 931.998 817.816 930.773C817.877 929.858 817.938 928.943 818 928Z" fill="#FEB04B"/>
<path d="M663.563 779.438C681.116 779.642 698.364 796.385 711 807C712.154 807.934 713.309 808.866 714.465 809.797C715.644 810.76 716.822 811.724 718 812.688C718.552 813.127 719.105 813.566 719.674 814.019C724.269 817.824 726.67 821.299 727.398 827.262C727.277 844.995 720.532 862.186 708 875C694.229 887.951 681.605 892.687 662.93 892.312C656.782 892.032 651.547 890.673 646 888C645.167 887.599 644.335 887.198 643.477 886.785C630.455 879.699 618.725 867.847 614.422 853.414C613.587 848.637 613.779 843.828 614 839C615.32 839 616.64 839 618 839C619.973 841.203 619.973 841.203 622.063 844.25C629.627 854.858 638.849 866.029 650 873C653.198 873.44 653.198 873.44 656 873C657.287 871.909 657.287 871.909 657.426 869.289C656.846 864.809 654.501 863.106 651.188 860.375C649.985 859.323 648.786 858.267 647.59 857.207C646.985 856.674 646.38 856.141 645.757 855.592C635.827 846.595 626.412 835.326 621 823C621.215 819.271 621.339 817.661 624 815C629.343 815.142 631.618 817.037 635.23 820.812C635.944 821.544 635.944 821.544 636.673 822.291C638.19 823.849 639.69 825.423 641.188 827C643.152 829.049 645.125 831.091 647.105 833.125C647.591 833.625 648.077 834.124 648.578 834.639C653.391 839.518 658.609 843.768 664 848C665.417 849.166 666.834 850.333 668.25 851.5C671.854 854.17 674.511 855 679 855C681.33 853.14 681.33 853.14 681.008 850.188C679.691 846.021 677.314 844.404 673.875 842C666.423 836.47 659.75 830.349 653.047 823.946C650.814 821.823 648.563 819.721 646.309 817.621C645.528 816.893 644.748 816.165 643.945 815.415C642.421 813.993 640.896 812.572 639.37 811.154C638.683 810.51 637.997 809.866 637.289 809.203C636.372 808.347 636.372 808.347 635.436 807.474C633.309 805.291 633.012 804.143 632.75 801.062C633 798 633 798 634 796.125C637.267 794.287 640.409 794.438 644 795C649.853 796.832 653.985 800.577 658.406 804.68C661.374 807.335 664.473 809.758 667.625 812.188C672.857 816.236 677.9 820.453 682.875 824.812C684.716 826.414 686.557 828.014 688.401 829.613C689.773 830.803 691.143 831.997 692.512 833.191C696.455 836.483 696.455 836.483 701.5 836.875C702.738 836.442 702.738 836.442 704 836C704.301 832.548 704.455 830.644 702.418 827.762C701.682 827.077 700.946 826.393 700.188 825.688C698.956 824.535 698.956 824.535 697.699 823.359C694.098 820.211 690.42 817.175 686.688 814.184C684.226 812.184 681.855 810.123 679.5 808C675.318 804.231 670.974 800.691 666.578 797.176C662.897 794.069 659.677 791.015 657 787C657.574 781.261 657.796 779.841 663.563 779.438Z" fill="#FDC788"/>
<path d="M390 1141C396.938 1141.78 400.71 1146.9 405 1152C414.397 1163.91 422.167 1177.04 430 1190C430.624 1191.03 431.248 1192.06 431.89 1193.12C439.474 1205.63 446.968 1218.17 454 1231C454.433 1231.79 454.866 1232.58 455.313 1233.39C460.681 1243.17 465.991 1252.97 471.273 1262.8C473.631 1267.18 475.993 1271.57 478.356 1275.95C479.399 1277.88 480.441 1279.82 481.481 1281.76C490.361 1298.29 499.547 1314.86 511.195 1329.62C512.996 1331.99 514.518 1334.42 516 1337C499.421 1338.5 485.942 1329.44 473.602 1319.29C464.864 1311.6 457.143 1303.19 450 1294C449.271 1293.08 449.271 1293.08 448.528 1292.14C420.564 1256.74 381.796 1202.41 386 1155C386.864 1150.2 387.806 1145.39 390 1141Z" fill="#4FC7D9"/>
<path d="M437 483C437.546 483.688 438.093 484.377 438.656 485.086C451.117 500.579 463.58 513.177 481 523C481.65 523.368 482.3 523.735 482.969 524.114C493.488 529.954 504.376 533.943 516 537C516.675 537.179 517.351 537.359 518.047 537.543C534.649 541.723 553.133 541.234 570 539C566.414 553.62 558.207 566.475 545.562 574.875C530.024 584.085 511.265 587.072 493.508 583.16C489.538 582.085 485.765 580.646 482 579C480.985 578.558 480.985 578.558 479.95 578.107C459.061 568.761 442.71 554.591 434 533C428.591 515.389 431.327 500.018 437 483Z" fill="#FDC587"/>
<path d="M838.25 1020.06C840.453 1021.6 840.453 1021.6 842 1023C842 1023.66 842 1024.32 842 1025C842.66 1025 843.32 1025 844 1025C843.63 1031.79 841.595 1036.27 838 1042C837.863 1041.09 837.863 1041.09 837.723 1040.16C836.398 1036.2 832.539 1034.84 829 1033C822.753 1030.02 817.56 1029.13 810.688 1030.81C807.722 1031.84 807.722 1031.84 806 1035C805.788 1037.97 805.788 1037.97 805.945 1041.36C805.97 1042.62 805.994 1043.88 806.02 1045.18C806.085 1047.83 806.167 1050.48 806.254 1053.13C806.412 1062.3 805.696 1067.73 799.562 1074.81C793.054 1080.37 787.761 1081.34 779.383 1081.3C773.644 1080.79 768.396 1078.93 763 1077C757.872 1075.29 753.588 1075.38 748.625 1077.31C745.783 1078.89 745.783 1078.89 744 1082C743.821 1085.15 743.821 1085.15 744.016 1088.76C744.051 1090.12 744.085 1091.48 744.117 1092.84C744.179 1094.98 744.249 1097.11 744.343 1099.24C744.674 1107.23 744.812 1113.68 739.707 1120.25C736.763 1123.27 733.58 1125.79 730 1128C729.394 1128.37 728.788 1128.75 728.164 1129.14C719.045 1132.77 708.632 1129.4 700 1126C695.515 1124.29 691.679 1123.65 686.875 1123.56C685.676 1123.52 684.477 1123.48 683.242 1123.44C679.942 1123.75 679.942 1123.75 677.602 1125.82C674.813 1131.36 675.488 1137.28 675.512 1143.36C675.398 1151.27 673.779 1156.35 669 1162.62C661.617 1168.47 654.34 1171.94 644.812 1171.39C635.511 1170.11 628.222 1165.92 621.375 1159.56C619.451 1155.98 619.928 1153.86 621 1150C622.062 1148.06 622.062 1148.06 624 1147C629.502 1146.15 632.204 1146.81 636.812 1149.94C637.541 1150.48 638.269 1151.03 639.02 1151.59C643.047 1154.46 647.239 1154.35 652 1154C654.37 1153.61 654.37 1153.61 656 1152C659.597 1145.31 659.454 1139.11 659.527 1131.65C659.693 1124.89 660.707 1120.53 665.375 1115.37C672.845 1108.62 678.606 1106.39 688.734 1106.46C694.908 1106.98 700.705 1109.31 706.451 1111.51C711.966 1113.57 717.08 1114.98 723 1114C725.502 1112.12 726.619 1110.76 728 1108C728.05 1106.01 728.036 1104.02 727.992 1102.03C727.975 1100.82 727.959 1099.61 727.941 1098.36C727.898 1095.82 727.846 1093.28 727.785 1090.73C727.69 1082.52 727.693 1074.42 732.797 1067.6C733.441 1067.09 734.086 1066.58 734.75 1066.06C735.384 1065.54 736.018 1065.01 736.672 1064.47C744.63 1059.44 752.849 1058.75 762 1060C765.732 1061.09 769.259 1062.43 772.863 1063.88C778.411 1065.86 783.348 1065.53 789 1064C789.777 1059.92 790.092 1056.15 789.992 1052.01C789.975 1050.89 789.959 1049.77 789.941 1048.62C789.897 1046.3 789.845 1043.97 789.785 1041.65C789.689 1034.05 790.026 1028.16 794.578 1021.79C806.473 1010.37 824.644 1011.38 838.25 1020.06Z" fill="#FEB04A"/>
<path d="M343 914C355.781 913.594 355.781 913.594 361 916C365.364 920.881 366.434 926.914 366.332 933.238C365.646 938.946 363.325 943.706 359.227 947.75C351.327 953.561 341.126 956.411 331.844 959.312C331.177 959.524 330.51 959.735 329.823 959.953C327.988 960.527 326.147 961.078 324.305 961.629C320.059 963.39 316.127 965.747 314 970C313.156 978.162 316.057 982.026 320.785 988.41C327.258 997.302 330.204 1004.86 329 1016C326.958 1023.09 322.609 1028.62 316.473 1032.66C309.925 1036.17 303.155 1038.27 296.036 1040.24C290.992 1041.64 286.559 1043.38 282 1046C281.605 1052.4 282.669 1056.58 285.437 1062.31C286.083 1063.7 286.727 1065.1 287.371 1066.49C288.177 1068.23 288.177 1068.23 289 1070C290.126 1073.38 290.133 1076.01 290.125 1079.56C290.129 1081.3 290.129 1081.3 290.133 1083.07C290 1086 290 1086 289 1088C288.34 1088 287.68 1088 287 1088C286.67 1088.99 286.34 1089.98 286 1091C283.187 1091.31 283.187 1091.31 280 1091C278.312 1088.94 278.312 1088.94 277 1086C276.505 1085.01 276.01 1084.02 275.5 1083C274.066 1079.6 273.332 1076.16 272.562 1072.56C271.378 1067.11 269.661 1062.88 267 1058C265.204 1052.4 264.859 1045.56 266.66 1039.94C273.138 1029.28 287.509 1025.51 298.715 1022.32C304.19 1020.73 309.569 1018.75 313 1014C313.797 1006.69 311.481 1002.33 307.061 996.828C306.566 996.225 306.072 995.621 305.562 995C298.354 986.134 294.813 979.742 296 968C299.455 957.367 307.655 951.961 317.086 946.875C323.745 943.716 330.893 941.639 337.891 939.367C340.979 938.357 344.002 937.259 347 936C347.485 929.175 347.122 925.668 343 920C342.75 916.625 342.75 916.625 343 914Z" fill="#FEB14A"/>
<path d="M499.938 993.5C505.33 995.525 509.281 996.756 515 996C515.99 995.34 516.98 994.68 518 994C522.369 994.285 525.471 995.405 529 998C529 998.66 529 999.32 529 1000C529.99 1000 530.98 1000 532 1000C531.51 1004.25 528.976 1007.13 526 1010C521.453 1013.03 517.351 1013.81 512 1013C507.603 1011.84 503.302 1010.47 499 1009C493.922 1007.31 489.623 1007.39 484.688 1009.25C480.565 1011.93 478.858 1015.13 476.938 1019.56C472.855 1027.9 466.638 1035.33 458 1039C455.245 1039.88 452.699 1040.19 449.812 1040.25C449.118 1040.28 448.423 1040.3 447.707 1040.33C438.604 1039.22 432.427 1034.77 425.482 1029.12C420.69 1025.48 417.285 1024.38 411.253 1024.56C406.26 1025.54 403.347 1029.06 400.555 1033.09C399.585 1034.6 398.619 1036.11 397.656 1037.63C392 1045.74 385.342 1050.89 376 1054C366.305 1054.9 358.73 1053.43 350.812 1047.69C349 1045 349 1045 349 1041.44C350.601 1035.94 350.601 1035.94 353 1034C359.031 1033.3 362.437 1034.53 368 1037C372.149 1037.59 374.948 1037.1 378.375 1034.59C381.333 1031.7 383.563 1028.26 385.938 1024.89C391.367 1017.29 396.72 1010.66 406 1008C419.439 1006.27 427.965 1010.17 438.457 1018.09C443.912 1022.51 443.912 1022.51 450.488 1023.79C458.087 1021.39 462.253 1011.56 466.008 1005.05C470.206 998.622 476.181 993.528 483.562 991.188C489.72 990.714 494.177 991.167 499.938 993.5Z" fill="#FEB14A"/>
<path d="M497 1094C504.4 1097.17 509.724 1104.58 514.863 1110.58C517.198 1113.22 519.604 1115.79 522.023 1118.35C527.498 1124.15 532.796 1130 537.777 1136.24C539.904 1138.88 542.083 1141.46 544.285 1144.04C553.333 1154.62 553.333 1154.62 556 1159C554.797 1162.61 553.97 1162.9 550.773 1164.78C549.906 1165.29 549.038 1165.8 548.145 1166.33C547.231 1166.86 546.317 1167.39 545.375 1167.94C544.484 1168.46 543.594 1168.99 542.676 1169.53C540.929 1170.56 539.178 1171.58 537.421 1172.59C535.905 1173.47 534.405 1174.39 532.931 1175.34C528.586 1178.1 528.586 1178.1 525.914 1177.63C523.154 1175.28 520.764 1172.65 518.375 1169.94C513.23 1164.23 507.828 1159.02 502 1154C500.562 1152.73 499.125 1151.46 497.688 1150.19C495.642 1148.4 493.609 1146.7 491.438 1145.06C488.626 1142.68 486.341 1140.07 483.953 1137.27C481.848 1134.82 479.678 1132.44 477.5 1130.06C473.422 1125.55 469.651 1120.86 466 1116C469.232 1113.33 472.49 1110.99 476.062 1108.81C481.429 1105.45 486.443 1101.76 491.469 1097.92C493.27 1096.55 495.12 1095.25 497 1094Z" fill="#FDC689"/>
<path d="M818 637C820.793 638.49 823.402 640.195 826 642C823.311 644.774 820.54 647.244 817.5 649.625C813.699 652.631 809.959 655.694 806.25 658.813C801.427 662.849 796.519 666.754 791.557 670.617C786.863 674.287 782.27 678.068 777.688 681.875C766.239 691.364 754.534 700.966 742 709C741.419 709.388 740.837 709.776 740.238 710.176C732.75 712.934 724.431 709.867 717.078 707.965C715.197 707.491 715.197 707.491 713.278 707.006C709.94 706.164 706.604 705.311 703.269 704.455C699.98 703.613 696.689 702.78 693.398 701.948C688.175 700.624 682.952 699.298 677.729 697.969C677.087 697.805 676.444 697.642 675.782 697.473C672.593 696.661 669.404 695.848 666.216 695.032C651.624 691.3 637.061 687.811 622.25 685.063C620.643 684.758 619.036 684.453 617.43 684.147C613.621 683.423 609.811 682.708 606 682C607.75 678.125 607.75 678.125 610 677C647.439 674.584 685.444 687.261 719.158 702.445C726.814 705.955 726.814 705.955 735 706C737.548 704.513 737.548 704.513 739.688 702.25C740.534 701.433 741.381 700.616 742.254 699.774C743.16 698.858 744.066 697.943 745 697C746.009 695.992 747.018 694.984 748.027 693.977C749.582 692.422 751.134 690.866 752.681 689.304C755.946 686.014 759.291 682.901 762.82 679.899C765.138 677.88 767.382 675.796 769.628 673.699C775.056 668.628 780.592 663.799 786.387 659.145C788.998 657.002 791.504 654.776 794 652.5C812.043 636.074 812.043 636.074 818 637Z" fill="#FAE4B2"/>
<path d="M659.066 1198.68C660.235 1199.41 661.4 1200.14 662.562 1200.87C663.91 1201.7 665.259 1202.52 666.609 1203.34C667.324 1203.78 668.039 1204.21 668.775 1204.66C698.242 1222.41 734.949 1239.91 770 1241C771.087 1241.05 771.087 1241.05 772.197 1241.09C790.65 1241.82 806.569 1239.68 822.875 1230.71C826 1229 826 1229 829 1228C829 1228.66 829 1229.32 829 1230C828.34 1230 827.68 1230 827 1230C827 1230.66 827 1231.32 827 1232C815.146 1244.88 799.831 1252.57 782.312 1253.37C736.551 1254.28 690.966 1234.51 653 1210C651.977 1209.34 651.977 1209.34 650.934 1208.67C647.586 1206.5 644.272 1204.29 641 1202C642.315 1199.37 643.602 1199.03 646.25 1197.81C647.018 1197.45 647.787 1197.08 648.578 1196.71C652.804 1195.47 655.276 1196.6 659.066 1198.68Z" fill="#54CBDA"/>
<path d="M773 799C774.311 823.386 767.117 846.389 751 865C739.424 877.854 726.965 885.341 710 889C710.825 888.031 711.65 887.061 712.5 886.062C713.324 885.092 713.324 885.092 714.164 884.102C715.377 882.713 716.622 881.353 717.898 880.023C727.232 870.174 732.7 859.088 736 846C736.185 845.373 736.37 844.746 736.561 844.1C737.042 841.8 736.944 839.99 736.719 837.656C735.983 824.678 735.983 824.678 739.454 820.07C743.389 816.487 747.955 813.932 752.599 811.376C756.564 809.103 760.223 806.407 763.938 803.75C770.675 799 770.675 799 773 799Z" fill="#50C7D8"/>
<path d="M494.934 426.344C498.484 429.19 500.564 431.693 502 436C502.552 442.673 502.447 448.177 499 454C493.573 459.428 488.047 461.189 480.562 461.5C474.497 461.347 470.436 460.196 466 456C460.554 449.018 460.245 442.628 461 434C463.282 429.086 466.688 426.145 471 423C479.559 420.159 487.581 421.34 494.934 426.344Z" fill="#FEA585"/>
<path d="M583.688 388.75C584.781 388.833 585.874 388.915 587 389C588.967 392.638 590.343 396.108 591.562 400.062C593.544 405.743 596.673 409.921 600.471 414.496C604.609 419.508 606.44 423.355 606.254 429.949C605.556 435.589 602.673 439.847 599 444C592.361 449.017 585.701 450.561 577.562 450.625C576.793 450.636 576.024 450.646 575.232 450.657C571.388 450.561 569.354 450.213 565.992 448.188C564 446 564 446 563.562 442.375C564 439 564 439 566 437C569.5 436.914 572.944 437.005 576.439 437.166C581.767 437.301 585.275 436.521 590 434C592.437 431.183 593.051 429.858 592.828 426.133C591.842 422.402 590.463 420.896 587.75 418.188C581.064 411.054 577.657 405.3 576.75 395.48C577.238 390.636 578.904 389.074 583.688 388.75Z" fill="#030201"/>
<path d="M530.625 457.375C534.515 458.095 535.094 458.86 537.688 461.688C544.389 468.928 554.112 472.47 563.844 473.219C574.575 473.544 581.902 471.035 590 464C590.507 463.45 591.013 462.899 591.535 462.332C593 461 593 461 596.062 460.688C599 461 599 461 601 463C601.42 467.269 601.618 469.821 599.625 473.625C587.41 484.677 573.359 486.916 557.522 486.222C547.639 485.352 539.108 480.774 532 474C531.38 473.42 530.76 472.84 530.121 472.242C527.113 469.129 526.078 467.595 525.5 463.188C526.119 459.242 526.729 458.303 530.625 457.375Z" fill="#030201"/>
<path d="M544.062 392.25C547 393 547 393 549 395C549.884 402.074 547.908 407.103 544 413C539.173 418.605 532.635 422.274 525.332 423.418C518.247 423.788 512.808 422.055 507 418C503.007 414.377 499.807 410.102 498 405C498.316 398.684 498.316 398.684 501 396C503.875 395.562 503.875 395.562 507 396C509.483 398.483 511.089 401.144 512.938 404.125C515.188 407.262 516.393 408.637 520 410C524.917 410.295 528.067 409.754 531.938 406.625C534.401 403.489 535.914 401.326 536.938 397.437C538.291 393.058 539.411 391.87 544.062 392.25Z" fill="#040302"/>
<path d="M644 387.688C644.99 387.791 645.98 387.894 647 388C649.501 391.752 649.607 394.66 649 399C647.012 405.618 642.608 410.136 637 414C630.594 417.225 622.413 417.177 615.555 415.348C609.391 412.532 603.986 407.544 601 401.438C599.921 397.729 599.889 395.674 601 392C603 390 603 390 605.875 389.625C609.771 390.092 610.599 390.958 613 394C613.66 395.011 614.32 396.021 615 397.062C617.432 400.711 617.432 400.711 621 403C624.111 403.526 626.894 403.579 630 403C634.163 400.039 636.06 396.323 638.106 391.77C639.66 388.694 640.54 388.048 644 387.688Z" fill="#030201"/>
<path d="M535 352C536.73 353.387 536.73 353.387 538 355C538.368 358.438 538.584 360.901 536.937 364C533.836 365.6 531.317 364.711 528 364C527.01 363.67 526.02 363.34 525 363C517.663 362.251 511.365 364.859 505.25 368.75C502.309 370.384 500.31 370.441 497 370C494.82 366.729 494.368 365.795 495 362C504.564 350.045 521.043 345.064 535 352Z" fill="#060302"/>
<path d="M642.188 349.812C644 352 644 352 644.5 355.562C644 359 644 359 642.875 361C639.96 362.554 638.132 361.86 635 361C634.089 360.493 633.177 359.987 632.238 359.465C628.551 357.797 626.027 357.63 622 357.687C620.237 357.693 620.237 357.693 618.438 357.699C614.986 358.001 612.24 358.815 609 360C606.25 360.312 606.25 360.312 604 360C601.839 356.758 601.358 355.763 602 352C613.457 340.543 629.159 342.404 642.188 349.812Z" fill="#040302"/>
<path d="M655 354C657.118 358.235 657.668 361.816 658.125 366.438C658.208 367.274 658.292 368.11 658.378 368.971C659.627 382.703 659.3 396.337 658.125 410.062C658.047 410.997 657.968 411.931 657.888 412.894C657.804 413.765 657.719 414.637 657.633 415.535C657.559 416.302 657.486 417.069 657.411 417.86C657 420 657 420 655 424C655 400.9 655 377.8 655 354Z" fill="#EAC88D"/>
<path d="M437 483C437.535 483.679 438.07 484.359 438.621 485.059C441.881 489.089 445.275 492.996 448.666 496.916C451.216 499.875 453.714 502.828 456 506C451.855 504.416 449.358 501.372 446.5 498.125C443.411 494.666 440.32 491.242 437 488C436.867 488.675 436.735 489.351 436.598 490.047C436.421 490.939 436.245 491.831 436.063 492.75C435.889 493.632 435.715 494.513 435.535 495.422C435 498 435 498 434.473 499.781C433.875 502.589 433.888 505.208 433.902 508.078C433.906 509.238 433.909 510.398 433.912 511.594C433.921 512.8 433.929 514.007 433.938 515.25C433.942 516.472 433.947 517.694 433.951 518.953C433.963 521.969 433.979 524.984 434 528C431.244 525.244 431.274 522.729 431 519C430.923 518.041 430.845 517.082 430.766 516.094C430.279 504.528 433.368 493.895 437 483Z" fill="#F4E5A8"/>
<path d="M495 981C501.965 983.162 508.435 985.896 515 989.062C516.006 989.547 517.012 990.032 518.049 990.531C554.718 1008.44 554.718 1008.44 559 1017C556.224 1015.66 553.644 1014.19 551.066 1012.5C550.335 1012.03 549.603 1011.55 548.85 1011.06C548.095 1010.57 547.34 1010.07 546.562 1009.56C539.129 1004.12 539.129 1004.12 530.875 1000.5C529 1000 529 1000 527.73 998.645C525.511 996.535 523.218 995.492 520.449 994.188C519.358 993.669 518.267 993.151 517.143 992.617C516.002 992.084 514.862 991.55 513.688 991C511.441 989.938 509.195 988.875 506.949 987.812C505.952 987.345 504.956 986.877 503.928 986.395C500.932 984.968 497.964 983.493 495 982C495 981.67 495 981.34 495 981Z" fill="#F2B698"/>
<path d="M752 695C752.562 698.125 752.562 698.125 752 702C747.147 706.974 741.789 708.753 735 709C736.502 705.245 736.502 705.245 738.852 704.09C741.289 702.853 742.751 701.415 744.625 699.438C748.85 695 748.85 695 752 695Z" fill="#FADCA5"/>
<path d="M828 1228C828.33 1228.66 828.66 1229.32 829 1230C828.34 1230 827.68 1230 827 1230C827 1230.66 827 1231.32 827 1232C823.607 1235.72 819.868 1238.82 815.875 1241.88C814.841 1242.68 813.807 1243.48 812.742 1244.3C811.837 1244.86 810.932 1245.42 810 1246C809.01 1245.67 808.02 1245.34 807 1245C809.97 1243.02 812.94 1241.04 816 1239C813.138 1237.57 811.066 1238.4 808 1239C809.907 1237.09 811.246 1236.26 813.625 1235.09C814.331 1234.74 815.038 1234.39 815.766 1234.03C816.503 1233.67 817.24 1233.31 818 1232.94C818.737 1232.57 819.475 1232.21 820.234 1231.83C821.601 1231.16 822.968 1230.49 824.336 1229.82C825.56 1229.22 826.781 1228.61 828 1228Z" fill="#62DCE4"/>
<path d="M632 679C632 679.33 632 679.66 632 680C627.545 680.495 627.545 680.495 623 681C623.33 681.66 623.66 682.32 624 683C614.707 684.418 614.707 684.418 611 683C609.688 680.937 609.688 680.937 609 679C616.38 676.827 624.502 677.868 632 679Z" fill="#F7DCA4"/>
<path d="M294 551C294.66 551.33 295.32 551.66 296 552C294.673 555.583 292.486 557.428 289.523 559.762C287.811 561.105 287.811 561.105 285.75 563.312C284 565 284 565 282 565C281.67 565.99 281.34 566.98 281 568C280.01 567.67 279.02 567.34 278 567C282.821 561.037 288.225 556.033 294 551Z" fill="#53CCD8"/>
<path d="M640.188 1039.94C642.075 1039.97 642.075 1039.97 644 1040C640.775 1041.74 637.487 1042.89 634 1044C632.829 1048.04 633.205 1051.3 633.742 1055.38C634.22 1060.24 634.074 1065.12 634 1070C633.67 1070 633.34 1070 633 1070C629.665 1046 629.665 1046 633 1041C635.751 1040.08 637.36 1039.89 640.188 1039.94Z" fill="#FE7F88"/>
<path d="M329 1003C331 1005 331 1005 331.312 1008.94C331.113 1015.46 330.461 1022.2 326.02 1027.25C324.076 1028.96 322.12 1030.52 320 1032C319.34 1031.67 318.68 1031.34 318 1031C318.554 1030.42 319.109 1029.84 319.68 1029.24C320.404 1028.46 321.129 1027.68 321.875 1026.88C322.594 1026.11 323.314 1025.34 324.055 1024.55C327.686 1019.79 328.266 1014.99 328.625 1009.12C328.7 1007.97 328.775 1006.82 328.852 1005.63C328.901 1004.76 328.95 1003.9 329 1003Z" fill="#FD8086"/>
<path d="M544 412C544 415 544 415 542.68 416.465C540.802 417.997 538.908 419.506 537 421C536.113 421.784 535.226 422.567 534.312 423.375C529.389 425.79 524.399 425.695 519 425C518.34 424.34 517.68 423.68 517 423C517.655 422.997 518.31 422.995 518.984 422.992C527.776 422.62 535.828 419.908 542.348 413.801C543.166 412.909 543.166 412.909 544 412Z" fill="#F3DD9D"/>
<path d="M530 597C528 599 528 599 525 599.187C522 599 522 599 520 598C520 598.66 520 599.32 520 600C514.72 600 509.44 600 504 600C504 599.01 504 598.02 504 597C507.02 596.804 510.041 596.618 513.062 596.437C513.91 596.381 514.758 596.325 515.631 596.268C520.603 595.98 525.098 596.102 530 597Z" fill="#4DBCCC"/>
<path d="M655 354C658.284 360.145 658.143 366.633 658.062 373.438C658.058 374.169 658.053 374.901 658.049 375.654C658.037 377.436 658.019 379.218 658 381C655.309 376.963 654.872 374.023 654.902 369.234C654.906 368.345 654.909 367.455 654.912 366.539C654.925 365.158 654.925 365.158 654.937 363.75C654.942 362.814 654.947 361.878 654.951 360.914C654.963 358.609 654.979 356.305 655 354Z" fill="#F5DB9D"/>
<path d="M614.359 676.867C615.228 676.866 616.097 676.865 616.992 676.863C618.357 676.869 618.357 676.869 619.75 676.875C620.645 676.871 621.539 676.867 622.461 676.863C627.087 676.87 631.449 677.051 636 678C636 678.33 636 678.66 636 679C635.319 678.995 634.638 678.99 633.936 678.984C630.853 678.963 627.77 678.95 624.688 678.938C623.616 678.929 622.544 678.921 621.439 678.912C620.411 678.909 619.383 678.906 618.324 678.902C617.376 678.897 616.428 678.892 615.452 678.886C612.862 678.895 612.862 678.895 610 680C611.32 680.66 612.64 681.32 614 682C611.36 682 608.72 682 606 682C608.045 677.473 609.479 676.874 614.359 676.867Z" fill="#FAF7DA"/>
<path d="M817 921C824.362 924.435 829.478 930.208 835 936C834.67 936.66 834.34 937.32 834 938C833.42 937.362 832.84 936.724 832.242 936.066C831.07 934.827 831.07 934.827 829.875 933.562C829.109 932.739 828.344 931.915 827.555 931.066C824.633 928.703 822.699 928.295 819 928C819.33 927.01 819.66 926.02 820 925C819.01 924.34 818.02 923.68 817 923C817 922.34 817 921.68 817 921Z" fill="#F4BE89"/>
<path d="M625.473 888.297C625.977 888.529 626.481 888.761 627 889C626.01 889.33 625.02 889.66 624 890C622.484 890.773 622.484 890.773 620.938 891.562C618 893 618 893 616 893C616 893.66 616 894.32 616 895C612.352 896.272 608.806 897.328 605 898C607.772 894.611 611.559 893.057 615.438 891.25C616.44 890.757 616.44 890.757 617.463 890.254C622.411 887.929 622.411 887.929 625.473 888.297Z" fill="#F6AE9E"/>
<path d="M560 714C561 717 561 717 560 720C560.495 720.454 560.99 720.907 561.5 721.375C563 723 563 723 563 725C563.66 725 564.32 725 565 725C565 725.66 565 726.32 565 727C566.32 726.34 567.64 725.68 569 725C568.67 726.65 568.34 728.3 568 730C564.556 728.552 562.639 726.723 560.25 723.875C559.636 723.151 559.023 722.426 558.391 721.68C557.932 721.125 557.473 720.571 557 720C558.875 715.125 558.875 715.125 560 714Z" fill="#61E2E9"/>
<path d="M706 699C710.95 699.99 710.95 699.99 716 701C716.33 701.99 716.66 702.98 717 704C712.707 705.263 710.122 704.63 706 703C706 701.68 706 700.36 706 699Z" fill="#FADEA6"/>
<path d="M666 639C666.33 639 666.66 639 667 639C667 645.93 667 652.86 667 660C666.01 659.67 665.02 659.34 664 659C664 655.04 664 651.08 664 647C664.66 647 665.32 647 666 647C666 644.36 666 641.72 666 639Z" fill="#4ABACC"/>
<path d="M288 1113C289.432 1114.24 290.865 1115.47 292.297 1116.71C294.276 1118.29 294.276 1118.29 298 1120C293.38 1120 288.76 1120 284 1120C285.32 1119.34 286.64 1118.68 288 1118C287.34 1116.68 286.68 1115.36 286 1114C286.66 1113.67 287.32 1113.34 288 1113Z" fill="#6C2A1E"/>
<path d="M410 1006C417.999 1006.24 424.1 1006.81 431 1011C429 1012 429 1012 427.188 1011.51C426.466 1011.24 425.744 1010.97 425 1010.69C420.077 1008.94 415.135 1007.91 410 1007C410 1006.67 410 1006.34 410 1006Z" fill="#FE7F86"/>
<path d="M722 876C722 879 722 879 720.688 880.605C720.131 881.128 719.574 881.65 719 882.188C718.443 882.717 717.886 883.247 717.312 883.793C716.879 884.191 716.446 884.59 716 885C717.32 885.33 718.64 885.66 720 886C715.05 887.485 715.05 887.485 710 889C713.826 884.445 717.744 880.155 722 876Z" fill="#66E5EB"/>
<path d="M666 664C666.66 664 667.32 664 668 664C668 665.98 668 667.96 668 670C669.65 670.33 671.3 670.66 673 671C673 671.33 673 671.66 673 672C670.674 672.381 668.339 672.713 666 673C665 672 665 672 664.875 668.5C665 665 665 665 666 664Z" fill="#4EBDCB"/>
<path d="M843 1027C844 1030 844 1030 842.785 1032.92C842.217 1034 841.648 1035.08 841.062 1036.19C840.497 1037.27 839.931 1038.36 839.348 1039.48C838.903 1040.31 838.458 1041.14 838 1042C837.878 1041.39 837.755 1040.77 837.629 1040.14C836.791 1037.29 835.172 1035.96 833 1034C835.386 1034.58 837.667 1035.22 840 1036C840.99 1033.03 841.98 1030.06 843 1027Z" fill="#F4BE74"/>
<path d="M313 537C313.33 537.66 313.66 538.32 314 539C311.516 542.85 311.516 542.85 309.062 543.562C308.382 543.707 307.701 543.851 307 544C304.793 545.488 304.793 545.488 303 547C302.34 546.67 301.68 546.34 301 546C302.623 544.685 304.249 543.373 305.875 542.062C306.78 541.332 307.685 540.601 308.617 539.848C311 538 311 538 313 537Z" fill="#5FE1EA"/>
<path d="M630 1083C630.33 1083.66 630.66 1084.32 631 1085C623.596 1092.83 623.596 1092.83 618.188 1093.19C617.105 1093.09 617.105 1093.09 616 1093C617.984 1091.02 619.364 1090.27 621.875 1089.12C625.198 1087.52 627.568 1085.84 630 1083Z" fill="#FE7F86"/>
<path d="M427 908C429.125 907.946 431.25 907.907 433.375 907.875C434.558 907.852 435.742 907.829 436.961 907.805C440 908 440 908 442 910C439.235 911.382 436.954 911.095 433.875 911.062C432.779 911.053 431.684 911.044 430.555 911.035C429.29 911.018 429.29 911.018 428 911C427.67 910.01 427.34 909.02 427 908Z" fill="#4AB3C3"/>
<path d="M525 786C523.733 786.674 522.461 787.339 521.188 788C520.48 788.371 519.772 788.742 519.043 789.125C517 790 517 790 514 790C513.34 791.32 512.68 792.64 512 794C512.33 792.02 512.66 790.04 513 788C514.433 787.468 515.872 786.95 517.312 786.437C518.113 786.147 518.914 785.857 519.738 785.558C522 785 522 785 525 786Z" fill="#61E4EC"/>
<path d="M744 705C744 705.99 744 706.98 744 708C739.545 708.495 739.545 708.495 735 709C737.482 704.035 738.944 703.431 744 705Z" fill="#F4D79E"/>
<path d="M294 551C294.66 551.33 295.32 551.66 296 552C294.707 554.884 293.341 556.872 291 559C290.01 558.67 289.02 558.34 288 558C289.98 555.69 291.96 553.38 294 551Z" fill="#58D6E1"/>
<path d="M510.188 906.312C511.274 906.432 512.361 906.552 513.48 906.676C514.312 906.783 515.143 906.89 516 907C516 907.33 516 907.66 516 908C511.039 909.323 506.089 909.089 501 909C503.675 905.349 505.908 905.806 510.188 906.312Z" fill="#62E4EB"/>
<path d="M608 869C611.273 871.782 612.964 875.28 615 879C614.01 879.66 613.02 880.32 612 881C611.01 880.67 610.02 880.34 609 880C609.99 879.67 610.98 879.34 612 879C611.711 878.446 611.423 877.891 611.125 877.32C610.568 876.234 610.568 876.234 610 875.125C609.629 874.406 609.257 873.686 608.875 872.945C608 871 608 871 608 869Z" fill="#63E8ED"/>
<path d="M186 805C188.45 814.1 188.45 814.1 187 817C186.01 816.67 185.02 816.34 184 816C184 813.36 184 810.72 184 808C184.66 808 185.32 808 186 808C186 807.01 186 806.02 186 805Z" fill="#3C3225"/>
<path d="M634 684C633.67 684.66 633.34 685.32 633 686C625.571 686.285 625.571 686.285 622 684C626.084 682.468 629.795 683.369 634 684Z" fill="#F0DFB6"/>
<path d="M828 655C828.33 655.66 828.66 656.32 829 657C828.062 659.625 828.062 659.625 827 662C826.34 661.34 825.68 660.68 825 660C823.68 660.99 822.36 661.98 821 663C820.34 662.67 819.68 662.34 819 662C821.97 659.69 824.94 657.38 828 655Z" fill="#F4DC67"/>
<path d="M636 301C639.329 303.984 641.321 306.846 643 311C642.67 311.99 642.34 312.98 642 314C641.34 312.35 640.68 310.7 640 309C639.34 309 638.68 309 638 309C637.333 306.333 636.667 303.667 636 301Z" fill="#F2DFA2"/>
<path d="M756 898C757.626 898.114 759.251 898.242 760.875 898.375C761.78 898.445 762.685 898.514 763.617 898.586C766 899 766 899 768 901C764.7 901 761.4 901 758 901C758 900.34 758 899.68 758 899C757.34 898.67 756.68 898.34 756 898Z" fill="#F9ADA0"/>
<path d="M610 677C610.99 677.33 611.98 677.66 613 678C612.01 678.66 611.02 679.32 610 680C611.32 680.66 612.64 681.32 614 682C611.36 682 608.72 682 606 682C607.75 678.125 607.75 678.125 610 677Z" fill="#F3F2D2"/>
<path d="M691 833C691.516 833.268 692.031 833.536 692.562 833.812C695.664 835.323 698.823 836.656 702 838C702 838.33 702 838.66 702 839C698.145 839.359 696.422 839.275 693.125 837.125C692.424 836.424 691.723 835.723 691 835C691 834.34 691 833.68 691 833Z" fill="#EEDB9E"/>
<path d="M665 1165C665.66 1165.33 666.32 1165.66 667 1166C665.902 1166.84 664.797 1167.67 663.688 1168.5C663.073 1168.96 662.458 1169.43 661.824 1169.91C660 1171 660 1171 657 1171C657 1170.34 657 1169.68 657 1169C658.287 1168.3 659.579 1167.62 660.875 1166.94C661.594 1166.55 662.314 1166.17 663.055 1165.78C663.697 1165.52 664.339 1165.26 665 1165Z" fill="#FD7E85"/>
<path d="M413 907C415.97 907 418.94 907 422 907C422 907.66 422 908.32 422 909C419.291 910.354 416.991 910.065 414 910C413.67 909.01 413.34 908.02 413 907Z" fill="#4BB9C7"/>
<path d="M568 307C568.66 307.33 569.32 307.66 570 308C569.361 308.268 568.721 308.536 568.062 308.812C565.669 309.887 565.669 309.887 565 313C563.35 313.33 561.7 313.66 560 314C562.578 311.352 564.916 309.056 568 307Z" fill="#F7E2A2"/>
<path d="M240 1062C242 1062 244 1062 246 1062C244.42 1065.5 243.391 1066.3 240 1068C240 1066.02 240 1064.04 240 1062Z" fill="#6C271D"/>
<path d="M841 1023C841.33 1023.66 841.66 1024.32 842 1025C842.66 1025 843.32 1025 844 1025C843.67 1026.32 843.34 1027.64 843 1029C842.34 1029 841.68 1029 841 1029C840.67 1029.66 840.34 1030.32 840 1031C839.875 1025.25 839.875 1025.25 841 1023Z" fill="#FDA754"/>
<path d="M817 921C820.465 922.98 820.465 922.98 824 925C823.67 925.99 823.34 926.98 823 928C821.68 927.67 820.36 927.34 819 927C819 926.01 819 925.02 819 924C818.34 923.67 817.68 923.34 817 923C817 922.34 817 921.68 817 921Z" fill="#F7A986"/>
<path d="M306 752C311.75 751.875 311.75 751.875 314 753C314 753.66 314 754.32 314 755C311.36 755 308.72 755 306 755C306 754.01 306 753.02 306 752Z" fill="#4BB9C8"/>
<path d="M718 705C720.64 705 723.28 705 726 705C724.515 706.98 724.515 706.98 723 709C721.35 708.67 719.7 708.34 718 708C718 707.01 718 706.02 718 705Z" fill="#EFD7A7"/>
<path d="M575 450C576.604 449.946 578.208 449.907 579.812 449.875C580.706 449.852 581.599 449.829 582.52 449.805C585 450 585 450 588 452C586.35 452.33 584.7 452.66 583 453C583 452.34 583 451.68 583 451C580.36 451 577.72 451 575 451C575 450.67 575 450.34 575 450Z" fill="#CDA26F"/>
<path d="M273 1082C273.99 1082 274.98 1082 276 1082C278.108 1084.89 279 1086.38 279 1090C277.994 1089.05 276.995 1088.09 276 1087.12C275.443 1086.59 274.886 1086.06 274.312 1085.51C273 1084 273 1084 273 1082Z" fill="#F49F96"/>
<path d="M831 948C831.33 948 831.66 948 832 948C832.25 950.25 832.25 950.25 832 953C830 955.312 830 955.312 828 957C827.34 956.67 826.68 956.34 826 956C826.808 954.664 827.622 953.331 828.438 952C828.89 951.257 829.342 950.515 829.809 949.75C830.202 949.173 830.595 948.595 831 948Z" fill="#FC7B88"/>
<path d="M433 813C434.65 813 436.3 813 438 813C438 813.66 438 814.32 438 815C440.97 815.495 440.97 815.495 444 816C444 816.33 444 816.66 444 817C436.492 816.385 436.492 816.385 434 814.438C433.67 813.963 433.34 813.489 433 813Z" fill="#F8E4A6"/>
<path d="M648 401C648.33 401 648.66 401 649 401C649.312 403.312 649.312 403.312 649 406C646.5 407.812 646.5 407.812 644 409C645.125 406.028 646.223 403.666 648 401Z" fill="#F6DB9B"/>
<path d="M820 1138C821.32 1138.66 822.64 1139.32 824 1140C823.67 1140.99 823.34 1141.98 823 1143C821.35 1142.01 819.7 1141.02 818 1140C818.66 1139.34 819.32 1138.68 820 1138Z" fill="#59302B"/>
<path d="M791 1113C791.33 1114.32 791.66 1115.64 792 1117C790.02 1117.33 788.04 1117.66 786 1118C787.65 1116.35 789.3 1114.7 791 1113Z" fill="#69322A"/>
<path d="M192 696C192.99 696 193.98 696 195 696C194.67 697.32 194.34 698.64 194 700C193.34 700 192.68 700 192 700C192 698.68 192 697.36 192 696Z" fill="#2F3129"/>
<path d="M656 1227C656.66 1227 657.32 1227 658 1227C658 1227.66 658 1228.32 658 1229C658.99 1229.33 659.98 1229.66 661 1230C660.01 1230.5 660.01 1230.5 659 1231C658.01 1230.34 657.02 1229.68 656 1229C656 1228.34 656 1227.68 656 1227Z" fill="#393228"/>
<path d="M336 1138C338.475 1138.5 338.475 1138.5 341 1139C340.67 1139.66 340.34 1140.32 340 1141C338.68 1140.67 337.36 1140.34 336 1140C336 1139.34 336 1138.68 336 1138Z" fill="#652B1E"/>
<path d="M408 1257C408.99 1257.99 409.98 1258.98 411 1260C410.67 1260.66 410.34 1261.32 410 1262C409.34 1261.67 408.68 1261.34 408 1261C408 1259.68 408 1258.36 408 1257Z" fill="#2B2D28"/>
<path d="M249 488C249.33 488 249.66 488 250 488C250 490.31 250 492.62 250 495C249.67 495 249.34 495 249 495C248.619 493.009 248.287 491.007 248 489C248.33 488.67 248.66 488.34 249 488Z" fill="#050201"/>
<path d="M464 1328C464.99 1328.99 465.98 1329.98 467 1331C466.01 1331.5 466.01 1331.5 465 1332C464.67 1330.68 464.34 1329.36 464 1328Z" fill="#2D2E26"/>
<path d="M441 1304C441.66 1304.66 442.32 1305.32 443 1306C442.01 1306.33 441.02 1306.66 440 1307C439.67 1306.34 439.34 1305.68 439 1305C439.66 1304.67 440.32 1304.34 441 1304Z" fill="#2E3028"/>
<path d="M568 1184C568.99 1184.33 569.98 1184.66 571 1185C570.34 1185.66 569.68 1186.32 569 1187C568.67 1186.01 568.34 1185.02 568 1184Z" fill="#5E2C1F"/>
<path d="M371 1168C371.66 1168 372.32 1168 373 1168C373 1169.65 373 1171.3 373 1173C371 1169.12 371 1169.12 371 1168Z" fill="#3B3026"/>
<path d="M321 1133C322.32 1133.33 323.64 1133.66 325 1134C323.68 1134.33 322.36 1134.66 321 1135C321 1134.34 321 1133.68 321 1133Z" fill="#6C281E"/>
<path d="M820 1090C821.32 1090 822.64 1090 824 1090C823.67 1090.66 823.34 1091.32 823 1092C822.01 1092 821.02 1092 820 1092C820 1091.34 820 1090.68 820 1090Z" fill="#6A3025"/>
<path d="M852 1043C852.66 1043.99 853.32 1044.98 854 1046C853.01 1046.33 852.02 1046.66 851 1047C851.33 1045.68 851.66 1044.36 852 1043Z" fill="#692D21"/>
<path d="M845 928C845.99 928 846.98 928 848 928C847.67 928.99 847.34 929.98 847 931C846.34 930.01 845.68 929.02 845 928Z" fill="#5A251B"/>
<path d="M184 736C184.99 736.495 184.99 736.495 186 737C185.67 738.32 185.34 739.64 185 741C184.67 739.35 184.34 737.7 184 736Z" fill="#333127"/>
<path d="M210 559C210.33 559.66 210.66 560.32 211 561C210.01 562.485 210.01 562.485 209 564C209.33 562.35 209.66 560.7 210 559Z" fill="#090504"/>
<path d="M513 1351C514.65 1351 516.3 1351 518 1351C518 1351.33 518 1351.66 518 1352C516.35 1352 514.7 1352 513 1352C513 1351.67 513 1351.34 513 1351Z" fill="#37251C"/>
<path d="M469 1333C469.99 1333.33 470.98 1333.66 472 1334C471.67 1334.66 471.34 1335.32 471 1336C470.34 1335.67 469.68 1335.34 469 1335C469 1334.34 469 1333.68 469 1333Z" fill="#302D24"/>
<path d="M445 1309C445.99 1309.99 446.98 1310.98 448 1312C447.01 1311.67 446.02 1311.34 445 1311C445 1310.34 445 1309.68 445 1309Z" fill="#2E2E29"/>
<path d="M555 1271C555.99 1271.5 555.99 1271.5 557 1272C556.67 1272.99 556.34 1273.98 556 1275C555.67 1273.68 555.34 1272.36 555 1271Z" fill="#552C24"/>
<path d="M675 1238C676.98 1238.99 676.98 1238.99 679 1240C677.68 1239.67 676.36 1239.34 675 1239C675 1238.67 675 1238.34 675 1238Z" fill="#37322B"/>
<path d="M385 1213C385.99 1213.5 385.99 1213.5 387 1214C386.67 1214.99 386.34 1215.98 386 1217C385.67 1215.68 385.34 1214.36 385 1213Z" fill="#31332C"/>
<path d="M815 1136C815.99 1136.33 816.98 1136.66 818 1137C816.68 1137.33 815.36 1137.66 814 1138C814.33 1137.34 814.66 1136.68 815 1136Z" fill="#552F2D"/>
<path d="M280 1115C280.99 1115 281.98 1115 283 1115C283 1115.66 283 1116.32 283 1117C282.01 1117 281.02 1117 280 1117C280 1116.34 280 1115.68 280 1115Z" fill="#69271B"/>
<path d="M233 1026C233.33 1026 233.66 1026 234 1026C234 1027.65 234 1029.3 234 1031C233.67 1031 233.34 1031 233 1031C233 1029.35 233 1027.7 233 1026Z" fill="#71291E"/>
<path d="M232 1016C232.33 1016 232.66 1016 233 1016C233 1017.65 233 1019.3 233 1021C232.67 1021 232.34 1021 232 1021C232 1019.35 232 1017.7 232 1016Z" fill="#712A1D"/>
<path d="M187 818C187.33 818.99 187.66 819.98 188 821C187.34 821 186.68 821 186 821C186.33 820.01 186.66 819.02 187 818Z" fill="#382E22"/>
<path d="M692 542C692.33 542.66 692.66 543.32 693 544C692.34 544.66 691.68 545.32 691 546C691.33 544.68 691.66 543.36 692 542Z" fill="#1E1A16"/>
<path d="M245 448C245.33 449.32 245.66 450.64 246 452C245.34 451.34 244.68 450.68 244 450C244.33 449.34 244.66 448.68 245 448Z" fill="#070200"/>
<path d="M312 379C312.99 379.33 313.98 379.66 315 380C314.01 380.33 313.02 380.66 312 381C312 380.34 312 379.68 312 379Z" fill="#090201"/>
<path d="M446 200C447.65 200 449.3 200 451 200C451 200.33 451 200.66 451 201C449.35 201 447.7 201 446 201C446 200.67 446 200.34 446 200Z" fill="#060201"/>
<path d="M497 178C498.485 178.99 498.485 178.99 500 180C498.68 179.67 497.36 179.34 496 179C496.33 178.67 496.66 178.34 497 178Z" fill="#0E0400"/>
<path d="M780 1267C784 1268 784 1268 784 1268L780 1267Z" fill="#352E25"/>
<path d="M411 1262C411.66 1262.66 412.32 1263.32 413 1264C412.01 1263.67 411.02 1263.34 410 1263C410.33 1262.67 410.66 1262.34 411 1262Z" fill="#2B2E28"/>
<path d="M736 1262C736.99 1262.33 737.98 1262.66 739 1263C738.01 1263 737.02 1263 736 1263C736 1262.67 736 1262.34 736 1262Z" fill="#332E28"/>
<path d="M672 1236C673.485 1236.99 673.485 1236.99 675 1238C674.01 1238 673.02 1238 672 1238C672 1237.34 672 1236.68 672 1236Z" fill="#38322B"/>
<path d="M397 1237C397.33 1237.66 397.66 1238.32 398 1239C397.01 1238.67 396.02 1238.34 395 1238C395.66 1237.67 396.32 1237.34 397 1237Z" fill="#2D2F27"/>
<path d="M395 1233C395.33 1233.99 395.66 1234.98 396 1236C395.34 1235.67 394.68 1235.34 394 1235C394.33 1234.34 394.66 1233.68 395 1233Z" fill="#2D2F28"/>
<path d="M536 1189C536.99 1189.5 536.99 1189.5 538 1190C537.34 1190.66 536.68 1191.32 536 1192C536 1191.01 536 1190.02 536 1189Z" fill="#592F22"/>
<path d="M336 1141C336.99 1141.5 336.99 1141.5 338 1142C337.34 1142.66 336.68 1143.32 336 1144C336 1143.01 336 1142.02 336 1141Z" fill="#61291D"/>
<path d="M802 1129C802.33 1129.99 802.66 1130.98 803 1132C802.34 1131.67 801.68 1131.34 801 1131C801.33 1130.34 801.66 1129.68 802 1129Z" fill="#5D302D"/>
<path d="M797 1128C797.66 1128.33 798.32 1128.66 799 1129C798.01 1129 797.02 1129 796 1129C796.33 1128.67 796.66 1128.34 797 1128Z" fill="#5A2F2C"/>
<path d="M785 1118C785.33 1118.66 785.66 1119.32 786 1120C785.01 1119.67 784.02 1119.34 783 1119C783.66 1118.67 784.32 1118.34 785 1118Z" fill="#65322A"/>
<path d="M234 975C234.33 975.99 234.66 976.98 235 978C234.34 977.67 233.68 977.34 233 977C233.33 976.34 233.66 975.68 234 975Z" fill="#712A1E"/>
<path d="M240 939C241.485 939.99 241.485 939.99 243 941C242.01 941 241.02 941 240 941C240 940.34 240 939.68 240 939Z" fill="#682A1E"/>
<path d="M264 887C264.66 887.66 265.32 888.32 266 889C265.01 889.495 265.01 889.495 264 890C264 889.01 264 888.02 264 887Z" fill="#3B2C24"/>
<path d="M184 745C185 749 185 749 185 749L184 745Z" fill="#323129"/>
<path d="M760 662C760.66 662.66 761.32 663.32 762 664C761.01 664.495 761.01 664.495 760 665C760 664.01 760 663.02 760 662Z" fill="#463727"/>
<path d="M760 659C760.99 659.33 761.98 659.66 763 660C762.01 660 761.02 660 760 660C760 659.67 760 659.34 760 659Z" fill="#463522"/>
<path d="M742 656C742.66 656 743.32 656 744 656C743.67 656.99 743.34 657.98 743 659C742.67 658.01 742.34 657.02 742 656Z" fill="#34332A"/>
<path d="M240 514C240.99 514.33 241.98 514.66 243 515C242.01 515 241.02 515 240 515C240 514.67 240 514.34 240 514Z" fill="#070302"/>
<path d="M695 510C696 514 696 514 696 514L695 510Z" fill="#1D100A"/>
<path d="M249 496C250 500 250 500 250 500L249 496Z" fill="#060100"/>
<path d="M289 392C289.66 392.66 290.32 393.32 291 394C290.01 393.67 289.02 393.34 288 393C288.33 392.67 288.66 392.34 289 392Z" fill="#070100"/>
<path d="M407 224C407.33 224.99 407.66 225.98 408 227C407.34 226.67 406.68 226.34 406 226C406.33 225.34 406.66 224.68 407 224Z" fill="#070100"/>
<path d="M502 1350C502.66 1350 503.32 1350 504 1350C503.67 1350.66 503.34 1351.32 503 1352C502.67 1351.34 502.34 1350.68 502 1350Z" fill="#332820"/>
<path d="M495 1348C495.66 1348 496.32 1348 497 1348C496.67 1348.66 496.34 1349.32 496 1350C495.67 1349.34 495.34 1348.68 495 1348Z" fill="#342B21"/>
<path d="M467 1331C467.66 1331.66 468.32 1332.32 469 1333C468.34 1333 467.68 1333 467 1333C467 1332.34 467 1331.68 467 1331Z" fill="#2F2E25"/>
<path d="M416 1275C416.99 1275.5 416.99 1275.5 418 1276C417.01 1276.5 417.01 1276.5 416 1277C416 1276.34 416 1275.68 416 1275Z" fill="#2C2A24"/>
<path d="M773 1267C776 1268 776 1268 776 1268L773 1267Z" fill="#362F26"/>
<path d="M765 1267C768 1268 768 1268 768 1268L765 1267Z" fill="#363028"/>
<path d="M762 1266C762.66 1266.66 763.32 1267.32 764 1268C763.34 1268 762.68 1268 762 1268C762 1267.34 762 1266.68 762 1266Z" fill="#363028"/>
<path d="M788 1266C791 1267 791 1267 791 1267L788 1266Z" fill="#342F26"/>
<path d="M759 1266C759.33 1266.66 759.66 1267.32 760 1268C759.34 1267.67 758.68 1267.34 758 1267C758.33 1266.67 758.66 1266.34 759 1266Z" fill="#363027"/>
<path d="M725 1263C728 1264 728 1264 728 1264L725 1263Z" fill="#342B23"/>
<path d="M726 1259C729 1260 729 1260 729 1260L726 1259Z" fill="#373128"/>
<path d="M540 1219C540.66 1219.66 541.32 1220.32 542 1221C541.34 1221 540.68 1221 540 1221C540 1220.34 540 1219.68 540 1219Z" fill="#5B3126"/>
<path d="M384 1217C384.66 1217 385.32 1217 386 1217C385.67 1217.66 385.34 1218.32 385 1219C384.67 1218.34 384.34 1217.68 384 1217Z" fill="#2F2F28"/>
<path d="M622 1214C622.99 1214.5 622.99 1214.5 624 1215C623.01 1215.5 623.01 1215.5 622 1216C622 1215.34 622 1214.68 622 1214Z" fill="#532A1F"/>
<path d="M580 1206C580.66 1206 581.32 1206 582 1206C581.67 1206.66 581.34 1207.32 581 1208C580.67 1207.34 580.34 1206.68 580 1206Z" fill="#5B2A1E"/>
<path d="M579 1202C579.33 1202.66 579.66 1203.32 580 1204C579.34 1203.67 578.68 1203.34 578 1203C578.33 1202.67 578.66 1202.34 579 1202Z" fill="#5C2B1F"/>
<path d="M377 1192C377.33 1192.66 377.66 1193.32 378 1194C377.34 1193.67 376.68 1193.34 376 1193C376.33 1192.67 376.66 1192.34 377 1192Z" fill="#312F29"/>
<path d="M560 1174C560.33 1174.66 560.66 1175.32 561 1176C560.34 1175.67 559.68 1175.34 559 1175C559.33 1174.67 559.66 1174.34 560 1174Z" fill="#5F3020"/>
<path d="M846 1167C846.66 1167 847.32 1167 848 1167C847.67 1167.66 847.34 1168.32 847 1169C846.67 1168.34 846.34 1167.68 846 1167Z" fill="#432826"/>
<path d="M341 1143C344 1144 344 1144 344 1144L341 1143Z" fill="#612A1D"/>
<path d="M819 1136C819.33 1136.66 819.66 1137.32 820 1138C819.34 1137.67 818.68 1137.34 818 1137C818.33 1136.67 818.66 1136.34 819 1136Z" fill="#582F2B"/>
<path d="M799 1129C799.33 1129.66 799.66 1130.32 800 1131C799.34 1130.67 798.68 1130.34 798 1130C798.33 1129.67 798.66 1129.34 799 1129Z" fill="#58302B"/>
<path d="M191 1115C191.99 1115.5 191.99 1115.5 193 1116C192.01 1116.5 192.01 1116.5 191 1117C191 1116.34 191 1115.68 191 1115Z" fill="#350F04"/>
<path d="M809 1098C809.66 1098.66 810.32 1099.32 811 1100C810.34 1100 809.68 1100 809 1100C809 1099.34 809 1098.68 809 1098Z" fill="#6F3328"/>
<path d="M924 1090C927 1091 927 1091 927 1091L924 1090Z" fill="#341107"/>
<path d="M916 1090C919 1091 919 1091 919 1091L916 1090Z" fill="#381308"/>
<path d="M844 1090C847 1091 847 1091 847 1091L844 1090Z" fill="#5C291D"/>
<path d="M866 992C866.66 992.66 867.32 993.32 868 994C867.34 994 866.68 994 866 994C866 993.34 866 992.68 866 992Z" fill="#6B2B1F"/>
<path d="M240 948C240.66 948 241.32 948 242 948C241.67 948.66 241.34 949.32 241 950C240.67 949.34 240.34 948.68 240 948Z" fill="#6E2C20"/>
<path d="M854 940C854.66 940.66 855.32 941.32 856 942C855.34 942 854.68 942 854 942C854 941.34 854 940.68 854 940Z" fill="#66281D"/>
<path d="M253 883C253.99 883.495 253.99 883.495 255 884C254.01 884.495 254.01 884.495 253 885C253 884.34 253 883.68 253 883Z" fill="#3B2D24"/>
<path d="M205 853C205.66 853.66 206.32 854.32 207 855C206.34 855 205.68 855 205 855C205 854.34 205 853.68 205 853Z" fill="#3A291C"/>
<path d="M187 822C187.66 822.66 188.32 823.32 189 824C188.34 824 187.68 824 187 824C187 823.34 187 822.68 187 822Z" fill="#392E24"/>
<path d="M776 648C776.99 648.495 776.99 648.495 778 649C777.01 649.495 777.01 649.495 776 650C776 649.34 776 648.68 776 648Z" fill="#49331F"/>
<path d="M208 648C211 649 211 649 211 649L208 648Z" fill="#232721"/>
<path d="M784 642C784.99 642.495 784.99 642.495 786 643C785.01 643.495 785.01 643.495 784 644C784 643.34 784 642.68 784 642Z" fill="#4F351E"/>
<path d="M216 634C216.33 634.66 216.66 635.32 217 636C216.34 635.67 215.68 635.34 215 635C215.33 634.67 215.66 634.34 216 634Z" fill="#1E201A"/>
<path d="M249 424C249.99 424.495 249.99 424.495 251 425C250.01 425.495 250.01 425.495 249 426C249 425.34 249 424.68 249 424Z" fill="#050000"/>
<path d="M280 398C280.99 398.495 280.99 398.495 282 399C281.01 399.495 281.01 399.495 280 400C280 399.34 280 398.68 280 398Z" fill="#070100"/>
<path d="M304 384C307 385 307 385 307 385L304 384Z" fill="#060000"/>
<path d="M339 353C339.33 353.66 339.66 354.32 340 355C339.34 354.67 338.68 354.34 338 354C338.33 353.67 338.66 353.34 339 353Z" fill="#070100"/>
<path d="M627 225C630 226 630 226 630 226L627 225Z" fill="#0D0500"/>
<path d="M525 186C528 187 528 187 528 187L525 186Z" fill="#0A0200"/>
<path d="M517 186C520 187 520 187 520 187L517 186Z" fill="#080100"/>
<path d="M535 183C535.33 183.66 535.66 184.32 536 185C535.34 184.67 534.68 184.34 534 184C534.33 183.67 534.66 183.34 535 183Z" fill="#0B0301"/>
<path d="M552 179C555 180 555 180 555 180L552 179Z" fill="#110600"/>
<path d="M505 178C505.66 178.66 506.32 179.32 507 180C506.34 180 505.68 180 505 180C505 179.34 505 178.68 505 178Z" fill="#0D0300"/>
<path d="M775 1448C777 1449 777 1449 777 1449L775 1448Z" fill="#130601"/>
<path d="M318 1448C320 1449 320 1449 320 1449L318 1448Z" fill="#0B0101"/>
<path d="M507 1351C509 1352 509 1352 509 1352L507 1351Z" fill="#362A21"/>
<path d="M494 1351C496 1352 496 1352 496 1352L494 1351Z" fill="#33281E"/>
<path d="M520 1350C522 1351 522 1351 522 1351L520 1350Z" fill="#3B291F"/>
<path d="M498 1349C500 1350 500 1350 500 1350L498 1349Z" fill="#342920"/>
<path d="M488 1345C490 1346 490 1346 490 1346L488 1345Z" fill="#332E23"/>
<path d="M467 1335C469 1336 469 1336 469 1336L467 1335Z" fill="#302C24"/>
<path d="M777 1267C779 1268 779 1268 779 1268L777 1267Z" fill="#362F27"/>
<path d="M769 1267C771 1268 771 1268 771 1268L769 1267Z" fill="#373129"/>
<path d="M751 1265C753 1266 753 1266 753 1266L751 1265Z" fill="#373129"/>
<path d="M730 1260C732 1261 732 1261 732 1261L730 1260Z" fill="#353027"/>
<path d="M642 1220C644 1221 644 1221 644 1221L642 1220Z" fill="#422F25"/>
<path d="M386 1219C388 1220 388 1220 388 1220L386 1219Z" fill="#2F2F27"/>
<path d="M640 1217C642 1218 642 1218 642 1218L640 1217Z" fill="#432F27"/>
<path d="M615 1213C617 1214 617 1214 617 1214L615 1213Z" fill="#572D1F"/>
<path d="M617 1212C619 1213 619 1213 619 1213L617 1212Z" fill="#5B2E20"/>
<path d="M572 1191C574 1192 574 1192 574 1192L572 1191Z" fill="#5F2E21"/>
<path d="M812 1136C814 1137 814 1137 814 1137L812 1136Z" fill="#552D2C"/>
<path d="M942 1119C944 1120 944 1120 944 1120L942 1119Z" fill="#290E03"/>
<path d="M884 1119C886 1120 886 1120 886 1120L884 1119Z" fill="#441C12"/>
<path d="M879 1119C881 1120 881 1120 881 1120L879 1119Z" fill="#471D14"/>
<path d="M814 1119C816 1120 816 1120 816 1120L814 1119Z" fill="#5B2E27"/>
<path d="M806 1119C808 1120 808 1120 808 1120L806 1119Z" fill="#5D2F28"/>
<path d="M278 1119C280 1120 280 1120 280 1120L278 1119Z" fill="#622519"/>
<path d="M874 1117C876 1118 876 1118 876 1118L874 1117Z" fill="#492015"/>
<path d="M794 1117C796 1118 796 1118 796 1118L794 1117Z" fill="#653229"/>
<path d="M154 1117C156 1118 156 1118 156 1118L154 1117Z" fill="#230A00"/>
<path d="M798 1110C800 1111 800 1111 800 1111L798 1110Z" fill="#6B3128"/>
<path d="M1004 1090C1006 1091 1006 1091 1006 1091L1004 1090Z" fill="#160400"/>
<path d="M996 1090C998 1091 998 1091 998 1091L996 1090Z" fill="#190500"/>
<path d="M956 1090C958 1091 958 1091 958 1091L956 1090Z" fill="#260D01"/>
<path d="M949 1090C951 1091 951 1091 951 1091L949 1090Z" fill="#280B01"/>
<path d="M876 1090C878 1091 878 1091 878 1091L876 1090Z" fill="#4E2014"/>
<path d="M252 1090C254 1091 254 1091 254 1091L252 1090Z" fill="#662519"/>
<path d="M204 1090C206 1091 206 1091 206 1091L204 1090Z" fill="#43160B"/>
<path d="M197 1090C199 1091 199 1091 199 1091L197 1090Z" fill="#3F1308"/>
<path d="M172 1090C174 1091 174 1091 174 1091L172 1090Z" fill="#320F03"/>
<path d="M148 1090C150 1091 150 1091 150 1091L148 1090Z" fill="#280B00"/>
<path d="M854 1044C856 1045 856 1045 856 1045L854 1044Z" fill="#662B20"/>
<path d="M853 1042C855 1043 855 1043 855 1043L853 1042Z" fill="#692E20"/>
<path d="M824 908C826 909 826 909 826 909L824 908Z" fill="#6A2A1E"/>
<path d="M817 904C819 905 819 905 819 905L817 904Z" fill="#68291D"/>
<path d="M790 888C792 889 792 889 792 889L790 888Z" fill="#6B3122"/>
<path d="M787 888C789 889 789 889 789 889L787 888Z" fill="#6C3223"/>
<path d="M234 876C236 877 236 877 236 877L234 876Z" fill="#3C2B22"/>
<path d="M765 867C767 868 767 868 767 868L765 867Z" fill="#58392C"/>
<path d="M208 857C210 858 210 858 210 858L208 857Z" fill="#3B2C20"/>
<path d="M192 690C194 691 194 691 194 691L192 690Z" fill="#2C2B24"/>
<path d="M749 672C751 673 751 673 751 673L749 672Z" fill="#413429"/>
<path d="M774 650C776 651 776 651 776 651L774 650Z" fill="#4F3620"/>
<path d="M209 650C211 651 211 651 211 651L209 650Z" fill="#232822"/>
<path d="M784 640C786 641 786 641 786 641L784 640Z" fill="#4A311C"/>
<path d="M822 624C824 625 824 625 824 625L822 624Z" fill="#472815"/>
<path d="M233 522C235 523 235 523 235 523L233 522Z" fill="#040200"/>
<path d="M788 518C790 519 790 519 790 519L788 518Z" fill="#2C1607"/>
<path d="M244 463C246 464 246 464 246 464L244 463Z" fill="#050000"/>
<path d="M284 395C286 396 286 396 286 396L284 395Z" fill="#080100"/>
<path d="M291 392C293 393 293 393 293 393L291 392Z" fill="#070201"/>
<path d="M297 387C299 388 299 388 299 388L297 387Z" fill="#070200"/>
<path d="M933 299C935 300 935 300 935 300L933 299Z" fill="black"/>
<path d="M383 250C385 251 385 251 385 251L383 250Z" fill="#050100"/>
<path d="M654 240C656 241 656 241 656 241L654 240Z" fill="#090401"/>
<path d="M632 226C634 227 634 227 634 227L632 226Z" fill="#0E0601"/>
<path d="M417 216C419 217 419 217 419 217L417 216Z" fill="#050100"/>
<path d="M598 206C600 207 600 207 600 207L598 206Z" fill="#0C0300"/>
<path d="M436 206C438 207 438 207 438 207L436 206Z" fill="#060000"/>
<path d="M670 200C672 201 672 201 672 201L670 200Z" fill="#100500"/>
<path d="M598 200C600 201 600 201 600 201L598 200Z" fill="#0D0401"/>
<path d="M590 200C592 201 592 201 592 201L590 200Z" fill="#0B0502"/>
<path d="M441 200C443 201 443 201 443 201L441 200Z" fill="#060201"/>
<path d="M246 200C248 201 248 201 248 201L246 200Z" fill="#010001"/>
<path d="M581 197C583 198 583 198 583 198L581 197Z" fill="#0C0400"/>
<path d="M579 196C581 197 581 197 581 197L579 196Z" fill="#0D0400"/>
<path d="M577 195C579 196 579 196 579 196L577 195Z" fill="#0C0400"/>
<path d="M465 192C467 193 467 193 467 193L465 192Z" fill="#060200"/>
<path d="M538 187C540 188 540 188 540 188L538 187Z" fill="#0C0500"/>
<path d="M506 187C508 188 508 188 508 188L506 187Z" fill="#090101"/>
<path d="M496 187C498 188 498 188 498 188L496 187Z" fill="#080200"/>
<path d="M529 186C531 187 531 187 531 187L529 186Z" fill="#0A0100"/>
<path d="M525 184C527 185 527 185 527 185L525 184Z" fill="#080300"/>
<path d="M539 182C541 183 541 183 541 183L539 182Z" fill="#0F0400"/>
<path d="M616 179C618 180 618 180 618 180L616 179Z" fill="#120600"/>
<path d="M522 179C524 180 524 180 524 180L522 179Z" fill="#0F0500"/>
<path d="M490 179C492 180 492 180 492 180L490 179Z" fill="#0C0401"/>
<path d="M550 178C552 179 552 179 552 179L550 178Z" fill="#0F0600"/>
<path d="M246 176C248 177 248 177 248 177L246 176Z" fill="#010000"/>
</svg>
