<svg width="1024" height="1536" viewBox="0 0 1024 1536" fill="none" xmlns="http://www.w3.org/2000/svg">
<path d="M485.706 199.886C486.477 199.886 487.248 199.886 488.043 199.886C490.586 199.886 493.129 199.894 495.672 199.902C497.437 199.904 499.203 199.905 500.968 199.906C505.611 199.91 510.253 199.92 514.896 199.931C519.635 199.941 524.374 199.946 529.113 199.951C538.409 199.962 547.704 199.979 557 200C556.34 200.66 555.68 201.32 555 202C556.016 202.181 557.032 202.363 558.078 202.55C577.342 206.046 577.342 206.046 583 208C583.33 208.66 583.66 209.32 584 210C586.805 210.915 586.805 210.915 590.062 211.625C591.72 212.015 591.72 212.015 593.41 212.414C594.265 212.607 595.119 212.8 596 213C596 213.66 596 214.32 596 215C598.31 215.33 600.62 215.66 603 216C603.33 216.99 603.66 217.98 604 219C606.211 220.819 606.211 220.819 608.938 222.625C618.516 229.435 626.238 237.132 633.652 246.179C635.811 248.876 635.811 248.876 637.691 250.633C639.269 252.281 640.038 253.937 641 256C641.813 257.428 642.647 258.845 643.5 260.25C643.923 260.956 644.346 261.663 644.781 262.39C645.183 262.921 645.586 263.453 646 264C646.66 264 647.32 264 648 264C648.106 264.552 648.212 265.105 648.321 265.675C649.753 270.578 652.846 274.882 655.438 279.25C656.036 280.281 656.635 281.312 657.252 282.375C657.828 283.349 658.403 284.324 658.996 285.328C659.524 286.224 660.052 287.12 660.595 288.044C661.059 288.689 661.522 289.335 662 290C662.66 290 663.32 290 664 290C664.083 290.68 664.165 291.361 664.25 292.062C664.928 294.717 665.689 296.368 667.062 298.687C669 302 669 302 669 304C669.99 304.33 670.98 304.66 672 305C672 305.66 672 306.32 672 307C678.1 312.645 685.143 317.331 692 322C693.32 321.34 694.64 320.68 696 320C695.67 320.99 695.34 321.98 695 323C695.66 323.33 696.32 323.66 697 324C697.305 324.622 697.61 325.245 697.925 325.886C699.099 328.194 700.18 329.227 702.203 330.812C703.168 331.58 703.168 331.58 704.153 332.363C704.845 332.903 705.537 333.443 706.25 334C707.711 335.164 709.17 336.329 710.629 337.496C711.364 338.082 712.099 338.669 712.856 339.273C721.388 346.145 729.567 353.422 737.57 360.9C740.42 363.561 743.308 366.139 746.312 368.625C747.199 369.408 748.086 370.192 749 371C749 371.66 749 372.32 749 373C749.99 373.33 750.98 373.66 752 374C763.734 387.165 768.896 400.249 768.175 417.778C766.655 437.1 749.345 454.03 735.398 466C726.419 473.488 717.354 480.331 707.334 486.383C705.507 487.514 703.746 488.748 702 490C702 490.99 702 491.98 702 493C701.67 493 701.34 493 701 493C701 494.65 701 496.3 701 498C701.99 498 702.98 498 704 498C703.814 498.722 703.629 499.443 703.438 500.187C702.974 503.166 703.328 505.09 704 508C704 509.32 704 510.64 704 512C704.66 512.33 705.32 512.66 706 513C706.492 514.898 706.492 514.898 706.875 517.375C707.776 522.419 709.34 526.983 711.195 531.75C712 534 712 534 712 536C712.99 536.33 713.98 536.66 715 537C714.67 537.66 714.34 538.32 714 539C715.15 541.817 716.362 544.517 717.688 547.25C718.04 548.001 718.393 548.753 718.756 549.527C720.862 553.939 723.046 558.094 726 562C726.66 562 727.32 562 728 562C728.062 562.68 728.124 563.361 728.188 564.062C729.264 567.954 731.257 571.034 734 574C734.66 574 735.32 574 736 574C736.124 574.835 736.124 574.835 736.25 575.687C737.244 578.752 738.832 580.64 741 583C741.99 583.33 742.98 583.66 744 584C744.089 584.693 744.178 585.387 744.27 586.101C745.169 589.669 746.767 592.237 748.688 595.375C756.097 607.919 763.586 624.192 763 639C763.66 639.33 764.32 639.66 765 640C764.72 659.992 763.363 677.054 754 695C763.219 696.591 771.387 695.08 780.375 693.062C783.027 692.483 785.681 691.915 788.336 691.347C789.497 691.09 790.657 690.832 791.853 690.566C794.661 690.061 797.158 689.885 800 690C800.33 689.34 800.66 688.68 801 688C803.218 687.752 805.438 687.52 807.662 687.34C811.699 686.929 815.675 686.294 819.676 685.625C820.454 685.495 821.232 685.365 822.034 685.231C824.46 684.823 826.886 684.411 829.312 684C830.959 683.723 832.605 683.447 834.252 683.172C835.831 682.906 837.41 682.641 838.988 682.375C839.719 682.252 840.449 682.129 841.201 682.002C844.102 681.51 846.993 681.001 849.876 680.414C852 680 852 680 854 680C855.654 672.16 856.385 664.551 856.633 656.55C856.695 654.843 856.695 654.843 856.759 653.1C856.888 649.504 857.007 645.908 857.125 642.312C857.212 639.857 857.299 637.402 857.387 634.947C857.6 628.965 857.803 622.982 858 617C857.34 617 856.68 617 856 617C856.325 616.209 856.65 615.419 856.984 614.605C858.258 610.082 858.293 605.984 858.25 601.312C858.258 600.458 858.265 599.604 858.273 598.724C858.271 597.904 858.268 597.083 858.266 596.238C858.263 595.496 858.261 594.754 858.259 593.989C858.108 591.682 858.108 591.682 856 589C855.875 586.312 855.875 586.312 856 584C856.66 584 857.32 584 858 584C858.33 580.04 858.66 576.08 859 572C858.34 572 857.68 572 857 572C856.67 570.68 856.34 569.36 856 568C856.66 568 857.32 568 858 568C857.649 567.257 857.299 566.515 856.938 565.75C855.879 562.645 856.214 562.044 857 559C857.092 557.046 857.131 555.089 857.133 553.133C857.134 551.999 857.135 550.866 857.137 549.699C857.133 548.519 857.129 547.34 857.125 546.125C857.129 544.953 857.133 543.781 857.137 542.574C857.135 541.438 857.134 540.303 857.133 539.133C857.131 537.584 857.131 537.584 857.129 536.004C856.997 532.928 856.52 530.031 856 527C855.937 525.549 855.913 524.096 855.938 522.644C855.946 521.862 855.955 521.08 855.963 520.274C855.975 519.461 855.988 518.649 856 517.812C856.436 504.573 856.436 504.573 853 492C852.34 491.67 851.68 491.34 851 491C850.67 490.01 850.34 489.02 850 488C845.635 482.093 840.079 477.068 834.846 471.944C830.757 467.892 827.203 463.638 823.879 458.925C821.493 456.481 819.264 455.858 816 455C816 453.02 816 451.04 816 449C813.525 448.01 813.525 448.01 811 447C811 446.34 811 445.68 811 445C810.34 444.67 809.68 444.34 809 444C808.172 441.516 808 439.648 808 437C806.754 434.339 806.754 434.339 805 432C804.01 431.67 803.02 431.34 802 431C800 428 800 428 800 424C800.66 424 801.32 424 802 424C801.795 423.298 801.59 422.597 801.379 421.875C800.122 417.448 798.906 413.149 798.438 408.562C798.049 405.398 797.586 403.676 796 401C795.67 400.01 795.34 399.02 795 398C795.66 397.67 796.32 397.34 797 397C797 396.01 797 395.02 797 394C797.645 392.656 798.315 391.324 799 390C799.595 388.233 800.178 386.462 800.75 384.687C803.572 376.848 807.919 372.214 815 368C814.856 366.845 814.711 365.69 814.562 364.5C814.474 363.774 814.385 363.048 814.293 362.3C814.101 360.796 813.896 359.293 813.676 357.793C813.197 354.44 812.914 352.259 814 349C813.01 349.33 812.02 349.66 811 350C811.33 348.68 811.66 347.36 812 346C810.68 346.33 809.36 346.66 808 347C808 346.01 808 345.02 808 344C809.65 343.67 811.3 343.34 813 343C813.504 340.73 814.003 338.459 814.5 336.187C814.778 334.923 815.057 333.658 815.344 332.355C816.096 329.079 816.096 329.079 816 326C816 324 816 322 816 320C817.98 320 819.96 320 822 320C822.33 318.35 822.66 316.7 823 315C823.843 314.855 823.843 314.855 824.703 314.707C827.528 313.837 829.38 312.449 831.75 310.687C838.04 306.182 843.292 303.128 851 302C851.33 301.34 851.66 300.68 852 300C854.285 299.513 854.285 299.513 857.277 299.183C858.348 299.059 859.418 298.935 860.521 298.806C861.649 298.685 862.776 298.563 863.938 298.437C866.155 298.189 868.373 297.938 870.59 297.683C871.578 297.576 872.567 297.468 873.586 297.357C876.005 297.127 876.005 297.127 878 296C879.959 295.915 881.922 295.893 883.883 295.902C885.049 295.905 886.216 295.908 887.418 295.912C888.641 295.92 889.865 295.929 891.125 295.937C892.356 295.942 893.587 295.946 894.855 295.951C897.904 295.963 900.952 295.979 904 296C904 296.66 904 297.32 904 298C906.917 298.167 906.917 298.167 910 298C910.66 297.34 911.32 296.68 912 296C912 296.99 912 297.98 912 299C913.32 299.33 914.64 299.66 916 300C916.33 299.34 916.66 298.68 917 298C918.32 298.66 919.64 299.32 921 300C920.67 300.66 920.34 301.32 920 302C921.072 302.144 922.145 302.288 923.25 302.437C927 303 927 303 929.125 303.562C931.449 304.105 933.622 304.066 936 304C936.33 304.99 936.66 305.98 937 307C939.499 308.519 941.974 309.902 944.562 311.25C950.166 314.261 955.059 317.278 959.617 321.785C960.944 323.22 960.944 323.22 963 323C972.956 333.736 980.17 348.442 980.098 363.175C980.094 364.332 980.091 365.489 980.088 366.681C980.08 367.88 980.071 369.078 980.062 370.312C980.058 371.53 980.053 372.747 980.049 374.002C980.037 377.001 980.021 380 980 383C980.66 383.33 981.32 383.66 982 384C981.34 384.33 980.68 384.66 980 385C979.973 386.583 979.954 388.166 979.938 389.75C979.92 391.072 979.92 391.072 979.902 392.422C979.874 394.948 979.874 394.948 980.691 397.015C981 399 981 399 979.62 401.06C977.466 404.97 977.006 408.643 976.395 413.027C976.201 414.327 976.201 414.327 976.004 415.653C975.734 417.48 975.47 419.308 975.21 421.137C974.814 423.926 974.402 426.712 973.986 429.498C973.726 431.278 973.466 433.059 973.207 434.84C973.024 436.082 973.024 436.082 972.838 437.35C972.237 441.618 971.971 445.681 972 450C971.371 452.012 970.703 454.012 970 456C967.401 468.817 966.125 483.3 970 496C970.66 496.66 971.32 497.32 972 498C971.34 498 970.68 498 970 498C970.448 500.648 970.908 503.293 971.375 505.937C971.564 507.069 971.564 507.069 971.758 508.224C972.105 510.163 972.546 512.083 973 514C973.66 514.33 974.32 514.66 975 515C974.814 515.887 974.629 516.773 974.438 517.687C973.87 521.985 974.645 524.936 976 529C976.32 531.35 976.606 533.705 976.875 536.062C977.691 543.019 978.771 549.905 980.035 556.795C980.826 561.273 981.131 565.451 981 570C981.66 570.33 982.32 570.66 983 571C983.358 573.039 983.358 573.039 983.525 575.736C984.007 582.261 984.782 588.727 985.594 595.218C985.745 596.439 985.897 597.659 986.053 598.916C986.372 601.475 986.691 604.033 987.011 606.591C987.502 610.516 987.987 614.441 988.473 618.367C988.784 620.859 989.095 623.351 989.406 625.843C989.551 627.018 989.696 628.193 989.845 629.404C990.05 631.032 990.05 631.032 990.26 632.693C990.379 633.648 990.498 634.603 990.621 635.587C990.953 638.134 990.953 638.134 992 641C992.134 642.37 992.221 643.744 992.277 645.12C992.313 645.945 992.349 646.77 992.386 647.621C992.439 648.959 992.439 648.959 992.492 650.324C992.575 652.236 992.658 654.148 992.741 656.06C992.783 657.044 992.825 658.028 992.869 659.043C993.075 663.682 993.324 668.319 993.57 672.957C993.709 675.667 993.847 678.378 993.985 681.089C994.079 682.928 994.177 684.767 994.276 686.605C994.422 689.326 994.56 692.048 994.695 694.769C994.741 695.581 994.787 696.392 994.834 697.228C995.076 702.293 994.76 706.984 994 712C994.66 712.33 995.32 712.66 996 713C995.67 713.99 995.34 714.98 995 716C994.955 718.716 994.952 721.41 995 724.125C995.046 726.756 995.047 729.367 995 732C994.67 732.33 994.34 732.66 994 733C993.798 734.4 993.653 735.809 993.535 737.218C993.457 738.068 993.379 738.917 993.299 739.793C993.141 741.597 992.988 743.402 992.838 745.207C992.759 746.056 992.679 746.906 992.598 747.781C992.531 748.565 992.464 749.35 992.395 750.158C992.264 750.766 992.134 751.373 992 752C991.34 752.33 990.68 752.66 990 753C989.564 754.78 989.564 754.78 989.312 757C986.561 771.98 978.753 785.526 969 797C968.67 797.99 968.34 798.98 968 800C966.512 801.465 966.512 801.465 964.688 802.937C962.767 804.499 960.963 806.038 959.238 807.816C947.825 818.951 933.772 827.17 920 835C919.167 835.479 918.335 835.959 917.477 836.453C916.67 836.912 915.863 837.371 915.031 837.843C914.305 838.258 913.578 838.672 912.83 839.099C911 840 911 840 909 840C908.67 840.66 908.34 841.32 908 842C906.368 842.91 906.368 842.91 904.23 843.847C903.434 844.201 902.637 844.554 901.816 844.919C900.949 845.296 900.081 845.673 899.188 846.062C897.358 846.871 895.529 847.679 893.699 848.488C892.756 848.903 891.813 849.317 890.841 849.744C887.233 851.339 883.64 852.966 880.048 854.595C857.085 865 857.085 865 854 865C853.773 866.052 853.546 867.103 853.312 868.187C851.003 876.01 843.637 879.208 837 883C804.166 900.639 767.998 912.522 733 925C733.016 926.273 733.016 926.273 733.032 927.572C733.352 957.615 730.315 985.807 724.814 1015.38C720.529 1037.57 720.529 1037.57 718 1060C717.918 1061.24 717.918 1061.24 717.833 1062.51C716.701 1080.99 716.893 1099.5 717 1118C717.66 1118.33 718.32 1118.66 719 1119C718.967 1120.99 718.935 1122.97 718.902 1124.96C718.917 1127.2 718.917 1127.2 720 1130C720.208 1132.63 720.373 1135.24 720.5 1137.87C720.584 1139.4 720.669 1140.93 720.754 1142.46C720.908 1145.3 721.061 1148.14 721.215 1150.98C721.325 1152.72 721.325 1152.72 721.438 1154.5C721.498 1155.54 721.559 1156.58 721.621 1157.66C721.746 1158.43 721.871 1159.2 722 1160C722.66 1160.33 723.32 1160.66 724 1161C724.289 1162.91 724.289 1162.91 724.402 1165.52C724.766 1170.46 725.568 1175.21 726.629 1180.05C726.783 1180.75 726.938 1181.46 727.097 1182.19C727.745 1185.12 728.404 1188.05 729.064 1190.98C729.55 1193.14 730.027 1195.31 730.504 1197.48C730.934 1199.4 730.934 1199.4 731.373 1201.35C732.532 1208.1 732.322 1212.93 729 1219C725.969 1221.87 722.618 1223.93 719 1226C719.77 1231.79 721.429 1237.28 723.062 1242.87C723.344 1243.85 723.626 1244.82 723.916 1245.83C724.608 1248.22 725.302 1250.61 726 1253C726.66 1253 727.32 1253 728 1253C727.959 1253.99 727.918 1254.98 727.875 1256C727.863 1258.89 728.255 1261.39 729 1264.19C730 1268 730 1268 730 1272C730.99 1272.33 731.98 1272.66 733 1273C732.34 1273 731.68 1273 731 1273C731.448 1274.98 731.909 1276.96 732.375 1278.94C732.63 1280.04 732.885 1281.14 733.148 1282.28C733.57 1283.62 733.57 1283.62 734 1285C734.66 1285.33 735.32 1285.66 736 1286C735.969 1287.16 735.938 1288.31 735.906 1289.51C735.91 1293.76 736.571 1297.76 737.496 1301.89C737.649 1302.61 737.802 1303.32 737.96 1304.06C738.445 1306.31 738.941 1308.56 739.438 1310.81C739.767 1312.34 740.096 1313.87 740.424 1315.4C741.948 1322.77 741.948 1322.77 744 1330C744.297 1331.89 744.563 1333.79 744.812 1335.69C745.789 1342.68 746.869 1349.65 748 1356.62C748.249 1358.21 748.249 1358.21 748.503 1359.82C748.667 1360.82 748.831 1361.82 749 1362.85C749.144 1363.75 749.289 1364.64 749.438 1365.56C749.993 1367.97 750.8 1369.85 752 1372C751.67 1372.33 751.34 1372.66 751 1373C751.33 1373 751.66 1373 752 1373C751.965 1374.06 751.965 1374.06 751.93 1375.14C751.789 1383.11 752.377 1390.84 753.289 1398.75C755.027 1414.29 755.027 1414.29 751.812 1418.44C749.185 1420.83 747.382 1422.03 744 1423C744 1423.33 744 1423.66 744 1424C741.69 1424 739.38 1424 737 1424C736.691 1423.03 736.381 1422.06 736.062 1421.06C735.305 1418.16 735.305 1418.16 734 1417C731.456 1416.9 728.939 1416.86 726.395 1416.87C725.179 1416.86 725.179 1416.86 723.94 1416.86C721.19 1416.85 718.44 1416.85 715.691 1416.85C713.714 1416.85 711.736 1416.85 709.759 1416.84C704.298 1416.83 698.837 1416.83 693.377 1416.83C687.498 1416.82 681.619 1416.81 675.74 1416.8C662.201 1416.78 648.662 1416.77 635.123 1416.77C628.436 1416.76 621.749 1416.76 615.062 1416.75C592.183 1416.73 569.303 1416.72 546.424 1416.71C544.987 1416.71 543.55 1416.71 542.113 1416.71C541.401 1416.71 540.688 1416.71 539.954 1416.71C536.343 1416.71 532.732 1416.71 529.121 1416.7C528.405 1416.7 527.688 1416.7 526.95 1416.7C503.71 1416.7 480.471 1416.67 457.232 1416.64C432.676 1416.61 408.121 1416.59 383.566 1416.58C380.871 1416.58 378.177 1416.58 375.483 1416.58C374.819 1416.58 374.156 1416.58 373.472 1416.58C363.446 1416.58 353.419 1416.57 343.392 1416.55C331.99 1416.52 320.588 1416.52 309.186 1416.53C303.365 1416.53 297.544 1416.53 291.723 1416.51C286.398 1416.49 281.074 1416.49 275.749 1416.51C273.819 1416.51 271.888 1416.51 269.957 1416.49C267.341 1416.48 264.725 1416.49 262.109 1416.5C261.352 1416.49 260.595 1416.48 259.816 1416.47C254.893 1416.54 252.529 1417.62 249 1421C245.861 1422.57 243.461 1422.35 240 1422C236.291 1419.12 234.44 1416.44 233 1412C232.67 1411.34 232.34 1410.68 232 1410C232.99 1410 233.98 1410 235 1410C234.691 1409.44 234.381 1408.89 234.062 1408.31C232.942 1405.87 232.44 1403.64 232 1401C232.99 1401 233.98 1401 235 1401C235.339 1398.79 235.671 1396.58 236 1394.37C236.186 1393.14 236.371 1391.92 236.562 1390.65C236.955 1387.38 237.075 1384.29 237 1381C237 1380.01 237 1379.02 237 1378C237.33 1378 237.66 1378 238 1378C239.229 1371.93 240.276 1366.2 240 1360C240.33 1360 240.66 1360 241 1360C241.99 1355.05 241.99 1355.05 243 1350C242.01 1349.67 241.02 1349.34 240 1349C240 1348.01 240 1347.02 240 1346C240.66 1346 241.32 1346 242 1346C242.33 1345.34 242.66 1344.68 243 1344C243.33 1344 243.66 1344 244 1344C244.675 1340.77 245.338 1337.54 246 1334.31C246.191 1333.4 246.382 1332.49 246.578 1331.55C246.759 1330.66 246.939 1329.78 247.125 1328.86C247.376 1327.65 247.376 1327.65 247.633 1326.4C248.015 1323.9 248.063 1321.53 248 1319C248.66 1319 249.32 1319 250 1319C250.104 1317.77 250.209 1316.53 250.316 1315.26C250.981 1309.32 252.449 1303.63 253.941 1297.85C254.229 1296.72 254.516 1295.58 254.812 1294.41C255.723 1290.82 256.642 1287.22 257.562 1283.62C258.486 1280.01 259.407 1276.39 260.324 1272.77C260.894 1270.53 261.467 1268.28 262.044 1266.04C262.301 1265.03 262.558 1264.01 262.823 1262.97C263.05 1262.08 263.278 1261.19 263.513 1260.27C264.105 1257.9 264.105 1257.9 264 1255C264.66 1255 265.32 1255 266 1255C266.222 1253.54 266.427 1252.08 266.625 1250.62C266.741 1249.81 266.857 1249 266.977 1248.16C266.984 1247.45 266.992 1246.74 267 1246C266.34 1245.34 265.68 1244.68 265 1244C265.66 1243.67 266.32 1243.34 267 1243C267.66 1243.33 268.32 1243.66 269 1244C271.338 1233.09 271.338 1233.09 272 1222C270.793 1222.03 270.793 1222.03 269.562 1222.06C267 1222 267 1222 266 1221C265.34 1221 264.68 1221 264 1221C264 1220.01 264 1219.02 264 1218C263.278 1217.77 262.556 1217.55 261.812 1217.31C257.796 1215.44 255.215 1212.74 252.688 1209.12C250.693 1202.96 252.582 1196.54 254 1190.44C255.22 1185.17 256.131 1180.44 256 1175C256.33 1174.01 256.66 1173.02 257 1172C256.67 1171.01 256.34 1170.02 256 1169C256.99 1168.34 257.98 1167.68 259 1167C259.862 1164.69 259.862 1164.69 260.359 1161.9C260.585 1160.81 260.81 1159.72 261.042 1158.59C261.276 1157.39 261.509 1156.18 261.75 1154.94C262.125 1153.05 262.125 1153.05 262.508 1151.12C263.367 1146.75 264.185 1142.38 265 1138C265.156 1137.17 265.311 1136.34 265.472 1135.48C266.473 1130.13 267.449 1124.78 268.399 1119.42C268.712 1117.67 269.029 1115.91 269.351 1114.15C271.448 1102.65 272.425 1091.69 272 1080C272.66 1080 273.32 1080 274 1080C274.66 1076.7 275.32 1073.4 276 1070C274.68 1069.67 273.36 1069.34 272 1069C272.33 1067.68 272.66 1066.36 273 1065C274.98 1066.48 274.98 1066.48 277 1068C276.969 1066.18 276.969 1066.18 276.938 1064.32C276.938 1058.13 277.482 1051.98 278 1045.81C278.19 1043.53 278.377 1041.24 278.562 1038.96C278.646 1037.96 278.73 1036.96 278.816 1035.92C279.004 1032.94 279.031 1029.99 279 1027C276.673 1025.98 274.34 1024.99 272 1024C271.352 1023.71 270.703 1023.43 270.035 1023.13C265.139 1021.1 261.296 1020.72 256 1021C256.33 1019.68 256.66 1018.36 257 1017C255.733 1016.63 255.733 1016.63 254.441 1016.25C250.681 1014.88 247.349 1013.12 243.938 1011.06C242.968 1010.48 242.968 1010.48 241.979 1009.89C233.988 1004.94 225.341 998.846 220 991C219.34 991.33 218.68 991.66 218 992C216 990 216 990 215.562 987.562C214.932 984.689 214.161 983.891 212 982C211.67 981.34 211.34 980.68 211 980C208.03 980 205.06 980 202 980C202 979.34 202 978.68 202 978C200.721 977.958 199.442 977.917 198.125 977.875C179.857 975.965 162.62 966.653 149.039 954.652C147.178 952.79 147.178 952.79 145 953C144.649 952.195 144.299 951.391 143.938 950.562C140.839 944.32 136.068 938.788 130.938 934.125C128.156 931.074 128 929.045 128 925C127.265 922.772 126.465 920.565 125.625 918.375C125.184 917.207 124.743 916.039 124.289 914.836C123.31 911.893 123.31 911.893 121 911C120.049 907.716 119.899 906.303 121 903C120.94 901.078 120.94 901.078 120.625 899C120.526 898.204 120.427 897.409 120.325 896.589C120.218 895.734 120.111 894.88 120 894C118.508 880.856 117.063 862.269 123 850C118.052 846.701 112.961 843.93 107.625 841.312C94.4844 834.831 81.5168 828.138 70 819C69.0667 818.269 68.1334 817.538 67.1719 816.785C49.7547 802.865 37.491 786.012 30 765C29.34 765 28.68 765 28 765C27.3661 760.958 26.876 757.093 27 753C26.34 753 25.68 753 25 753C24.8059 751.521 24.6199 750.042 24.4375 748.562C24.3331 747.738 24.2287 746.915 24.1211 746.066C24.0612 745.043 24.0612 745.043 24 744C24.33 743.67 24.66 743.34 25 743C24.67 743 24.34 743 24 743C23.9768 734.872 23.959 726.744 23.9482 718.616C23.943 714.842 23.9359 711.068 23.9246 707.293C23.9137 703.649 23.9077 700.006 23.9051 696.362C23.9033 694.973 23.8997 693.584 23.8943 692.196C23.887 690.247 23.8866 688.299 23.8865 686.351C23.8843 685.242 23.882 684.134 23.8798 682.993C23.9917 680.206 24.4117 677.718 25 675C25.0423 672.917 25.041 670.833 25 668.75C24.9626 666.833 24.953 664.916 25 663C25.33 662.67 25.66 662.34 26 662C26.2329 660.318 26.4126 658.628 26.5625 656.937C26.6463 656.018 26.7301 655.099 26.8164 654.152C26.877 653.442 26.9376 652.731 27 652C26.34 652 25.68 652 25 652C24.67 650.68 24.34 649.36 24 648C24.99 648 25.98 648 27 648C26.34 645.69 25.68 643.38 25 641C25.99 640.34 26.98 639.68 28 639C28.3838 636.064 28.6038 633.319 28.6875 630.375C28.7217 629.573 28.7558 628.771 28.791 627.945C28.8736 625.964 28.9385 623.982 29 622C29.66 621.67 30.32 621.34 31 621C31.2958 618.575 31.4683 616.247 31.5625 613.812C31.6362 612.359 31.7104 610.906 31.7852 609.453C31.8201 608.714 31.8551 607.974 31.8911 607.213C32.0577 603.826 32.2738 600.445 32.5 597.062C32.5722 595.919 32.6444 594.775 32.7188 593.597C33 591 33 591 34 590C33.34 589.34 32.68 588.68 32 588C32 586.68 32 585.36 32 584C33.32 584 34.64 584 36 584C35.01 582.515 35.01 582.515 34 581C34 580.01 34 579.02 34 578C34.66 577.67 35.32 577.34 36 577C36.3948 574.385 36.3948 574.385 36.5 571.312C36.6578 568.145 36.8293 565.476 37.9021 562.484C39.3939 557.75 40.1246 552.976 40.9102 548.082C41.0825 547.029 41.2549 545.976 41.4325 544.891C41.7953 542.666 42.1558 540.441 42.5139 538.216C43.058 534.84 43.6114 531.466 44.166 528.091C44.5188 525.922 44.871 523.752 45.2227 521.582C45.3862 520.586 45.5498 519.589 45.7183 518.563C46.9119 511.098 48 503.573 48 496C48.33 496 48.66 496 49 496C49.1955 494.396 49.3811 492.792 49.5625 491.187C49.6669 490.294 49.7713 489.401 49.8789 488.48C50.1566 485.866 50.1566 485.866 49 483C49.99 483 50.98 483 52 483C51.6906 482.381 51.3812 481.762 51.0625 481.125C50.375 479.75 49.6875 478.375 49 477C49.33 476.34 49.66 475.68 50 475C49.34 474.67 48.68 474.34 48 474C48.0206 472.886 48.0412 471.772 48.0625 470.625C48.2638 467.168 48.2638 467.168 47 465C47.9375 462.875 47.9375 462.875 49 461C48.67 461 48.34 461 48 461C48.0413 459.803 48.0825 458.607 48.125 457.375C48.1422 451.935 47.3037 446.691 46.4375 441.332C46.0229 438.174 45.9228 435.179 46 432C45.01 432 44.02 432 43 432C41.9375 430.125 41.9375 430.125 41 428C41.33 427.34 41.66 426.68 42 426C41.34 425.67 40.68 425.34 40 425C40.66 424.01 41.32 423.02 42 422C41.34 421.67 40.68 421.34 40 421C40.7425 416.916 41.8292 412.98 43 409C42.01 408.67 41.02 408.34 40 408C40.66 408 41.32 408 42 408C42 405.69 42 403.38 42 401C41.34 401 40.68 401 40 401C39.67 399.35 39.34 397.7 39 396C39.66 396 40.32 396 41 396C40.67 395.01 40.34 394.02 40 393C39.8674 390.517 39.7878 388.062 39.7617 385.578C39.7536 384.841 39.7456 384.104 39.7372 383.344C39.7234 381.778 39.7127 380.211 39.7048 378.644C39.6934 377.069 39.6732 375.495 39.6433 373.92C39.3219 356.954 42.0481 343.771 52.5625 329.945C55.2797 326.366 55.2797 326.366 56.3125 322.062C56.2094 321.382 56.1063 320.701 56 320C57.485 320.185 57.485 320.185 59 320.375C63.3092 320.358 65.2714 318.51 68.5 315.855C76.0181 310.275 87.5426 303 97 303C97.33 302.34 97.66 301.68 98 301C98.66 301 99.32 301 100 301C100 300.34 100 299.68 100 299C103.3 298.01 106.6 297.02 110 296C110.33 296.66 110.66 297.32 111 298C112.65 298 114.3 298 116 298C116 297.34 116 296.68 116 296C121.09 295.95 126.18 295.914 131.271 295.89C133.003 295.88 134.736 295.866 136.468 295.849C138.955 295.825 141.442 295.813 143.93 295.804C144.707 295.794 145.484 295.784 146.285 295.773C148.191 295.773 150.097 295.877 152 296C152.66 296.66 153.32 297.32 154 298C156.427 298.679 156.427 298.679 159.125 299.125C160.035 299.292 160.945 299.46 161.883 299.633C162.931 299.814 162.931 299.814 164 300C163.67 299.01 163.34 298.02 163 297C164.32 296.67 165.64 296.34 167 296C167 296.66 167 297.32 167 298C168.32 298.66 169.64 299.32 171 300C170.01 300 169.02 300 168 300C168 300.66 168 301.32 168 302C171.225 302.55 174.445 303.06 177.688 303.5C181 304 181 304 184 305C184 305.99 184 306.98 184 308C185.561 309.518 185.561 309.518 187.625 310.875C190.282 312.757 192.811 314.655 195.25 316.812C197.691 318.754 198.964 319.649 202 320C202.934 323.01 203.044 323.866 202 327C202.495 328.919 202.495 328.919 203.375 330.875C208.259 342.514 206.278 355.937 204 368C204.908 368.412 205.815 368.825 206.75 369.25C213.514 372.892 217.694 379.045 220.078 386.265C221.039 390.158 221.649 393.963 222.125 397.937C222.255 398.963 222.255 398.963 222.387 400.009C222.596 401.672 222.799 403.336 223 405C222.34 405 221.68 405 221 405C221.083 406.031 221.165 407.062 221.25 408.125C221.146 422.922 212.705 438.518 204.129 450.203C202.92 452.127 202.427 453.779 202 456C201.429 456.071 200.858 456.141 200.27 456.215C197.147 457.295 195.832 459.067 193.688 461.562C192.89 462.476 192.092 463.39 191.27 464.332C189.967 465.863 188.669 467.4 187.387 468.949C182.739 474.485 177.49 479.304 172.154 484.165C171.202 485.036 171.202 485.036 170.23 485.925C169.657 486.445 169.084 486.965 168.493 487.501C164.469 491.54 164.51 495.556 164.184 500.933C164.122 501.839 164.061 502.745 163.998 503.679C163.868 505.614 163.743 507.55 163.622 509.487C163.444 512.34 163.251 515.192 163.057 518.045C161.439 542.355 160.846 566.655 160.902 591.015C160.904 593.464 160.906 595.913 160.907 598.361C160.91 604.7 160.92 611.039 160.931 617.378C160.942 623.888 160.946 630.399 160.951 636.91C160.962 649.606 160.979 662.303 161 675C161.66 675.33 162.32 675.66 163 676C162.67 677.32 162.34 678.64 162 680C165.63 680 169.26 680 173 680C173 680.66 173 681.32 173 682C175.97 682.33 178.94 682.66 182 683C182.086 682.284 182.173 681.569 182.262 680.832C185.015 661.304 194.871 645.935 207.701 631.493C209.654 629.248 211.473 626.9 213.312 624.562C217.541 619.35 222.211 614.685 226.983 609.98C231.207 605.814 235.178 601.539 239 597C239.932 595.929 240.866 594.861 241.801 593.793C253.618 580.245 265.748 565.506 271 548C268.69 547.67 266.38 547.34 264 547C263.67 547.66 263.34 548.32 263 549C262.379 548.319 262.379 548.319 261.746 547.625C259.921 545.926 258.318 545.039 256.062 544C250.291 541.199 250.291 541.199 248 539C245.488 531.346 246.78 523.389 249.441 515.996C250.255 513.95 250.255 513.95 249 512C249.459 511.582 249.918 511.165 250.39 510.735C252.061 508.934 252.831 507.502 253.754 505.242C254.051 504.534 254.348 503.826 254.654 503.097C254.954 502.364 255.254 501.63 255.562 500.875C258.733 493.133 258.733 493.133 261 492C261.687 490.007 262.35 488.005 263 486C263.953 484.148 264.956 482.323 266.004 480.523C266.867 479.023 266.867 479.023 267.748 477.492C268.347 476.463 268.946 475.435 269.562 474.375C270.756 472.323 271.945 470.268 273.129 468.211C273.656 467.306 274.182 466.402 274.725 465.47C275.86 463.272 276.537 461.416 277 459C277.66 459 278.32 459 279 459C279.289 458.257 279.577 457.515 279.875 456.75C280.823 454.432 281.848 452.221 283 450C282.34 449.34 281.68 448.68 281 448C281.611 447.911 282.223 447.823 282.853 447.732C285.613 446.791 286.036 445.844 287.359 443.289C287.753 442.539 288.146 441.788 288.551 441.015C288.947 440.226 289.342 439.438 289.75 438.625C290.161 437.844 290.572 437.062 290.996 436.258C293.355 431.863 293.355 431.863 294 427C294.66 426.34 295.32 425.68 296 425C297.152 422.697 298.149 420.432 299 418C298.67 417.34 298.34 416.68 298 416C299.32 416 300.64 416 302 416C302.66 413.36 303.32 410.72 304 408C304.66 408 305.32 408 306 408C306 405.69 306 403.38 306 401C305.34 401 304.68 401 304 401C304 398.03 304 395.06 304 392C305.32 391.34 306.64 390.68 308 390C307.928 388.88 307.856 387.759 307.781 386.605C307.687 385.133 307.594 383.66 307.5 382.187C307.452 381.449 307.405 380.711 307.355 379.951C307.166 376.961 307 373.996 307 371C307.66 371.33 308.32 371.66 309 372C308.948 370.828 308.948 370.828 308.895 369.633C308.664 359.773 309.649 350.227 310.933 340.453C311.718 334.3 312.104 328.453 311.76 322.251C312.06 319.441 313.025 318.909 315 317C315 315.68 315 314.36 315 313C315.66 313 316.32 313 317 313C316.67 311.35 316.34 309.7 316 308C316.66 308 317.32 308 318 308C318.104 307.467 318.209 306.935 318.316 306.386C319.191 303.331 320.521 300.656 321.938 297.812C322.462 296.746 322.987 295.68 323.527 294.582C325 292 325 292 327 291C327.422 289.917 327.422 289.917 327.852 288.812C339.308 260.756 374.603 239.036 400 226C399.67 225.34 399.34 224.68 399 224C399.908 223.938 400.815 223.876 401.75 223.812C406.64 223.15 410.947 221.042 415.426 219.058C418 218 418 218 420 218C420.33 217.34 420.66 216.68 421 216C423.06 215.273 423.06 215.273 425.773 214.597C426.77 214.341 427.766 214.085 428.792 213.821C429.851 213.55 430.909 213.279 432 213C436.216 211.839 440.421 210.64 444.625 209.437C446.255 208.982 446.255 208.982 447.918 208.517C448.948 208.221 449.978 207.926 451.039 207.621C451.969 207.357 452.9 207.093 453.858 206.822C456.177 206.208 456.177 206.208 457 204C458.176 204.278 458.176 204.278 459.375 204.562C464.039 205.125 468.36 204.596 473 204C473.33 203.01 473.66 202.02 474 201C477.643 199.432 481.804 199.867 485.706 199.886ZM474 202C474 202.33 474 202.66 474 203C480.435 202.505 480.435 202.505 487 202C487 201.67 487 201.34 487 201C482.526 200.91 478.394 201.142 474 202ZM101 300C105 301 105 301 105 301L101 300ZM200 321C200 324 200 324 200 324V321ZM313 322C314 324 314 324 314 324L313 322ZM818 324C819 326 819 326 819 326L818 324ZM817 326C818 328 818 328 818 328L817 326ZM307 392C308 394 308 394 308 394L307 392ZM306 397C307 399 307 399 307 399L306 397ZM43 418C44 422 44 422 44 422L43 418ZM802 424C803 426 803 426 803 426L802 424ZM44 425C45 428 45 428 45 428L44 425ZM803 426C804 428 804 428 804 428L803 426ZM810 440C811 442 811 442 811 442L810 440ZM819 453C820 455 820 455 820 455L819 453ZM49 465C49.33 466.65 49.66 468.3 50 470C50.33 470 50.66 470 51 470C51 468.35 51 466.7 51 465C50.34 465 49.68 465 49 465ZM754 697C754 697.33 754 697.66 754 698C755.65 698 757.3 698 759 698C759 697.67 759 697.34 759 697C757.35 697 755.7 697 754 697ZM26 748C27 751 27 751 27 751L26 748ZM28 758C29 761 29 761 29 761L28 758ZM130 929C131 931 131 931 131 931L130 929ZM273 1086C274 1090 274 1090 274 1090L273 1086ZM273 1225C274 1228 274 1228 274 1228L273 1225Z" fill="#030403"/>
<path d="M209 706C218.399 707.769 227.544 709.894 236.75 712.5C286.299 726.058 336.872 734.542 388 739C388.12 739.613 388.24 740.226 388.364 740.857C394.551 771.985 406.209 800.496 432.875 819.75C434.568 820.857 436.278 821.939 438 823C439.024 823.645 440.047 824.289 441.102 824.953C469.728 842.195 505.751 848.415 538.375 840.438C561.726 834.293 583.939 822.304 596.543 800.898C599.289 795.435 601.271 789.858 603 784C603.321 782.942 603.642 781.883 603.973 780.793C607.29 767.541 606.266 753.561 606 740C607.11 739.9 608.22 739.8 609.364 739.696C613.657 739.307 617.949 738.91 622.241 738.511C624.066 738.342 625.892 738.175 627.717 738.011C654.589 735.585 681.082 731.919 707.574 726.819C710.295 726.297 713.017 725.782 715.739 725.267C737.463 721.151 759.138 716.802 780.785 712.302C781.864 712.079 782.942 711.856 784.052 711.626C786.056 711.21 788.059 710.792 790.061 710.371C791.376 710.098 791.376 710.098 792.718 709.819C793.478 709.66 794.237 709.501 795.02 709.337C797 709 797 709 800 709C819.156 753.591 835.383 801.254 835.062 850.25C835.057 851.592 835.053 852.935 835.049 854.277C835.037 857.518 835.021 860.759 835 864C801.994 882.98 764.157 895.468 728 907C727.752 905.873 727.752 905.873 727.5 904.723C725.627 896.39 723.47 888.169 721.148 879.952C720.562 877.872 719.983 875.789 719.404 873.707C716.809 860.934 716.809 860.934 711 850C706.784 849.478 703.176 849.384 699.375 851.375C696.1 857.628 699.462 866.669 701.18 873.199C701.393 874.037 701.607 874.875 701.826 875.739C702.502 878.39 703.188 881.039 703.875 883.688C715.431 928.482 714.986 967.26 705.957 1012.49C703.551 1024.6 701.519 1036.74 700 1049C699.902 1049.79 699.804 1050.58 699.703 1051.4C698.947 1058.11 698.839 1064.78 698.832 1071.53C698.829 1072.72 698.825 1073.91 698.822 1075.14C698.817 1077.65 698.815 1080.16 698.815 1082.68C698.813 1086.43 698.794 1090.19 698.775 1093.94C698.718 1117.01 700.261 1139.59 703.977 1162.36C704.444 1165.23 704.896 1168.09 705.346 1170.96C706.836 1180.35 708.455 1189.7 710.469 1199C710.962 1201.79 711.286 1204.18 711 1207C706.267 1211.13 700.327 1213.08 694.5 1215.25C692.94 1215.83 692.94 1215.83 691.348 1216.42C604.526 1247.85 503.085 1248.63 283 1207C279.633 1205.4 276.305 1203.73 273 1202C272.64 1195.31 274.002 1189.12 275.344 1182.58C275.85 1180.05 276.356 1177.52 276.861 1174.98C277.131 1173.64 277.401 1172.29 277.672 1170.95C291.477 1102.15 302.19 1031.71 302.185 961.394C302.187 958.004 302.206 954.616 302.225 951.227C302.257 938.348 301.697 925.77 300 913C299.053 912.71 298.106 912.42 297.131 912.121C255.825 899.424 215.448 885.027 176.15 866.98C172.446 865.292 168.723 863.646 165 862C166.281 859.299 167.687 856.921 169.469 854.523C189.962 826.514 201.568 795.972 208 762C208.134 761.304 208.268 760.608 208.407 759.891C211.609 742.481 210.949 723.525 209 706Z" fill="#FEBC7C"/>
<path d="M293 1230C298.148 1231.06 303.164 1232.3 308.17 1233.9C358.166 1249.84 411.759 1256.56 464 1259C465.117 1259.06 466.235 1259.11 467.386 1259.17C540.767 1262.81 623.362 1260.84 692.594 1233.76C695 1233 695 1233 699 1233C704.92 1249.76 709.651 1266.77 714 1284C714.168 1284.66 714.337 1285.33 714.51 1286.01C723.103 1319.89 729.146 1354.26 733 1389C733.159 1390.35 733.159 1390.35 733.321 1391.73C734.196 1399.93 734 1407.6 734 1416C575.6 1416 417.2 1416 254 1416C255.176 1396.01 255.176 1396.01 256.508 1386.59C256.607 1385.89 256.707 1385.18 256.809 1384.46C256.913 1383.73 257.018 1383 257.125 1382.25C257.234 1381.48 257.344 1380.71 257.456 1379.92C273.249 1269.5 273.249 1269.5 293 1230Z" fill="#2C5B5F"/>
<path d="M631 391C643.774 396.555 652.168 415.732 657 428C657.407 429.022 657.815 430.044 658.234 431.098C666.148 452.763 668.148 476.17 670 499C670.083 499.94 670.166 500.88 670.251 501.849C670.917 509.76 671.174 517.613 671.203 525.551C671.209 526.807 671.215 528.064 671.22 529.358C671.23 532.004 671.236 534.651 671.24 537.297C671.247 541.264 671.281 545.231 671.312 549.197C671.497 593.818 663.217 631.804 632 665C631.412 665.664 630.824 666.328 630.219 667.012C609.524 689.386 574.609 704.053 544.574 705.41C503.988 706.685 466.434 694.118 436.426 666.359C415.662 646.164 403.316 622.991 394.82 595.489C393.743 592.22 392.43 589.129 391 586C385.163 585.542 382.253 586.618 377.438 589.875C368.966 595.55 362.128 596.962 352 596C342.1 593.48 334.152 585.567 329 577C320.817 560.612 318.55 539.639 324.125 522C327.385 512.612 332.416 506.326 340.938 501.25C347.681 498.626 355.479 498.897 362.293 501.031C369.54 504.338 374.168 508.774 379 515C380.097 516.319 381.2 517.632 382.313 518.938C382.762 519.483 383.212 520.028 383.676 520.59C386.345 523.432 387.99 523.999 391.875 524.375C394.756 524.27 396.052 523.973 398.688 522.625C404.904 515.568 407.477 506.141 410.188 497.312C410.53 496.224 410.872 495.135 411.225 494.014C412.58 489.683 413.916 485.392 414.945 480.973C416.933 475.369 422.167 473.074 427 470C428.074 469.3 429.148 468.6 430.254 467.879C460.117 448.901 493.545 440.051 527.766 432.656C568.413 424.08 568.413 424.08 607 409C607.982 408.545 608.965 408.09 609.977 407.621C618.25 403.531 624.532 397.468 631 391Z" fill="#FAC492"/>
<path d="M179 326C185.528 332.432 188.144 337.894 188.375 347.063C188.409 352.238 187.586 355.506 185 360C183.68 360 182.36 360 181 360C180.709 359.155 180.417 358.309 180.117 357.438C175.752 345.359 170.182 336.765 158.516 330.711C153.309 328.464 147.739 326.648 142 327C141.01 327.66 140.02 328.32 139 329C138.163 333.106 138.163 333.106 139 337C141.64 339.615 144.746 341.246 148 343C155.665 347.274 162.594 351.517 166 360C166 361.65 166 363.3 166 365C162.37 366.98 158.74 368.96 155 371C153.866 369.474 152.731 367.948 151.562 366.375C143.511 356.357 131.732 350.609 119 349C111.209 348.055 111.209 348.055 104.117 350.333C102.722 352.081 102.722 352.081 103 355C104.279 358.836 105.441 359.218 109 361C111.17 361.664 113.36 362.264 115.562 362.813C127.534 366.138 137.079 370.442 143.438 381.5C145.44 390.398 142.87 399.103 139.688 407.438C137.185 411.239 134.494 414.112 130.113 415.672C125.283 416.621 121.924 415.603 117.703 413.168C115.459 411.63 114.11 410.516 113 408C112.688 405 112.688 405 114 402C116.498 400.695 118.965 399.804 121.652 398.957C124.322 398.125 124.322 398.125 126 395C126.5 392.5 126.5 392.5 126 390C122.487 386.487 118.567 385.854 113.75 385.75C109.074 385.82 105.079 386.657 101 389C96.139 394.111 95.7935 397.846 95.75 404.688C95.7294 405.479 95.7088 406.27 95.6875 407.084C95.6405 414.198 97.3633 420.111 102.238 425.586C109.122 431.111 118.463 432.875 127 434C126.783 434.834 126.567 435.669 126.344 436.528C124.702 443.164 123.338 449.161 124 456C125.229 457.792 125.229 457.792 127 459C130.73 459.267 133.446 459.185 137 458C138.14 455.734 138.14 455.734 139 453C139.342 452.101 139.683 451.201 140.035 450.274C141.829 445.213 143.15 440.826 143.25 435.438C143.613 428.509 147.76 424.182 152 419C152.33 418.34 152.66 417.68 153 417C156.293 417.449 159.557 417.915 162.82 418.547C169.259 419.766 174.529 420.079 181 419C181.25 417.566 181.474 416.128 181.688 414.688C181.815 413.887 181.943 413.087 182.074 412.262C182.222 409.965 182.222 409.965 180.769 408.43C178.687 406.747 177.24 406.364 174.621 405.868C173.783 405.701 172.944 405.535 172.08 405.364C171.208 405.203 170.336 405.041 169.438 404.875C167.707 404.542 165.976 404.206 164.246 403.868C163.096 403.653 163.096 403.653 161.924 403.434C160 403 160 403 158 402C158.191 392.111 158.191 392.111 161.188 388C170.314 381.511 179.177 381.227 190 382C195.314 383.422 199.187 386.24 202 391C206.42 402.813 203.365 414.878 198.461 426.004C188.885 445.642 170.716 464.209 153.188 477.063C147.507 482.095 147.185 488.954 146.438 496.063C146.315 497.181 146.192 498.3 146.065 499.452C144.4 515.585 143.692 531.801 143 548C142.935 549.477 142.935 549.477 142.868 550.984C142.102 568.597 141.797 586.184 141.812 603.813C141.813 605.096 141.814 606.378 141.814 607.7C141.836 624.51 141.998 641.312 142.638 658.112C142.712 660.054 142.78 661.997 142.843 663.94C143.016 680.374 143.016 680.374 150.312 694.563C157.282 698.291 164.952 698.718 172.688 699.563C174.921 699.812 177.154 700.063 179.387 700.317C180.86 700.478 180.86 700.478 182.362 700.643C184.644 700.952 186.784 701.386 189 702C193.959 726.827 193.655 752.329 188 777C187.823 777.775 187.647 778.549 187.465 779.347C181.575 804.007 168.518 826.255 153 846C150.125 844.643 147.612 843.076 145.023 841.235C139.529 837.533 133.667 834.929 127.625 832.25C95.8393 817.816 63.0911 800.627 49.7583 766.193C44.7736 751.779 42.8742 737.056 42.7969 721.868C42.7899 720.929 42.7829 719.991 42.7758 719.024C42.7584 715.974 42.752 712.925 42.75 709.875C42.749 708.821 42.748 707.767 42.7469 706.681C42.7606 685.344 43.9453 664.231 46 643C46.0655 642.307 46.1311 641.613 46.1986 640.899C49.6036 604.974 55.8927 569.284 61.6141 533.672C62.9084 525.605 64.1644 517.533 65.3831 509.455C65.6971 507.374 66.0135 505.294 66.3301 503.213C66.7309 500.574 67.1241 497.934 67.5132 495.293C67.7847 493.457 68.0627 491.621 68.3657 489.79C70.2012 477.829 68.8411 465.705 67.1016 453.836C66.9035 452.429 66.7066 451.021 66.5106 449.612C65.9973 445.94 65.4726 442.27 64.9445 438.599C64.0043 432.055 63.0812 425.509 62.1641 418.961C62.0167 417.911 62.0167 417.911 61.8664 416.839C53.6831 358.247 53.6831 358.247 66.2461 341.055C89.1875 314.179 149.895 302.31 179 326Z" fill="#FAC492"/>
<path d="M944.938 332.438C953.975 339.964 960.845 349.053 962.239 361.058C963.703 385.61 958.984 410.86 955.109 435.02C954.87 436.517 954.87 436.517 954.626 438.044C953.853 442.867 953.062 447.685 952.236 452.499C949.255 470.28 949.621 486.439 952.5 504.188C952.77 505.917 953.039 507.647 953.307 509.378C955.218 521.592 957.323 533.772 959.432 545.953C959.599 546.917 959.766 547.882 959.938 548.875C960.105 549.844 960.273 550.814 960.446 551.813C991.871 733.994 991.871 733.994 958.133 783.754C944.353 802.022 923.912 813.559 904 824C903.171 824.437 902.341 824.873 901.486 825.323C861.919 846 861.919 846 854 846C853.946 845.431 853.892 844.863 853.836 844.276C850.2 807.611 842 771.434 830.375 736.5C830.151 735.827 829.927 735.153 829.696 734.459C826.813 725.842 823.624 717.413 820.124 709.029C819 706 819 706 819 703C820.241 702.834 821.482 702.668 822.76 702.497C827.38 701.876 831.998 701.241 836.615 700.601C838.61 700.327 840.606 700.057 842.603 699.79C845.479 699.405 848.353 699.007 851.227 698.606C852.114 698.49 853.002 698.374 853.917 698.255C859.942 697.395 864.808 696.192 869.25 691.75C872.54 686.58 873.254 681.074 873.598 675.047C873.637 674.388 873.676 673.73 873.716 673.051C873.798 671.653 873.876 670.255 873.95 668.856C874.059 666.824 874.178 664.793 874.299 662.762C874.565 658.176 874.788 653.589 875 649C875.045 648.044 875.089 647.088 875.135 646.102C875.956 627.919 876.2 609.748 876.189 591.549C876.187 589.34 876.188 587.131 876.188 584.922C876.181 565.392 875.933 545.89 875.125 526.375C875.086 525.398 875.047 524.421 875.006 523.414C874.615 513.977 874.066 504.563 873.117 495.164C873.051 494.455 872.986 493.745 872.918 493.014C872.055 485.231 869.964 479.135 863.813 473.938C862.829 473.089 861.845 472.241 860.832 471.367C859.897 470.586 858.963 469.805 858 469C841.386 454.812 818.91 434.109 816.798 410.763C816.697 408.318 816.678 405.885 816.688 403.438C816.671 402.613 816.655 401.789 816.639 400.94C816.634 394.755 817.672 390.396 822.125 385.813C829.225 381.336 836.498 379.915 844.734 381.539C850.075 382.853 854.938 384.141 859 388C861.299 392.677 862.061 396.823 862 402C861.38 402.131 860.759 402.261 860.12 402.396C857.305 402.997 854.497 403.623 851.688 404.25C850.711 404.455 849.735 404.66 848.729 404.871C847.791 405.084 846.853 405.297 845.887 405.516C845.023 405.704 844.159 405.893 843.268 406.087C840.459 407.218 839.478 408.382 838 411C837.993 414.127 837.993 414.127 839 417C843.915 420.276 849.852 419.604 855.547 418.512C857.015 418.15 858.478 417.762 859.93 417.34C862.653 416.893 864.377 417.116 867 418C873.721 424.019 875.712 430.547 876.421 439.138C877.013 446.298 878.497 452.233 883.375 457.625C886.562 459.295 888.45 459.54 892 459C894.087 457.425 894.897 456.531 895.398 453.942C895.33 446.974 893.929 440.681 892 434C893.468 433.762 893.468 433.762 894.965 433.52C904.021 431.951 912.371 430.228 918.875 423.188C924.412 414.882 925.097 406.874 924 397C922.544 393.433 921.103 390.364 918 388C911.486 385.598 904.013 384.74 897.563 387.438C895.152 388.769 895.152 388.769 894 390C893.69 393.426 893.69 393.426 895 397C897.188 398.424 899.32 399.293 901.773 400.176C904 401 904 401 907 403C907.563 405.813 907.563 405.813 907 409C903.405 412.767 900.184 414.942 895 416C890.124 415.913 886.963 414.95 883.348 411.567C878.264 405.658 876.896 398.561 876 391C875.903 390.201 875.807 389.402 875.707 388.578C875.32 382.505 877.153 378.643 881 374C888.68 366.32 898.328 363.394 908.68 360.992C911.798 360.061 913.596 359.138 916 357C915.815 352.658 915.815 352.658 914 349C899.594 347.919 887.09 350.655 875 359C871.472 362.344 868.69 365.965 866 370C864.559 369.574 863.122 369.134 861.688 368.688C860.887 368.444 860.087 368.2 859.262 367.949C856.847 366.936 855.583 366.076 854 364C853.814 359.266 855.069 356.496 858 352.938C863.743 346.866 870.827 342.954 878.152 339.078C880.155 338.015 880.155 338.015 882 336C882.425 332.671 882.598 330.806 880.563 328.063C874.722 325.641 868.705 327.909 863.063 330C850.448 335.625 843.94 345.128 839.125 357.688C838.754 358.781 838.383 359.874 838 361C835.625 360.438 835.625 360.438 833 359C829.599 352.043 830.589 343.385 832.906 336.184C836.517 328.193 841.906 322.974 850.063 319.75C852.03 319.128 854.01 318.547 856 318C857.054 317.701 858.109 317.402 859.195 317.094C887.13 310.344 921.529 315.108 944.938 332.438Z" fill="#FAC492"/>
<path d="M603.644 243.414C612.707 251.52 619.532 260.765 626 271C626.537 271.848 627.074 272.696 627.627 273.569C633.952 283.598 640.058 293.74 646 304C645.209 303.884 644.419 303.769 643.604 303.649C639.966 303.117 636.327 302.59 632.688 302.063C631.444 301.881 630.201 301.698 628.92 301.51C592.135 296.2 554.171 298.675 518 307C516.755 307.285 515.511 307.57 514.229 307.864C495.167 312.274 476.511 317.637 458 324C457.024 324.335 456.048 324.67 455.042 325.016C425.095 335.392 396.638 348.542 369 364C367.54 364.812 367.54 364.812 366.051 365.64C355.436 371.542 344.887 377.493 334.694 384.106C330.199 387 330.199 387 328 387C326.941 348.21 330.895 310.012 358.579 280.475C412.313 224.71 538.487 187.391 603.644 243.414Z" fill="#2D5C60"/>
<path d="M588.25 316.75C588.979 316.749 589.707 316.749 590.458 316.748C605.112 316.769 619.492 317.87 634 320C635.167 320.166 636.333 320.333 637.535 320.504C650.799 322.47 661.613 324.147 672 333C673.283 333.965 674.574 334.92 675.871 335.867C686.877 343.906 697.391 352.403 707.418 361.641C710.336 364.307 713.322 366.882 716.344 369.43C718.15 371.142 719.529 372.997 721 375C719.523 374.751 719.523 374.751 718.016 374.497C698.061 371.144 678.151 367.947 658 366C656.534 365.846 656.534 365.846 655.039 365.688C576.12 357.503 497.407 371.027 425 403C423.856 403.498 422.712 403.995 421.533 404.508C379.024 422.998 339.267 445.977 301.688 473.074C299.815 474.416 297.917 475.722 296 477C297.977 470.778 300.233 464.747 302.812 458.75C303.378 457.435 303.378 457.435 303.954 456.093C307.537 447.871 311.366 439.771 315.25 431.688C315.548 431.065 315.846 430.441 316.152 429.8C325.631 410.012 325.631 410.012 334.312 405.125C335.758 404.269 337.204 403.412 338.648 402.555C339.379 402.129 340.11 401.703 340.862 401.265C343.472 399.721 346.017 398.089 348.566 396.449C360.058 389.087 372.043 382.567 384 376C385.211 375.327 385.211 375.327 386.447 374.641C447.53 340.79 518.021 316.81 588.25 316.75Z" fill="#2D5D61"/>
<path d="M430 686C430.526 686.358 431.052 686.715 431.594 687.084C463.29 708.553 495.17 722.227 534 722.188C535.097 722.189 535.097 722.189 536.217 722.19C546.924 722.189 557.422 721.809 568 720C567.84 720.839 567.68 721.678 567.516 722.543C566.259 730.97 565.051 742.5 570 750C572.935 752.354 574.542 752.99 578.332 753.074C579.481 752.947 580.629 752.819 581.812 752.688C582.974 752.568 584.135 752.448 585.332 752.324C586.653 752.164 586.653 752.164 588 752C588.637 771.712 585.509 787.778 571.541 802.747C557.212 817.167 536.152 825.23 516 826C515.067 826.052 514.133 826.103 513.172 826.156C484.018 827.035 456.539 815.556 435.357 795.806C420.816 781.745 412.597 763.948 410.699 743.809C411.077 740.28 412.072 739.342 414.625 736.938C427.659 723.188 428.6 703.89 430 686Z" fill="#FAC492"/>
<path d="M501.188 588.609C505.318 589.033 509.059 590.016 513 591.25C533.852 597.366 555.765 600.161 577.469 599.977C578.302 599.97 579.135 599.964 579.994 599.958C584.2 599.922 588.404 599.858 592.61 599.751C594.17 599.727 595.729 599.703 597.289 599.68C598.008 599.653 598.727 599.626 599.467 599.598C602.837 599.564 604.684 599.774 607.456 601.758C610.002 605.455 609.532 608.673 609 613C608.366 616.048 607.467 618.939 606.438 621.875C606.167 622.659 605.897 623.442 605.618 624.25C601.646 635.278 595.154 643.675 587 652C586.097 652.957 586.097 652.957 585.176 653.934C574.453 664.377 559.428 668.422 544.869 668.366C531.646 668.071 520.564 662.428 510.875 653.625C506.911 649.48 504.142 645.198 501.562 640.125C501.245 639.502 500.927 638.879 500.599 638.237C495.668 627.826 494.512 617.407 494.625 606C494.613 604.8 494.602 603.6 494.59 602.363C494.594 601.212 494.598 600.061 494.602 598.875C494.605 597.841 494.608 596.807 494.612 595.742C495.256 591.19 496.565 589.176 501.188 588.609Z" fill="#030402"/>
<path d="M513 611C520.041 611.408 526.928 612.271 533.875 613.438C551.463 616.337 569.207 617.309 587 618C583.329 630.032 576.727 639.68 565.789 646.348C557.27 650.766 547.332 651.593 538.004 649.246C527.326 645.102 520.964 638.863 516.07 628.66C513.754 622.903 512.88 617.181 513 611Z" fill="#FAC492"/>
<path d="M587.133 501.25C589.822 502.331 590.627 503.446 592 506C592.406 509.707 592.439 513.351 592.496 517.078C593.58 525.513 597.727 530.241 604.063 535.563C609.81 540.397 613.369 544.38 614.434 552.176C614.445 560.943 613.088 568.183 607.75 575.313C600.622 582.279 591.888 585.916 581.875 586.375C577.337 585.936 573.095 585.065 569 583C566.5 579.25 566.464 577.442 567 573C568.625 570.125 568.625 570.125 572 568C575.542 567.534 579.036 567.369 582.605 567.231C587.712 566.884 591.135 565.745 594.938 562.188C596.402 559.173 596.465 557.323 596 554C593.935 549.781 591.321 547.374 587.625 544.625C581.041 539.698 575.553 533.277 574 525C573.047 510.813 573.047 510.813 576 505C579.593 500.985 582.067 500.619 587.133 501.25Z" fill="#040503"/>
<path d="M533.688 455.063C536.576 457.483 537.883 459.1 538.375 462.875C537.914 466.719 536.666 468.256 534 471C529.418 473.291 524.92 472.036 520.313 470.5C509.93 467.495 495.965 466.873 486.09 471.715C483.792 473.128 481.585 474.641 479.375 476.188C475.09 479.163 472.25 480.175 467 480C464.14 478.236 462.502 477.005 461 474C460.397 470.833 460.498 468.812 462.211 466.039C477.969 446.73 512.675 442.197 533.688 455.063Z" fill="#040503"/>
<path d="M526 504C527.114 504.639 528.227 505.278 529.375 505.937C534.011 509.58 536.746 513.188 538 519C538.074 523.161 537.364 526.271 535.5 530C532.293 532.565 530.155 532.779 526.117 532.554C524 532 524 532 521.625 529.312C521.089 528.219 520.553 527.126 520 526C517.988 522.311 516.911 520.565 513 519C508.325 518.179 503.893 517.923 499.68 520.32C495.334 524.005 492.187 528.314 489 533C485.782 534.609 482.481 534.598 479 534C475.886 531.431 475.136 529.769 474.438 525.812C475.687 517.344 480.181 510.137 487 505C498.108 497.441 514.409 497.334 526 504Z" fill="#040503"/>
<path d="M654.562 444.937C658.444 448.157 660.637 450.869 661.5 455.937C660.796 460.251 659.236 462.108 656 465C650.931 466.192 648.024 464.632 643.75 462.062C642.92 461.517 642.09 460.972 641.234 460.41C634.318 456.045 623.877 457.347 616 458C611.001 459.198 607.245 461.17 603 464C599.024 464.315 596.241 464.509 592.562 463C590.16 459.925 589.719 456.791 590 453C592.552 447.34 596.623 444.679 602 442C603.16 441.406 603.16 441.406 604.344 440.8C619.485 434.454 641.066 435.593 654.562 444.937Z" fill="#050603"/>
<path d="M653.305 501.613C657.81 505.334 661.531 508.972 662.238 515.047C662.371 518.886 662.161 520.758 660 524C656.868 524.902 655.137 525.38 652 525C648.15 522.767 645.415 519.489 642.563 516.125C639.651 513.71 637.754 513.323 633.984 513.578C628.432 514.758 624.804 519.09 621 523C618.191 524.404 616.112 524.249 613 524C610.688 523.062 610.688 523.062 609 521C607.787 516.764 607.705 513.134 608.813 508.875C619.369 495 639.109 491.676 653.305 501.613Z" fill="#050503"/>
<path d="M430.062 1235.94C431.504 1236.09 431.504 1236.09 432.975 1236.24C435.317 1236.49 437.659 1236.74 440 1237C440 1237.66 440 1238.32 440 1239C440.932 1238.99 441.864 1238.98 442.824 1238.96C451.273 1238.91 459.58 1239.2 468 1240C468 1240.33 468 1240.66 468 1241C448.622 1241.39 429.09 1240.57 410 1237C410 1236.67 410 1236.34 410 1236C416.913 1234.99 423.135 1235.16 430.062 1235.94Z" fill="#EEB126"/>
<path d="M255 1403C255.33 1403 255.66 1403 256 1403C256 1406.63 256 1410.26 256 1414C281.41 1414 306.82 1414 333 1414C333 1414.33 333 1414.66 333 1415C293.895 1415.5 293.895 1415.5 254 1416C254 1407 254 1407 255 1403Z" fill="#33676B"/>
<path d="M849 700C849 700.33 849 700.66 849 701C848.108 701.122 847.216 701.243 846.297 701.368C845.126 701.535 843.956 701.703 842.75 701.875C841.59 702.038 840.43 702.2 839.234 702.368C836.369 702.928 834.552 703.703 832 705C829.859 705.196 829.859 705.196 827.75 705.125C825.894 705.064 825.894 705.064 824 705C824 708.3 824 711.6 824 715C820.927 710.904 819 708.139 819 703C839.532 699.426 839.532 699.426 849 700Z" fill="#F3DA97"/>
<path d="M463 463C463 466 463 466 462 468C461.468 471.993 461.704 473.565 464 476.938C467.089 479.061 467.576 479.319 471.063 479C474.334 478.363 476.555 477.343 479 475C479.66 475.33 480.32 475.66 481 476C478.588 479.739 478.588 479.739 476.313 480.75C467.159 481.74 467.159 481.74 463.063 479.125C459.86 475.825 459.732 473.562 459.766 468.977C460.08 466.322 461.132 464.868 463 463Z" fill="#FBF5B2"/>
<path d="M305 454C306.21 457.631 305.688 458.24 304.062 461.562C302.468 464.65 302.468 464.65 302 468C302.66 468.33 303.32 468.66 304 469C302.498 473.206 299.714 474.739 296 477C298.458 469.081 301.668 461.58 305 454Z" fill="#3C787B"/>
<path d="M876 498C876.33 498 876.66 498 877 498C878.156 508.338 878.098 518.616 878 529C875.789 526.624 875.029 525.347 874.751 522.067C874.809 520.957 874.866 519.847 874.926 518.703C874.981 517.498 875.035 516.293 875.092 515.051C875.165 513.797 875.237 512.542 875.312 511.25C875.374 509.98 875.435 508.711 875.498 507.402C875.651 504.267 875.819 501.134 876 498Z" fill="#F1BE73"/>
<path d="M595 1256C595 1256.33 595 1256.66 595 1257C586.424 1260.39 578 1260.24 569 1259C569 1258.67 569 1258.34 569 1258C577.688 1256.79 586.203 1255.62 595 1256Z" fill="#3A777A"/>
<path d="M50 460C50.33 460 50.66 460 51 460C51 462.333 51 464.667 51 467C51.33 467 51.66 467 52 467C51.67 470.96 51.34 474.92 51 479C50.34 478.34 49.68 477.68 49 477C49.33 476.34 49.66 475.68 50 475C49.34 474.67 48.68 474.34 48 474C48.0206 472.886 48.0412 471.773 48.0625 470.625C48.2638 467.168 48.2638 467.168 47 465C48.375 462.375 48.375 462.375 50 460Z" fill="#4B3B1D"/>
<path d="M43 411C43.33 411 43.66 411 44 411C44 413.64 44 416.28 44 419C44.33 419 44.66 419 45 419C45 420.98 45 422.96 45 425C43.35 425.33 41.7 425.66 40 426C40.66 424.68 41.32 423.36 42 422C41.34 421.67 40.68 421.34 40 421C40.6099 417.442 41.5784 414.317 43 411Z" fill="#4F3E1F"/>
<path d="M306 390C306.66 390 307.32 390 308 390C308 394.62 308 399.24 308 404C307.34 403.01 306.68 402.02 306 401C305.34 401 304.68 401 304 401C303.946 399.542 303.907 398.084 303.875 396.625C303.84 395.407 303.84 395.407 303.805 394.164C304 392 304 392 306 390ZM306 397C307 399 307 399 307 399L306 397Z" fill="#262113"/>
<path d="M701 1027C701.33 1027 701.66 1027 702 1027C701.858 1029.04 701.711 1031.08 701.563 1033.12C701.481 1034.26 701.4 1035.4 701.316 1036.57C701.023 1039.75 700.569 1042.86 700 1046C699.67 1046 699.34 1046 699 1046C697.886 1038.7 697.826 1033.73 701 1027Z" fill="#F5B826"/>
<path d="M666 735C666 735.33 666 735.66 666 736C665.157 736.132 664.314 736.265 663.445 736.402C662.35 736.579 661.254 736.755 660.125 736.937C659.034 737.111 657.944 737.285 656.82 737.464C654.062 737.855 654.062 737.855 652 739C649.304 738.832 646.676 738.388 644 738C650.585 734.049 658.596 734.879 666 735Z" fill="#EDBB27"/>
<path d="M698 1122C698.33 1122 698.66 1122 699 1122C699.912 1129.36 700.115 1136.59 700 1144C697.114 1138.61 696.927 1134.88 697.438 1128.75C697.539 1127.49 697.641 1126.22 697.746 1124.92C697.83 1123.96 697.914 1122.99 698 1122Z" fill="#F7C128"/>
<path d="M709 364C713.86 366.503 717.279 370.086 721 374C718.453 375.274 717.572 374.802 714.875 374.062C714.151 373.868 713.426 373.673 712.68 373.473C712.125 373.317 711.571 373.161 711 373C712.32 372.34 713.64 371.68 715 371C714.01 370.216 713.02 369.433 712 368.625C711.01 367.759 710.02 366.892 709 366C709 365.34 709 364.68 709 364Z" fill="#3E7D80"/>
<path d="M143 494C143.33 494 143.66 494 144 494C144.33 499.61 144.66 505.22 145 511C144.67 511 144.34 511 144 511C143.67 513.31 143.34 515.62 143 518C142.67 518 142.34 518 142 518C141.885 509.93 142.1 502.023 143 494Z" fill="#F3BB70"/>
<path d="M430 686C438.875 691.75 438.875 691.75 440 694C436.897 692.793 433.988 691.494 431 690C431 693.3 431 696.6 431 700C430.67 700 430.34 700 430 700C430 695.38 430 690.76 430 686Z" fill="#F6EFB2"/>
<path d="M726 894C728 897 728 897 728 901C728.66 901 729.32 901 730 901C730 901.66 730 902.32 730 903C730.66 903.33 731.32 903.66 732 904C732 904.66 732 905.32 732 906C730.68 906.33 729.36 906.66 728 907C725.714 898.571 725.714 898.571 726 894Z" fill="#E9A925"/>
<path d="M578 1237C577.01 1238.49 577.01 1238.49 576 1240C573.196 1240.06 570.649 1239.96 567.875 1239.69C567.121 1239.63 566.367 1239.57 565.59 1239.5C563.725 1239.35 561.862 1239.18 560 1239C560 1238.67 560 1238.34 560 1238C566.048 1237.1 571.889 1236.89 578 1237Z" fill="#E8861A"/>
<path d="M59 553C61.3657 556.549 61.1087 557.576 60.625 561.688C60.5141 562.681 60.4033 563.675 60.2891 564.699C60.1937 565.458 60.0983 566.218 60 567C58 565 58 565 57.8125 561.125C57.8796 558.285 58.0951 555.715 59 553Z" fill="#F4D592"/>
<path d="M655 445C657.667 446.333 660.333 447.667 663 449C662.67 452.3 662.34 455.6 662 459C661.67 459 661.34 459 661 459C660.752 457.804 660.505 456.607 660.25 455.375C659.226 451.206 657.563 448.418 655 445Z" fill="#FBEEA6"/>
<path d="M272 1080C272.66 1080 273.32 1080 274 1080C275.125 1087.75 275.125 1087.75 274 1090C273.648 1091.33 273.312 1092.66 273 1094C271.618 1091.24 271.905 1088.95 271.937 1085.88C271.947 1084.78 271.956 1083.68 271.965 1082.55C271.976 1081.71 271.988 1080.87 272 1080Z" fill="#5A3008"/>
<path d="M354 737C360.111 736.901 365.974 736.929 372 738C372 738.33 372 738.66 372 739C365.565 739.495 365.565 739.495 359 740C359 739.34 359 738.68 359 738C357.35 738 355.7 738 354 738C354 737.67 354 737.34 354 737Z" fill="#F9C228"/>
<path d="M665 476C665.99 476.33 666.98 476.66 668 477C668 480.96 668 484.92 668 489C667.67 487.68 667.34 486.36 667 485C666.34 485 665.68 485 665 485C665 482.03 665 479.06 665 476Z" fill="#F2D28A"/>
<path d="M639 294C642.336 296.991 644.151 299.932 646 304C642.7 303.34 639.4 302.68 636 302C636 301.67 636 301.34 636 301C637.65 300.67 639.3 300.34 641 300C640.34 298.02 639.68 296.04 639 294Z" fill="#408384"/>
<path d="M426 1237C426 1237.33 426 1237.66 426 1238C424.271 1238.03 422.542 1238.05 420.812 1238.06C419.368 1238.08 419.368 1238.08 417.895 1238.1C415.144 1238 412.675 1237.62 410 1237C410 1236.67 410 1236.34 410 1236C415.963 1235 420.287 1234.93 426 1237Z" fill="#F7C228"/>
<path d="M282 1148C282.99 1148 283.98 1148 285 1148C284.375 1155.5 284.375 1155.5 281 1160C281.33 1156.04 281.66 1152.08 282 1148Z" fill="#EEA523"/>
<path d="M663 452C663.33 452 663.66 452 664 452C665.125 459.75 665.125 459.75 664 462C662.68 461.34 661.36 460.68 660 460C660.66 459.67 661.32 459.34 662 459C661.979 458.031 661.959 457.061 661.938 456.062C662 453 662 453 663 452Z" fill="#F1D087"/>
<path d="M736 1420C739.63 1420.33 743.26 1420.66 747 1421C744 1424 744 1424 740.312 1424.19C738.673 1424.09 738.673 1424.09 737 1424C736.67 1422.68 736.34 1421.36 736 1420Z" fill="#273731"/>
<path d="M50 609C50.99 609 51.98 609 53 609C53.0765 613.516 53.1023 617.591 52 622C51.67 622 51.34 622 51 622C50.67 617.71 50.34 613.42 50 609Z" fill="#ECBE76"/>
<path d="M513 611C515.97 611.33 518.94 611.66 522 612C522 612.33 522 612.66 522 613C519.69 613 517.38 613 515 613C515 615.31 515 617.62 515 620C513.142 616.865 512.799 614.625 513 611Z" fill="#F7E9A8"/>
<path d="M572 361C575.63 361 579.26 361 583 361C583.33 361.99 583.66 362.98 584 364C582.563 364.081 581.126 364.139 579.688 364.188C578.487 364.24 578.487 364.24 577.262 364.293C575 364 575 364 572 361Z" fill="#2A5557"/>
<path d="M711 967C711.33 967 711.66 967 712 967C712.054 968.583 712.093 970.166 712.125 971.75C712.148 972.632 712.171 973.513 712.195 974.422C711.991 977.114 711.365 978.699 710 981C708.483 971.59 708.483 971.59 711 967Z" fill="#F7BC28"/>
<path d="M295 727C296.605 727.114 298.209 727.242 299.812 727.375C300.706 727.445 301.599 727.514 302.52 727.586C305 728 305 728 308 730C305.69 730.33 303.38 730.66 301 731C301 730.34 301 729.68 301 729C298.03 728.505 298.03 728.505 295 728C295 727.67 295 727.34 295 727Z" fill="#F6BC27"/>
<path d="M814 344C814 345.65 814 347.3 814 349C813.01 349.33 812.02 349.66 811 350C811.33 348.68 811.66 347.36 812 346C810.68 346.33 809.36 346.66 808 347C808 346.01 808 345.02 808 344C811.75 342.875 811.75 342.875 814 344Z" fill="#493A1D"/>
<path d="M596 1234C599.3 1234.33 602.6 1234.66 606 1235C602.256 1236.87 601.16 1237.24 597.25 1237.12C596.451 1237.11 595.652 1237.09 594.828 1237.07C594.225 1237.05 593.622 1237.02 593 1237C593.99 1236.67 594.98 1236.34 596 1236C596 1235.34 596 1234.68 596 1234Z" fill="#F7C22A"/>
<path d="M186 353C186.688 354.75 186.688 354.75 187 357C185.562 359.25 185.562 359.25 184 361C183.01 360.67 182.02 360.34 181 360C180.67 358.02 180.34 356.04 180 354C182 355 182 355 184 358C184.66 356.35 185.32 354.7 186 353Z" fill="#F0E5A6"/>
<path d="M800 424C800.66 424 801.32 424 802 424C802.186 424.959 802.186 424.959 802.375 425.938C802.684 426.958 802.684 426.958 803 428C803.66 428.33 804.32 428.66 805 429C805 429.99 805 430.98 805 432C802 431 802 431 800 428C800 426.68 800 425.36 800 424Z" fill="#4D3C1E"/>
<path d="M264 1112C264.99 1112.33 265.98 1112.66 267 1113C266.67 1113.66 266.34 1114.32 266 1115C266.66 1115.33 267.32 1115.66 268 1116C268 1117.32 268 1118.64 268 1120C267.01 1119.67 266.02 1119.34 265 1119C264.67 1116.69 264.34 1114.38 264 1112Z" fill="#502D08"/>
<path d="M43 425C43.99 425.66 44.98 426.32 46 427C46.1875 429.625 46.1875 429.625 46 432C45.01 432 44.02 432 43 432C42.34 430.68 41.68 429.36 41 428C41.66 427.01 42.32 426.02 43 425Z" fill="#514020"/>
<path d="M184 656C185.98 656 187.96 656 190 656C189.34 657.65 188.68 659.3 188 661C186.68 660.67 185.36 660.34 184 660C184 658.68 184 657.36 184 656ZM186 657C187 659 187 659 187 659L186 657Z" fill="#322611"/>
<path d="M816 320C817.65 320 819.3 320 821 320C821 320.99 821 321.98 821 323C819 324.688 819 324.688 817 326C816 321.125 816 321.125 816 320Z" fill="#46371B"/>
<path d="M829 312C829.66 312.33 830.32 312.66 831 313C827.535 315.97 827.535 315.97 824 319C823.34 318.34 822.68 317.68 822 317C822.33 316.34 822.66 315.68 823 315C824.331 314.657 825.664 314.324 827 314C827.66 313.34 828.32 312.68 829 312Z" fill="#392D15"/>
<path d="M493 526C493.99 526.66 494.98 527.32 496 528C495.34 528 494.68 528 494 528C494 528.99 494 529.98 494 531C491.5 532.688 491.5 532.688 489 534C490.125 531.028 491.223 528.666 493 526Z" fill="#EFD792"/>
<path d="M479 475C479.66 475.33 480.32 475.66 481 476C479.875 478 479.875 478 478 480C474.812 480.25 474.812 480.25 472 480C474.297 478.257 476.599 476.601 479 475Z" fill="#F2DD9C"/>
<path d="M165 360C165.33 360 165.66 360 166 360C166 361.65 166 363.3 166 365C163.69 365.33 161.38 365.66 159 366C159.639 365.732 160.279 365.464 160.938 365.188C163.331 364.113 163.331 364.113 164 361C164.33 360.67 164.66 360.34 165 360Z" fill="#EDC47D"/>
<path d="M198 319C200.062 319.438 200.062 319.438 202 320C202.33 321.32 202.66 322.64 203 324C202.01 324.66 201.02 325.32 200 326C199.814 325.072 199.814 325.072 199.625 324.125C199.128 321.809 199.128 321.809 197 320C197.33 319.67 197.66 319.34 198 319Z" fill="#44351A"/>
<path d="M306 376C306.33 376 306.66 376 307 376C307 380.29 307 384.58 307 389C305 387 305 387 304.77 384.906C304.784 384.112 304.798 383.318 304.812 382.5C304.819 381.706 304.825 380.912 304.832 380.094C305 378 305 378 306 376Z" fill="#221E12"/>
<path d="M835 304C835.66 304.33 836.32 304.66 837 305C837 305.66 837 306.32 837 307C835.35 307.66 833.7 308.32 832 309C831.67 308.01 831.34 307.02 831 306C832.32 306 833.64 306 835 306C835 305.34 835 304.68 835 304Z" fill="#4A3B1C"/>
<path d="M856 543C856.33 543 856.66 543 857 543C857 546.96 857 550.92 857 555C856.67 555 856.34 555 856 555C856 551.04 856 547.08 856 543Z" fill="#634B26"/>
<path d="M34 778C36.2478 780.052 37.0022 781.007 38 784C37.01 783.67 36.02 783.34 35 783C34.67 781.35 34.34 779.7 34 778Z" fill="#47371B"/>
<path d="M864 297C864 297.33 864 297.66 864 298C860.7 298.33 857.4 298.66 854 299C857.991 297.005 859.7 296.805 864 297Z" fill="#52401F"/>
<path d="M25 655C25.33 655 25.66 655 26 655C26 656.98 26 658.96 26 661C25.34 660.67 24.68 660.34 24 660C24.33 658.35 24.66 656.7 25 655Z" fill="#4F3B1C"/>
<path d="M45 512C45 512.99 45 513.98 45 515C43.68 515 42.36 515 41 515C42 513 42 513 45 512Z" fill="#4D3C1F"/>
<path d="M65 313C65.66 313.99 66.32 314.98 67 316C65.515 316.99 65.515 316.99 64 318C63.67 317.01 63.34 316.02 63 315C63.66 315 64.32 315 65 315C65 314.34 65 313.68 65 313Z" fill="#413318"/>
<path d="M73 313C71.02 313.66 69.04 314.32 67 315C67 314.34 67 313.68 67 313C70 312 70 312 73 313Z" fill="#433418"/>
<path d="M265 1127C265.33 1127 265.66 1127 266 1127C266 1128.65 266 1130.3 266 1132C265.01 1132.5 265.01 1132.5 264 1133C263.957 1131.33 263.959 1129.67 264 1128C264.33 1127.67 264.66 1127.34 265 1127Z" fill="#512B06"/>
<path d="M40 344C40.99 344 41.98 344 43 344C42.34 345.32 41.68 346.64 41 348C40.67 346.68 40.34 345.36 40 344Z" fill="#46371B"/>
<path d="M233 1416C235 1418 235 1418 235 1420C234.34 1420 233.68 1420 233 1420C232.67 1419.01 232.34 1418.02 232 1417C232.33 1416.67 232.66 1416.34 233 1416Z" fill="#212B23"/>
<path d="M718 1112C718.66 1112 719.32 1112 720 1112C720 1113.65 720 1115.3 720 1117C718 1113.12 718 1113.12 718 1112Z" fill="#532F0B"/>
<path d="M24 632C25.32 632 26.64 632 28 632C27.67 632.99 27.34 633.98 27 635C27 634.34 27 633.68 27 633C26.01 633.33 25.02 633.66 24 634C24 633.34 24 632.68 24 632Z" fill="#4D3B1D"/>
<path d="M164 516C164.66 516.99 165.32 517.98 166 519C165.34 519.66 164.68 520.32 164 521C163.438 519.062 163.438 519.062 163 517C163.33 516.67 163.66 516.34 164 516Z" fill="#5F4925"/>
<path d="M828 466C828.99 466.99 829.98 467.98 831 469C830.01 469 829.02 469 828 469C828 468.01 828 467.02 828 466Z" fill="#5A4623"/>
<path d="M801 378C801.66 378.33 802.32 378.66 803 379C802.01 379.99 801.02 380.98 800 382C800.33 380.68 800.66 379.36 801 378Z" fill="#3B2F18"/>
<path d="M212 370C212.99 370 213.98 370 215 370C214.67 370.99 214.34 371.98 214 373C213.34 373 212.68 373 212 373C212 372.01 212 371.02 212 370Z" fill="#3E3118"/>
<path d="M81 306C81.66 306.33 82.32 306.66 83 307C81.35 307.66 79.7 308.32 78 309C78.99 308.01 79.98 307.02 81 306Z" fill="#46361A"/>
<path d="M111 296C112.32 296.33 113.64 296.66 115 297C113.68 297.33 112.36 297.66 111 298C111 297.34 111 296.68 111 296Z" fill="#4E3D1D"/>
<path d="M561 200C562.32 200.33 563.64 200.66 565 201C564.34 201 563.68 201 563 201C563 201.66 563 202.32 563 203C562.34 202.67 561.68 202.34 561 202C561 201.34 561 200.68 561 200Z" fill="#221F11"/>
<path d="M234 1394C234.33 1394 234.66 1394 235 1394C235 1395.65 235 1397.3 235 1399C234.34 1398.01 233.68 1397.02 233 1396C233.33 1395.34 233.66 1394.68 234 1394Z" fill="#1A211B"/>
<path d="M244 1330C244.66 1330 245.32 1330 246 1330C245.67 1331.32 245.34 1332.64 245 1334C244.67 1332.68 244.34 1331.36 244 1330Z" fill="#1D1F14"/>
<path d="M718 1064C718.66 1064 719.32 1064 720 1064C720 1064.99 720 1065.98 720 1067C719.34 1067 718.68 1067 718 1067C718 1066.01 718 1065.02 718 1064Z" fill="#54310B"/>
<path d="M32 776C32.66 776 33.32 776 34 776C33.34 777.32 32.68 778.64 32 780C32 778.68 32 777.36 32 776Z" fill="#48381C"/>
<path d="M792 688C792.99 688.33 793.98 688.66 795 689C793.68 689.33 792.36 689.66 791 690C791.33 689.34 791.66 688.68 792 688Z" fill="#483416"/>
<path d="M193 640C193.33 640.99 193.66 641.98 194 643C193.01 643.495 193.01 643.495 192 644C192.33 642.68 192.66 641.36 193 640Z" fill="#322713"/>
<path d="M991 630C991.33 630 991.66 630 992 630C992 631.98 992 633.96 992 636C991.67 636 991.34 636 991 636C991 634.02 991 632.04 991 630Z" fill="#4F3D1F"/>
<path d="M41 535C41.33 536.32 41.66 537.64 42 539C41.34 538.67 40.68 538.34 40 538C40.33 537.01 40.66 536.02 41 535Z" fill="#4A391C"/>
<path d="M41 520C41.66 520 42.32 520 43 520C42.67 520.99 42.34 521.98 42 523C41.34 522.34 40.68 521.68 40 521C40.33 520.67 40.66 520.34 41 520Z" fill="#4C3C1E"/>
<path d="M164 510C164.66 511.32 165.32 512.64 166 514C165.01 514.495 165.01 514.495 164 515C164 513.35 164 511.7 164 510Z" fill="#5E4825"/>
<path d="M273 464C273.66 464.33 274.32 464.66 275 465C274.01 465.99 273.02 466.98 272 468C272.33 466.68 272.66 465.36 273 464Z" fill="#251F10"/>
<path d="M206 368C207.32 368 208.64 368 210 368C209.67 368.99 209.34 369.98 209 371C209 370.34 209 369.68 209 369C208.01 368.67 207.02 368.34 206 368Z" fill="#3E3118"/>
<path d="M959 319C959.99 319.33 960.98 319.66 962 320C961.67 320.99 961.34 321.98 961 323C961 322.34 961 321.68 961 321C960.34 321 959.68 321 959 321C959 320.34 959 319.68 959 319Z" fill="#44351C"/>
<path d="M252 1186C252.66 1186 253.32 1186 254 1186C253.67 1187.32 253.34 1188.64 253 1190C252.67 1188.68 252.34 1187.36 252 1186Z" fill="#402608"/>
<path d="M273 1064C273.99 1064 274.98 1064 276 1064C275.67 1064.99 275.34 1065.98 275 1067C275 1066.34 275 1065.68 275 1065C274.34 1064.67 273.68 1064.34 273 1064Z" fill="#4C2906"/>
<path d="M242 1011C242.33 1011.99 242.66 1012.98 243 1014C242.34 1014 241.68 1014 241 1014C241.33 1013.01 241.66 1012.02 242 1011Z" fill="#2B1A07"/>
<path d="M172 971C173.98 971.99 173.98 971.99 176 973C174.68 972.67 173.36 972.34 172 972C172 971.67 172 971.34 172 971Z" fill="#261908"/>
<path d="M50 803C50.66 803.33 51.32 803.66 52 804C50.515 804.99 50.515 804.99 49 806C49.33 805.01 49.66 804.02 50 803Z" fill="#45361A"/>
<path d="M174 680C175.32 680.33 176.64 680.66 178 681C177.01 681.33 176.02 681.66 175 682C174.67 681.34 174.34 680.68 174 680Z" fill="#403014"/>
<path d="M856 640C856.33 640 856.66 640 857 640C857 641.65 857 643.3 857 645C856.67 645 856.34 645 856 645C856 643.35 856 641.7 856 640Z" fill="#604925"/>
<path d="M44 441C44.66 441 45.32 441 46 441C45.67 442.32 45.34 443.64 45 445C44.67 443.68 44.34 442.36 44 441Z" fill="#4D3C1E"/>
<path d="M297 417C297.66 417.66 298.32 418.32 299 419C298.01 419 297.02 419 296 419C296.33 418.34 296.66 417.68 297 417Z" fill="#232013"/>
<path d="M221 418C221.66 418.33 222.32 418.66 223 419C221.515 419.99 221.515 419.99 220 421C220.33 420.01 220.66 419.02 221 418Z" fill="#4E3C1E"/>
<path d="M41 410C41.33 410 41.66 410 42 410C42 411.65 42 413.3 42 415C41.67 415 41.34 415 41 415C41 413.35 41 411.7 41 410Z" fill="#4E3E1F"/>
<path d="M222 398C222.66 398 223.32 398 224 398C223.67 399.32 223.34 400.64 223 402C222.67 400.68 222.34 399.36 222 398Z" fill="#46361C"/>
<path d="M207 350C207.33 350 207.66 350 208 350C208 351.65 208 353.3 208 355C207.67 355 207.34 355 207 355C207 353.35 207 351.7 207 350Z" fill="#3F311A"/>
<path d="M207 344C207.33 344 207.66 344 208 344C208 345.65 208 347.3 208 349C207.67 349 207.34 349 207 349C207 347.35 207 345.7 207 344Z" fill="#40331A"/>
<path d="M40 336C40.66 336 41.32 336 42 336C42 336.99 42 337.98 42 339C41.34 338.67 40.68 338.34 40 338C40 337.34 40 336.68 40 336Z" fill="#413219"/>
<path d="M703 327C703.33 328.32 703.66 329.64 704 331C703.34 330.34 702.68 329.68 702 329C702.33 328.34 702.66 327.68 703 327Z" fill="#1C180E"/>
<path d="M967 324C967 324.99 967 325.98 967 327C966.34 326.34 965.68 325.68 965 325C965.66 324.67 966.32 324.34 967 324Z" fill="#45361B"/>
<path d="M314 314C314.33 314.66 314.66 315.32 315 316C314.34 316.66 313.68 317.32 313 318C313.33 316.68 313.66 315.36 314 314Z" fill="#201E11"/>
<path d="M838 304C838.99 304.33 839.98 304.66 841 305C839.68 305.33 838.36 305.66 837 306C837.33 305.34 837.66 304.68 838 304Z" fill="#4E3C1D"/>
<path d="M869 296C870.65 296 872.3 296 874 296C874 296.33 874 296.66 874 297C872.35 297 870.7 297 869 297C869 296.67 869 296.34 869 296Z" fill="#503D1D"/>
<path d="M359 249C359.66 249.66 360.32 250.32 361 251C360.01 251 359.02 251 358 251C358.33 250.34 358.66 249.68 359 249Z" fill="#1A190E"/>
<path d="M243 1423C247 1424 247 1424 247 1424L243 1423Z" fill="#25312C"/>
<path d="M235 1387C236 1391 236 1391 236 1391L235 1387Z" fill="#1B231A"/>
<path d="M249 1311C249.33 1311.99 249.66 1312.98 250 1314C249.34 1313.67 248.68 1313.34 248 1313C248.33 1312.34 248.66 1311.68 249 1311Z" fill="#1D1C12"/>
<path d="M258 1162C259 1166 259 1166 259 1166L258 1162Z" fill="#492C09"/>
<path d="M256 1160C257 1164 257 1164 257 1164L256 1160Z" fill="#472A08"/>
<path d="M259 1158C259.33 1158.99 259.66 1159.98 260 1161C259.34 1160.67 258.68 1160.34 258 1160C258.33 1159.34 258.66 1158.68 259 1158Z" fill="#492B08"/>
<path d="M260 1153C261 1157 261 1157 261 1157L260 1153Z" fill="#4C2C08"/>
<path d="M718 1106C718.66 1106 719.32 1106 720 1106C720 1106.66 720 1107.32 720 1108C719.34 1108 718.68 1108 718 1108C718 1107.34 718 1106.68 718 1106Z" fill="#55310B"/>
<path d="M718 1102C718.66 1102.66 719.32 1103.32 720 1104C719.01 1104.5 719.01 1104.5 718 1105C718 1104.01 718 1103.02 718 1102Z" fill="#54300B"/>
<path d="M718 1082C718.66 1082.66 719.32 1083.32 720 1084C719.01 1084.5 719.01 1084.5 718 1085C718 1084.01 718 1083.02 718 1082Z" fill="#56310C"/>
<path d="M725 1018C725.33 1018.99 725.66 1019.98 726 1021C725.34 1020.67 724.68 1020.34 724 1020C724.33 1019.34 724.66 1018.68 725 1018Z" fill="#55310B"/>
<path d="M225 998C225.66 998.66 226.32 999.32 227 1000C226.01 999.67 225.02 999.34 224 999C224.33 998.67 224.66 998.34 225 998Z" fill="#261807"/>
<path d="M121 849C122 853 122 853 122 853L121 849Z" fill="#2E220F"/>
<path d="M58 811C58.99 811.33 59.98 811.66 61 812C60.01 812 59.02 812 58 812C58 811.67 58 811.34 58 811Z" fill="#4B391B"/>
<path d="M786 689C787.485 689.99 787.485 689.99 789 691C788.01 691 787.02 691 786 691C786 690.34 786 689.68 786 689Z" fill="#432F14"/>
<path d="M824 683C828 684 828 684 828 684L824 683Z" fill="#523D1E"/>
<path d="M843 680C847 681 847 681 847 681L843 680Z" fill="#533E1B"/>
<path d="M856 646C857 650 857 650 857 650L856 646Z" fill="#604925"/>
<path d="M856 624C857 628 857 628 857 628L856 624Z" fill="#624925"/>
<path d="M246 584C246.99 584.33 247.98 584.66 249 585C248.01 585 247.02 585 246 585C246 584.67 246 584.34 246 584Z" fill="#201C0E"/>
<path d="M733 571C733.66 571 734.32 571 735 571C734.67 571.99 734.34 572.98 734 574C733.67 573.01 733.34 572.02 733 571Z" fill="#2B2211"/>
<path d="M44 518C45 522 45 522 45 522L44 518Z" fill="#4C3B1E"/>
<path d="M181 476C181.66 476.66 182.32 477.32 183 478C182.01 477.67 181.02 477.34 180 477C180.33 476.67 180.66 476.34 181 476Z" fill="#5A4423"/>
<path d="M306 368C306.66 368 307.32 368 308 368C307.67 368.99 307.34 369.98 307 371C306.67 370.01 306.34 369.02 306 368Z" fill="#211D12"/>
<path d="M726 346C726.66 346.66 727.32 347.32 728 348C727.01 347.67 726.02 347.34 725 347C725.33 346.67 725.66 346.34 726 346Z" fill="#201B0D"/>
<path d="M683 312C683.33 312.99 683.66 313.98 684 315C683.34 314.67 682.68 314.34 682 314C682.33 313.34 682.66 312.68 683 312Z" fill="#1C190D"/>
<path d="M679 312C679.99 312 680.98 312 682 312C681.67 312.66 681.34 313.32 681 314C680.34 313.34 679.68 312.68 679 312Z" fill="#1E1A0F"/>
<path d="M939 305C939.33 305.66 939.66 306.32 940 307C939.01 306.67 938.02 306.34 937 306C937.66 305.67 938.32 305.34 939 305Z" fill="#49371A"/>
<path d="M924 298C925.485 298.99 925.485 298.99 927 300C926.01 300 925.02 300 924 300C924 299.34 924 298.68 924 298Z" fill="#4C3A1C"/>
<path d="M914 297C914.66 297.33 915.32 297.66 916 298C915.01 298 914.02 298 913 298C913.33 297.67 913.66 297.34 914 297Z" fill="#4E3B1E"/>
<path d="M906 297C910 298 910 298 910 298L906 297Z" fill="#513D1D"/>
<path d="M916 296C920 297 920 297 920 297L916 296Z" fill="#4B3A1D"/>
<path d="M384 232C384.66 232.33 385.32 232.66 386 233C385.01 233 384.02 233 383 233C383.33 232.67 383.66 232.34 384 232Z" fill="#1A170D"/>
<path d="M417 216C417.66 216.33 418.32 216.66 419 217C418.01 217 417.02 217 416 217C416.33 216.67 416.66 216.34 417 216Z" fill="#1B170E"/>
<path d="M468 202C472 203 472 203 472 203L468 202Z" fill="#201C10"/>
<path d="M558 200C558.99 200.33 559.98 200.66 561 201C560.01 201 559.02 201 558 201C558 200.67 558 200.34 558 200Z" fill="#232011"/>
<path d="M248 1422C248.99 1422.5 248.99 1422.5 250 1423C249.01 1423.5 249.01 1423.5 248 1424C248 1423.34 248 1422.68 248 1422Z" fill="#293A33"/>
<path d="M239 1422C239.66 1422.66 240.32 1423.32 241 1424C240.34 1424 239.68 1424 239 1424C239 1423.34 239 1422.68 239 1422Z" fill="#253028"/>
<path d="M232 1385C232.66 1385.66 233.32 1386.32 234 1387C233.34 1387 232.68 1387 232 1387C232 1386.34 232 1385.68 232 1385Z" fill="#1B2018"/>
<path d="M258 1265C258.33 1265.66 258.66 1266.32 259 1267C258.34 1266.67 257.68 1266.34 257 1266C257.33 1265.67 257.66 1265.34 258 1265Z" fill="#211E11"/>
<path d="M724 1223C727 1224 727 1224 727 1224L724 1223Z" fill="#2D210E"/>
<path d="M256 1152C259 1153 259 1153 259 1153L256 1152Z" fill="#492A07"/>
<path d="M267 1113C267.99 1113.5 267.99 1113.5 269 1114C268.01 1114.5 268.01 1114.5 267 1115C267 1114.34 267 1113.68 267 1113Z" fill="#512E09"/>
<path d="M924 1090C927 1091 927 1091 927 1091L924 1090Z" fill="#271800"/>
<path d="M273 1074C273.66 1074 274.32 1074 275 1074C274.67 1074.66 274.34 1075.32 274 1076C273.67 1075.34 273.34 1074.68 273 1074Z" fill="#542D04"/>
<path d="M276 1044C276.66 1044 277.32 1044 278 1044C277.67 1044.66 277.34 1045.32 277 1046C276.67 1045.34 276.34 1044.68 276 1044Z" fill="#452504"/>
<path d="M259 1022C259.99 1022.5 259.99 1022.5 261 1023C260.01 1023.5 260.01 1023.5 259 1024C259 1023.34 259 1022.68 259 1022Z" fill="#301C07"/>
<path d="M203 980C206 981 206 981 206 981L203 980Z" fill="#261807"/>
<path d="M96 837C99 838 99 838 99 838L96 837Z" fill="#3F2F16"/>
<path d="M941 822C941.33 822.66 941.66 823.32 942 824C941.34 823.67 940.68 823.34 940 823C940.33 822.67 940.66 822.34 941 822Z" fill="#49391C"/>
<path d="M45 796C45.66 796.66 46.32 797.32 47 798C46.34 798 45.68 798 45 798C45 797.34 45 796.68 45 796Z" fill="#48381B"/>
<path d="M975 790C975.33 790.66 975.66 791.32 976 792C975.34 791.67 974.68 791.34 974 791C974.33 790.67 974.66 790.34 975 790Z" fill="#47371C"/>
<path d="M184 662C184.66 662.66 185.32 663.32 186 664C185.34 664 184.68 664 184 664C184 663.34 184 662.68 184 662Z" fill="#302511"/>
<path d="M195 642C195.66 642 196.32 642 197 642C196.67 642.66 196.34 643.32 196 644C195.67 643.34 195.34 642.68 195 642Z" fill="#2E2312"/>
<path d="M202 634C202.99 634.495 202.99 634.495 204 635C203.01 635.495 203.01 635.495 202 636C202 635.34 202 634.68 202 634Z" fill="#2D2210"/>
<path d="M201 632C204 633 204 633 204 633L201 632Z" fill="#302511"/>
<path d="M240 584C243 585 243 585 243 585L240 584Z" fill="#271F10"/>
<path d="M35 569C35.66 569 36.32 569 37 569C36.67 569.66 36.34 570.32 36 571C35.67 570.34 35.34 569.68 35 569Z" fill="#4B391E"/>
<path d="M42 527C42.99 527.495 42.99 527.495 44 528C43.01 528.495 43.01 528.495 42 529C42 528.34 42 527.68 42 527Z" fill="#4D3B1E"/>
<path d="M257 490C257.66 490.66 258.32 491.32 259 492C258.34 492 257.68 492 257 492C257 491.34 257 490.68 257 490Z" fill="#2A2414"/>
<path d="M179 478C179.33 478.66 179.66 479.32 180 480C179.34 479.67 178.68 479.34 178 479C178.33 478.67 178.66 478.34 179 478Z" fill="#5B4523"/>
<path d="M836 474C836.66 474.66 837.32 475.32 838 476C837.34 476 836.68 476 836 476C836 475.34 836 474.68 836 474Z" fill="#5A4623"/>
<path d="M183 474C183.33 474.66 183.66 475.32 184 476C183.34 475.67 182.68 475.34 182 475C182.33 474.67 182.66 474.34 183 474Z" fill="#584523"/>
<path d="M45 446C45.66 446 46.32 446 47 446C46.67 446.66 46.34 447.32 46 448C45.67 447.34 45.34 446.68 45 446Z" fill="#4C3C1D"/>
<path d="M981 395C981.99 395.495 981.99 395.495 983 396C982.01 396.495 982.01 396.495 981 397C981 396.34 981 395.68 981 395Z" fill="#47391E"/>
<path d="M811 351C811.99 351.495 811.99 351.495 813 352C812.01 352.495 812.01 352.495 811 353C811 352.34 811 351.68 811 351Z" fill="#42351B"/>
<path d="M304 344C304.99 344.495 304.99 344.495 306 345C305.01 345.495 305.01 345.495 304 346C304 345.34 304 344.68 304 344Z" fill="#201E10"/>
<path d="M44 338C44.66 338 45.32 338 46 338C45.67 338.66 45.34 339.32 45 340C44.67 339.34 44.34 338.68 44 338Z" fill="#43341A"/>
<path d="M710 336C713 337 713 337 713 337L710 336Z" fill="#1C190D"/>
<path d="M203 327C206 328 206 328 206 328L203 327Z" fill="#45381A"/>
<path d="M203 321C203.66 321.66 204.32 322.32 205 323C204.34 323 203.68 323 203 323C203 322.34 203 321.68 203 321Z" fill="#45351A"/>
<path d="M690 320C693 321 693 321 693 321L690 320Z" fill="#1C180D"/>
<path d="M184 307C187 308 187 308 187 308L184 307Z" fill="#4C3C1D"/>
<path d="M83 304C83.66 304.66 84.32 305.32 85 306C84.34 306 83.68 306 83 306C83 305.34 83 304.68 83 304Z" fill="#463719"/>
<path d="M171 301C174 302 174 302 174 302L171 301Z" fill="#4B3B1C"/>
<path d="M848 299C848.33 299.66 848.66 300.32 849 301C848.34 300.67 847.68 300.34 847 300C847.33 299.67 847.66 299.34 848 299Z" fill="#4F3D1E"/>
<path d="M155 297C158 298 158 298 158 298L155 297Z" fill="#4C3B1D"/>
<path d="M341 268C341.33 268.66 341.66 269.32 342 270C341.34 269.67 340.68 269.34 340 269C340.33 268.67 340.66 268.34 341 268Z" fill="#1D1C10"/>
<path d="M344 264C344.99 264.495 344.99 264.495 346 265C345.01 265.495 345.01 265.495 344 266C344 265.34 344 264.68 344 264Z" fill="#1D1B10"/>
<path d="M352 256C352.99 256.495 352.99 256.495 354 257C353.01 257.495 353.01 257.495 352 258C352 257.34 352 256.68 352 256Z" fill="#1C180E"/>
<path d="M360 248C360.66 248 361.32 248 362 248C361.67 248.66 361.34 249.32 361 250C360.67 249.34 360.34 248.68 360 248Z" fill="#1C1911"/>
<path d="M368 240C371 241 371 241 371 241L368 240Z" fill="#1C190E"/>
<path d="M412 218C412.99 218.495 412.99 218.495 414 219C413.01 219.495 413.01 219.495 412 220C412 219.34 412 218.68 412 218Z" fill="#1A190D"/>
<path d="M567 202C567.66 202.66 568.32 203.32 569 204C568.34 204 567.68 204 567 204C567 203.34 567 202.68 567 202Z" fill="#211F0F"/>
<path d="M956 1090C958 1091 958 1091 958 1091L956 1090Z" fill="#231700"/>
<path d="M717 1090C719 1091 719 1091 719 1091L717 1090Z" fill="#54300B"/>
<path d="M269 1090C271 1091 271 1091 271 1091L269 1090Z" fill="#522E07"/>
<path d="M275 1057C277 1058 277 1058 277 1058L275 1057Z" fill="#502B09"/>
<path d="M277 1027C279 1028 279 1028 279 1028L277 1027Z" fill="#341D04"/>
<path d="M267 1023C269 1024 269 1024 269 1024L267 1023Z" fill="#2E1A06"/>
<path d="M220 994C222 995 222 995 222 995L220 994Z" fill="#291906"/>
<path d="M193 978C195 979 195 979 195 979L193 978Z" fill="#271A08"/>
<path d="M179 974C181 975 181 975 181 975L179 974Z" fill="#261909"/>
<path d="M177 973C179 974 179 974 179 974L177 973Z" fill="#251909"/>
<path d="M161 965C163 966 163 966 163 966L161 965Z" fill="#221708"/>
<path d="M758 916C760 917 760 917 760 917L758 916Z" fill="#4D2B0B"/>
<path d="M764 914C766 915 766 915 766 915L764 914Z" fill="#4D2B0A"/>
<path d="M777 909C779 910 779 910 779 910L777 909Z" fill="#4E2E0A"/>
<path d="M818 892C820 893 820 893 820 893L818 892Z" fill="#442B0B"/>
<path d="M833 885C835 886 835 886 835 886L833 885Z" fill="#43290E"/>
<path d="M882 854C884 855 884 855 884 855L882 854Z" fill="#453216"/>
<path d="M884 853C886 854 886 854 886 854L884 853Z" fill="#453516"/>
<path d="M104 841C106 842 106 842 106 842L104 841Z" fill="#3F2F14"/>
<path d="M91 836C93 837 93 837 93 837L91 836Z" fill="#413216"/>
<path d="M93 835C95 836 95 836 95 836L93 835Z" fill="#413217"/>
<path d="M91 834C93 835 93 835 93 835L91 834Z" fill="#423318"/>
<path d="M83 829C85 830 85 830 85 830L83 829Z" fill="#423217"/>
<path d="M81 828C83 829 83 829 83 829L81 828Z" fill="#3F3218"/>
<path d="M47 799C49 800 49 800 49 800L47 799Z" fill="#4A381B"/>
<path d="M40 795C42 796 42 796 42 796L40 795Z" fill="#47381C"/>
<path d="M840 680C842 681 842 681 842 681L840 680Z" fill="#543E1C"/>
<path d="M198 640C200 641 200 641 200 641L198 640Z" fill="#2C2210"/>
<path d="M208 627C210 628 210 628 210 628L208 627Z" fill="#2A220E"/>
<path d="M240 592C242 593 242 593 242 593L240 592Z" fill="#231B0D"/>
<path d="M243 589C245 590 245 590 245 590L243 589Z" fill="#251E0F"/>
<path d="M244 585C246 586 246 586 246 586L244 585Z" fill="#251E10"/>
<path d="M34 576C36 577 36 577 36 577L34 576Z" fill="#48391B"/>
<path d="M256 572C258 573 258 573 258 573L256 572Z" fill="#221B0E"/>
<path d="M258 547C260 548 260 548 260 548L258 547Z" fill="#211C0E"/>
<path d="M717 543C719 544 719 544 719 544L717 543Z" fill="#2B2111"/>
<path d="M250 543C252 544 252 544 252 544L250 543Z" fill="#271D10"/>
<path d="M846 487C848 488 848 488 848 488L846 487Z" fill="#584522"/>
<path d="M726 476C728 477 728 477 728 477L726 476Z" fill="#282010"/>
<path d="M729 471C731 472 731 472 731 472L729 471Z" fill="#262010"/>
<path d="M44 438C46 439 46 439 46 439L44 438Z" fill="#4A3B1C"/>
<path d="M766 428C768 429 768 429 768 429L766 428Z" fill="#2B2211"/>
<path d="M792 398C794 399 794 399 794 399L792 398Z" fill="#3D3119"/>
<path d="M222 392C224 393 224 393 224 393L222 392Z" fill="#42341B"/>
<path d="M800 376C802 377 802 377 802 377L800 376Z" fill="#3B2F18"/>
<path d="M48 332C50 333 50 333 50 333L48 332Z" fill="#43341A"/>
<path d="M51 328C53 329 53 329 53 329L51 328Z" fill="#44351A"/>
<path d="M697 325C699 326 699 326 699 326L697 325Z" fill="#1E190E"/>
<path d="M953 315C955 316 955 316 955 316L953 315Z" fill="#45361A"/>
<path d="M684 315C686 316 686 316 686 316L684 315Z" fill="#1E1B0D"/>
<path d="M950 313C952 314 952 314 952 314L950 313Z" fill="#43331B"/>
<path d="M824 312C826 313 826 313 826 313L824 312Z" fill="#44351B"/>
<path d="M87 304C89 305 89 305 89 305L87 304Z" fill="#4B391B"/>
<path d="M80 304C82 305 82 305 82 305L80 304Z" fill="#43331A"/>
<path d="M933 299C935 300 935 300 935 300L933 299Z" fill="#4B3B1C"/>
<path d="M852 299C854 300 854 300 854 300L852 299Z" fill="#4F3E20"/>
<path d="M161 298C163 299 163 299 163 299L161 298Z" fill="#4F3C1F"/>
<path d="M320 289C322 290 322 290 322 290L320 289Z" fill="#211D10"/>
<path d="M356 253C358 254 358 254 358 254L356 253Z" fill="#1B1A0F"/>
<path d="M373 240C375 241 375 241 375 241L373 240Z" fill="#1B180D"/>
<path d="M395 226C397 227 397 227 397 227L395 226Z" fill="#1A180F"/>
<path d="M409 216C411 217 411 217 411 217L409 216Z" fill="#19180D"/>
<path d="M435 210C437 211 437 211 437 211L435 210Z" fill="#1B180D"/>
<path d="M572 204C574 205 574 205 574 205L572 204Z" fill="#242110"/>
<path d="M463 203C465 204 465 204 465 204L463 203Z" fill="#1F1D0F"/>
<path d="M564 202C566 203 566 203 566 203L564 202Z" fill="#221E12"/>
<path d="M566 200C568 201 568 201 568 201L566 200Z" fill="#211F12"/>
<path d="M470 200C472 201 472 201 472 201L470 200Z" fill="#201D10"/>
<path d="M465 200C467 201 467 201 467 201L465 200Z" fill="#1E1E0E"/>
<path d="M531 198C533 199 533 199 533 199L531 198Z" fill="#292310"/>
<path d="M515 198C517 199 517 199 517 199L515 198Z" fill="#27210F"/>
<path d="M507 198C509 199 509 199 509 199L507 198Z" fill="#27200F"/>
<path d="M146 179C148 180 148 180 148 180L146 179Z" fill="#3B2A0A"/>
<path d="M10 179C12 180 12 180 12 180L10 179Z" fill="#281B02"/>
</svg>
