<svg width="1024" height="1536" viewBox="0 0 1024 1536" fill="none" xmlns="http://www.w3.org/2000/svg">
<g clip-path="url(#clip0_5_1318)">
<path d="M491.797 144.697C493.917 144.989 496.024 145.189 498.156 145.359C508.689 146.271 518.074 148.392 528 152C529.058 152.358 530.117 152.717 531.207 153.086C538.627 155.828 544.315 159.94 550.383 164.891C553.337 167.271 555.396 168.125 559 169C574.697 173.632 586.174 181.817 596 195C596.835 196.06 596.835 196.06 597.688 197.141C599 199 599 199 600 202C600.431 203.089 600.861 204.179 601.305 205.301C606.594 218.714 609.168 231.845 610.57 246.164C610.868 249.744 610.868 249.744 611.589 252.115C612 254 612 254 611 256C610.391 258.924 610.188 260.195 611 263C613.066 265.669 615.34 268.034 617.68 270.465C626.614 280.226 630.929 294.969 631 308C630.321 319.593 627.89 331.213 621.648 341.152C619.345 344.905 619.345 344.905 619.398 349.184C620.439 351.892 621.676 354.418 623 357C624.157 359.371 625.305 361.743 626.438 364.125C626.738 364.758 627.039 365.391 627.35 366.042C634.057 380.471 636.968 395.384 637.659 411.215C637.812 414.589 637.98 417.765 639 421C638.34 420.67 637.68 420.34 637 420C636.71 421.286 636.71 421.286 636.414 422.598C635.082 428.447 633.736 434.257 632 440C633.145 439.907 633.145 439.907 634.312 439.812C637 440 637 440 638.812 441.5C639.204 441.995 639.596 442.49 640 443C639.67 443.33 639.34 443.66 639 444C641.31 444.33 643.62 444.66 646 445C646 445.99 646 446.98 646 448C646.736 447.919 647.472 447.838 648.23 447.754C649.694 447.659 649.694 447.659 651.188 447.562C652.15 447.481 653.113 447.4 654.105 447.316C657.866 448.204 658.478 450.014 660.475 453.145C663.423 456.731 667.683 458.173 671.875 459.938C672.748 460.335 673.62 460.733 674.52 461.143C678.426 462.849 681.7 464.246 686.008 464.066C686.995 464.044 687.983 464.023 689 464C689.66 464.99 690.32 465.98 691 467C691.33 466.01 691.66 465.02 692 464C692 464.66 692 465.32 692 466C693.65 465.34 695.3 464.68 697 464C697.562 465.938 697.562 465.938 698 468C697.67 468.33 697.34 468.66 697 469C706.654 471.465 715.046 472.408 725 472C725 472.33 725 472.66 725 473C726.417 473.027 727.833 473.047 729.25 473.062C730.433 473.08 730.433 473.08 731.641 473.098C733.924 473.003 735.801 472.583 738 472C739.373 471.856 740.748 471.732 742.125 471.625C750.788 470.642 757.834 467.784 765.438 463.625C766.136 463.25 766.835 462.875 767.555 462.488C771.562 460.215 774.095 458.376 776 454C776.252 451.29 776.252 451.29 776 449C776.99 449 777.98 449 779 449C779.66 448.67 780.32 448.34 781 448C781.99 448.33 782.98 448.66 784 449C796.81 437.329 805.762 421.661 814.449 406.832C814.847 406.157 815.244 405.482 815.654 404.787C816.4 403.515 817.139 402.24 817.87 400.959C820.183 397.005 822.672 394.084 826 391C825.34 388.69 824.68 386.38 824 384C824.99 383.67 825.98 383.34 827 383C828.23 379.488 828.23 379.488 829 376C827.68 375.67 826.36 375.34 825 375C825.33 373.35 825.66 371.7 826 370C825.34 370 824.68 370 824 370C824.33 369.01 824.66 368.02 825 367C824.672 364.666 824.339 362.332 824 360C824.33 359.34 824.66 358.68 825 358C824.392 355.651 823.729 353.315 823 351C822.34 351 821.68 351 821 351C818.525 343.575 818.525 343.575 816 336C816.66 335.67 817.32 335.34 818 335C817.693 333.805 817.693 333.805 817.379 332.586C816.975 330.997 816.975 330.997 816.562 329.375C816.296 328.331 816.029 327.287 815.754 326.211C814.373 320.331 813.896 315.009 814 309C813.34 308.67 812.68 308.34 812 308C812.33 307.67 812.66 307.34 813 307C813.297 305.108 813.563 303.211 813.812 301.312C814.641 296.29 815.4 292.79 819 289C823.793 285.679 828.118 284.16 834 285C845.231 289.217 851.524 297.687 857 308C857 308.66 857 309.32 857 310C857.66 310 858.32 310 859 310C859.112 309.475 859.224 308.951 859.34 308.41C865.084 285.845 882.466 262.911 899 247C899.718 246.308 900.436 245.616 901.176 244.902C908.419 238.242 915.599 233.6 925.715 233.715C930.079 234.259 932.708 236.797 935.812 239.688C939.48 246.83 937.873 254.077 935.641 261.418C932.634 270.323 928.336 278.779 924.297 287.249C922.464 291.137 920.721 295.062 919 299C919.546 298.632 920.093 298.264 920.656 297.885C923.097 296.246 925.547 294.622 928 293C929.04 292.312 930.081 291.623 931.152 290.914C970.95 264.825 970.95 264.825 987.75 267.625C992.805 269.764 995.16 272.545 997.875 277.25C999.636 283.119 999.203 287.687 996.375 293.125C991.418 299.125 986.009 303.933 979.723 308.52C979.154 309.008 978.586 309.497 978 310C978 310.66 978 311.32 978 312C976.68 312.33 975.36 312.66 974 313C974.33 313.66 974.66 314.32 975 315C975.614 314.99 976.228 314.979 976.861 314.968C979.699 314.926 982.537 314.901 985.375 314.875C986.341 314.858 987.306 314.841 988.301 314.824C998.98 314.753 1007.13 315.765 1015.31 323.062C1018.53 326.76 1018.34 330.766 1018.27 335.441C1017.58 342 1013.33 346.251 1008.48 350.297C1002.24 354.579 995.012 357.229 988 360C988.908 360.536 989.815 361.072 990.75 361.625C994.171 363.951 996.15 366.23 998 370C998.733 375.104 998.55 380.489 996 385C993.527 387 990.984 388.76 988.312 390.484C985.932 391.933 985.932 391.933 984 394C981.237 395.028 978.491 395.975 975.688 396.875C974.474 397.274 974.474 397.274 973.237 397.681C968.475 399.239 963.69 400.676 958.875 402.062C950.634 404.592 943.594 408.462 939 416C936.188 422.766 933.87 429.681 934.094 437.051C934.152 442.958 932.854 448.463 931.5 454.188C931.237 455.314 930.975 456.441 930.704 457.602C927.886 469.211 924.497 481.491 918.884 492.112C917.806 494.031 917.806 494.031 918.125 496.5C917.953 499.946 916.446 500.621 914 503C912.518 505.599 911.242 508.279 910 511C910.66 511.33 911.32 511.66 912 512C911 514 911 514 909.172 514.754C906.071 516.533 905.023 518.857 903.25 521.938C899.523 528.247 895.44 534.164 891 540C890.41 540.785 889.819 541.57 889.211 542.379C885.071 547.726 880.592 552.729 876 557.688C875.431 558.305 874.861 558.923 874.275 559.56C867.51 566.777 859.997 572.909 852.125 578.875C851.367 579.455 850.609 580.035 849.828 580.633C844.273 584.864 844.273 584.864 842 586C842 586.99 842 587.98 842 589C841.01 588.67 840.02 588.34 839 588C836.511 589.252 834.188 590.559 831.812 592C819.961 598.894 807.727 603.862 794.812 608.438C793.82 608.792 792.827 609.147 791.804 609.512C790.395 609.999 790.395 609.999 788.957 610.496C788.121 610.787 787.286 611.077 786.425 611.377C783.856 612.037 781.641 612.113 779 612C778.67 612.66 778.34 613.32 778 614C776.133 614.487 776.133 614.487 773.695 614.816C772.362 615.002 772.362 615.002 771.001 615.191C770.052 615.314 769.103 615.436 768.125 615.562C767.169 615.695 766.214 615.827 765.229 615.963C759.48 616.741 753.766 617.355 747.961 617.496C745.23 618.198 744.454 619.671 743 622C743 621.34 743 620.68 743 620C742.34 620 741.68 620 741 620C741 620.66 741 621.32 741 622C740.34 622 739.68 622 739 622C738.67 621.01 738.34 620.02 738 619C735.03 619 732.06 619 729 619C729 619.33 729 619.66 729 620C717.936 621.396 717.936 621.396 714 620C713.67 619.34 713.34 618.68 713 618C710.759 617.452 710.759 617.452 708.047 617.184C707.035 617.059 706.023 616.935 704.98 616.807C703.914 616.685 702.848 616.563 701.75 616.438C699.661 616.188 697.573 615.936 695.484 615.684C694.553 615.576 693.622 615.468 692.663 615.357C690.079 615.011 687.55 614.541 685 614C685 614.66 685 615.32 685 616C683.35 616 681.7 616 680 616C680 615.01 680 614.02 680 613C678.777 612.648 677.553 612.296 676.293 611.934C664.326 608.443 652.642 604.452 641 600C641.275 601.382 641.275 601.382 641.555 602.792C643.714 613.855 645.368 624.957 646.875 636.125C647.002 637.06 647.129 637.994 647.26 638.957C650.283 661.255 652.739 683.614 655 706C655.093 706.918 655.187 707.835 655.283 708.781C657.386 729.594 657.386 729.594 657.5 739.062C657.562 740.444 657.562 740.444 657.625 741.854C657.654 744.381 657.617 746.548 657 749C654.035 751.668 651.75 752.75 648 754C649.004 759.546 650.898 764.65 652.812 769.938C653.207 771.029 653.602 772.121 654.008 773.246C661.098 792.661 668.965 811.8 677.054 830.817C677.444 831.738 677.833 832.66 678.234 833.609C678.577 834.413 678.92 835.217 679.272 836.046C680 838 680 838 680 840C680.66 840.33 681.32 840.66 682 841C682.759 842.72 683.429 844.48 684.062 846.25C686.687 853.314 689.621 860.22 692.614 867.136C693.746 869.755 694.874 872.377 696 875C696.385 875.89 696.77 876.78 697.166 877.698C700.633 885.846 703.668 894.13 706.657 902.462C707.495 904.8 708.339 907.135 709.184 909.471C713.828 922.349 718.227 935.289 722.203 948.391C722.777 950.268 723.379 952.137 724 954C724.335 955.807 724.643 957.619 724.934 959.434C725.616 963.638 726.311 967.838 727.035 972.035C727.378 974.044 727.72 976.053 728.062 978.062C728.236 979.061 728.409 980.059 728.588 981.088C730.115 990.102 731.161 999.031 731.062 1008.19C731.053 1009.29 731.044 1010.4 731.035 1011.54C731.018 1012.76 731.018 1012.76 731 1014C731.99 1014.33 732.98 1014.66 734 1015C733.34 1015.99 732.68 1016.98 732 1018C732.66 1018 733.32 1018 734 1018C733.67 1018.99 733.34 1019.98 733 1021C732.813 1023.45 732.673 1025.87 732.57 1028.32C732.499 1029.83 732.427 1031.34 732.354 1032.85C732.317 1033.64 732.28 1034.43 732.242 1035.24C729.896 1084.31 729.896 1084.31 723 1105C723.66 1105.33 724.32 1105.66 725 1106C724.01 1106 723.02 1106 722 1106C721.67 1110.62 721.34 1115.24 721 1120C720.34 1120 719.68 1120 719 1120C718.919 1120.53 718.837 1121.06 718.754 1121.61C717.25 1130.19 714.404 1138.3 711.562 1146.5C711.298 1147.27 711.034 1148.03 710.762 1148.83C705.811 1163.18 700.207 1177.14 694 1191C693.237 1192.74 692.474 1194.49 691.711 1196.23C691.018 1197.78 690.323 1199.33 689.625 1200.88C689.328 1201.55 689.03 1202.23 688.724 1202.93C686.809 1207.05 684.794 1209.51 681 1212C677.968 1213.01 675.949 1213.12 672.781 1213.1C671.26 1213.09 671.26 1213.09 669.707 1213.09C668.649 1213.08 667.59 1213.07 666.5 1213.06C665.442 1213.06 664.383 1213.05 663.293 1213.05C661.33 1213.04 659.367 1213.03 657.404 1213.02C655.603 1213 653.801 1213 652 1213C652.222 1214.95 652.222 1214.95 653 1217C654.597 1218.19 654.597 1218.19 656.656 1218.97C657.806 1219.48 657.806 1219.48 658.98 1219.99C660.227 1220.52 660.227 1220.52 661.5 1221.06C674.2 1226.77 685.475 1234.18 696.562 1242.56C697.117 1242.98 697.672 1243.4 698.244 1243.83C699.537 1244.83 700.775 1245.91 702 1247C702 1247.66 702 1248.32 702 1249C702.561 1249.23 703.121 1249.46 703.699 1249.69C713.869 1255.48 721.769 1268.71 725.438 1279.44C728.228 1289.63 728.161 1298.63 723 1308C717.346 1317.58 708.038 1323.37 697.445 1326.45C633.185 1341.02 542.41 1305.61 488.31 1272.07C485.811 1270.45 483.384 1268.78 481 1267C480.476 1266.61 479.953 1266.22 479.413 1265.83C474.14 1261.72 472.314 1257.43 471 1251C470.977 1247.25 471.344 1243.69 472 1240C472.66 1240 473.32 1240 474 1240C474.123 1239.26 474.246 1238.53 474.373 1237.77C474.976 1235.11 475.774 1233.14 477.039 1230.74C477.452 1229.96 477.864 1229.17 478.289 1228.36C478.73 1227.54 479.171 1226.72 479.625 1225.88C480.073 1225.03 480.521 1224.18 480.982 1223.31C483.965 1217.75 487.127 1212.42 490.723 1207.23C492.112 1204.8 492.606 1202.75 493 1200C493.99 1199.67 494.98 1199.34 496 1199C497.7 1196.96 497.7 1196.96 499.32 1194.41C499.938 1193.48 500.555 1192.55 501.191 1191.59C501.829 1190.61 502.468 1189.63 503.125 1188.62C503.771 1187.65 504.417 1186.68 505.082 1185.68C508.532 1180.59 508.532 1180.59 511 1175C510.278 1174.86 509.556 1174.71 508.812 1174.56C507.884 1174.38 506.956 1174.19 506 1174C505.113 1173.9 504.226 1173.79 503.312 1173.69C501 1173 501 1173 499.688 1170.94C499.461 1170.3 499.234 1169.66 499 1169C498.67 1169.33 498.34 1169.66 498 1170C497.34 1170 496.68 1170 496 1170C496.434 1162.97 497.743 1156.67 500 1150C500.66 1150 501.32 1150 502 1150C502.213 1149.24 502.425 1148.48 502.645 1147.7C504.932 1141.46 508.187 1135.67 511.275 1129.79C511.766 1128.84 512.256 1127.88 512.762 1126.89C513.215 1126.03 513.668 1125.16 514.135 1124.26C515.316 1121.89 515.316 1121.89 514 1119C513.01 1119 512.02 1119 511 1119C511.66 1117.02 512.32 1115.04 513 1113C513.929 1112.96 514.859 1112.91 515.816 1112.87C519.202 1112.32 519.202 1112.32 520.715 1109.38C521.118 1108.31 521.522 1107.23 521.938 1106.12C522.57 1104.52 522.57 1104.52 523.215 1102.88C524.296 1099.96 524.296 1099.96 523 1097C523.99 1096.67 524.98 1096.34 526 1096C527.136 1093.74 527.136 1093.74 527.973 1090.93C528.315 1089.89 528.657 1088.85 529.01 1087.77C529.357 1086.67 529.705 1085.57 530.062 1084.44C530.589 1082.83 530.589 1082.83 531.127 1081.19C534.844 1070.32 534.844 1070.32 536 1059C536.186 1058.22 536.371 1057.43 536.562 1056.62C537.127 1053.24 536.525 1050.39 536 1047C535.963 1044.67 535.952 1042.33 536 1040C536.66 1040 537.32 1040 538 1040C537.443 1038.95 537.443 1038.95 536.875 1037.88C535.767 1034.24 536.559 1032.44 538 1029C537.34 1029 536.68 1029 536 1029C536.371 1027.97 536.743 1026.94 537.125 1025.88C538.09 1021.6 537.62 1019.96 536 1016C536 1013.33 536 1010.67 536 1008C537.32 1007.34 538.64 1006.68 540 1006C538.68 1005.67 537.36 1005.34 536 1005C535.812 1002.62 535.812 1002.62 536 1000C536.99 999.34 537.98 998.68 539 998C538.34 997.67 537.68 997.34 537 997C537.041 996.019 537.082 995.038 537.125 994.027C537.125 989.672 536.133 985.745 535 981.562C534.714 980.465 534.714 980.465 534.422 979.346C533.955 977.562 533.479 975.781 533 974C532.67 974.66 532.34 975.32 532 976C531.67 975.01 531.34 974.02 531 973C530.01 973 529.02 973 528 973C527.875 968.25 527.875 968.25 529 966C528.67 965.01 528.34 964.02 528 963C528.66 962.67 529.32 962.34 530 962C530 961.01 530 960.02 530 959C529.34 958.67 528.68 958.34 528 958C527.567 956.577 527.567 956.577 527.125 955.125C525.914 951.76 525.001 950.801 522 949C523.875 945.125 523.875 945.125 525 944C523.68 944 522.36 944 521 944C519.605 941.702 518.926 940.521 519.312 937.812C520 936 520 936 521 935C519.35 930.38 517.7 925.76 516 921C515.01 921.99 514.02 922.98 513 924C512.34 924 511.68 924 511 924C510.974 924.66 510.948 925.32 510.922 926C509.961 942.767 506.707 959.462 502.487 975.693C501.122 981.218 500.942 985.394 502 991C501.34 991.33 500.68 991.66 500 992C499.34 991.67 498.68 991.34 498 991C497.898 991.588 497.795 992.177 497.69 992.783C496.434 999.553 494.573 1005.98 492.375 1012.5C492.022 1013.55 491.668 1014.6 491.304 1015.68C483.811 1037.5 473.359 1058.19 460 1077C459.513 1077.69 459.025 1078.39 458.523 1079.1C457.026 1081.22 455.516 1083.33 454 1085.44C453.531 1086.1 453.062 1086.75 452.578 1087.43C451.436 1088.99 450.224 1090.5 449 1092C448.34 1092 447.68 1092 447 1092C446.65 1092.82 446.65 1092.82 446.293 1093.66C438.473 1107.79 421.666 1120.39 409 1130C407.607 1131.08 406.213 1132.17 404.82 1133.25C320.552 1198.24 320.552 1198.24 291.391 1195.75C286.123 1194.1 281.547 1191.06 277 1188C277.436 1188.93 277.871 1189.87 278.32 1190.83C285.974 1207.58 291.97 1225.57 294.543 1243.86C294.817 1246.9 294.817 1246.9 296 1249C296.796 1262.99 297.155 1280.46 288 1292C280.782 1300.06 271.721 1303.47 261.062 1304.2C239.303 1304.54 223.049 1295.81 207 1282C206.06 1281.2 205.121 1280.4 204.152 1279.58C198.976 1275.05 194.365 1270.31 190 1265C189.537 1264.45 189.074 1263.9 188.598 1263.33C171.552 1243.06 158.199 1220.48 146 1197C145.34 1197 144.68 1197 144 1197C143.814 1195.7 143.814 1195.7 143.625 1194.38C143.015 1191.08 142.231 1188.11 141 1185C140.34 1184.67 139.68 1184.34 139 1184C137.903 1181.52 137.016 1178.99 136.098 1176.45C135.167 1173.97 135.167 1173.97 133.371 1172.43C132 1171 132 1171 132 1167C131.34 1167.33 130.68 1167.66 130 1168C129.618 1166.34 129.286 1164.68 129 1163C129.33 1162.67 129.66 1162.34 130 1162C127.36 1155.07 124.72 1148.14 122 1141C121.34 1141 120.68 1141 120 1141C120.041 1140.03 120.082 1139.06 120.125 1138.06C120.141 1134.23 119.345 1130.79 118.445 1127.09C117.934 1124.69 117.842 1122.45 118 1120C117.34 1119.67 116.68 1119.34 116 1119C117.14 1105.18 120.884 1098.42 131.047 1089.24C138.923 1083.27 147.788 1078.97 156.625 1074.62C158.274 1073.81 158.274 1073.81 159.957 1072.97C162.636 1071.64 165.317 1070.32 168 1069C168 1068.34 168 1067.68 168 1067C169.65 1067 171.3 1067 173 1067C173.702 1065.2 173.702 1065.2 174 1063C173.691 1062.38 173.381 1061.76 173.062 1061.12C171.59 1058.18 171.608 1056.26 172 1053C174.993 1047.39 178.983 1044.55 184.25 1041.12C185.368 1040.38 185.368 1040.38 186.508 1039.62C188.332 1038.4 190.162 1037.2 192 1036C191.34 1035.34 190.68 1034.68 190 1034C192 1032 192 1032 195.117 1031.72C200.158 1030.79 203.092 1028.54 207.125 1025.5C208.619 1024.41 210.114 1023.31 211.609 1022.22C212.346 1021.68 213.083 1021.14 213.842 1020.57C216.971 1018.29 220.17 1016.11 223.375 1013.94C227.181 1011.39 227.181 1011.39 230.602 1008.38C232.264 1006.74 233.904 1006.03 236 1005C238.172 1003.53 240.311 1002.04 242.438 1000.5C243.349 999.844 243.349 999.844 244.278 999.176C248.64 996.021 252.964 992.819 257.25 989.562C258.073 988.944 258.073 988.944 258.912 988.312C261.491 986.332 263.173 984.74 265 982C266.324 981.314 267.658 980.65 269 980C275.01 975.268 280.088 969.831 285 964C286.228 962.624 287.457 961.249 288.688 959.875C291.446 956.694 294.014 953.724 296 950C295.878 947.204 295.878 947.204 295 945C295.597 944.963 296.194 944.925 296.809 944.887C299.278 944.144 299.278 944.144 300.598 941.332C304.627 931.651 308.357 921.663 308 911C307.01 910.67 306.02 910.34 305 910C305.33 908.68 305.66 907.36 306 906C306.99 906.33 307.98 906.66 309 907C309.33 899.74 309.66 892.48 310 885C309.34 884.67 308.68 884.34 308 884C308 868.667 308 853.333 308 838C306.68 837.67 305.36 837.34 304 837C304.75 835.125 304.75 835.125 306 833C306.66 832.73 307.319 832.461 307.999 832.183C310.212 831.16 310.212 831.16 310.821 828.741C310.968 827.82 311.115 826.898 311.266 825.949C311.517 824.436 311.517 824.436 311.773 822.893C312.009 821.306 312.009 821.306 312.25 819.688C312.423 818.641 312.595 817.595 312.773 816.518C313.504 811.961 314.098 807.624 314 803C314.66 803 315.32 803 316 803C316 802.34 316 801.68 316 801C315.34 800.67 314.68 800.34 314 800C314.99 800 315.98 800 317 800C317.117 799.007 317.235 798.015 317.355 796.992C317.944 792.895 319.051 789.06 320.312 785.125C320.533 784.428 320.753 783.732 320.979 783.014C322.65 777.831 324.633 772.91 327 768C325.419 767.635 323.835 767.283 322.25 766.938C321.368 766.74 320.487 766.543 319.578 766.34C317.013 766.002 315.429 766.188 313 767C312.67 766.01 312.34 765.02 312 764C309.678 763.295 307.344 762.628 305 762C304.67 761.34 304.34 760.68 304 760C301.723 759.125 301.723 759.125 299.062 758.438C294.142 757.071 294.142 757.071 292 756C291.67 756.66 291.34 757.32 291 758C290.34 757.34 289.68 756.68 289 756C286.068 753.473 283.834 752.533 280 752C280 751.34 280 750.68 280 750C279.193 749.762 278.386 749.523 277.555 749.277C250.962 739.721 225.057 719.408 209.41 696.031C208.023 693.904 208.023 693.904 206 692C205.505 690.515 205.505 690.515 205 689C203.458 686.787 201.91 684.91 200 683C200.33 682.34 200.66 681.68 201 681C199.374 676.736 199.374 676.736 196 674C196.33 673.34 196.66 672.68 197 672C196.34 672 195.68 672 195 672C190.369 657.262 190.369 657.262 192 654C192.079 652.617 192.097 651.23 192.082 649.845C192.072 648.558 192.072 648.558 192.062 647.244C192.051 646.314 192.039 645.384 192.027 644.426C192.015 642.459 192.002 640.492 191.99 638.525C191.965 635.423 191.938 632.32 191.904 629.217C191.874 626.224 191.856 623.231 191.84 620.238C191.82 618.858 191.82 618.858 191.799 617.45C191.779 612.2 192.365 607.985 194 603C193.973 600.792 193.973 600.792 193.5 598.875C193 595 193.205 593.379 195 590C194.01 589.67 193.02 589.34 192 589C192.33 587.68 192.66 586.36 193 585C194.65 586.65 196.3 588.3 198 590C199.414 581.535 199.414 581.535 200 573C200 571.333 200 569.667 200 568C201.65 568 203.3 568 205 568C205.205 567.169 205.41 566.337 205.621 565.48C205.891 564.394 206.16 563.307 206.438 562.188C206.704 561.109 206.971 560.03 207.246 558.918C207.761 556.926 208.349 554.952 209 553C209.66 553.33 210.32 553.66 211 554C211.245 552.998 211.49 551.997 211.742 550.965C212.937 546.782 214.9 543.277 217.125 539.562C217.498 538.926 217.87 538.29 218.254 537.635C219.162 536.086 220.08 534.542 221 533C219.23 532.186 217.459 531.374 215.688 530.562C214.208 529.884 214.208 529.884 212.699 529.191C209.984 527.943 209.984 527.943 207 527C205.978 526.023 204.98 525.019 204 524C202.555 522.858 201.095 521.734 199.625 520.625C195.329 517.305 191.592 513.834 188.027 509.727C187.317 508.909 186.607 508.092 185.875 507.25C185.212 506.471 184.55 505.693 183.867 504.891C182.05 502.765 182.05 502.765 179 502C177.478 498.396 177 495.948 177 492C176.34 491.67 175.68 491.34 175 491C174.406 488.351 174.258 485.708 174 483C173.01 483 172.02 483 171 483C171.33 481.68 171.66 480.36 172 479C171.34 478.67 170.68 478.34 170 478C169.375 474.938 169.375 474.938 169 472C169.66 472 170.32 472 171 472C170.505 470.515 170.505 470.515 170 469C170 451.588 176.847 436.683 187 423C187.66 422.01 188.32 421.02 189 420C188.505 418.515 188.505 418.515 188 417C188.99 417 189.98 417 191 417C191.66 416.34 192.32 415.68 193 415C194.118 414.177 195.244 413.367 196.375 412.562C204.169 406.778 211.194 399.896 218 393C218.93 392.066 218.93 392.066 219.879 391.113C224.861 385.784 229 379.524 229 372C229.33 372 229.66 372 230 372C230.839 368.336 231.134 364.923 231.176 361.168C231.633 336.618 235.159 318.013 252.375 299.438C253.241 298.633 254.108 297.829 255 297C256.025 296.002 256.025 296.002 257.07 294.984C269.26 283.461 284.288 276.464 299.371 269.52C300.294 269.091 301.217 268.662 302.168 268.22C303.959 267.391 305.754 266.571 307.555 265.764C312.947 263.267 317.427 260.36 321.994 256.553C324 255 324 255 326.133 254.043C328.518 252.711 328.926 251.475 330 249C330.885 247.691 331.788 246.394 332.703 245.105C336.331 239.727 339.066 233.993 341.865 228.152C347.042 217.391 352.401 207.289 360 198C360.619 197.215 361.238 196.43 361.875 195.621C363.5 193.625 363.5 193.625 366 191C366.66 191 367.32 191 368 191C368.33 190.01 368.66 189.02 369 188C382.808 174.647 401.858 163.32 421.125 161.25C428.509 160.204 434.408 157.431 441 154C440.67 153.34 440.34 152.68 440 152C441.155 151.918 442.31 151.835 443.5 151.75C447.938 151.272 452.139 150.222 456.438 149.063C464.017 147.038 471.533 146.114 479.332 145.395C489.231 144.33 489.231 144.33 491.797 144.697ZM969 314C969.33 314.99 969.66 315.98 970 317C971.65 317 973.3 317 975 317C972.328 314.657 972.328 314.657 969 314ZM968 315C967.01 315.99 966.02 316.98 965 318C966.32 317.67 967.64 317.34 969 317C968.67 316.34 968.34 315.68 968 315ZM819 338C820 341 820 341 820 341L819 338ZM821 345C822 347 822 347 822 347L821 345ZM826 363C827 367 827 367 827 367L826 363ZM827 367C828 370 828 370 828 370L827 367ZM828 371C829 375 829 375 829 375L828 371ZM828 384C829 387 829 387 829 387L828 384ZM653 449C652.34 449.66 651.68 450.32 651 451C652.65 450.67 654.3 450.34 656 450C655.01 449.67 654.02 449.34 653 449ZM203 569C204 571 204 571 204 571L203 569ZM202 571C203 573 203 573 203 573L202 571ZM196 591C197 594 197 594 197 594L196 591ZM195 595C196 598 196 598 196 598L195 595ZM193 654C194 658 194 658 194 658L193 654ZM194 660C195 663 195 663 195 663L194 660ZM195 664C196 668 196 668 196 668L195 664ZM196 668C197 670 197 670 197 670L196 668ZM306 834C306 834.66 306 835.32 306 836C306.66 836 307.32 836 308 836C308 835.34 308 834.68 308 834C307.34 834 306.68 834 306 834ZM513 912C514 916 514 916 514 916L513 912ZM512 917C512 918.65 512 920.3 512 922C512.66 922 513.32 922 514 922C513.67 920.35 513.34 918.7 513 917C512.67 917 512.34 917 512 917ZM522 938C523 940 523 940 523 940L522 938ZM523 941C524 943 524 943 524 943L523 941ZM525 947C526 949 526 949 526 949L525 947ZM531 966C532 969 532 969 532 969L531 966ZM532 969C533 972 533 972 533 972L532 969ZM499 987C500 990 500 990 500 990L499 987ZM539 1017C539 1020.3 539 1023.6 539 1027C539.99 1027.5 539.99 1027.5 541 1028C541 1024.37 541 1020.74 541 1017C540.34 1017 539.68 1017 539 1017ZM539 1030C540 1032 540 1032 540 1032L539 1030ZM539 1035C540 1037 540 1037 540 1037L539 1035ZM539 1038C539 1040.31 539 1042.62 539 1045C539.33 1045 539.66 1045 540 1045C540 1042.69 540 1040.38 540 1038C539.67 1038 539.34 1038 539 1038ZM538 1047C538 1048.98 538 1050.96 538 1053C538.33 1053 538.66 1053 539 1053C539 1051.02 539 1049.04 539 1047C538.67 1047 538.34 1047 538 1047ZM518 1113C519 1115 519 1115 519 1115L518 1113Z" fill="#020100"/>
<path d="M635 756C637.623 758.623 638.429 761.567 639.625 764.996C640.162 766.498 640.7 767.999 641.238 769.501C641.524 770.303 641.809 771.104 642.104 771.931C647.622 787.365 653.568 802.585 659.938 817.688C660.507 819.038 660.507 819.038 661.088 820.417C665.675 831.276 670.33 842.107 674.991 852.935C720.753 959.254 720.753 959.254 721.238 1015.27C721.248 1016.21 721.258 1017.15 721.268 1018.13C721.292 1021.17 721.305 1024.21 721.313 1027.25C721.315 1028.29 721.318 1029.33 721.32 1030.41C721.325 1048.27 720.136 1065.39 717 1083C716.835 1083.96 716.669 1084.92 716.499 1085.9C715.489 1091.64 714.31 1097.32 713 1103C712.819 1103.8 712.637 1104.6 712.45 1105.42C704.962 1137.98 694.218 1173.23 677 1202C653.097 1202.81 630.185 1198.48 607 1193C605.832 1192.73 604.665 1192.45 603.462 1192.17C578.957 1186.33 554.964 1178.73 531 1171C529.533 1170.53 529.533 1170.53 528.037 1170.05C525.108 1169.1 522.182 1168.15 519.258 1167.19C518.357 1166.9 517.457 1166.61 516.529 1166.31C515.287 1165.9 515.287 1165.9 514.02 1165.48C513.29 1165.24 512.56 1165.01 511.808 1164.76C510 1164 510 1164 508 1162C508.296 1157.26 510.713 1153.28 512.867 1149.15C513.674 1147.57 514.48 1146 515.286 1144.42C515.709 1143.6 516.132 1142.77 516.568 1141.92C534.905 1106.14 550.189 1069.6 550.185 1028.82C550.187 1026.47 550.206 1024.12 550.225 1021.76C550.385 980.1 536.059 930.924 516.851 893.778C513.571 886.925 517.096 876.411 518.312 869.375C518.526 868.098 518.739 866.82 518.959 865.504C520.238 857.965 521.71 850.501 523.42 843.047C524.203 838.935 524.216 835.171 524 831C522.35 831 520.7 831 519 831C515.525 836.898 514.204 843.318 512.66 849.938C512.434 850.906 512.434 850.906 512.202 851.893C508.264 868.909 506.041 886.168 503.77 903.469C496.009 962.564 496.009 962.564 488.125 990C487.788 991.188 487.451 992.376 487.104 993.601C477.732 1026.04 463.816 1057 442 1083C441.493 1083.61 440.985 1084.22 440.462 1084.85C433.262 1093.46 425.928 1101.62 417.395 1108.94C415.586 1110.5 413.795 1112.07 412.012 1113.65C383.706 1138.62 350.23 1157.46 317 1175C315.659 1175.71 315.659 1175.71 314.29 1176.44C311.826 1177.75 309.353 1179.03 306.875 1180.31C306.159 1180.69 305.444 1181.07 304.706 1181.46C300.621 1183.53 297.571 1184.64 293 1184C277.193 1178.03 265.396 1164.56 253.688 1152.94C253.176 1152.43 252.664 1151.92 252.136 1151.4C245.286 1144.61 239.002 1137.57 233 1130C231.607 1128.31 230.212 1126.62 228.813 1124.94C214.3 1107.14 200.638 1088.83 189 1069C188.083 1067.47 188.083 1067.47 187.148 1065.9C186.584 1064.92 186.019 1063.95 185.438 1062.94C184.941 1062.08 184.445 1061.22 183.934 1060.34C182.83 1057.57 182.935 1056.73 184 1054C185.632 1052.48 185.632 1052.48 187.77 1051.04C188.964 1050.22 188.964 1050.22 190.183 1049.38C191.05 1048.8 191.918 1048.22 192.813 1047.62C194.647 1046.37 196.482 1045.12 198.316 1043.86C199.26 1043.22 200.204 1042.58 201.176 1041.92C205.566 1038.93 209.906 1035.87 214.25 1032.81C219.518 1029.12 224.8 1025.44 230.121 1021.82C249.12 1008.88 267.893 995.337 284.52 979.413C285.896 978.099 287.289 976.805 288.684 975.512C308.681 956.45 319.021 931.664 320.159 904.166C320.196 900.331 320.174 896.502 320.125 892.668C320.116 891.257 320.109 889.845 320.102 888.434C320.076 883.278 320.027 878.123 319.979 872.967C319.783 851.559 319.668 830.762 324.813 809.812C325.075 808.711 325.338 807.609 325.609 806.475C328.56 794.328 332.11 782.522 337 771C345.443 772.459 353.763 774.273 362.102 776.232C368.877 777.803 375.447 779.158 382.438 779.062C383.302 779.053 384.167 779.044 385.059 779.035C385.699 779.024 386.34 779.012 387 779C387.33 778.34 387.66 777.68 388 777C389.176 777.144 390.351 777.289 391.563 777.438C392.224 777.519 392.885 777.6 393.566 777.684C395.384 777.92 397.194 778.207 399 778.52C403.809 779.205 408.591 779.067 413.438 778.992C415.488 778.975 417.539 778.958 419.59 778.941C422.784 778.911 425.978 778.875 429.172 778.829C441.505 778.658 453.037 778.753 465 782C466.808 782.421 466.808 782.421 468.652 782.851C472 784 472 784 473.958 786.098C476.927 788.863 479.83 788.52 483.676 788.426C484.437 788.422 485.198 788.419 485.982 788.416C488.426 788.4 490.869 788.356 493.312 788.312C494.882 788.301 496.452 788.291 498.021 788.283C507.758 788.207 517.473 787.829 527.199 787.376C536.853 786.937 546.507 786.731 556.169 786.554C561.265 786.461 566.361 786.356 571.457 786.25C572.454 786.229 573.452 786.209 574.479 786.187C582.926 786.009 591.369 785.783 599.812 785.5C600.93 785.465 602.047 785.429 603.198 785.393C606.134 785.288 609.066 785.149 612 785C612.922 784.974 613.844 784.948 614.794 784.922C618.978 784.7 621.476 784.318 625.105 782.113C627.907 777.509 627.543 773.463 627.312 768.188C627.29 767.208 627.267 766.229 627.244 765.221C627.185 762.812 627.103 760.407 627 758C628.287 757.611 629.58 757.239 630.875 756.875C631.594 756.666 632.314 756.457 633.055 756.242C633.697 756.162 634.339 756.082 635 756Z" fill="#B1BAA6"/>
<path d="M830 402C833.728 405.134 837.358 408.25 840.688 411.812C862.472 433.681 892.122 441.959 922 445C914.772 491.982 887.121 539.689 848.938 568.375C842.197 573.313 835.275 577.884 828 582C827.322 582.389 826.643 582.778 825.944 583.179C795.584 600.426 759.082 610.133 724 608C722.813 607.936 722.813 607.936 721.601 607.871C695.191 606.363 670.144 600.611 645.813 590.25C644.814 589.828 644.814 589.828 643.795 589.397C640.464 587.913 639.076 587.114 637 584C636.289 581.145 635.659 578.316 635.082 575.434C634.715 573.662 634.347 571.89 633.979 570.119C633.789 569.191 633.599 568.262 633.402 567.306C630.62 553.778 627.775 540.278 624.188 526.938C623.922 525.937 623.657 524.937 623.384 523.906C621.753 518.005 619.656 512.516 617 507C614.525 507.495 614.525 507.495 612 508C611.521 514.999 613.087 521.021 614.904 527.757C625.035 565.601 631.416 604.262 637 643C637.127 643.882 637.254 644.764 637.385 645.672C640.447 667.034 642.73 688.46 644.813 709.938C644.924 711.083 645.035 712.228 645.15 713.407C645.466 716.676 645.775 719.945 646.082 723.215C646.176 724.187 646.269 725.159 646.365 726.161C646.853 731.468 647.092 736.671 647 742C645.569 742.639 644.13 743.261 642.688 743.875C641.887 744.223 641.086 744.571 640.262 744.93C637.248 745.918 634.413 746.518 631.296 747.067C629.809 747.331 629.809 747.331 628.292 747.6C627.535 747.732 626.779 747.864 626 748C625.967 747.448 625.934 746.895 625.9 746.326C625.546 740.45 625.189 734.576 624.828 728.701C624.695 726.523 624.563 724.345 624.433 722.167C623.74 710.634 622.983 699.111 621.961 687.602C621.88 686.675 621.8 685.749 621.716 684.795C621.638 683.943 621.559 683.091 621.478 682.213C621.41 681.469 621.342 680.724 621.271 679.957C621.032 677.79 621.032 677.79 620 675C615.669 672.527 611.048 672.571 606.188 672.375C605.399 672.336 604.611 672.298 603.799 672.258C601.866 672.164 599.933 672.081 598 672C597.951 670.998 597.902 669.997 597.852 668.965C597.776 667.622 597.701 666.28 597.625 664.938C597.521 662.971 597.521 662.971 597.414 660.965C597.006 657.056 596.354 653.689 595 650C592.097 647.784 592.097 647.784 588.508 647.335C585 646 585 646 583.183 642.786C582.715 641.411 582.278 640.026 581.867 638.633C581.624 637.891 581.381 637.148 581.13 636.384C580.349 633.972 579.611 631.55 578.875 629.125C578.35 627.463 577.823 625.802 577.295 624.141C569.341 598.901 564.398 574.743 564.625 548.188C564.631 546.744 564.631 546.744 564.638 545.271C564.746 524.66 567.155 505.467 571.816 485.395C574.429 473.74 575.482 462.332 576.063 450.438C576.178 448.124 576.296 445.81 576.419 443.496C576.495 442.07 576.566 440.643 576.633 439.216C576.788 436.251 577.055 433.835 578 431C604.951 436.437 629.838 450.539 654.301 462.59C666.632 468.645 678.867 473.934 692 478C692.693 478.216 693.385 478.432 694.099 478.655C714.019 484.803 737.13 486.098 757 479C758.045 478.649 759.091 478.299 760.168 477.938C793.703 465.443 812.439 430.753 830 402Z" fill="#FB705E"/>
<path d="M376 430C377.03 431.758 377.03 431.758 377.789 434.125C378.085 435.034 378.381 435.944 378.686 436.881C379.151 438.425 379.151 438.425 379.625 440C379.968 441.118 380.311 442.235 380.664 443.387C389.448 472.784 395.477 502.821 401.5 532.875C414.302 599.17 414.302 599.17 438.928 661.777C440 664 440 664 441 667C439.47 667.874 437.925 668.724 436.375 669.563C435.516 670.038 434.658 670.514 433.773 671.004C428.354 672.95 423.296 670.511 418.145 668.516C417.494 668.264 416.843 668.012 416.172 667.753C414.049 666.927 411.93 666.09 409.812 665.25C409.083 664.962 408.354 664.673 407.603 664.376C380.767 653.723 355.511 641.267 333 623C333.613 618.119 335.052 613.825 336.938 609.313C337.245 608.574 337.553 607.836 337.871 607.075C345.468 589.282 355.205 571.403 366.367 555.606C368.464 552.26 368.31 549.873 368 546C364.964 546.325 363.361 546.67 361.078 548.758C345.539 568.879 334.533 592.568 325 616C321.6 616 321.01 615.53 318.383 613.559C317.348 612.807 317.348 612.807 316.293 612.041C314.851 610.974 313.413 609.902 311.98 608.822C307.908 605.719 307.908 605.719 302.992 605.16C302.335 605.437 301.677 605.715 301 606C300.597 608.312 300.597 608.312 301 611C302.978 613.332 302.978 613.332 305.812 615.438C306.337 615.855 306.861 616.273 307.401 616.703C309.25 618.159 311.121 619.582 313 621C313.734 621.555 314.468 622.109 315.224 622.681C320.049 626.309 324.915 629.879 329.81 633.414C331.661 634.755 333.5 636.11 335.336 637.473C356.333 652.655 380.715 663.34 404.925 672.23C407.301 673.112 409.655 674.04 412 675C410.689 677.952 409.357 679.759 406.938 681.875C383.714 704.419 379.572 738.599 379 769C374.896 770.111 372.053 769.808 367.941 768.813C366.173 768.388 366.173 768.388 364.368 767.956C363.112 767.64 361.856 767.325 360.562 767C359.916 766.84 359.269 766.68 358.602 766.515C346.555 763.534 334.737 760.034 323 756C322.016 755.668 321.032 755.336 320.019 754.993C292.913 745.798 263.481 734.553 242 715C241.02 714.138 240.041 713.275 239.031 712.387C219.457 694.99 206.797 674.084 203 648C202.168 631.349 202.123 614.277 206 598C206.193 597.185 206.387 596.37 206.586 595.53C213.041 569.286 224.421 543.129 240 521C240.521 520.259 241.042 519.517 241.579 518.753C248.815 508.54 256.367 499.056 265 490C266.237 488.57 267.468 487.133 268.688 485.688C271.519 482.427 274.57 479.612 277.867 476.828C279.32 475.583 280.742 474.299 282.133 472.984C299.297 456.809 349.891 419.791 376 430Z" fill="#FB705E"/>
<path d="M420 423C420.026 423.837 420.052 424.674 420.078 425.535C421.16 447.737 429.379 465.138 445.203 480.578C461.763 494.918 482.363 500.243 503.841 499.164C515.809 498.255 527.006 493.148 535.215 484.332C546.669 469.369 545.789 453.304 543.712 435.536C543.26 431.665 542.874 427.907 543 424C545.313 424.308 547.626 424.621 549.938 424.938C551.869 425.199 551.869 425.199 553.84 425.465C557 426 557 426 558 427C558.264 431.66 558.194 436.334 558.188 441C558.187 442.049 558.187 442.049 558.187 443.119C558.153 461.725 556.562 480.076 554.053 498.51C552.241 511.996 551.813 525.37 551.815 538.957C551.813 541.666 551.794 544.375 551.775 547.084C551.72 563.633 553.102 579.693 556.688 595.875C556.947 597.06 557.206 598.245 557.473 599.465C560.786 614.108 565.245 628.236 571.934 641.7C573 644 573 644 573 646C569.336 646.836 565.902 647.145 562.148 647.211C561.05 647.24 559.952 647.268 558.82 647.297C556.516 647.349 554.211 647.394 551.906 647.43C550.263 647.476 550.263 647.476 548.586 647.524C547.586 647.544 546.586 647.563 545.556 647.584C542.993 647.815 542.993 647.815 541.183 649.252C539.705 651.436 539.576 652.823 539.488 655.45C539.439 656.596 539.439 656.596 539.388 657.765C539.363 658.729 539.338 659.694 539.312 660.688C539.158 665.297 539.158 665.297 539 670C531.74 670 524.48 670 517 670C515.68 667.36 514.36 664.72 513 662C507.884 655.536 500.945 652.544 493 651C480.916 649.807 469.992 651.714 458.875 656.813C456 658 456 658 454.062 658.024C450.687 656.349 449.645 653.088 448.125 649.813C447.812 649.171 447.499 648.53 447.176 647.869C441.544 636.168 436.775 624.194 432.688 611.875C432.453 611.17 432.219 610.465 431.978 609.738C417.754 566.615 409.984 521.433 403.045 476.65C401.551 467.041 399.916 457.455 398.295 447.867C397.928 445.697 397.564 443.526 397.199 441.356C396.887 439.51 396.887 439.51 396.569 437.626C395.96 433.748 395.393 429.906 395 426C397.017 423.983 400.791 424.273 403.562 423.938C404.254 423.847 404.946 423.756 405.658 423.662C410.473 423.066 415.149 422.918 420 423Z" fill="#FB705E"/>
<path d="M521 210C524.757 211.318 527.359 212.918 530.375 215.5C534.573 218.953 538.899 222.023 543.438 225C562.728 237.702 581.171 251.295 586.707 275.031C587.243 278.024 587.669 280.977 588 284C588.086 284.77 588.172 285.539 588.261 286.332C591.418 317.093 591.707 353.619 572.188 379.25C559.536 394.266 543.528 403.291 524 406C519.621 406.292 515.263 406.334 510.875 406.312C509.682 406.308 508.49 406.303 507.261 406.298C479.203 405.926 453.91 395.524 433.688 376.062C427.227 369.352 420.357 361.566 419 352C419.58 346.156 421.768 340.985 423.844 335.535C426.078 328.703 426.184 321.99 426.188 314.875C426.198 313.945 426.209 313.015 426.22 312.057C426.225 306.655 425.638 302.159 424.125 296.938C423.555 293.918 423.555 293.918 424 291C427.171 286.586 431.8 283.495 436.164 280.355C438.678 278.499 440.957 276.433 443.25 274.312C444.435 273.239 444.435 273.239 445.645 272.145C447.247 270.685 448.849 269.224 450.449 267.762C455.951 262.761 461.589 257.981 467.376 253.314C469.201 251.837 471.017 250.349 472.832 248.859C478.81 243.963 484.787 239.098 491 234.5C501.361 226.828 511.438 218.65 521 210Z" fill="#FAC492"/>
<path d="M926 245C927 246 927 246 927.313 248.875C927.1 258.991 920.705 269.067 916.315 277.965C915.234 280.157 914.161 282.353 913.09 284.55C910.56 289.738 908.021 294.922 905.475 300.102C904.308 302.481 903.152 304.864 902 307.25C901.681 307.891 901.361 308.532 901.032 309.192C899.404 312.587 898.559 315.224 899 319C899.33 319.33 899.66 319.66 900 320C905.942 319.686 909.579 317.824 914.375 314.625C915.066 314.179 915.756 313.734 916.468 313.275C918.653 311.862 920.827 310.432 923 309C969.038 278.901 969.038 278.901 981.063 278.812C981.94 278.798 982.818 278.784 983.723 278.769C986 279 986 279 988 281C988.327 283.747 988.305 285.427 986.996 287.887C981.066 294.738 973.591 299.224 966 304C961.871 306.598 957.745 309.201 953.625 311.812C952.553 312.492 951.48 313.171 950.375 313.871C942.265 319.063 934.577 324.64 927.035 330.621C924 333 924 333 922 334C922.33 335.65 922.66 337.3 923 339C930.121 339.622 936.312 337.321 943.063 335.25C958.915 330.583 974.402 326.733 991 326.562C991.819 326.552 992.638 326.542 993.482 326.531C998.535 326.607 1003.22 327.219 1007 331C1007.5 333.187 1007.5 333.187 1007 336C1002.72 340.843 997.406 343.57 991.5 345.937C990.688 346.271 989.875 346.605 989.038 346.948C977.464 351.57 965.435 355.165 953.348 358.184C952.657 358.357 951.966 358.531 951.255 358.71C949.462 359.151 947.663 359.567 945.863 359.98C942.643 361.127 941.081 362.305 939 365C939.14 367.707 939.14 367.707 940 370C944.443 370.07 948.707 370.056 953.117 369.512C958.476 368.889 963.797 368.779 969.188 368.75C970.146 368.729 971.104 368.709 972.092 368.687C977.465 368.658 981.404 368.871 986 372C987.188 374.375 987.188 374.375 987 377C980.872 386.079 965.901 388.414 956.006 391.326C945.509 394.511 936.032 399.021 930.375 408.812C926.393 416.936 924.062 425.232 922 434C893.74 435.59 866.474 421.897 845.694 403.525C839.307 397.554 839.307 397.554 838.48 393.367C838.757 390.807 839.323 388.482 840 386C841.288 372.565 836.909 359.364 833.063 346.687C822.936 313.255 822.936 313.255 825 300C826.527 297.621 826.527 297.621 828 296C833.282 296.132 836.215 298.123 839.926 301.621C847.171 309.931 851.125 320.011 854.303 330.427C856.253 336.361 858.926 339.418 864 343C864.95 343.678 865.9 344.356 866.879 345.055C867.765 345.655 868.65 346.256 869.563 346.875C877.986 352.979 882.463 359.877 885 370C885.416 373.229 885.678 376.412 885.824 379.664C885.742 381.959 885.742 381.959 887 383C889 383.041 891 383.042 893 383C896.107 377.531 895.687 372.089 894.348 366.066C889.721 350.797 880.668 340.888 866.969 333.129C865 332 865 332 864 331C863.52 324.679 864.605 320.478 867.313 314.812C867.669 314.045 868.025 313.277 868.392 312.486C869.571 309.979 870.781 307.488 872 305C872.418 304.14 872.835 303.281 873.265 302.395C881.826 284.937 902.382 243.088 926 245Z" fill="#FAC492"/>
<path d="M538.812 678.75C540.913 678.763 543.014 678.775 545.115 678.786C551.744 678.828 558.372 678.908 565 679C566.687 679.023 566.687 679.023 568.408 679.047C576.085 679.156 583.761 679.288 591.438 679.438C592.991 679.467 592.991 679.467 594.577 679.496C597.487 679.553 600.398 679.617 603.309 679.684C604.179 679.7 605.05 679.717 605.947 679.734C611.884 679.885 611.884 679.885 613 681C613.269 682.981 613.471 684.97 613.648 686.961C613.706 687.598 613.763 688.236 613.821 688.892C614.012 691.053 614.194 693.214 614.375 695.375C614.439 696.122 614.502 696.868 614.568 697.638C615.853 712.805 616.794 727.993 617.688 743.188C617.754 744.311 617.821 745.435 617.889 746.593C618.079 749.826 618.265 753.06 618.449 756.293C618.505 757.256 618.561 758.22 618.619 759.212C618.912 764.482 619.151 769.722 619 775C616.977 777.023 612.864 776.293 610.082 776.373C609.25 776.401 608.419 776.429 607.563 776.457C604.789 776.549 602.016 776.634 599.242 776.719C597.303 776.782 595.364 776.845 593.426 776.909C588.289 777.077 583.152 777.24 578.015 777.401C569.886 777.657 561.757 777.922 553.629 778.186C551.663 778.25 549.698 778.313 547.733 778.376C536.055 778.751 524.383 779.171 512.711 779.714C506.493 779.998 500.288 780.127 494.062 780.063C493.165 780.058 492.267 780.054 491.342 780.049C489.228 780.038 487.114 780.02 485 780C485 779.34 485 778.68 485 778C486.333 776.667 487.667 775.333 489 774C490.924 768.228 489.998 763.6 488 758C489.321 757.654 489.321 757.654 490.668 757.301C498.424 755.123 502.693 753.724 507.312 747.125C508.558 743.277 508.72 739.482 506.938 735.813C506.628 735.215 506.319 734.616 506 734C506.27 731.303 507.165 729.722 508.562 727.375C510.89 721.911 510.921 717.027 509.191 711.344C506.272 704.635 502.346 701.404 496 698C495.372 697.622 494.744 697.245 494.098 696.856C488.16 693.504 481.628 692.334 475 691C475 690.34 475 689.68 475 689C483.652 686.582 492.24 684.449 501.074 682.809C503.235 682.407 505.263 681.917 507.361 681.252C517.713 678.124 528.111 678.633 538.812 678.75Z" fill="#2F2D2B"/>
<path d="M503 665C505.286 667.347 507 669.596 507 673C500.189 674.62 493.389 676.121 486.5 677.375C474.162 679.828 460.612 684.333 452 694C451.67 694.99 451.34 695.98 451 697C451.593 697.04 452.186 697.08 452.797 697.12C487.331 699.54 487.331 699.54 497.621 709.582C501.615 714.232 502.221 716.916 502 723C501 724 501 724 498.238 724.203C494.853 723.991 493.142 723.335 490.188 721.75C477.618 715.78 463.829 713.64 450 715C449.01 715.66 448.02 716.32 447 717C447.495 719.475 447.495 719.475 448 722C448.577 722.065 449.155 722.13 449.75 722.196C489.704 726.806 489.704 726.806 499 738C499.438 741.438 499.438 741.438 499 745C497.133 747.365 495.679 748.661 493 750C486.702 750.193 480.822 748.46 474.875 746.625C463.518 743.134 451.981 740.223 440 741C439.447 743.076 439 744.844 439 747C443.962 748.388 448.918 749.766 453.941 750.914C464.62 753.38 475.002 755.976 482 765C482.562 768.188 482.562 768.188 482 771C480.435 773.058 479.518 773.89 476.969 774.434C470.623 774.444 464.841 773.406 458.688 772C449.36 769.873 440.855 769.21 431.297 770.5C417.131 772.341 402.451 772.09 389 767C387.203 765.204 387.784 762.619 387.75 760.188C388.02 733.603 395.881 706.626 414.617 687.223C418.464 683.635 421.091 682.708 426.188 681.875C434.197 680.239 440.721 676.919 447.894 673.103C463.903 664.722 485.631 653.468 503 665Z" fill="#FAC492"/>
<path d="M434 391C437.449 392.686 440.632 394.629 443.875 396.688C459.568 406.433 475.793 412.737 494 416C494.74 416.133 495.48 416.266 496.242 416.402C508.596 418.157 521.639 417.168 534 416C534.025 416.685 534.05 417.37 534.076 418.076C534.193 421.218 534.315 424.359 534.438 427.5C534.477 428.578 534.516 429.655 534.557 430.766C534.787 436.574 535.235 442.24 536 448C536.82 459.901 535.364 469.883 527.609 479.289C520.278 487.084 510.378 490.034 499.832 490.475C481.238 490.693 464.918 484.361 451 472C449.952 471.111 449.952 471.111 448.883 470.203C438.251 460.523 430.742 444.701 429.832 430.352C429.826 429.452 429.819 428.552 429.812 427.625C429.791 426.283 429.791 426.283 429.77 424.914C429.99 422.124 430.672 419.802 431.49 417.142C432.624 412.38 432.772 407.433 433.125 402.562C433.211 401.449 433.298 400.336 433.387 399.189C433.598 396.46 433.802 393.73 434 391Z" fill="#FAC492"/>
<path d="M557.875 688.562C558.666 688.572 559.457 688.582 560.271 688.592C570.776 688.91 577.238 692.366 584.809 699.652C592.054 707.414 596.096 717.354 596.5 728C595.946 740.166 591.091 749.217 582.562 757.638C573.179 765.824 561.774 766.732 549.919 766.17C541.188 765.395 534.093 759.945 528 754C521.301 745.919 518.407 737.68 518.437 727.25C518.44 726.373 518.442 725.495 518.445 724.591C518.66 716.952 520.573 711.293 525 705C525.456 704.318 525.913 703.636 526.383 702.934C533.655 693.314 546.118 688.4 557.875 688.562Z" fill="#2F2D2B"/>
<path d="M486 1238C490.34 1239.56 494.152 1241.78 498.063 1244.19C508.268 1250.42 518.441 1256.49 529.313 1261.5C530.39 1262 531.467 1262.49 532.577 1263.01C542.964 1267.7 553.55 1271.85 564.188 1275.94C565.011 1276.25 565.835 1276.57 566.684 1276.9C581.596 1282.61 596.586 1287.78 612 1292C613.248 1292.34 614.496 1292.68 615.782 1293.04C648.691 1301.94 681.947 1308.39 716 1303C708.934 1312.16 698.689 1316.32 687.286 1317.79C622.204 1323.67 536.194 1293.99 484 1256C482.028 1252.06 482.375 1247 483.672 1242.85C484.384 1241.21 485.184 1239.6 486 1238Z" fill="#2A2A29"/>
<path d="M135 1100C136.862 1103.32 137.689 1106.55 138.563 1110.25C154.773 1173.93 196.56 1250.15 253.695 1285.66C258.244 1288.3 261.699 1289.39 267 1290C266.67 1290.66 266.34 1291.32 266 1292C252.757 1295.79 240.598 1292.21 229 1285.81C212.224 1275.59 198.489 1260.78 187 1245C186.326 1244.08 186.326 1244.08 185.638 1243.13C172.905 1225.52 162.783 1206.36 153 1187C152.401 1185.82 152.401 1185.82 151.79 1184.61C146.537 1174.15 142.015 1163.41 137.625 1152.56C137.366 1151.93 137.106 1151.29 136.839 1150.64C131.414 1137.31 125.404 1121.78 129.832 1107.27C131.202 1104.45 132.782 1102.22 135 1100Z" fill="#2A2929"/>
<path d="M528 163C528 163.33 528 163.66 528 164C527.004 163.984 526.007 163.968 524.981 163.952C499.265 163.086 499.265 163.086 474 167C473.262 167.199 472.525 167.397 471.765 167.602C456.686 171.811 443.777 178.543 432 189C431.316 189.602 430.631 190.204 429.926 190.824C410.795 208.753 401.688 235.906 397 261C391.39 261 385.78 261 380 261C379.782 254.552 380.387 249.134 382.125 242.937C382.463 241.705 382.463 241.705 382.807 240.448C391.072 211.084 405.552 185.334 432.684 169.891C443.948 163.689 455.307 159.375 468 157C469.301 156.723 469.301 156.723 470.629 156.441C490.364 153.857 509.308 156.694 528 163Z" fill="#2A2929"/>
<path d="M370 271C375.446 271.109 378.495 272.513 382.363 276.121C393.208 288.57 392.782 304.394 392.227 319.972C391.489 329.827 387.56 339.555 381 347C377.889 349.657 376.125 350.874 372.07 351.328C367.293 350.818 365.759 348.266 362.828 344.691C353.621 331.136 353.432 312.395 356.125 296.812C357.946 287.389 361.463 278.245 369 272C369.33 271.67 369.66 271.34 370 271Z" fill="#2A2A29"/>
<path d="M557.875 688.562C558.666 688.572 559.457 688.582 560.271 688.592C570.776 688.91 577.238 692.366 584.809 699.652C592.054 707.414 596.096 717.354 596.5 728C595.946 740.166 591.091 749.217 582.562 757.638C573.179 765.824 561.774 766.732 549.919 766.17C541.188 765.395 534.093 759.945 528 754C521.301 745.919 518.407 737.68 518.437 727.25C518.44 726.373 518.442 725.495 518.445 724.591C518.66 716.952 520.573 711.293 525 705C525.456 704.318 525.913 703.636 526.383 702.934C533.655 693.314 546.118 688.4 557.875 688.562ZM534 709C528.052 716.826 527.3 723.359 528 733C529.183 740.591 533.263 746.024 539 751C547.402 756.291 555.512 758.345 565.371 756.574C573.963 754.147 579.582 748.398 584.09 740.895C587.34 734.129 586.976 725.302 585.352 718.141C582.684 710.801 578.094 704.647 571.375 700.562C557.49 694.134 544.139 698.424 534 709Z" fill="black"/>
<path d="M343.605 968.922C350.377 972.835 352.856 978.248 355 985.562C355.289 986.657 355.577 987.751 355.875 988.879C357.11 992.304 358.431 994.426 361 997C365.914 998.566 370.768 996.839 375.375 995C382.339 992.272 389.233 991.548 396.312 994.375C401.328 997.376 403.949 1001.61 406 1007C406.891 1010.85 407.495 1014.74 407.976 1018.67C408.547 1023.18 409.384 1026.16 412 1030C412 1030.66 412 1031.32 412 1032C416.806 1033.99 419.947 1034.28 425 1033C427.334 1031.78 429.567 1030.47 431.789 1029.06C434.385 1027.82 436.154 1027.73 439 1028C440 1029 440 1029 440.5 1031.12C439.691 1035.77 436.643 1038.19 433 1041C427.423 1044.28 421.343 1044.87 415 1044C407.912 1042.08 403.655 1037.16 400 1031C397.194 1024.6 396.422 1017.77 395.625 1010.88C394.942 1007.73 394.374 1006.18 392 1004C386.475 1002.95 380.795 1003.47 375.562 1005.5C368.841 1008.06 361.216 1008.34 354.562 1005.56C348.309 999.308 345.407 993.409 343.836 984.699C342.828 981.444 341.685 980.073 339 978C336.799 977.277 336.799 977.277 334.5 977.187C333.747 977.119 332.994 977.051 332.219 976.98C329.965 977 328.17 977.427 326 978C323.667 978.039 321.333 978.045 319 978C318.67 976.35 318.34 974.7 318 973C325.404 966.956 334.463 965.687 343.605 968.922Z" fill="#050301"/>
<path d="M591.937 1070.44C597.699 1073.61 602.222 1078.71 606.434 1083.69C608.596 1086.18 609.949 1086.99 613.187 1087.75C617.983 1086.81 620.828 1084.66 624.668 1081.73C630.013 1077.77 634.426 1077.08 641 1078C647.411 1080.34 652.579 1084.88 657.738 1089.23C661.563 1092.22 664.123 1093.27 669 1093.19C669.846 1093.18 670.691 1093.17 671.562 1093.17C673.86 1093.01 675.824 1092.75 678 1092C679.108 1090.12 679.108 1090.12 680 1088C681.312 1086.25 681.312 1086.25 683 1085C685.687 1084.81 685.687 1084.81 688 1085C688.983 1089.1 689.352 1091.27 687.5 1095.12C683.29 1099.97 678.773 1103.63 672.215 1104.27C661.434 1104.61 655.078 1101.9 647.062 1094.81C646.352 1094.14 645.642 1093.46 644.91 1092.77C642.298 1090.35 640.469 1089.09 636.937 1088.44C631.964 1089.15 629.34 1091.24 625.43 1094.27C620.972 1097.44 616.871 1098.59 611.461 1098.43C602.946 1096.94 597.583 1090.9 592.789 1084.17C590.24 1081.08 588.176 1080.16 584.25 1079.62C580.522 1080.05 578.217 1081.33 574.969 1083.11C572.261 1084.33 569.923 1084.29 567 1084C566.552 1080.14 566.608 1078.51 569 1075.37C576.159 1069.71 583.104 1066.64 591.937 1070.44Z" fill="#050301"/>
<path d="M286 1022C292.911 1025.48 297.524 1029.57 300 1037C300.297 1042.14 299.404 1046.09 298 1051C297.693 1054.62 297.527 1057.03 299.125 1060.31C303.044 1063.84 307.835 1064.14 312.875 1064.88C319.872 1066 324.717 1067.77 329.812 1072.75C334.379 1079.53 335.405 1085.11 335 1093.06C334.687 1099.24 334.976 1103.5 338 1109C341.781 1111.52 344.706 1111.15 349.062 1111C351.734 1110.91 354.323 1110.91 357 1111C359 1113 359 1113 359 1115.44C358 1118 358 1118 355.188 1119.75C349.485 1121.99 343.887 1123.25 337.879 1121.32C332.16 1118.71 328.472 1115.34 325.895 1109.49C324.426 1103.76 324.604 1097.95 324.521 1092.05C324.371 1086.68 324.121 1082.6 321 1078C316.599 1075.32 312.711 1074.8 307.625 1074.19C300.433 1073.2 295.019 1070.61 290.32 1064.99C288.017 1061.52 287.864 1058.62 287.875 1054.56C287.871 1053.14 287.871 1053.14 287.867 1051.69C287.986 1049.27 288.375 1047.32 289 1045C289.437 1041.91 289.578 1039.08 289 1036C285.541 1032.21 281.645 1030.1 277 1028C277 1026.68 277 1025.36 277 1024C280.625 1021.58 281.715 1021.37 286 1022Z" fill="#060301"/>
<path d="M689 988C691.867 988.573 692.861 988.861 695 991C695 997.402 692.447 1001.49 688 1006C682.611 1010.46 676.34 1010.77 669.547 1010.59C663.662 1009.61 659.661 1006.54 655 1003C650.992 1000.42 648.83 999.164 644 1000C639.24 1002.57 635.035 1005.97 630.75 1009.25C625.028 1013.54 620.151 1014.97 613 1014C609.343 1012.73 606.18 1010.82 603.004 1008.62C599.194 1006.01 595.973 1004.04 591.145 1004.29C587.198 1005.6 584.373 1008.53 581.395 1011.35C579 1013 579 1013 576.199 1012.75C575.473 1012.5 574.748 1012.25 574 1012C573.443 1008.82 573.544 1006.73 575.277 1003.96C579.579 998.752 584.198 994.814 591.004 993.66C597.642 993.335 603.292 995.534 608.438 999.625C612.366 1002.57 616.115 1003.42 621 1003C626.576 1000.71 630.523 996.913 634.887 992.805C639.213 989.11 642.7 988.498 648.289 988.621C654.029 989.423 658.792 992.517 663.535 995.703C668.228 998.807 671.998 1001.21 677.75 1000.16C682.745 997.58 685.851 992.519 689 988Z" fill="#060301"/>
<path d="M379 815C381.391 817.494 383.498 820.122 385.656 822.82C388.488 825.454 390.17 825.881 394 826C397.199 824.2 399.919 822.063 402.812 819.812C407.677 817.046 411.769 816.289 417.273 817.5C424.707 820.463 429.635 826.529 434.823 832.386C435.436 833.077 436.048 833.768 436.68 834.48C437.224 835.108 437.767 835.736 438.328 836.383C441.726 839.668 444.99 840.476 449.715 840.406C453.413 839.748 456.406 837.903 459.605 835.996C462.509 834.788 464.032 835.119 467 836C467.812 837.625 467.812 837.625 468 840C464.017 846.167 458.831 848.722 452 851C444.555 851.775 437.394 849.741 431.539 845.011C429.252 842.751 427.107 840.429 425 838C424.337 837.243 423.675 836.486 422.992 835.707C421.818 834.358 420.655 833 419.508 831.628C417.206 829.142 415.513 828.06 412.137 827.66C408.398 828.065 406.769 829.159 403.812 831.437C398.236 835.678 393.948 836.816 387 836C381.763 833.49 378.189 829.181 374.344 824.925C371.433 822.533 369.762 822.014 366 822C363.104 823.417 363.104 823.417 360.438 825.5C355.61 829.06 355.61 829.06 352.16 828.718C351.447 828.481 350.734 828.244 350 828C350 824.154 350.129 822.017 352.672 819.046C360.782 811.79 369.167 809.09 379 815Z" fill="#050300"/>
<path d="M383.133 888.695C389.045 892.407 392.377 899.239 396 905C397.169 906.367 397.169 906.367 400.375 906.5C405.727 906.49 409.326 903.6 413.582 900.629C417.739 897.828 421.07 897.596 426 898C434.351 900.676 438.514 906.602 443 913.75C445.505 917.572 447.467 919.678 452 921C455.987 920.917 457.765 920.163 461.062 917.875C464 916 464 916 466.875 916.25C467.576 916.497 468.277 916.745 469 917C469.812 919.187 469.812 919.187 470 922C466.157 926.611 461.915 930.513 455.801 931.273C449.151 931.544 445.057 930.362 440 926C436.328 922.343 433.211 918.368 430.25 914.125C428.183 910.868 428.183 910.868 425 909C419.913 909 416.69 910.626 412.25 913.062C406.35 916.13 401.583 917.2 395 916C389.48 913.664 386.881 909.319 383.711 904.437C380.292 899.563 380.292 899.563 375 897.375C370.127 897.607 366.028 900.353 361.867 902.687C358.937 904.028 357.172 904.279 354 904C353.188 901.812 353.188 901.812 353 899C360.097 889.843 371.837 885.013 383.133 888.695Z" fill="#050300"/>
<path d="M564 708C569.978 710.482 573.985 714.346 577 720C578.902 725.705 578.762 731.127 576.5 736.687C573.276 741.553 568.561 746.146 563 748C556.321 748.766 550.703 748.405 544.949 744.738C540.622 740.879 538.518 736.069 537.563 730.41C537.272 724.524 538.485 719.758 542 715C548.776 708.073 554.287 706.83 564 708Z" fill="#010100"/>
<path d="M655 893C659.706 893.706 659.706 893.706 661 895C661.82 901.446 660.371 905.299 656.855 910.727C653.049 915.39 648.013 918.192 642.117 919.379C634.837 919.975 629.561 917.258 623.33 913.846C618.25 911.174 613.751 909.858 608 911C605.482 912.612 605.482 912.612 603.813 915.062C603.163 915.88 602.513 916.697 601.844 917.539C601.235 918.351 600.627 919.163 600 920C593.622 928.033 593.622 928.033 589 929C582.771 929.636 578.742 928.6 573 926C570.066 925.458 570.066 925.458 567 926C564.34 928.15 564.34 928.15 562.125 931C561.344 931.928 560.563 932.856 559.758 933.812C559.178 934.534 558.598 935.256 558 936C556.063 935.625 556.063 935.625 554 935C552.567 932.134 552.694 930.187 553 927C555.766 921.787 559.677 917.661 565 915C571.103 914.455 575.013 915.547 580.508 918.223C583.827 919.258 585.701 919.098 589 918C591.136 915.482 591.136 915.482 592.813 912.312C596.405 906.625 599.542 902.367 606 900C614.946 898.483 621.402 900.379 629 905C633.096 907.398 635.858 909 640.688 909C645.453 907.561 647.905 905.943 650.383 901.547C651.277 899.759 652.145 897.958 652.984 896.145C654 894 654 894 655 893Z" fill="#050300"/>
<path d="M171.813 916.562C174.34 918.223 175.323 919.036 176 922C173.917 926.583 170.752 928.869 166.625 931.5C162.291 934.3 158.549 937.224 155 941C154.499 941.516 153.997 942.031 153.48 942.562C138.228 959.519 130.414 982.012 128.359 1004.39C127.627 1011.75 127.627 1011.75 126 1015C122.938 1015.62 122.938 1015.62 120 1016C120 1015.01 120 1014.02 120 1013C119.833 1012.23 119.665 1011.46 119.492 1010.67C118.956 1007.76 118.979 1005.21 119.121 1002.26C119.169 1001.19 119.218 1000.13 119.268 999.029C119.324 997.926 119.38 996.824 119.438 995.687C119.49 994.565 119.542 993.443 119.596 992.287C119.725 989.524 119.86 986.762 120 984C120.66 984 121.32 984 122 984C122.113 982.835 122.227 981.669 122.344 980.469C122.874 976.278 123.989 972.437 125.5 968.5C125.76 967.818 126.02 967.137 126.288 966.435C131.037 954.465 137.552 943.714 146 934C146.489 933.38 146.977 932.76 147.48 932.121C152.741 925.535 162.583 914.716 171.813 916.562Z" fill="#020101"/>
<path d="M387 269C395.084 269.289 399.327 272.213 404.883 277.941C415.814 290.789 416.867 305.955 416 322C414.861 333.268 411.17 342.783 402.816 350.559C397.429 354.834 392.576 355.346 386 355C386.447 354.322 386.895 353.644 387.355 352.945C398.796 335.333 403.609 318.191 400.25 297.188C397.866 286.173 394.174 277.712 387 269Z" fill="#2C2B2A"/>
<path d="M632.977 809.516C635.198 811.145 636.577 812.643 638 815C637.688 817.75 637.688 817.75 637 820C634.354 821.024 632.599 821.24 629.945 820.176C629.2 819.808 628.455 819.441 627.688 819.062C621.769 816.235 617.653 816.248 611.25 818.062C607.31 820.411 605.93 823.022 604 827C600.572 833.208 597.944 836.685 591 839C585.68 839.586 581.323 839.428 576.5 837C571.697 834.624 567.293 833.923 562 835C559.02 837.063 559.02 837.063 557 840C556.237 840.928 555.474 841.856 554.688 842.812C554.131 843.534 553.574 844.256 553 845C551.063 844.625 551.063 844.625 549 844C547.534 841.067 547.636 839.28 548 836C550.064 831.187 552.966 826.977 557.797 824.625C565.962 822.308 573.783 823.702 581.367 827.125C584.662 828.22 587.552 828.135 591 828C591.762 826.571 591.762 826.571 592.539 825.113C593.234 823.846 593.929 822.579 594.625 821.312C594.956 820.687 595.288 820.061 595.629 819.416C598.915 813.495 603.336 808.996 609.828 806.512C618.157 804.549 625.502 805.493 632.977 809.516Z" fill="#050300"/>
<path d="M129.75 912.687C132 914 132 914 133 916C133.578 920.13 133.262 921.632 130.805 925.078C129.84 926.145 128.862 927.202 127.875 928.25C126.853 929.403 125.836 930.561 124.824 931.722C124.334 932.284 123.843 932.847 123.337 933.426C113.813 944.634 109.945 960.219 108.025 974.517C107.468 978.415 106.917 981.232 104 984C103.01 984 102.02 984 101 984C100.67 983.34 100.34 982.68 100 982C99.34 981.67 98.68 981.34 98 981C98.33 980.01 98.66 979.02 99 978C98.9415 976.394 98.8533 974.79 98.75 973.187C98.6999 952.465 107.063 932.665 120.113 916.812C125.51 911.627 125.51 911.627 129.75 912.687Z" fill="#020201"/>
<path d="M493.75 346.938C497.753 348.246 498.842 349.986 501.355 353.215C505.09 357.269 511.167 359.74 516.602 360.238C526.952 360.492 532.922 358.081 540.43 351.133C542 350 542 350 544.875 350.062C547 351 547 351 548 352C548.627 355.212 548.478 357.241 546.719 360.035C541.135 366.824 534.59 370.253 526 372C515.245 372.973 504.721 371.153 495.914 364.668C491.615 360.921 489.222 357.934 488.562 352.188C489.111 348.191 489.608 347.032 493.75 346.938Z" fill="#050303"/>
<path d="M548 655C553.375 654.951 558.75 654.914 564.125 654.89C565.955 654.88 567.784 654.866 569.614 654.849C572.24 654.825 574.866 654.814 577.492 654.805C578.724 654.789 578.724 654.789 579.98 654.773C581.988 654.773 583.996 654.878 586 655C588 657 588 657 588.23 660.004C588.216 661.178 588.202 662.353 588.187 663.563C588.181 664.739 588.175 665.916 588.168 667.129C588 670 588 670 587 671C584.2 671.101 581.425 671.14 578.625 671.133C577.785 671.134 576.946 671.135 576.081 671.136C574.302 671.136 572.523 671.135 570.744 671.13C568.012 671.125 565.279 671.13 562.547 671.137C560.823 671.136 559.099 671.135 557.375 671.133C556.552 671.135 555.729 671.137 554.881 671.139C549.115 671.115 549.115 671.115 548 670C547.927 667.47 547.908 664.967 547.937 662.438C547.942 661.727 547.947 661.016 547.951 660.283C547.963 658.522 547.981 656.761 548 655Z" fill="#302E2C"/>
<path d="M522.391 299.648C526.649 300.222 528.144 302.901 530.801 306.074C544.179 323.872 544.179 323.872 543 334C540.79 338.881 537.925 341.185 533.152 343.309C528.502 344.802 524.592 344.63 520 342.812C518 341 518 341 517.5 338.438C518 336 518 336 521 334C523.699 333.586 523.699 333.586 526.688 333.375C527.681 333.3 528.675 333.225 529.699 333.148C530.458 333.099 531.218 333.05 532 333C532.889 326.033 530.168 322.41 526 317C524.729 315.437 523.458 313.875 522.188 312.312C519.525 308.943 517.891 306.459 518 302C520 300 520 300 522.391 299.648Z" fill="#070504"/>
<path d="M564 717C566.773 719.207 568.427 720.855 570 724C570.403 729.236 569.831 732.551 567 737C563.245 740.421 560.339 740.557 555.414 740.433C551.774 739.78 550.173 737.874 548 735C547.67 734.67 547.34 734.34 547 734C546.477 729.617 545.976 724.982 548.047 720.972C552.802 715.252 557.1 715.383 564 717Z" fill="#2E2C2B"/>
<path d="M494.75 263.125C497.564 265.175 497.926 265.625 498.625 269.188C498 272 498 272 496 274C493.128 273.989 490.303 273.893 487.438 273.75C480.419 273.534 476.301 274.072 470.77 278.731C469 280 469 280 465.438 279.875C464.633 279.587 463.829 279.298 463 279C462.25 276.875 462.25 276.875 462 274C465.141 268.082 469.577 264.013 475.852 261.547C482.266 259.914 488.877 259.892 494.75 263.125Z" fill="#060403"/>
<path d="M565 262C567.478 263.912 568.401 265.202 570 268C570.125 270.75 570.125 270.75 569 273C567 274.562 567 274.562 564 275C561.695 274.126 559.537 273.051 557.324 271.965C551.763 269.656 545.663 271.07 539.883 271.976C538.951 271.988 538.951 271.988 538 272C537.34 271.34 536.68 270.68 536 270C536.152 266.498 536.584 264.535 538.75 261.75C546.948 255.374 556.35 257.614 565 262Z" fill="#050403"/>
<path d="M606 274C613.015 279.337 617.813 285.338 620 294C620.339 298.065 620.37 302.11 620.375 306.188C620.399 307.261 620.424 308.334 620.449 309.439C620.477 317.032 619.059 323.059 616 330C615.67 330 615.34 330 615 330C614.91 329.171 614.82 328.342 614.728 327.488C612.295 305.574 612.295 305.574 606.843 284.247C606.589 283.471 606.336 282.694 606.074 281.895C605.843 281.233 605.612 280.571 605.374 279.89C604.929 277.639 605.302 276.163 606 274Z" fill="#2A2928"/>
<path d="M559 294C562.615 296.56 564.708 299.348 565.484 303.739C565.624 308.883 565.418 312.899 562 317C561 318 561 318 557.188 318.375C553.701 318.344 553.239 318.227 550.563 315.688C547.605 310.6 547.31 305.767 548 300C550.822 295.39 553.471 292.995 559 294Z" fill="#040303"/>
<path d="M486.871 296.539C489 297 489 297 491.562 298.75C493.799 303.807 493.843 308.568 493 314C491.681 317.035 490.712 317.878 488 320C485 320.687 485 320.687 482 320C478.655 317.175 476.199 315.027 475.762 310.574C475.649 306.173 475.609 302.867 477.437 298.812C480.698 296.506 482.933 296.266 486.871 296.539Z" fill="#040303"/>
<path d="M394 723C395.168 726.935 394.662 729.955 394 734C394 734.99 394 735.98 394 737C393.34 737 392.68 737 392 737C391.34 746.57 390.68 756.14 390 766C390.99 766.33 391.98 766.66 393 767C391.35 766.67 389.7 766.34 388 766C387.63 757.732 388.106 749.859 389.313 741.688C389.43 740.865 389.548 740.042 389.669 739.194C390.552 733.567 392.04 728.345 394 723Z" fill="#E8DDCF"/>
<path d="M503 665C501.375 666.125 501.375 666.125 499 667C496.985 666.38 494.987 665.705 493 665C489.571 664.701 486.183 664.541 482.746 664.434C479.036 664.272 476.165 664.034 473 662C482.699 658.941 494.18 660.251 503 665Z" fill="#F3DDC5"/>
<path d="M534 440C534.33 440 534.66 440 535 440C536.789 451.181 537.62 462.766 532 473C529.859 475.305 529.859 475.305 528 477C528.268 476.34 528.536 475.68 528.812 475C529.204 474.01 529.596 473.02 530 472C530.517 470.841 531.034 469.682 531.566 468.488C533.472 463.396 533.298 458.559 533.125 453.188C533.082 451.327 533.042 449.466 533.008 447.605C532.983 446.792 532.959 445.979 532.934 445.141C533 443 533 443 534 440Z" fill="#F3E2CE"/>
<path d="M534 416C533.67 421.94 533.34 427.88 533 434C532.67 434 532.34 434 532 434C532 428.72 532 423.44 532 418C529.69 418.33 527.38 418.66 525 419C523.023 419.075 521.045 419.108 519.066 419.098C517.476 419.093 517.476 419.093 515.854 419.088C514.767 419.08 513.681 419.071 512.562 419.062C511.449 419.058 510.336 419.053 509.189 419.049C506.46 419.037 503.73 419.021 501 419C501 418.67 501 418.34 501 418C501.569 417.975 502.138 417.95 502.725 417.924C505.338 417.807 507.95 417.685 510.562 417.562C511.905 417.504 511.905 417.504 513.275 417.443C520.233 417.112 527.036 416 534 416Z" fill="#FCFAF2"/>
<path d="M434 391C437.627 392.814 441.056 394.81 444.5 396.938C445.624 397.627 446.748 398.317 447.906 399.027C450.368 400.597 452.703 402.204 455 404C451.019 403.422 448.276 402.189 444.875 400.062C443.603 399.276 443.603 399.276 442.305 398.473C440.524 397.335 438.758 396.172 437 395C436.34 399.62 435.68 404.24 435 409C434.67 409 434.34 409 434 409C434 403.06 434 397.12 434 391Z" fill="#F3EBDC"/>
<path d="M404 768C411.59 768 419.18 768 427 768C427 768.99 427 769.98 427 771C419.41 771 411.82 771 404 771C404 770.01 404 769.02 404 768Z" fill="#EBD1B5"/>
<path d="M297 461C297.66 461.33 298.32 461.66 299 462C297.917 462.835 297.917 462.835 296.812 463.688C293.963 465.954 293.963 465.954 291.438 468.562C289.357 470.643 287.358 472.266 285 474C283.249 475.521 281.511 477.053 279.781 478.598C277.943 480.045 276.122 481.027 274 482C280.619 473.814 288.271 466.883 297 461Z" fill="#F39368"/>
<path d="M716 1304C711.762 1307.13 708.173 1307.4 703.074 1307.29C702.327 1307.29 701.579 1307.28 700.809 1307.28C698.435 1307.26 696.061 1307.23 693.688 1307.19C692.072 1307.17 690.457 1307.16 688.842 1307.15C684.894 1307.11 680.947 1307.06 677 1307C677 1306.67 677 1306.34 677 1306C677.629 1305.98 678.257 1305.96 678.905 1305.94C694.872 1305.47 694.872 1305.47 710.672 1303.31C713 1303 713 1303 716 1304Z" fill="#343433"/>
<path d="M451 768C451 768.33 451 768.66 451 769C440.976 769.729 431.056 770.141 421 770C421 769.67 421 769.34 421 769C430.738 765.537 440.895 767.012 451 768Z" fill="#FAEBD7"/>
<path d="M586 294C586.99 294.33 587.98 294.66 589 295C589.125 301.625 589.125 301.625 588 305C587.852 306.772 587.752 308.548 587.684 310.324C587.642 311.352 587.6 312.38 587.557 313.439C587.517 314.511 587.478 315.583 587.438 316.688C587.394 317.771 587.351 318.854 587.307 319.971C587.201 322.647 587.098 325.323 587 328C586.67 328 586.34 328 586 328C586 316.78 586 305.56 586 294Z" fill="#F2CDAE"/>
<path d="M421 177C421.66 177.33 422.32 177.66 423 178C417.72 183.28 412.44 188.56 407 194C407 189.956 408.481 188.999 411.188 186.062C411.965 185.208 412.742 184.353 413.543 183.473C415.902 181.098 418.345 179.033 421 177Z" fill="#302F2E"/>
<path d="M569 638C571.328 640.834 572.074 642.295 573 646C564.09 646 555.18 646 546 646C546 645.67 546 645.34 546 645C553.92 645 561.84 645 570 645C569.67 642.69 569.34 640.38 569 638Z" fill="#FEA472"/>
<path d="M802 445C802 448.985 800.5 451.06 798 454C794.759 457.109 791.407 460.074 788 463C787.34 462.67 786.68 462.34 786 462C786.652 461.359 787.305 460.719 787.977 460.059C792.883 455.203 797.603 450.323 802 445Z" fill="#F79669"/>
<path d="M427 459C429.526 461.351 431.384 463.895 433.312 466.75C436.305 471.093 439.492 475.064 443 479C442.01 479 441.02 479 440 479C427 465.761 427 465.761 427 459Z" fill="#E58E64"/>
<path d="M528 416C529.98 416 531.96 416 534 416C533.67 421.94 533.34 427.88 533 434C532.67 434 532.34 434 532 434C532 428.72 532 423.44 532 418C530.68 417.67 529.36 417.34 528 417C528 416.67 528 416.34 528 416Z" fill="#F2EADB"/>
<path d="M492 686C488.495 687.963 484.866 688.959 481 690C481 690.33 481 690.66 481 691C479.02 691 477.04 691 475 691C475 690.34 475 689.68 475 689C486.522 685.555 486.522 685.555 492 686Z" fill="#393635"/>
<path d="M633 625C635.6 628.9 635.151 632.474 635 637C634.01 637.495 634.01 637.495 633 638C631.703 634.108 631.87 631.106 632 627C632.33 626.34 632.66 625.68 633 625Z" fill="#F48A5F"/>
<path d="M548 657C548.33 657 548.66 657 549 657C549.33 660.96 549.66 664.92 550 669C551.65 669 553.3 669 555 669C555 669.66 555 670.32 555 671C553 671.043 551 671.041 549 671C548 670 548 670 547.902 667.059C547.914 665.864 547.926 664.669 547.938 663.438C547.947 662.24 547.956 661.042 547.965 659.809C547.976 658.882 547.988 657.955 548 657Z" fill="#363331"/>
<path d="M926 245C927 246 927 246 927.188 249.437C927 253 927 253 925 255C924.67 252.36 924.34 249.72 924 247C921.69 247.33 919.38 247.66 917 248C919.602 244.53 921.832 244.637 926 245Z" fill="#F5EDDB"/>
<path d="M549 426C555.152 425.902 555.152 425.902 557 426C557.33 426.33 557.66 426.66 558 427C557.911 428.525 557.755 430.047 557.562 431.562C557.461 432.389 557.359 433.215 557.254 434.066C557.17 434.704 557.086 435.343 557 436C556.67 436 556.34 436 556 436C556 433.36 556 430.72 556 428C553.69 427.67 551.38 427.34 549 427C549 426.67 549 426.34 549 426Z" fill="#F88D60"/>
<path d="M490 773C490.33 773.66 490.66 774.32 491 775C490.062 777.125 490.062 777.125 489 779C491.31 779 493.62 779 496 779C496 779.33 496 779.66 496 780C492.37 780 488.74 780 485 780C485 778 485 778 487.5 775.375C488.325 774.591 489.15 773.808 490 773Z" fill="#393634"/>
<path d="M738 617C740.64 617 743.28 617 746 617C745.34 618.65 744.68 620.3 744 622C743.67 621.34 743.34 620.68 743 620C742.34 620 741.68 620 741 620C741 620.66 741 621.32 741 622C740.34 622 739.68 622 739 622C738.67 620.35 738.34 618.7 738 617Z" fill="#020100"/>
<path d="M543 424C545.475 424.495 545.475 424.495 548 425C547.01 425.33 546.02 425.66 545 426C545 428.97 545 431.94 545 435C544.67 435 544.34 435 544 435C543.67 431.37 543.34 427.74 543 424Z" fill="#E7986A"/>
<path d="M377 272C376.484 272.104 375.969 272.207 375.438 272.313C372.14 273.243 369.134 274.614 366 276C368.023 269.932 371.576 270.977 377 272Z" fill="#323131"/>
<path d="M663 1214C667.62 1214 672.24 1214 677 1214C677 1214.33 677 1214.66 677 1215C675.231 1215.22 673.46 1215.43 671.688 1215.62C670.701 1215.74 669.715 1215.86 668.699 1215.98C666 1216 666 1216 663 1214Z" fill="#2A1808"/>
<path d="M373 430C373.33 430.66 373.66 431.32 374 432C367.375 433.25 367.375 433.25 364 431C367.073 430.089 369.801 429.911 373 430Z" fill="#F68B62"/>
<path d="M569 638C571.154 640.622 572.401 642.644 573 646C571.35 646 569.7 646 568 646C568.66 645.67 569.32 645.34 570 645C569.67 642.69 569.34 640.38 569 638Z" fill="#F19566"/>
<path d="M436 152C436.33 152.99 436.66 153.98 437 155C435.35 155.66 433.7 156.32 432 157C432 156.01 432 155.02 432 154C433.32 153.34 434.64 152.68 436 152Z" fill="#121110"/>
<path d="M1001 314C1003.31 314 1005.62 314 1008 314C1008.33 314.99 1008.66 315.98 1009 317C1006.36 316.34 1003.72 315.68 1001 315C1001 314.67 1001 314.34 1001 314Z" fill="#3D3732"/>
<path d="M655 1213C656.98 1213 658.96 1213 661 1213C659.68 1213.99 658.36 1214.98 657 1216C656.34 1215.01 655.68 1214.02 655 1213Z" fill="#281707"/>
<path d="M953 272C954.32 272.33 955.64 272.66 957 273C956.67 273.99 956.34 274.98 956 276C955.34 275.67 954.68 275.34 954 275C954.33 274.34 954.66 273.68 955 273C954.34 272.67 953.68 272.34 953 272Z" fill="#3F3731"/>
<path d="M873 272C874.32 272.33 875.64 272.66 877 273C876.01 274.485 876.01 274.485 875 276C874.34 275.67 873.68 275.34 873 275C873 274.01 873 273.02 873 272Z" fill="#41352D"/>
<path d="M890 252C890.99 252.33 891.98 252.66 893 253C892.01 253.33 891.02 253.66 890 254C890 254.66 890 255.32 890 256C889.34 255.67 888.68 255.34 888 255C888.66 254.01 889.32 253.02 890 252Z" fill="#3E3630"/>
<path d="M171 448C171.33 448 171.66 448 172 448C172 449.65 172 451.3 172 453C171.01 452.67 170.02 452.34 169 452C169.66 451.67 170.32 451.34 171 451C171 450.01 171 449.02 171 448Z" fill="#0D0806"/>
<path d="M988 312C989.32 312.66 990.64 313.32 992 314C989.69 314 987.38 314 985 314C985.99 313.34 986.98 312.68 988 312Z" fill="#403831"/>
<path d="M730 619C732.31 619 734.62 619 737 619C737 619.33 737 619.66 737 620C734.69 620 732.38 620 730 620C730 619.67 730 619.34 730 619Z" fill="#020100"/>
<path d="M1018 320C1018.66 320 1019.32 320 1020 320C1020.33 320.99 1020.66 321.98 1021 323C1019.68 322.34 1018.36 321.68 1017 321C1017.33 320.67 1017.66 320.34 1018 320Z" fill="#45403B"/>
<path d="M987 266C989.475 266.495 989.475 266.495 992 267C991.01 267.33 990.02 267.66 989 268C988.34 267.34 987.68 266.68 987 266Z" fill="#423C37"/>
<path d="M901 242C901.66 242.33 902.32 242.66 903 243C901.02 243.99 901.02 243.99 899 245C898.67 244.34 898.34 243.68 898 243C898.99 242.67 899.98 242.34 901 242Z" fill="#403731"/>
<path d="M201 523C202.98 523.99 202.98 523.99 205 525C204.01 525.495 204.01 525.495 203 526C202.34 525.67 201.68 525.34 201 525C201 524.34 201 523.68 201 523Z" fill="#1A0A06"/>
<path d="M981 313C981 313.66 981 314.32 981 315C979.68 314.67 978.36 314.34 977 314C979 313 979 313 981 313Z" fill="#443A33"/>
<path d="M631 311C631.33 311 631.66 311 632 311C632 312.98 632 314.96 632 317C631.67 317 631.34 317 631 317C631 315.02 631 313.04 631 311Z" fill="#0E0806"/>
<path d="M243 305C243.99 305 244.98 305 246 305C245.67 305.99 245.34 306.98 245 308C244.34 307.01 243.68 306.02 243 305Z" fill="#060503"/>
<path d="M284 274C284.66 274.66 285.32 275.32 286 276C285.01 276.33 284.02 276.66 283 277C282.67 276.34 282.34 275.68 282 275C282.66 274.67 283.32 274.34 284 274Z" fill="#070504"/>
<path d="M888 248C889.98 248.99 889.98 248.99 892 250C891.01 250 890.02 250 889 250C888.67 249.34 888.34 248.68 888 248Z" fill="#3D342E"/>
<path d="M376 178C377.32 178.33 378.64 178.66 380 179C378.68 179.33 377.36 179.66 376 180C376 179.34 376 178.68 376 178Z" fill="#0A0A08"/>
<path d="M132 985C132.99 985.495 132.99 985.495 134 986C134 986.66 134 987.32 134 988C133.34 988 132.68 988 132 988C132 987.01 132 986.02 132 985Z" fill="#120E0A"/>
<path d="M154 922C154 922.99 154 923.98 154 925C153.34 924.67 152.68 924.34 152 924C152.66 923.34 153.32 922.68 154 922Z" fill="#130F0A"/>
<path d="M638 400C638.33 400 638.66 400 639 400C639 401.65 639 403.3 639 405C638.67 405 638.34 405 638 405C638 403.35 638 401.7 638 400Z" fill="#210B05"/>
<path d="M216 392C216.66 392.33 217.32 392.66 218 393C216.515 393.99 216.515 393.99 215 395C215.33 394.01 215.66 393.02 216 392Z" fill="#050301"/>
<path d="M958 272C958.99 272.33 959.98 272.66 961 273C959.68 273.33 958.36 273.66 957 274C957.33 273.34 957.66 272.68 958 272Z" fill="#413A34"/>
<path d="M968 264C968.99 264.33 969.98 264.66 971 265C970.34 265 969.68 265 969 265C968.67 265.66 968.34 266.32 968 267C968 266.01 968 265.02 968 264Z" fill="#3F3A33"/>
<path d="M456 146C456.99 146.33 457.98 146.66 459 147C458.01 147.33 457.02 147.66 456 148C456 147.34 456 146.68 456 146Z" fill="#131211"/>
<path d="M472 144C473.65 144 475.3 144 477 144C477 144.33 477 144.66 477 145C475.35 145 473.7 145 472 145C472 144.67 472 144.34 472 144Z" fill="#12100F"/>
<path d="M2 1499C2.99 1500.49 2.99 1500.49 4 1502C3.34 1502 2.68 1502 2 1502C2 1501.01 2 1500.02 2 1499Z" fill="#C1BEBE"/>
<path d="M673 1330C677 1331 677 1331 677 1331L673 1330Z" fill="#0B0908"/>
<path d="M155 1216C155.99 1216.5 155.99 1216.5 157 1217C156.67 1217.66 156.34 1218.32 156 1219C155.67 1218.01 155.34 1217.02 155 1216Z" fill="#0D0B0A"/>
<path d="M112 1112C112.99 1112.5 112.99 1112.5 114 1113C113.67 1113.66 113.34 1114.32 113 1115C112.67 1114.01 112.34 1113.02 112 1112Z" fill="#191714"/>
<path d="M114 1112C114.66 1112 115.32 1112 116 1112C115.67 1112.99 115.34 1113.98 115 1115C114.67 1114.01 114.34 1113.02 114 1112Z" fill="#161512"/>
<path d="M917 1089C917.66 1089.66 918.32 1090.32 919 1091C918.01 1090.67 917.02 1090.34 916 1090C916.33 1089.67 916.66 1089.34 917 1089Z" fill="#4A4947"/>
<path d="M727 1088C728 1092 728 1092 728 1092L727 1088Z" fill="#6F481E"/>
<path d="M732 1052C733 1056 733 1056 733 1056L732 1052Z" fill="#764E1E"/>
<path d="M730 985C731 989 731 989 731 989L730 985Z" fill="#764D1E"/>
<path d="M726 962C727 966 727 966 727 966L726 962Z" fill="#71481B"/>
<path d="M312 808C313 812 313 812 313 812L312 808Z" fill="#794818"/>
<path d="M788 611C792 612 792 612 792 612L788 611Z" fill="#632D1D"/>
<path d="M1014 320C1014.99 320.495 1014.99 320.495 1016 321C1015.67 321.66 1015.34 322.32 1015 323C1014.67 322.01 1014.34 321.02 1014 320Z" fill="#433D39"/>
<path d="M931 273C931.66 273.66 932.32 274.32 933 275C932.01 275.495 932.01 275.495 931 276C931 275.01 931 274.02 931 273Z" fill="#433830"/>
<path d="M887 250C887.99 250.33 888.98 250.66 890 251C889.01 251 888.02 251 887 251C887 250.67 887 250.34 887 250Z" fill="#3C342E"/>
<path d="M380 176C380.99 176.33 381.98 176.66 383 177C382.01 177.33 381.02 177.66 380 178C380 177.34 380 176.68 380 176Z" fill="#0A0808"/>
<path d="M459 146C463 147 463 147 463 147L459 146Z" fill="#131110"/>
<path d="M507 145C511 146 511 146 511 146L507 145Z" fill="#12110F"/>
<path d="M592 1316C595 1317 595 1317 595 1317L592 1316Z" fill="#0C0A06"/>
<path d="M506 1282C506.66 1282.66 507.32 1283.32 508 1284C507.34 1284 506.68 1284 506 1284C506 1283.34 506 1282.68 506 1282Z" fill="#100B07"/>
<path d="M290 1196C293 1197 293 1197 293 1197L290 1196Z" fill="#2E1A07"/>
<path d="M115 1105C115.66 1105 116.32 1105 117 1105C116.67 1105.66 116.34 1106.32 116 1107C115.67 1106.34 115.34 1105.68 115 1105Z" fill="#151410"/>
<path d="M924 1090C927 1091 927 1091 927 1091L924 1090Z" fill="#4D4D4B"/>
<path d="M132 1086C132.99 1086.5 132.99 1086.5 134 1087C133.01 1087.5 133.01 1087.5 132 1088C132 1087.34 132 1086.68 132 1086Z" fill="#0F0D0A"/>
<path d="M136 1082C136.66 1082.66 137.32 1083.32 138 1084C137.34 1084 136.68 1084 136 1084C136 1083.34 136 1082.68 136 1082Z" fill="#0E0C08"/>
<path d="M137 1080C137.99 1080.5 137.99 1080.5 139 1081C138.01 1081.5 138.01 1081.5 137 1082C137 1081.34 137 1080.68 137 1080Z" fill="#0E0C08"/>
<path d="M130 996C130.33 996.66 130.66 997.32 131 998C130.34 997.67 129.68 997.34 129 997C129.33 996.67 129.66 996.34 130 996Z" fill="#16120C"/>
<path d="M272 972C275 973 275 973 275 973L272 972Z" fill="#734B1C"/>
<path d="M317 767C320 768 320 768 320 768L317 767Z" fill="#653019"/>
<path d="M254 739C257 740 257 740 257 740L254 739Z" fill="#602D1A"/>
<path d="M706 618C709 619 709 619 709 619L706 618Z" fill="#692E1E"/>
<path d="M669 611C672 612 672 612 672 612L669 611Z" fill="#6D2E1C"/>
<path d="M216 538C216.33 538.66 216.66 539.32 217 540C216.34 539.67 215.68 539.34 215 539C215.33 538.67 215.66 538.34 216 538Z" fill="#37160C"/>
<path d="M218 532C218.66 532 219.32 532 220 532C219.67 532.66 219.34 533.32 219 534C218.67 533.34 218.34 532.68 218 532Z" fill="#31140A"/>
<path d="M701 469C704 470 704 470 704 470L701 469Z" fill="#753323"/>
<path d="M955 403C958 404 958 404 958 404L955 403Z" fill="#54443B"/>
<path d="M977 397C977.33 397.66 977.66 398.32 978 399C977.34 398.67 976.68 398.34 976 398C976.33 397.67 976.66 397.34 977 397Z" fill="#52463E"/>
<path d="M981 395C981.99 395.495 981.99 395.495 983 396C982.01 396.495 982.01 396.495 981 397C981 396.34 981 395.68 981 395Z" fill="#524740"/>
<path d="M997 382C997.99 382.495 997.99 382.495 999 383C998.01 383.495 998.01 383.495 997 384C997 383.34 997 382.68 997 382Z" fill="#4E4640"/>
<path d="M991 359C991.33 359.66 991.66 360.32 992 361C991.34 360.67 990.68 360.34 990 360C990.33 359.67 990.66 359.34 991 359Z" fill="#473F38"/>
<path d="M1015 346C1015.33 346.66 1015.66 347.32 1016 348C1015.34 347.67 1014.68 347.34 1014 347C1014.33 346.67 1014.66 346.34 1015 346Z" fill="#4A423C"/>
<path d="M997 314C1000 315 1000 315 1000 315L997 314Z" fill="#3F3832"/>
<path d="M831 283C834 284 834 284 834 284L831 283Z" fill="#3C332C"/>
<path d="M283 272C283.99 272.495 283.99 272.495 285 273C284.01 273.495 284.01 273.495 283 274C283 273.34 283 272.68 283 272Z" fill="#070605"/>
<path d="M280 272C280.99 272.495 280.99 272.495 282 273C281.01 273.495 281.01 273.495 280 274C280 273.34 280 272.68 280 272Z" fill="#070706"/>
<path d="M289 272C292 273 292 273 292 273L289 272Z" fill="#050404"/>
<path d="M976 266C979 267 979 267 979 267L976 266Z" fill="#413C36"/>
<path d="M881 264C881.99 264.495 881.99 264.495 883 265C882.01 265.495 882.01 265.495 881 266C881 265.34 881 264.68 881 264Z" fill="#423832"/>
<path d="M896 243C896.66 243.66 897.32 244.32 898 245C897.34 245 896.68 245 896 245C896 244.34 896 243.68 896 243Z" fill="#3F362F"/>
<path d="M581 178C581.66 178 582.32 178 583 178C582.67 178.66 582.34 179.32 582 180C581.67 179.34 581.34 178.68 581 178Z" fill="#0E0C0B"/>
<path d="M578 176C581 177 581 177 581 177L578 176Z" fill="#0F0C0C"/>
<path d="M390 169C390.99 169.495 390.99 169.495 392 170C391.01 170.495 391.01 170.495 390 171C390 170.34 390 169.68 390 169Z" fill="#0B0A09"/>
<path d="M417 160C420 161 420 161 420 161L417 160Z" fill="#0E0A0A"/>
<path d="M502 144C502.66 144 503.32 144 504 144C503.67 144.66 503.34 145.32 503 146C502.67 145.34 502.34 144.68 502 144Z" fill="#110F0D"/>
<path d="M498 144C501 145 501 145 501 145L498 144Z" fill="#0F0F0C"/>
<path d="M494 144C497 145 497 145 497 145L494 144Z" fill="#110E0C"/>
<path d="M632 1326C634 1327 634 1327 634 1327L632 1326Z" fill="#080704"/>
<path d="M724 1307C726 1308 726 1308 726 1308L724 1307Z" fill="#0F0D0A"/>
<path d="M531 1294C533 1295 533 1295 533 1295L531 1294Z" fill="#0F0D09"/>
<path d="M524 1291C526 1292 526 1292 526 1292L524 1291Z" fill="#100C07"/>
<path d="M509 1284C511 1285 511 1285 511 1285L509 1284Z" fill="#100C07"/>
<path d="M479 1267C481 1268 481 1268 481 1268L479 1267Z" fill="#0E0A07"/>
<path d="M670 1224C672 1225 672 1225 672 1225L670 1224Z" fill="#0F0903"/>
<path d="M653 1215C655 1216 655 1216 655 1216L653 1215Z" fill="#2A1508"/>
<path d="M679 1213C681 1214 681 1214 681 1214L679 1213Z" fill="#2D1B0A"/>
<path d="M313 1189C315 1190 315 1190 315 1190L313 1189Z" fill="#563614"/>
<path d="M498 1170C500 1171 500 1171 500 1171L498 1170Z" fill="#36220D"/>
<path d="M364 1161C366 1162 366 1162 366 1162L364 1161Z" fill="#6A4419"/>
<path d="M370 1157C372 1158 372 1158 372 1158L370 1157Z" fill="#694217"/>
<path d="M942 1119C944 1120 944 1120 944 1120L942 1119Z" fill="#585956"/>
<path d="M806 1119C808 1120 808 1120 808 1120L806 1119Z" fill="#413626"/>
<path d="M494 1119C496 1120 496 1120 496 1120L494 1119Z" fill="#6A4A21"/>
<path d="M874 1117C876 1118 876 1118 876 1118L874 1117Z" fill="#3D3B35"/>
<path d="M446 1103C448 1104 448 1104 448 1104L446 1103Z" fill="#704A1C"/>
<path d="M446 1098C448 1099 448 1099 448 1099L446 1098Z" fill="#774E1E"/>
<path d="M1004 1090C1006 1091 1006 1091 1006 1091L1004 1090Z" fill="#868786"/>
<path d="M956 1090C958 1091 958 1091 958 1091L956 1090Z" fill="#616260"/>
<path d="M876 1090C878 1091 878 1091 878 1091L876 1090Z" fill="#3E3C36"/>
<path d="M733 1090C735 1091 735 1091 735 1091L733 1090Z" fill="#68471E"/>
<path d="M44 1090C46 1091 46 1091 46 1091L44 1090Z" fill="#686864"/>
<path d="M151 1075C153 1076 153 1076 153 1076L151 1075Z" fill="#100B04"/>
<path d="M153 1072C155 1073 155 1073 155 1073L153 1072Z" fill="#0C0A04"/>
<path d="M733 1066C735 1067 735 1067 735 1067L733 1066Z" fill="#714B1F"/>
<path d="M188 1036C190 1037 190 1037 190 1037L188 1036Z" fill="#42290D"/>
<path d="M733 1026C735 1027 735 1027 735 1027L733 1026Z" fill="#724A1B"/>
<path d="M212 1019C214 1020 214 1020 214 1020L212 1019Z" fill="#4F3111"/>
<path d="M733 1010C735 1011 735 1011 735 1011L733 1010Z" fill="#724A1C"/>
<path d="M532 998C534 999 534 999 534 999L532 998Z" fill="#815721"/>
<path d="M248 994C250 995 250 995 250 995L248 994Z" fill="#664117"/>
<path d="M250 992C252 993 252 993 252 993L250 992Z" fill="#6A4316"/>
<path d="M532 990C534 991 534 991 534 991L532 990Z" fill="#81561F"/>
<path d="M532 982C534 983 534 983 534 983L532 982Z" fill="#85581F"/>
<path d="M274 970C276 971 276 971 276 971L274 970Z" fill="#724C1D"/>
<path d="M281 963C283 964 283 964 283 964L281 963Z" fill="#7A511E"/>
<path d="M726 960C728 961 728 961 728 961L726 960Z" fill="#6E461A"/>
<path d="M296 943C298 944 298 944 298 944L296 943Z" fill="#7E551F"/>
<path d="M145 931C147 932 147 932 147 932L145 931Z" fill="#100E09"/>
<path d="M157 920C159 921 159 921 159 921L157 920Z" fill="#150F09"/>
<path d="M310 764C312 765 312 765 312 765L310 764Z" fill="#6B3019"/>
<path d="M655 751C657 752 657 752 657 752L655 751Z" fill="#5B311B"/>
<path d="M258 741C260 742 260 742 260 742L258 741Z" fill="#5E2B1B"/>
<path d="M234 727C236 728 236 728 236 728L234 727Z" fill="#55261B"/>
<path d="M235 725C237 726 237 726 237 726L235 725Z" fill="#5B2618"/>
<path d="M225 719C227 720 227 720 227 720L225 719Z" fill="#562517"/>
<path d="M194 677C196 678 196 678 196 678L194 677Z" fill="#59291D"/>
<path d="M646 624C648 625 648 625 648 625L646 624Z" fill="#6C2F1E"/>
<path d="M742 623C744 624 744 624 744 624L742 623Z" fill="#5E2C1B"/>
<path d="M718 623C720 624 720 624 720 624L718 623Z" fill="#5E2B1B"/>
<path d="M779 614C781 615 781 615 781 615L779 614Z" fill="#622C1C"/>
<path d="M810 603C812 604 812 604 812 604L810 603Z" fill="#5F2E1E"/>
<path d="M646 603C648 604 648 604 648 604L646 603Z" fill="#6C2F1D"/>
<path d="M837 589C839 590 839 590 839 590L837 589Z" fill="#633220"/>
<path d="M844 585C846 586 846 586 846 586L844 585Z" fill="#5F3324"/>
<path d="M871 563C873 564 873 564 873 564L871 563Z" fill="#623728"/>
<path d="M893 538C895 539 895 539 895 539L893 538Z" fill="#6B402E"/>
<path d="M1020 518C1022 519 1022 519 1022 519L1020 518Z" fill="#A49C98"/>
<path d="M988 518C990 519 990 519 990 519L988 518Z" fill="#887A74"/>
<path d="M36 518C38 519 38 519 38 519L36 518Z" fill="#8B7E7B"/>
<path d="M28 518C30 519 30 519 30 519L28 518Z" fill="#948884"/>
<path d="M193 517C195 518 195 518 195 518L193 517Z" fill="#180904"/>
<path d="M702 465C704 466 704 466 704 466L702 465Z" fill="#692F22"/>
<path d="M675 460C677 461 677 461 677 461L675 460Z" fill="#652C1B"/>
<path d="M777 448C779 449 779 449 779 449L777 448Z" fill="#653020"/>
<path d="M643 441C645 442 645 442 645 442L643 441Z" fill="#491E13"/>
<path d="M810 408C812 409 812 409 812 409L810 408Z" fill="#623121"/>
<path d="M947 407C949 408 949 408 949 408L947 407Z" fill="#534239"/>
<path d="M949 406C951 407 951 407 951 407L949 406Z" fill="#554339"/>
<path d="M208 400C210 401 210 401 210 401L208 400Z" fill="#040300"/>
<path d="M978 396C980 397 980 397 980 397L978 396Z" fill="#52473F"/>
<path d="M988 391C990 392 990 392 990 392L988 391Z" fill="#514640"/>
<path d="M995 313C997 314 997 314 997 314L995 313Z" fill="#413833"/>
<path d="M982 313C984 314 984 314 984 314L982 313Z" fill="#423A32"/>
<path d="M1006 312C1008 313 1008 313 1008 313L1006 312Z" fill="#3D3731"/>
<path d="M828 283C830 284 830 284 830 284L828 283Z" fill="#3D332C"/>
<path d="M941 282C943 283 943 283 943 283L941 282Z" fill="#3A342E"/>
<path d="M942 280C944 281 944 281 944 281L942 280Z" fill="#3A332E"/>
<path d="M286 272C288 273 288 273 288 273L286 272Z" fill="#090706"/>
<path d="M984 266C986 267 986 267 986 267L984 266Z" fill="#423C35"/>
<path d="M980 266C982 267 982 267 982 267L980 266Z" fill="#433D38"/>
<path d="M320 256C322 257 322 257 322 257L320 256Z" fill="#050301"/>
<path d="M892 250C894 251 894 251 894 251L892 250Z" fill="#3F3631"/>
<path d="M326 248C328 249 328 249 328 249L326 248Z" fill="#070705"/>
<path d="M899 241C901 242 901 242 901 242L899 241Z" fill="#403831"/>
<path d="M354 202C356 203 356 203 356 203L354 202Z" fill="#060506"/>
<path d="M587 178C589 179 589 179 589 179L587 178Z" fill="#121010"/>
<path d="M563 169C565 170 565 170 565 170L563 169Z" fill="#0E0D0B"/>
<path d="M394 168C396 169 396 169 396 169L394 168Z" fill="#080806"/>
<path d="M409 162C411 163 411 163 411 163L409 162Z" fill="#0D0C0C"/>
<path d="M411 161C413 162 413 162 413 162L411 161Z" fill="#0C0D0B"/>
<path d="M531 152C533 153 533 153 533 153L531 152Z" fill="#110F0C"/>
<path d="M513 146C515 147 515 147 515 147L513 146Z" fill="#131112"/>
<path d="M468 145C470 146 470 146 470 146L468 145Z" fill="#141310"/>
<path d="M481 144C483 145 483 145 483 145L481 144Z" fill="#10100F"/>
<path d="M478 144C480 145 480 145 480 145L478 144Z" fill="#14110F"/>
</g>
<defs>
<clipPath id="clip0_5_1318">
<rect width="1024" height="1536" fill="white"/>
</clipPath>
</defs>
</svg>
