<svg width="1024" height="1536" viewBox="0 0 1024 1536" fill="none" xmlns="http://www.w3.org/2000/svg">
<g clip-path="url(#clip0_5_3)">
<path d="M0 0C337.92 0 675.84 0 1024 0C1024 506.88 1024 1013.76 1024 1536C686.08 1536 348.16 1536 0 1536C0 1029.12 0 522.24 0 0Z" fill="#FCE4C3"/>
<path d="M505 252.812C506.003 252.8 507.006 252.788 508.039 252.775C521.628 252.749 535.906 255.104 546 265C547.219 267.187 547.219 267.187 548 269C548.66 268.67 549.32 268.34 550 268C574.088 265.973 598.048 278.589 615.965 293.461C650.53 323.328 660.762 368.835 667.242 412.07C672.835 449.366 686.981 481.876 704.048 515.179C727.45 560.9 727.45 560.9 727.312 585.625C727.308 586.683 727.303 587.742 727.298 588.832C727.168 597.534 726.008 605.528 724 614C719.004 635.455 714.746 654.243 726.5 674.25C730.173 679.985 734.26 685.349 738.409 690.746C742.209 695.762 745.566 700.949 748.75 706.375C749.18 707.107 749.611 707.839 750.054 708.593C753 713.724 753 713.724 753 716C756.716 712.431 759.935 708.659 763.062 704.562C778.248 684.999 795.147 665.666 814.09 649.641C815.423 648.496 816.726 647.315 818.004 646.109C843.139 622.505 886.22 590.058 922.384 590.527C927.67 590.766 931.913 591.54 936 595C942.687 602.391 942.336 613.12 942.25 622.562C942.245 623.641 942.239 624.719 942.234 625.831C942.11 636.645 941.307 647.376 940.273 658.137C940.02 660.787 939.789 663.438 939.562 666.09C938.611 676.698 936.809 687.003 934.553 697.408C934.004 699.982 933.489 702.562 932.98 705.145C925.806 740.817 913.925 775.444 900 809C900.892 808.758 901.784 808.515 902.703 808.266C906.05 807.362 909.399 806.469 912.75 805.582C914.193 805.198 915.635 804.81 917.076 804.418C937.34 798.911 937.34 798.911 946.98 803.824C950.157 805.674 951.971 806.859 954 810C955.297 818.273 953.452 826.131 951 834C950.693 835.012 950.693 835.012 950.38 836.043C936.391 881.442 908.309 927.17 870.703 956.859C867.782 959.172 864.959 961.582 862.125 964C856.821 968.449 851.284 972.358 845.52 976.188C842.929 977.755 842.929 977.755 842 980C842.572 980.267 843.145 980.534 843.734 980.809C852.292 985.309 861 993.096 865 1002C869.846 1001.47 873.376 999.155 877.375 996.562C878.07 996.12 878.766 995.678 879.482 995.222C884.996 991.697 890.451 988.081 895.863 984.401C897.564 983.249 899.276 982.118 901 981C901.589 980.617 902.177 980.233 902.783 979.839C906.567 977.508 909.371 976.469 913.812 976.562C914.747 976.564 915.682 976.565 916.645 976.566C917.422 976.709 918.199 976.853 919 977C921 980 921 980 921.875 983C923.156 986.417 924.006 987.065 927 989C928.595 989.708 930.2 990.395 931.812 991.062C938.422 994.314 942.136 999.386 944.871 1006.16C947.32 1015.21 946.837 1025.15 944 1034C954.804 1027.95 954.804 1027.95 965.133 1021.13C969.197 1018.67 973.335 1018.68 978 1019C981.438 1020.5 981.438 1020.5 984 1022C984.554 1025.8 984.74 1027.88 982.582 1031.14C979.665 1034.5 976.711 1037.52 973 1040C972.34 1040 971.68 1040 971 1040C971 1040.66 971 1041.32 971 1042C971.99 1042.33 972.98 1042.66 974 1043C973.341 1051.22 969.377 1055.09 964 1061C963.232 1061.86 962.463 1062.72 961.672 1063.61C947.936 1078.24 927.185 1089 907 1090C905.76 1090.08 904.52 1090.15 903.242 1090.23C880.705 1091.17 857.273 1084.5 838.051 1072.83C833.619 1070.53 828.884 1069.85 824.021 1068.89C816.325 1067.27 808.856 1064.71 801.375 1062.31C800.117 1061.91 800.117 1061.91 798.833 1061.5C786.332 1057.52 773.989 1053.36 762 1048C761.239 1047.66 760.478 1047.33 759.693 1046.98C727.291 1032.6 691.079 1012.54 673 981C672.663 980.421 672.325 979.842 671.978 979.246C662.208 962.171 656.992 942.516 651.939 923.622C650.713 919.112 649.271 915.124 647 911C643.911 926.269 645.335 941.61 651 956C651.349 956.89 651.699 957.78 652.059 958.696C658.365 974.49 665.54 989.923 672.693 1005.35C673.029 1006.08 673.366 1006.81 673.713 1007.56C674.344 1008.92 674.978 1010.29 675.615 1011.65C680.469 1022.16 680.469 1022.16 679.937 1027.5C679.885 1028.21 679.832 1028.92 679.777 1029.66C677.549 1036.37 671.993 1039.63 666.032 1042.74C642.543 1054.42 615.492 1062.02 589.535 1065.49C586.043 1065.89 586.043 1065.89 583 1067C580.124 1067.37 577.258 1067.7 574.375 1068C573.25 1068.12 573.25 1068.12 572.102 1068.25C554.884 1070.05 537.67 1070.24 520.375 1070.25C518.53 1070.25 518.53 1070.25 516.647 1070.25C475.786 1070.23 429.854 1069.27 390.944 1055.66C388.515 1054.83 386.065 1054.25 383.562 1053.69C352.403 1046.03 352.403 1046.03 344.008 1034.95C341.266 1029.65 342.494 1024.76 344.078 1019.25C347.055 1010.2 350.849 1001.45 354.586 992.695C357.384 986.122 360.117 979.522 362.826 972.912C363.389 971.539 363.955 970.168 364.524 968.798C373.224 947.965 373.224 947.966 376.125 925.812C376.123 925.062 376.121 924.312 376.119 923.539C376.076 917.972 375.702 912.527 375 907C374.441 906.865 373.881 906.729 373.305 906.59C360.369 903.117 349.839 896.98 340 888C339.27 887.352 338.541 886.703 337.789 886.035C323.781 872.913 318.343 854.393 314.562 836.125C311.627 823.205 303.095 817.307 292.625 810.188C274.452 797.524 261.476 780.207 257.33 758.144C254.234 738.004 260.509 718.499 272.387 702.262C274.214 699.815 276.058 697.381 277.909 694.951C287.186 682.651 293.719 669.809 292 654C290.001 644.12 286.199 634.728 282.46 625.407C272.786 601.025 275.03 577.14 285.129 553.338C290.506 541.173 296.801 529.631 303.585 518.202C324.225 483.405 339.284 448.97 346.937 409.187C354.939 367.821 369.07 328.594 399 298C399.81 297.14 400.619 296.28 401.453 295.395C428.522 267.234 466.326 252.837 505 252.812Z" fill="#DA8074"/>
<path d="M125.386 595.891C152.138 607.24 176.743 621.985 198.669 641.108C200.822 642.986 202.991 644.84 205.183 646.673C213.235 653.429 220.817 660.53 228.207 668.002C229.956 669.769 231.713 671.527 233.471 673.285C239.189 679.021 244.785 684.797 250 691C250.959 692.115 251.919 693.23 252.879 694.344C257.783 700.097 262.558 705.877 267 712C266.403 713.29 266.403 713.29 265.793 714.606C257.192 733.795 255.246 751.949 262 772C268.915 789.764 282.032 802.392 297.617 812.662C311.31 821.933 314.934 832.036 318.435 847.584C323.133 867.926 333.775 884.027 351 896C357.356 899.63 363.75 902.631 370.75 904.813C373.397 905.863 374.646 906.374 376.055 908.867C376.732 911.625 376.902 914.159 377 917C377.077 918.289 377.155 919.578 377.234 920.906C377.657 930.825 376.261 939.584 373 949C372.71 949.838 372.42 950.676 372.121 951.54C367.411 964.91 361.966 977.943 356.327 990.944C353.376 997.755 350.498 1004.58 347.812 1011.5C347.533 1012.22 347.254 1012.93 346.966 1013.67C344.408 1020.35 341.832 1027.99 344.848 1034.96C354.261 1047.68 376.493 1051.47 391 1055C392.51 1055.38 394.021 1055.77 395.531 1056.15C417.071 1061.51 438.924 1064.79 461 1067C462.03 1067.11 463.06 1067.21 464.121 1067.32C482.664 1069.13 501.197 1069.18 519.812 1069.19C521.028 1069.19 522.244 1069.19 523.497 1069.19C537.032 1069.19 550.502 1069.06 564 1068C564.936 1067.93 565.872 1067.85 566.836 1067.78C569.103 1067.59 571.363 1067.37 573.625 1067.13C574.413 1067.04 575.201 1066.96 576.013 1066.87C583.451 1066.03 590.683 1064.58 598 1063C599.744 1062.68 599.744 1062.68 601.523 1062.35C624.94 1058.03 658.494 1051.49 676.324 1034.83C678.851 1030.56 679.629 1025.85 678.547 1020.95C677.811 1018.91 676.97 1016.97 676.055 1015C675.576 1013.91 675.576 1013.91 675.088 1012.8C674.081 1010.52 673.044 1008.26 672 1006C671.354 1004.58 670.709 1003.16 670.063 1001.74C668.443 998.192 666.797 994.659 665.146 991.128C644.567 946.997 644.567 946.997 644.812 927.938C644.813 926.983 644.814 926.028 644.814 925.045C644.846 919.929 645.126 915.041 646 910C651.472 914.899 652.945 922.553 654.688 929.438C659.299 947.233 664.826 964.998 674 981C674.574 982.008 675.147 983.016 675.738 984.055C683.886 997.577 695.506 1007.89 708.375 1016.81C709.236 1017.41 710.098 1018.01 710.985 1018.63C723.992 1027.55 737.704 1035.13 751.898 1041.98C753.892 1042.95 755.878 1043.93 757.864 1044.91C767.931 1049.82 778.097 1053.69 788.75 1057.13C790.332 1057.64 791.914 1058.16 793.495 1058.68C811.603 1064.66 811.603 1064.66 830.046 1069.45C835.022 1070.57 839.145 1072.4 843.625 1074.81C851.672 1078.99 859.941 1082.69 868.848 1084.62C873.907 1085.73 876.519 1087.01 879.625 1091.25C880.791 1093.14 881.913 1095.06 883 1097C883.499 1097.86 883.499 1097.86 884.008 1098.74C894.701 1117.24 900.312 1138.4 894.617 1159.69C886.806 1184.19 868.63 1202.15 846.202 1213.95C812.277 1231.2 767.131 1240.13 729 1239C728.948 1238.32 728.897 1237.64 728.844 1236.95C727.311 1224.37 718.531 1216.62 709 1209C689.637 1194.69 665.527 1187.47 642.02 1183.93C612.179 1179.43 591.595 1165.52 568.91 1146.22C565.342 1143.31 562.146 1140.95 557.355 1140.71C543.89 1142.35 530.491 1150.88 518.438 1156.73C512.223 1159.56 507.639 1161.11 501 1159C496.251 1157.16 491.617 1155.15 487 1153C487.016 1153.78 487.031 1154.57 487.048 1155.38C487.527 1183.01 483.191 1205.6 474 1231.63C473.692 1232.51 473.385 1233.4 473.068 1234.32C470.418 1241.62 467.055 1249.85 461 1255C457.254 1256.25 453.758 1256.16 449.855 1256.17C449.032 1256.17 448.208 1256.18 447.359 1256.18C444.635 1256.19 441.911 1256.19 439.188 1256.19C438.247 1256.19 437.306 1256.19 436.336 1256.19C386.699 1256.1 337.226 1251.02 288 1245C286.921 1244.87 286.921 1244.87 285.82 1244.74C239.959 1239.17 182.585 1231.25 150.344 1194.04C136.812 1176.51 127.658 1154.41 130 1132C132.785 1114.21 141.175 1099.74 151 1085C150.42 1085.2 149.84 1085.41 149.242 1085.62C148.461 1085.89 147.68 1086.16 146.875 1086.44C145.726 1086.84 145.726 1086.84 144.555 1087.25C122.556 1093.74 97.9011 1087.36 78.125 1077.13C66.8361 1070.61 52.9645 1059.88 47 1048C47.125 1044.5 47.125 1044.5 48 1042C48.66 1042 49.32 1042 50 1042C50 1041.34 50 1040.68 50 1040C49.34 1039.81 48.68 1039.63 48 1039.44C42.3328 1036.72 37.8265 1033.32 35.6875 1027.31C36 1024 36 1024 37.75 1021.56C42.548 1019.26 46.7629 1019.16 52 1020C56.0161 1021.86 59.4514 1024.31 63 1026.94C64.8317 1028.24 66.665 1029.54 68.5 1030.84C69.2941 1031.42 70.0881 1032 70.9062 1032.6C73.0401 1034.16 73.0401 1034.16 76 1035C75.7834 1034.36 75.5669 1033.71 75.3438 1033.05C72.2829 1023.12 71.5185 1012.92 75 1003C79.6134 994.597 85.8593 991.362 94.3906 987.723C97.7235 985.522 97.9587 983.767 99 980C100.547 977.926 101.46 977.172 103.918 976.391C117.263 975.564 129.515 986.893 139.57 994.473C144.646 998.27 149.957 1001.99 156 1004C156.206 1003.32 156.412 1002.64 156.625 1001.94C160.09 994.536 166.168 990.123 172.812 985.688C174.342 984.654 175.87 983.616 177.395 982.574C178.063 982.127 178.732 981.679 179.421 981.218C181.147 980.07 181.147 980.07 182 978C181.35 977.803 180.701 977.606 180.031 977.402C175.699 975.398 172.226 972.521 168.5 969.563C167.703 968.936 166.907 968.309 166.086 967.663C159.256 962.263 152.565 956.72 146 951C145.131 950.243 144.262 949.487 143.367 948.707C133.391 939.872 124.123 930.578 116 920C115.486 919.335 114.971 918.67 114.441 917.985C105.354 906.166 97.3936 893.938 90 881C89.5567 880.233 89.1134 879.466 88.6567 878.676C62.4432 833.23 62.4432 833.23 66 811C68.0911 806.383 71.0666 804.536 75.375 802.063C83.9276 799.556 91.5752 801.85 100 803.938C106.991 805.646 113.828 807.306 121 808C120.76 807.431 120.52 806.862 120.272 806.276C114.514 792.523 109.384 778.647 104.688 764.5C104.44 763.756 104.192 763.012 103.936 762.245C100.387 751.564 97.0978 740.821 94 730C93.7228 729.035 93.4455 728.07 93.1599 727.076C89.2854 713.278 86.671 699.299 84.25 685.188C84.1013 684.329 83.9526 683.471 83.7994 682.586C80.7463 664.84 78.6257 647.28 78.6294 629.253C78.6249 626.84 78.5881 624.428 78.5508 622.016C78.4797 612.191 79.3598 604.655 85.375 596.625C96.1362 585.864 112.942 590.85 125.386 595.891Z" fill="#B2CFB5"/>
<path d="M505 252.812C506.003 252.8 507.006 252.788 508.039 252.775C521.628 252.749 535.906 255.104 546 265C547.219 267.187 547.219 267.187 548 269C548.66 268.67 549.32 268.34 550 268C574.088 265.973 598.048 278.589 615.965 293.461C650.53 323.328 660.762 368.835 667.242 412.07C672.835 449.366 686.981 481.876 704.048 515.179C727.45 560.9 727.45 560.9 727.312 585.625C727.308 586.683 727.303 587.742 727.298 588.832C727.168 597.534 726.008 605.528 724 614C719.004 635.455 714.746 654.243 726.5 674.25C729.722 679.28 733.242 684.012 736.875 688.75C754.989 712.471 763.291 735.938 761 766C759.465 776.531 755.933 786.597 751 796C750.212 797.547 749.424 799.094 748.637 800.641C747.76 802.345 746.881 804.048 746 805.75C745.377 806.958 745.377 806.958 744.741 808.189C742.157 813.097 739.325 817.559 736 822C733.468 819.468 733.333 817.78 732.59 814.289C732.327 813.081 732.064 811.874 731.792 810.63C731.654 809.979 731.515 809.328 731.372 808.658C730.622 805.152 729.845 801.652 729.066 798.152C728.902 797.414 728.738 796.675 728.569 795.913C724.153 776.189 719.275 756.462 713.595 737.063C712.923 734.733 712.287 732.394 711.648 730.055C708.561 718.972 704.586 709.055 699 699C698.496 698.068 697.992 697.136 697.473 696.176C678.94 663.474 645.678 650.01 611.703 638.941C570.875 625.638 570.875 625.638 563.32 611.746C559.539 603.882 557.63 596.772 557.437 588.062C557.397 586.98 557.397 586.98 557.356 585.875C557.383 582.149 557.794 580.261 560.121 577.316C563.259 574.791 566.411 572.303 569.625 569.875C589.636 554.357 603.03 534.606 612.387 511.22C612.857 510.051 612.857 510.051 613.336 508.859C613.61 508.163 613.883 507.467 614.165 506.749C615 505 615 505 617 503C619.199 502.662 621.411 502.403 623.625 502.187C629.963 501.346 634.117 500.097 639 496C639.579 495.564 640.158 495.129 640.754 494.68C649.784 486.963 655.522 472.511 657 461C657.781 451.011 658.021 441.335 651.492 433.098C647.828 429.476 644.281 428.01 639.141 427.766C634.569 428.266 631.931 430.949 629.004 434.254C626.867 437.182 625.581 439.947 624.25 443.312C623.822 444.381 623.394 445.45 622.953 446.551C622.639 447.359 622.324 448.167 622 449C619.716 445.574 618.868 442.229 617.812 438.312C610.757 413.529 596.629 394.258 580.13 374.892C563.132 354.89 552.487 336.212 545 311C544.38 311.678 543.76 312.356 543.121 313.055C527.875 329.078 507.806 338.49 488.578 348.953C453.491 368.058 417.491 390.101 404.965 430.422C403.665 435.241 402.688 440.058 402 445C400.68 445 399.36 445 398 445C397.636 444.252 397.273 443.505 396.898 442.734C393.046 434.818 393.046 434.818 386 430C381.032 429.16 376.568 429.187 372.187 431.875C366.664 436.639 364.102 442.18 363.555 449.418C362.936 465.044 366.836 477.869 376.437 490.312C380.628 494.708 385.143 498.19 391 500C392.958 500.032 394.917 500.06 396.875 500.019C405.77 499.939 405.77 499.939 408.875 502.617C410.237 505.351 411.096 508.08 412 511C413.214 514.087 414.516 517.135 415.812 520.187C416.155 521.008 416.497 521.829 416.85 522.675C424.818 541.657 435.636 559.074 453.5 570.25C458.479 573.393 460.571 575.284 462 581C462.175 581.647 462.349 582.294 462.529 582.961C465.827 597.247 461.716 610.078 456 623C455.582 623.957 455.164 624.914 454.734 625.899C452.905 630.083 451.065 634.262 449.208 638.433C437.858 663.968 427.154 688.638 436.237 716.624C437.565 720.759 438.801 724.921 440.045 729.082C440.747 731.427 441.459 733.769 442.182 736.108C445.371 746.622 447.39 756.865 447.312 767.875C447.307 768.736 447.301 769.597 447.295 770.483C446.837 794.824 435.265 814.601 421.492 833.844C413.603 845.243 410.507 856.171 412 870C413.714 878.471 417.059 886.352 424.164 891.598C426.077 892.811 427.997 893.943 430 895C429.791 898.654 429.097 899.901 426.5 902.562C414.424 911.787 398.04 911.499 383.588 909.7C362.593 905.984 342.86 894.458 330.008 877.348C321.658 864.858 317.581 850.71 314.562 836.125C311.627 823.205 303.095 817.307 292.625 810.188C274.452 797.524 261.476 780.207 257.33 758.144C254.234 738.004 260.509 718.499 272.387 702.262C274.214 699.815 276.058 697.381 277.909 694.951C287.186 682.651 293.719 669.809 292 654C290.001 644.12 286.199 634.728 282.46 625.407C272.786 601.025 275.03 577.14 285.129 553.338C290.506 541.173 296.801 529.631 303.585 518.202C324.225 483.405 339.284 448.97 346.937 409.187C354.939 367.821 369.07 328.594 399 298C399.81 297.14 400.619 296.28 401.453 295.395C428.522 267.234 466.326 252.837 505 252.812Z" fill="#49362B"/>
<path d="M511.812 164.75C513.251 164.755 513.251 164.755 514.718 164.76C599.338 165.115 674.582 199.181 734.375 258.25C738.43 262.364 742.312 266.554 746 271C746.42 271.506 746.84 272.012 747.272 272.533C764.41 293.302 779.312 315.575 790.223 340.262C790.893 341.76 791.599 343.241 792.312 344.719C805.372 371.869 811.381 401.292 815 431C815.177 432.25 815.353 433.501 815.535 434.789C816.096 439.297 816.162 443.762 816.168 448.301C816.171 449.177 816.175 450.052 816.178 450.955C816.183 452.805 816.185 454.654 816.185 456.504C816.187 459.267 816.206 462.029 816.225 464.791C816.282 482.826 814.222 500.279 811 518C810.786 519.228 810.572 520.457 810.352 521.723C806.949 540.115 801.075 557.719 794 575C793.533 576.146 793.533 576.146 793.056 577.314C780.158 608.514 761.471 637.492 739.756 663.256C737.11 666.399 734.597 669.53 732.281 672.926C730 676 730 676 727 677C725.867 674.816 724.744 672.628 723.625 670.437C723.149 669.524 723.149 669.524 722.664 668.592C713.781 651.103 718.639 633.186 722.902 615.135C727.431 595.945 728.145 575.908 722 557C721.796 556.363 721.593 555.725 721.383 555.068C716.302 539.591 708.703 524.965 701.062 510.625C693.094 495.634 685.765 480.464 679.625 464.625C679.036 463.113 679.036 463.113 678.436 461.57C672.182 445.037 668.691 428.741 666 411.312C661.538 382.333 661.538 382.333 653.688 354.125C653.397 353.27 653.106 352.416 652.807 351.535C649.913 343.303 646.196 335.635 642 328C641.447 326.957 640.894 325.914 640.324 324.84C625.217 297.473 600.921 279.792 571.258 270.875C566.454 269.585 561.957 268.901 557 269.152C553.924 269.307 551.057 269.388 548 269C545.438 266.375 545.438 266.375 544.395 264.727C538.764 257.755 527.814 255.229 519.38 254.212C481.184 250.814 442.659 261.385 413 286C408.887 289.55 404.933 293.253 401 297C400.219 297.717 399.438 298.433 398.633 299.172C367.474 328.667 355.021 373.132 346.828 413.724C339.03 452.185 324.088 485.356 304.176 519.111C287.976 546.671 271.952 576.284 278.039 609.367C280.104 617.174 283.091 624.696 285.957 632.238C296.041 658.937 296.041 658.937 291.984 668.359C291.66 668.901 291.335 669.442 291 670C290.34 670 289.68 670 289 670C286.287 667.122 283.907 663.959 281.461 660.853C279.889 658.859 278.302 656.877 276.715 654.895C263.212 637.909 252.04 620.229 242 601C241.608 600.254 241.216 599.509 240.812 598.741C222.663 564.066 213.725 526.682 209 488C208.895 487.201 208.789 486.402 208.681 485.58C207.791 478.096 207.814 470.586 207.815 463.061C207.813 460.768 207.794 458.476 207.775 456.184C207.745 447.964 208.17 440.14 209.539 432.018C209.997 429.018 210.195 426.093 210.312 423.062C212.152 397.641 221.082 371.462 231.069 348.185C231.94 346.141 232.776 344.086 233.602 342.023C245.105 313.85 263.087 288.789 283 266C283.445 265.491 283.889 264.982 284.347 264.457C291.415 256.421 299.005 249.106 307 242C307.817 241.265 307.817 241.265 308.651 240.516C318.24 231.927 328.421 224.323 339 217C339.668 216.532 340.336 216.065 341.024 215.583C364.491 199.277 391.568 186.103 419 178C419.655 177.805 420.309 177.61 420.983 177.409C430.995 174.47 441.158 172.245 451.387 170.208C453.291 169.829 455.194 169.442 457.096 169.055C475.238 165.548 493.37 164.641 511.812 164.75Z" fill="#FEDEA6"/>
<path d="M565.087 1142.39C566.148 1143.25 566.148 1143.25 567.23 1144.14C568.409 1145.08 568.409 1145.08 569.612 1146.05C570.4 1146.7 571.188 1147.34 572 1148C573.428 1149.13 574.857 1150.27 576.289 1151.39C577.348 1152.23 577.348 1152.23 578.429 1153.09C598.647 1168.98 616.579 1179.33 642.5 1182.81C672.178 1187.16 705.16 1198.62 724.504 1222.89C728.7 1228.59 729.112 1232.18 729 1239C810.579 1231.84 810.579 1231.84 877.563 1189C878.037 1188.34 878.511 1187.68 879 1187C886.387 1188.41 893.096 1190.75 900.063 1193.56C901.163 1194.01 902.263 1194.45 903.397 1194.91C920.863 1202.1 937.917 1210.58 947 1228C949.364 1235.09 949.366 1245.93 946.5 1252.94C945.379 1254.96 945.379 1254.96 944 1257C943.452 1257.82 942.904 1258.63 942.34 1259.48C920.826 1288.72 872.563 1300.07 839.139 1307.51C836.389 1308.14 833.664 1308.85 830.938 1309.56C823.435 1311.46 815.83 1312.89 808.235 1314.36C805.739 1314.85 803.25 1315.37 800.761 1315.9C787.292 1318.74 773.778 1320.66 760.125 1322.38C758.97 1322.52 757.815 1322.67 756.624 1322.82C717.565 1327.79 678.446 1332.61 639.119 1334.82C636.938 1334.95 634.757 1335.07 632.576 1335.2C544.827 1340.29 456.658 1339.35 369 1333C368.292 1332.95 367.585 1332.9 366.856 1332.85C353.839 1331.91 340.851 1330.78 327.882 1329.32C324.57 1328.95 321.256 1328.61 317.941 1328.27C281.532 1324.42 245.241 1319.19 209.375 1311.81C208.381 1311.61 207.387 1311.4 206.363 1311.19C105.968 1290.44 105.968 1290.44 82.3672 1258.14C76.6534 1249.19 75.3119 1238.7 77.5781 1228.36C84.2451 1211.48 103.279 1201.89 119 1195C123.064 1193.28 127.149 1191.63 131.25 1190C132.251 1189.6 133.252 1189.2 134.283 1188.79C135.226 1188.43 136.169 1188.06 137.141 1187.69C138.402 1187.2 138.402 1187.2 139.688 1186.7C142 1186 142 1186 146 1186C147.422 1187.43 147.422 1187.43 148.75 1189.44C171.035 1220.82 212.009 1231.19 248 1238C249.33 1238.25 249.33 1238.25 250.686 1238.51C312.141 1250.04 376.585 1254.9 439.062 1255.31C439.984 1255.32 440.906 1255.33 441.856 1255.34C444.458 1255.37 447.058 1255.37 449.66 1255.36C450.818 1255.38 450.818 1255.38 452 1255.39C456.521 1255.35 459.457 1254.87 463 1252C467.928 1245.74 470.798 1238.17 473.5 1230.75C473.882 1229.71 474.263 1228.68 474.656 1227.61C477.185 1220.61 479.447 1213.55 481.438 1206.38C481.672 1205.54 481.907 1204.7 482.148 1203.83C485.386 1191.58 486.316 1179.26 486.625 1166.63C486.663 1165.29 486.702 1163.96 486.742 1162.63C486.835 1159.42 486.921 1156.21 487 1153C492.014 1153.91 496.096 1155.82 500.672 1158.04C509.49 1160.59 516.817 1156.63 524.688 1152.81C526.811 1151.81 528.934 1150.81 531.059 1149.81C532.586 1149.08 532.586 1149.08 534.144 1148.34C537.817 1146.62 541.518 1144.97 545.25 1143.38C546.286 1142.93 547.323 1142.48 548.391 1142.02C554.104 1139.78 559.711 1138.81 565.087 1142.39Z" fill="#FED78F"/>
<path d="M125.386 595.891C152.138 607.24 176.743 621.985 198.669 641.108C200.822 642.986 202.991 644.84 205.183 646.673C213.235 653.429 220.817 660.53 228.207 668.002C229.956 669.769 231.713 671.527 233.471 673.285C239.189 679.021 244.785 684.797 250 691C250.959 692.115 251.919 693.23 252.879 694.344C257.783 700.097 262.558 705.877 267 712C266.403 713.29 266.403 713.29 265.793 714.606C257.192 733.795 255.246 751.949 262 772C268.915 789.764 282.032 802.392 297.617 812.662C311.31 821.933 314.934 832.036 318.435 847.584C323.132 867.921 333.774 884.035 351 896C357.952 900.111 365.359 903.402 373 906C372.332 911 370.949 915.506 369.312 920.25C368.758 921.868 368.205 923.487 367.652 925.105C367.372 925.925 367.093 926.744 366.804 927.587C366.061 929.816 365.366 932.051 364.691 934.301C359.254 952.124 351.286 970.094 340 985C339.256 986.035 338.512 987.07 337.746 988.137C308.458 1028.3 258.75 1046.61 212.738 1060.1C206.74 1061.86 200.763 1063.67 194.82 1065.61C193.628 1066 192.436 1066.39 191.208 1066.79C187.357 1068.24 184.131 1070.19 180.684 1072.4C171.586 1077.82 161.32 1081.36 151.375 1084.88C150.534 1085.17 149.693 1085.47 148.827 1085.78C126.126 1093.61 102.075 1088.39 80.8945 1078.56C68.5105 1072.15 53.3903 1060.73 47 1048C47.125 1044.5 47.125 1044.5 48 1042C48.66 1042 49.32 1042 50 1042C50 1041.34 50 1040.68 50 1040C49.34 1039.81 48.68 1039.63 48 1039.44C42.3328 1036.72 37.8265 1033.32 35.6875 1027.31C36 1024 36 1024 37.75 1021.56C42.548 1019.26 46.7629 1019.16 52 1020C56.0161 1021.86 59.4514 1024.31 63 1026.94C64.8317 1028.24 66.665 1029.54 68.5 1030.84C69.2941 1031.42 70.0881 1032 70.9062 1032.6C73.0401 1034.16 73.0401 1034.16 76 1035C75.7834 1034.36 75.5669 1033.71 75.3438 1033.05C72.2829 1023.12 71.5185 1012.92 75 1003C79.6134 994.597 85.8593 991.362 94.3906 987.723C97.7235 985.522 97.9587 983.767 99 980C100.547 977.926 101.46 977.172 103.918 976.391C117.263 975.564 129.515 986.893 139.57 994.473C144.646 998.27 149.957 1001.99 156 1004C156.206 1003.32 156.412 1002.64 156.625 1001.94C160.09 994.536 166.168 990.123 172.812 985.688C174.342 984.654 175.87 983.616 177.395 982.574C178.063 982.127 178.732 981.679 179.421 981.218C181.147 980.07 181.147 980.07 182 978C181.35 977.803 180.701 977.606 180.031 977.402C175.699 975.398 172.226 972.521 168.5 969.563C167.703 968.936 166.907 968.309 166.086 967.663C159.256 962.263 152.565 956.72 146 951C145.131 950.243 144.262 949.487 143.367 948.707C133.391 939.872 124.123 930.578 116 920C115.486 919.335 114.971 918.67 114.441 917.985C105.354 906.166 97.3936 893.938 90 881C89.5567 880.233 89.1134 879.466 88.6567 878.676C62.4432 833.23 62.4432 833.23 66 811C68.0911 806.383 71.0666 804.536 75.375 802.063C83.9276 799.556 91.5752 801.85 100 803.938C106.991 805.646 113.828 807.306 121 808C120.76 807.431 120.52 806.862 120.272 806.276C114.514 792.523 109.384 778.647 104.688 764.5C104.44 763.756 104.192 763.012 103.936 762.245C100.387 751.564 97.0978 740.821 94 730C93.7228 729.035 93.4455 728.07 93.1599 727.076C89.2854 713.278 86.671 699.299 84.25 685.188C84.1013 684.329 83.9526 683.471 83.7994 682.586C80.7463 664.84 78.6257 647.28 78.6294 629.253C78.6249 626.84 78.5881 624.428 78.5508 622.016C78.4797 612.191 79.3598 604.655 85.375 596.625C96.1362 585.864 112.942 590.85 125.386 595.891Z" fill="#A3C398"/>
<path d="M545 310C546.766 312.649 547.443 314.134 548.227 317.105C553.897 337.744 562.859 352.756 576.768 369.002C581.593 374.647 586.181 380.463 590.715 386.342C591.913 387.887 593.126 389.421 594.34 390.953C606.56 406.674 615.52 423.742 620.238 443.113C620.708 445.876 620.708 445.876 622 447C622.268 446.215 622.536 445.43 622.812 444.621C625.775 436.68 629.227 430.886 637 427C642.235 426.652 646.195 427.654 650.312 430.938C656.622 437.184 658.365 443.948 658.5 452.688C658.281 468.279 652.86 483.103 642.188 494.562C635.981 500.347 630.161 503.037 621.688 503.125C619.202 503.21 619.202 503.21 617 504C614.468 506.959 613.333 510.375 612 514C601.602 539.619 585.548 560.031 562.957 575.82C559.974 577.674 559.974 577.674 559 580C557.751 593.562 559.988 605.447 567.312 617.125C570.784 620.839 574.648 623.412 579 626C572.867 660.963 546.417 699.92 522 725C521.408 725.651 520.817 726.302 520.207 726.973C517.816 729.375 516.156 730.84 512.742 731.312C507.021 731.01 504.926 729.197 501 725C500.051 724.109 499.103 723.219 498.125 722.301C489.746 714.357 483.009 705.699 476.496 696.184C475.118 694.172 473.718 692.177 472.312 690.184C463.72 677.844 456.77 664.544 450.812 650.75C450.357 649.732 450.357 649.732 449.892 648.694C447.618 643.193 447.712 639.289 449.873 633.771C450.971 631.26 452.133 628.787 453.312 626.312C454.134 624.52 454.951 622.725 455.766 620.93C456.154 620.073 456.543 619.217 456.943 618.335C462.055 607.04 462.845 597.247 462 585C461.937 583.98 461.874 582.961 461.809 581.91C460.904 576.754 458.67 574.453 454.441 571.423C453.217 570.59 451.987 569.766 450.753 568.95C427.151 553.325 417.081 527.316 407 502C405.938 501.974 404.876 501.948 403.781 501.922C388.932 501.399 388.932 501.399 383 497C382.008 496.29 382.008 496.29 380.996 495.566C371.106 487.741 365.705 476.11 363 464C362.057 454.028 361.33 443.131 368 435C371.866 430.774 375.339 428.653 381.125 428.375C385.766 428.702 388.528 429.77 392 433C394.777 436.774 396.939 440.802 399 445C399.66 445 400.32 445 401 445C401.231 443.84 401.461 442.68 401.699 441.484C408.47 408.545 428.838 384.963 456.486 366.618C469.372 358.323 482.862 351.021 496.375 343.812C514.221 334.292 530.939 324.768 545 310Z" fill="#FEAD7D"/>
<path d="M934.523 593.75C940.049 598.428 941.02 604.183 942 611C942.268 614.859 942.285 618.695 942.25 622.562C942.242 624.18 942.242 624.18 942.234 625.831C942.11 636.645 941.307 647.376 940.273 658.137C940.02 660.787 939.789 663.438 939.562 666.09C938.611 676.698 936.809 687.003 934.553 697.408C934.004 699.982 933.489 702.562 932.98 705.145C925.806 740.817 913.925 775.444 900 809C901.338 808.636 901.338 808.636 902.703 808.266C906.05 807.362 909.399 806.469 912.75 805.582C914.193 805.198 915.635 804.81 917.076 804.418C937.34 798.911 937.34 798.911 946.98 803.824C950.157 805.674 951.971 806.859 954 810C955.297 818.273 953.452 826.131 951 834C950.795 834.674 950.591 835.349 950.38 836.043C936.388 881.451 908.304 927.163 870.699 956.863C867.803 959.156 864.999 961.542 862.187 963.938C855.728 969.345 848.913 974.193 842 979C836.842 976.216 832.39 973.099 827.875 969.375C826.552 968.298 825.227 967.223 823.902 966.148C823.246 965.616 822.59 965.083 821.914 964.534C819.129 962.302 816.284 960.152 813.437 958C808.158 953.986 803.109 949.741 798.098 945.397C794.531 942.305 790.922 939.281 787.25 936.312C768.806 921.259 760.124 906.475 752.875 884.062C752.359 882.493 751.842 880.923 751.324 879.354C747.234 866.915 743.31 854.432 739.812 841.812C739.553 840.906 739.293 839.999 739.025 839.064C734.565 822.941 734.565 822.941 737.59 817.305C738.349 816.146 739.133 815.003 739.937 813.875C740.78 812.584 741.617 811.289 742.449 809.992C742.876 809.336 743.304 808.679 743.744 808.003C750.163 797.769 754.749 786.606 758 775C758.185 774.34 758.371 773.68 758.562 773C760.213 766.495 760.384 760.126 760.375 753.437C760.374 752.292 760.373 751.147 760.372 749.967C760.244 740.748 758.99 732.723 756 724C755.692 723.095 755.384 722.19 755.066 721.258C754.426 719.487 753.724 717.738 753 716C753.721 715.308 754.441 714.616 755.184 713.902C758.084 711 760.576 707.819 763.062 704.562C778.248 684.999 795.147 665.666 814.09 649.641C815.423 648.496 816.726 647.315 818.004 646.109C838.974 626.416 903.272 573.925 934.523 593.75Z" fill="#A3C298"/>
<path d="M287 806C301.223 814.746 312.323 822.017 316.479 838.954C316.974 841.092 317.458 843.233 317.938 845.375C322.72 866.634 332.894 883.424 351 896C357.952 900.111 365.359 903.402 373 906C372.332 911 370.949 915.506 369.312 920.25C368.758 921.868 368.205 923.487 367.652 925.105C367.372 925.925 367.093 926.744 366.804 927.587C366.061 929.816 365.366 932.051 364.691 934.301C359.254 952.124 351.286 970.094 340 985C339.256 986.035 338.512 987.07 337.746 988.137C308.458 1028.3 258.75 1046.61 212.738 1060.1C206.74 1061.86 200.763 1063.67 194.82 1065.61C193.628 1066 192.436 1066.39 191.208 1066.79C187.357 1068.24 184.131 1070.19 180.684 1072.4C171.586 1077.82 161.32 1081.36 151.375 1084.88C150.534 1085.17 149.693 1085.47 148.827 1085.78C126.126 1093.61 102.075 1088.39 80.8945 1078.56C68.5105 1072.15 53.3903 1060.73 47 1048C47.125 1044.5 47.125 1044.5 48 1042C48.66 1042 49.32 1042 50 1042C50 1041.34 50 1040.68 50 1040C49.34 1039.81 48.68 1039.63 48 1039.44C42.3328 1036.72 37.8265 1033.32 35.6875 1027.31C36 1024 36 1024 37.75 1021.56C42.548 1019.26 46.7629 1019.16 52 1020C56.0161 1021.86 59.4514 1024.31 63 1026.94C64.8317 1028.24 66.665 1029.54 68.5 1030.84C69.2941 1031.42 70.0881 1032 70.9062 1032.6C73.0401 1034.16 73.0401 1034.16 76 1035C75.7834 1034.36 75.5669 1033.71 75.3438 1033.05C72.2829 1023.12 71.5185 1012.92 75 1003C79.6134 994.597 85.8593 991.362 94.3906 987.723C97.7235 985.522 97.9587 983.767 99 980C100.547 977.926 101.46 977.172 103.918 976.391C117.263 975.564 129.515 986.893 139.57 994.473C144.646 998.27 149.957 1001.99 156 1004C156.309 1002.98 156.309 1002.98 156.625 1001.94C160 994.727 165.884 990.33 172.312 985.938C181.604 979.405 190.34 972.341 199 965C199.64 964.459 200.28 963.918 200.939 963.361C206.766 958.429 212.537 953.447 218.188 948.312C221.501 945.302 224.889 942.434 228.375 939.625C232.402 936.345 236.371 933.016 240.25 929.562C241.65 928.327 241.65 928.327 243.078 927.066C249.755 920.476 254.017 912.698 257.125 903.938C257.488 902.941 257.852 901.944 258.226 900.917C269.343 869.82 278.737 837.964 287 806Z" fill="#DA8074"/>
<path d="M565.087 1142.39C565.794 1142.97 566.502 1143.54 567.23 1144.14C568.409 1145.08 568.409 1145.08 569.612 1146.05C570.4 1146.7 571.188 1147.34 572 1148C573.428 1149.13 574.857 1150.27 576.289 1151.39C576.995 1151.95 577.701 1152.51 578.429 1153.09C598.647 1168.98 616.579 1179.33 642.5 1182.81C672.178 1187.16 705.16 1198.62 724.504 1222.89C728.417 1228.2 729.673 1232.43 729 1239C727.201 1244.2 724.749 1246.33 720 1249C707.911 1253.03 691.38 1248.24 679.363 1245.54C657.867 1240.83 637.058 1240.09 615.112 1240.12C610.226 1240.13 605.34 1240.09 600.454 1240.06C590.113 1240.01 579.773 1240 569.432 1240C562.888 1240 556.345 1239.99 549.801 1239.98C523.534 1239.93 497.267 1239.94 471 1240C471.575 1236.41 472.189 1233.08 473.453 1229.67C473.74 1228.88 474.028 1228.09 474.323 1227.28C474.782 1226.03 474.782 1226.03 475.25 1224.75C477.627 1218.09 479.883 1211.43 481.812 1204.63C482.007 1203.96 482.201 1203.3 482.401 1202.62C485.648 1190.84 486.328 1178.77 486.625 1166.63C486.663 1165.29 486.702 1163.96 486.742 1162.63C486.835 1159.42 486.921 1156.21 487 1153C492.014 1153.91 496.096 1155.82 500.672 1158.04C509.49 1160.59 516.817 1156.63 524.688 1152.81C526.811 1151.81 528.934 1150.81 531.059 1149.81C532.586 1149.08 532.586 1149.08 534.144 1148.34C537.817 1146.62 541.518 1144.97 545.25 1143.38C546.286 1142.93 547.323 1142.48 548.391 1142.02C554.104 1139.78 559.711 1138.81 565.087 1142.39Z" fill="#FEAD7E"/>
<path d="M913.813 976.562C914.747 976.564 915.682 976.565 916.645 976.566C917.422 976.709 918.199 976.852 919 977C921 980 921 980 921.875 983C923.156 986.417 924.006 987.065 927 989C928.595 989.708 930.2 990.395 931.813 991.062C938.422 994.313 942.136 999.386 944.871 1006.16C947.32 1015.21 946.837 1025.15 944 1034C954.804 1027.95 954.804 1027.95 965.133 1021.13C969.197 1018.67 973.335 1018.68 978 1019C981.438 1020.5 981.438 1020.5 984 1022C984.554 1025.8 984.74 1027.88 982.582 1031.14C979.665 1034.5 976.711 1037.52 973 1040C972.34 1040 971.68 1040 971 1040C971 1040.66 971 1041.32 971 1042C971.99 1042.33 972.98 1042.66 974 1043C973.341 1051.22 969.377 1055.09 964 1061C963.232 1061.86 962.463 1062.72 961.672 1063.61C947.936 1078.24 927.185 1089 907 1090C905.76 1090.08 904.52 1090.15 903.242 1090.23C881.661 1091.13 859.643 1084.75 840.563 1074.87C839.612 1074.39 839.612 1074.39 838.643 1073.89C835.218 1072.02 833.32 1070.69 832 1067C831.575 1066.12 831.149 1065.24 830.711 1064.34C825.971 1053.83 825.839 1046.68 829.813 1035.88C835.696 1021.62 845.74 1011.2 860.063 1005.19C861.032 1004.8 862.001 1004.4 863 1004C863.66 1003.34 864.32 1002.68 865 1002C865.714 1001.89 866.428 1001.77 867.164 1001.65C871.061 1000.76 874.062 998.71 877.375 996.562C878.07 996.12 878.766 995.678 879.482 995.222C884.996 991.697 890.451 988.081 895.863 984.401C897.564 983.249 899.276 982.118 901 981C901.589 980.617 902.177 980.233 902.783 979.839C906.567 977.508 909.371 976.469 913.813 976.562Z" fill="#FEAD7D"/>
<path d="M108.875 976.34C120.298 978.753 130.448 987.596 139.57 994.473C144.646 998.27 149.957 1001.99 156 1004C156 1004.66 156 1005.32 156 1006C156.884 1006.12 157.769 1006.23 158.68 1006.35C170.593 1008.68 181.559 1018.82 188.5 1028.44C193.529 1036.78 196.486 1046.24 195 1056C192.234 1064.67 185.797 1069.86 178 1074C169.331 1078.18 160.446 1081.67 151.375 1084.87C150.534 1085.17 149.693 1085.47 148.827 1085.78C126.127 1093.61 102.075 1088.39 80.8945 1078.56C68.5105 1072.15 53.3903 1060.73 47 1048C47.125 1044.5 47.125 1044.5 48 1042C48.66 1042 49.32 1042 50 1042C50 1041.34 50 1040.68 50 1040C49.01 1039.72 49.01 1039.72 48 1039.44C42.3328 1036.72 37.8265 1033.32 35.6875 1027.31C36 1024 36 1024 37.75 1021.56C42.548 1019.26 46.7629 1019.16 52 1020C56.0161 1021.86 59.4514 1024.31 63 1026.94C64.8317 1028.24 66.665 1029.54 68.5 1030.84C69.2941 1031.42 70.0881 1032 70.9062 1032.6C73.0401 1034.16 73.0401 1034.16 76 1035C75.7834 1034.36 75.5669 1033.71 75.3438 1033.05C72.2829 1023.12 71.5185 1012.92 75 1003C79.6134 994.597 85.8593 991.362 94.3906 987.723C97.7235 985.522 97.9587 983.767 99 980C101.754 976.307 104.464 976.192 108.875 976.34Z" fill="#FEAD7D"/>
<path d="M557 580C557.33 580 557.66 580 558 580C558.004 581.562 558.004 581.562 558.008 583.156C558.271 596.163 560.788 610.146 570 620C572.901 622.18 575.882 624.145 579 626C572.867 660.963 546.417 699.92 522 725C521.112 725.976 521.112 725.976 520.207 726.973C517.816 729.375 516.156 730.84 512.742 731.312C507.021 731.01 504.926 729.197 501 725C499.577 723.664 499.577 723.664 498.125 722.301C489.746 714.357 483.009 705.699 476.496 696.184C475.118 694.172 473.718 692.177 472.312 690.184C463.72 677.844 456.77 664.544 450.812 650.75C450.357 649.732 450.357 649.732 449.892 648.694C447.638 643.241 447.676 639.32 449.857 633.852C450.944 631.42 452.09 629.023 453.25 626.625C458.171 616.111 461.884 605.44 464 594C464.678 594.375 465.356 594.75 466.055 595.137C469.029 596.772 472.014 598.387 475 600C475.79 600.441 476.58 600.882 477.395 601.336C495.982 611.279 520.065 614.889 540.553 609.405C546.578 607.556 551.419 605.189 557 602C557 594.74 557 587.48 557 580Z" fill="#FEAD7D"/>
<path d="M883 640C885.125 640.375 885.125 640.375 887 641C888.293 644.792 888.506 646.859 886.859 650.574C885.339 653.178 883.765 655.735 882.124 658.265C880.566 660.67 879.055 663.102 877.539 665.533C876.707 666.867 875.874 668.199 875.039 669.531C862.014 690.312 849.626 711.472 839.488 733.832C838 737 838 737 836 740C836.944 739.299 837.887 738.598 838.859 737.875C849.399 730.074 860.154 722.711 871.266 715.742C873.171 714.528 875.055 713.281 876.922 712.008C877.876 711.366 878.83 710.724 879.812 710.062C880.665 709.476 881.517 708.889 882.395 708.285C885.463 706.771 887.621 706.758 891 707C891.829 711.963 891.829 711.963 891 715C888.184 717.775 884.831 719.498 881.375 721.375C879.425 722.505 877.477 723.64 875.531 724.777C874.577 725.326 873.623 725.875 872.641 726.441C869.254 728.441 866.047 730.616 862.875 732.938C862.077 733.519 862.077 733.519 861.263 734.112C860.14 734.935 859.019 735.762 857.9 736.591C855.674 738.242 853.438 739.881 851.203 741.52C845.186 745.935 845.186 745.935 839.196 750.386C837.761 751.441 836.305 752.467 834.827 753.461C829.604 757.061 826.855 760.752 824 766.375C823.581 767.164 823.162 767.952 822.731 768.765C821.465 771.166 820.228 773.58 819 776C818.639 776.706 818.277 777.412 817.905 778.139C815.889 782.088 813.919 786.059 811.968 790.041C810.996 792.009 810.005 793.966 809.008 795.922C802.362 808.981 796.23 822.305 791 836C791.764 835.466 792.529 834.933 793.316 834.383C808.584 823.763 824.086 813.631 840 804C840.787 803.52 841.575 803.04 842.386 802.545C844.539 801.241 846.703 799.96 848.875 798.688C849.498 798.308 850.121 797.929 850.763 797.539C854.989 795.116 858.169 794.636 863 795C863.375 797.688 863.375 797.688 863 801C859.001 804.811 854.678 807.467 849.812 810.062C831.804 819.941 814.502 831.404 797.917 843.514C797.389 843.897 796.861 844.281 796.316 844.676C795.788 845.062 795.259 845.447 794.715 845.845C793 847 793 847 790.957 848.098C785.137 851.276 783.127 854.542 780.875 860.688C780.547 861.522 780.219 862.356 779.882 863.216C776.872 870.998 774.221 878.907 771.688 886.855C770.573 890.331 769.41 893.79 768.25 897.25C767.863 898.41 767.477 899.57 767.078 900.766C766.052 903.844 765.026 906.922 764 910C760.78 908.39 760.219 905.03 759 901.812C758.7 901.027 758.4 900.242 758.092 899.433C751.351 881.478 745.423 863.266 740.437 844.75C740.103 843.52 739.769 842.29 739.424 841.022C734.652 822.829 734.652 822.829 737.59 817.305C738.349 816.146 739.133 815.003 739.937 813.875C740.78 812.584 741.617 811.289 742.449 809.992C742.876 809.336 743.304 808.679 743.744 808.003C750.163 797.769 754.749 786.606 758 775C758.186 774.341 758.372 773.681 758.564 773.002C760.229 766.471 760.343 760.089 760.312 753.375C760.312 752.232 760.311 751.088 760.311 749.91C760.227 742.169 759.474 735.052 757.559 727.562C757 725 757 725 758 723C758.99 723 759.98 723 761 723C763.645 728.481 764.786 733.485 765.562 739.5C765.748 740.858 765.748 740.858 765.937 742.244C766.961 750.026 767.68 757.83 768.266 765.656C768.639 770.504 769.176 775.267 769.93 780.07C771.588 791.293 772.225 802.63 773.062 813.938C773.322 817.409 773.583 820.881 773.847 824.353C774.01 826.498 774.17 828.644 774.328 830.79C774.713 835.899 775.196 840.94 776 846C776.447 844.912 776.895 843.824 777.355 842.703C777.966 841.219 778.577 839.734 779.187 838.25C779.625 837.185 779.625 837.185 780.072 836.098C780.702 834.568 781.333 833.039 781.965 831.511C782.666 829.81 783.36 828.106 784.046 826.399C787.918 816.887 792.341 807.646 796.75 798.375C797.538 796.712 798.326 795.05 799.113 793.387C804.678 781.643 804.678 781.643 806 779C806.077 776.432 806.094 773.892 806.066 771.325C806.061 770.533 806.057 769.741 806.052 768.925C806.041 767.202 806.029 765.478 806.014 763.755C805.992 761.028 805.978 758.3 805.966 755.572C805.933 747.815 805.891 740.058 805.829 732.302C805.791 727.559 805.768 722.818 805.754 718.075C805.746 716.268 805.733 714.461 805.713 712.654C805.687 710.123 805.679 707.594 805.675 705.063C805.663 704.318 805.651 703.572 805.638 702.804C805.655 698.349 806.337 695.592 809 692C813.875 692.875 813.875 692.875 815 694C815.094 696.086 815.117 698.176 815.114 700.264C815.114 700.918 815.114 701.571 815.114 702.245C815.113 704.414 815.105 706.584 815.098 708.754C815.096 710.255 815.094 711.755 815.093 713.256C815.09 717.213 815.08 721.17 815.069 725.127C815.058 729.162 815.054 733.197 815.049 737.232C815.038 745.155 815.021 753.077 815 761C815.66 761 816.32 761 817 761C817.121 760.277 817.243 759.555 817.368 758.81C818.003 755.985 818.91 753.662 820.117 751.035C820.554 750.081 820.99 749.127 821.44 748.145C822.15 746.619 822.15 746.619 822.875 745.062C823.365 744.003 823.856 742.943 824.361 741.852C831.675 726.144 839.396 710.713 848.036 695.693C849.46 693.192 850.823 690.659 852.187 688.125C854.98 682.99 857.937 677.978 861 673C861.356 672.421 861.712 671.842 862.078 671.246C866.77 663.629 871.551 656.078 876.5 648.625C876.921 647.989 877.342 647.352 877.776 646.697C879.395 644.276 880.935 642.065 883 640Z" fill="#89AD80"/>
<path d="M138.374 655.722C141 656 141 656 142.618 657.43C143.31 658.428 143.31 658.428 144.016 659.445C144.54 660.186 145.064 660.926 145.605 661.689C146.148 662.493 146.691 663.297 147.25 664.125C148.106 665.353 148.106 665.353 148.979 666.606C156.031 676.793 162.615 687.259 169.059 697.84C170.278 699.825 171.518 701.799 172.785 703.754C184.649 722.267 193.924 742.481 202.884 762.517C204.349 765.776 205.86 769.013 207.375 772.25C209.228 776.252 210.977 780.285 212.664 784.359C213.104 785.421 213.545 786.483 213.999 787.577C214.329 788.377 214.66 789.176 215 790C215.026 782.424 215.043 774.847 215.055 767.271C215.06 764.699 215.067 762.127 215.075 759.555C215.088 755.836 215.093 752.117 215.098 748.398C215.105 746.702 215.105 746.702 215.113 744.972C215.114 737.976 214.79 731.062 214.225 724.088C213.922 719.927 213.887 715.794 213.938 711.625C213.942 710.877 213.947 710.13 213.951 709.359C213.963 707.573 213.981 705.786 214 704C217.727 701.969 217.727 701.969 220.188 702.25C222 703 222 703 223 705C225.526 721.055 225.286 737.536 225.206 753.734C225.188 757.562 225.185 761.389 225.186 765.217C225.166 777.507 225.075 789.757 224.137 802.017C223.65 809.681 225.539 815.022 228.995 821.915C231.034 826.145 232.736 830.525 234.5 834.875C234.889 835.824 235.278 836.773 235.679 837.75C239.078 846.076 242.134 854.479 245 863C245.335 863.99 245.669 864.98 246.014 866C247.808 871.315 249.593 876.634 251.363 881.957C251.655 882.833 251.947 883.71 252.247 884.613C253 887 253 887 253.477 889.253C253.65 889.829 253.822 890.406 254 891C254.66 891.33 255.32 891.66 256 892C256.147 891.452 256.294 890.904 256.445 890.34C257.942 885.05 259.77 880.017 261.875 874.938C264.959 867.445 267.256 859.819 269.425 852.02C269.963 850.129 270.545 848.251 271.129 846.375C273.306 839.306 274.644 832.498 275.317 825.152C275.802 820.198 275.802 820.198 278 818C281.125 818.375 281.125 818.375 284 819C281.35 830.034 278.344 840.907 275 851.75C274.768 852.507 274.536 853.263 274.297 854.043C270.518 866.35 266.564 878.597 262.5 890.812C262.117 891.966 262.117 891.966 261.727 893.142C260.999 895.332 260.266 897.52 259.531 899.707C259.114 900.949 258.697 902.192 258.268 903.472C256.979 907.059 255.537 910.513 254 914C252 913 252 913 250.562 909.812C245.324 899.048 236.469 890.112 227.948 881.882C224.538 878.589 221.406 875.187 218.355 871.56C216.683 869.635 214.881 867.96 212.938 866.312C212.261 865.735 211.584 865.158 210.887 864.562C209.356 863.295 207.806 862.05 206.25 860.812C204 859 204 859 202.176 857.152C195.529 850.577 187.866 845.062 180.215 839.727C178 838 178 838 176 835C176.375 832.312 176.375 832.312 177 830C178.691 829.328 178.691 829.328 181 829C188.927 832.547 195.542 838.841 202.047 844.484C204.315 846.417 206.549 848.192 209 849.875C212.04 852.029 214.395 854.341 217 857C217.854 857.854 218.708 858.708 219.587 859.587C226.058 866.058 232.529 872.529 239 879C238.242 875.723 237.212 872.591 236.109 869.414C235.543 867.78 235.543 867.78 234.966 866.113C234.564 864.962 234.163 863.811 233.75 862.625C233.342 861.451 232.934 860.276 232.513 859.066C231.345 855.71 230.173 852.355 229 849C228.58 847.799 228.58 847.799 228.152 846.573C224.273 835.503 219.979 824.847 214.934 814.263C212.709 809.577 210.666 804.865 208.809 800.02C208.055 798.137 207.157 796.314 206.25 794.5C205 792 205 792 205 790C204.285 789.751 203.569 789.502 202.832 789.246C199.696 787.866 197.385 786.173 194.688 784.062C183.972 775.846 172.746 768.4 161.375 761.125C160.461 760.54 159.547 759.955 158.605 759.353C153.701 756.247 148.753 753.258 143.703 750.395C142.686 749.814 141.668 749.233 140.62 748.634C138.658 747.523 136.686 746.427 134.705 745.35C133.385 744.603 133.385 744.603 132.039 743.84C130.867 743.196 130.867 743.196 129.67 742.539C128 741 128 741 127.748 738.323C127.831 737.556 127.914 736.79 128 736C133.732 733.599 133.732 733.599 136.881 734.595C138.937 735.695 140.868 736.902 142.812 738.188C143.546 738.647 144.28 739.106 145.035 739.579C146.586 740.55 148.131 741.53 149.671 742.518C151.919 743.949 154.189 745.332 156.477 746.699C166.476 752.685 176.206 759.031 185.86 765.557C189.563 768.054 193.282 770.526 197 773C196.588 772.381 196.175 771.762 195.75 771.125C194.315 768.562 193.258 766.214 192.211 763.488C190 757.895 187.484 752.48 184.875 747.062C184.157 745.569 184.157 745.569 183.425 744.045C176.984 730.737 170.328 717.556 162.342 705.097C160.64 702.437 158.952 699.769 157.262 697.102C150.372 686.256 143.434 675.481 136 665C134 662 134 662 134.312 659.375C135.265 656.086 135.265 656.086 138.374 655.722Z" fill="#89AD80"/>
<path d="M373 907C373.66 907 374.32 907 375 907C378.906 921.196 377.773 935.218 373 949C372.71 949.838 372.42 950.676 372.121 951.54C367.843 963.684 362.979 975.557 357.875 987.375C357.363 988.56 356.852 989.745 356.325 990.966C355.826 992.122 355.327 993.278 354.812 994.469C351.285 1002.65 351.285 1002.65 347.875 1010.88C347.604 1011.51 347.333 1012.14 347.054 1012.79C344.477 1019.28 343.834 1026.11 343 1033C341.63 1033.07 341.63 1033.07 340.231 1033.14C323.029 1034 305.909 1035.01 288.798 1037.03C283.488 1037.66 278.348 1038.17 273 1038C276.629 1035.01 280.646 1033.06 284.812 1030.94C324.318 1010.39 350.191 976.746 363.555 934.586C363.906 933.466 363.906 933.466 364.265 932.323C365.55 928.264 366.903 924.227 368.25 920.188C368.62 919.067 368.62 919.067 368.997 917.924C370.221 914.231 371.503 910.594 373 907Z" fill="#FEECCB"/>
<path d="M459 574C462.198 574.516 465.173 575.359 468.23 576.402C472.879 577.986 477.565 579.313 482.312 580.562C483.078 580.771 483.843 580.979 484.631 581.193C506.854 587.067 529.325 587.321 551.07 579.645C553.35 578.883 555.627 578.379 558 578C558.495 578.99 558.495 578.99 559 580C558.34 580 557.68 580 557 580C557.33 587.26 557.66 594.52 558 602C540.505 612.935 520.294 615.16 500.095 610.813C487.63 607.647 475.689 602.126 465 595C464.34 596.32 463.68 597.64 463 599C462.963 598.117 462.925 597.234 462.887 596.324C462.459 588.511 461.416 581.446 459 574Z" fill="#F79664"/>
<path d="M646 910C651.472 914.899 652.945 922.553 654.688 929.438C659.299 947.232 664.826 964.998 674 981C674.574 982.008 675.147 983.016 675.738 984.055C683.886 997.578 695.506 1007.89 708.375 1016.81C709.228 1017.41 710.08 1018 710.959 1018.61C720.862 1025.42 731.217 1031.68 742 1037C741.67 1037.66 741.34 1038.32 741 1039C740.263 1038.92 739.526 1038.84 738.766 1038.76C723.771 1037.13 708.798 1035.66 693.747 1034.65C688.453 1034.28 683.239 1033.85 678 1033C678.23 1032.21 678.23 1032.21 678.465 1031.41C679.696 1025.29 678.453 1020.8 675.996 1015.19C675.681 1014.45 675.367 1013.71 675.043 1012.94C671.894 1005.6 668.528 998.363 665.146 991.128C644.567 946.997 644.567 946.997 644.813 927.938C644.813 926.983 644.814 926.028 644.814 925.045C644.846 919.929 645.126 915.041 646 910Z" fill="#FEECCB"/>
<path d="M836 844C838.169 844.506 840 845 842 846C842.33 851.742 841.271 855.995 839.262 861.348C838.98 862.123 838.699 862.898 838.409 863.696C837.815 865.326 837.215 866.953 836.611 868.579C835.69 871.055 834.786 873.535 833.885 876.018C833.303 877.607 832.72 879.196 832.137 880.785C831.868 881.52 831.599 882.254 831.322 883.011C829.78 887.149 828.055 891.082 826 895C830.094 893.181 833.601 890.563 837.25 888C849.691 879.375 862.239 871.365 876 865C876.601 864.72 877.203 864.441 877.823 864.153C882.114 862.222 885.283 861.63 890 862C890.66 862.33 891.32 862.66 892 863C892 864.65 892 866.3 892 868C890.333 868.833 888.667 869.667 887 870.5C885.36 871.324 885.36 871.324 883.688 872.164C881.156 873.431 878.614 874.672 876.062 875.898C875.388 876.227 874.714 876.555 874.02 876.893C872.729 877.521 871.435 878.142 870.137 878.756C863.705 881.905 857.912 885.982 852 890C849.908 891.394 847.814 892.786 845.719 894.176C844.693 894.858 843.667 895.541 842.609 896.244C840.506 897.643 838.402 899.042 836.297 900.439C835.281 901.116 834.265 901.792 833.219 902.488C832.311 903.092 831.402 903.696 830.467 904.318C828.262 905.822 826.12 907.378 824 909C825.049 909.02 826.097 909.04 827.178 909.06C831.099 909.137 835.02 909.225 838.941 909.317C840.633 909.355 842.324 909.39 844.016 909.422C846.459 909.468 848.901 909.526 851.344 909.586C852.09 909.597 852.836 909.609 853.605 909.621C858.669 909.761 863.121 910.626 868 912C867.625 914.938 867.625 914.938 867 918C864.679 919.16 863.427 919.099 860.848 919.05C859.56 919.031 859.56 919.031 858.246 919.011C857.313 918.993 856.379 918.975 855.418 918.957C853.433 918.935 851.448 918.913 849.463 918.893C846.341 918.856 843.219 918.813 840.097 918.753C819.402 918.124 819.402 918.124 801.125 926.938C799.795 927.968 799.795 927.968 798.438 929.02C796.934 930.241 795.433 931.467 793.938 932.699C792.125 934.125 792.125 934.125 789 936C786.188 935.562 786.188 935.562 784 934C782.688 931.875 782.688 931.875 782 930C782.66 930 783.32 930 784 930C784 929.34 784 928.68 784 928C785.31 926.83 785.31 926.83 787.148 925.531C787.819 925.048 788.49 924.565 789.181 924.068C790.267 923.292 790.267 923.292 791.375 922.5C809.537 909.078 817.789 893.974 825 873C825.902 870.399 826.805 867.798 827.71 865.198C828.301 863.497 828.886 861.794 829.465 860.089C831.357 854.582 833.553 849.283 836 844Z" fill="#89AD7F"/>
<path d="M759 774C764.043 782.587 763.267 795.655 763.658 805.389C763.85 809.991 764.328 814.437 765 819C766.006 831.057 766.149 843.17 766.231 855.263C766.244 856.867 766.261 858.471 766.284 860.075C766.395 868.512 766.436 876.132 763 884C762.638 885.145 762.276 886.289 761.902 887.469C761.584 888.469 761.266 889.469 760.937 890.5C760.616 891.521 760.296 892.542 759.965 893.594C759 896 759 896 757 897C751 879.586 745.077 862.173 740.312 844.375C739.986 843.17 739.66 841.964 739.324 840.722C734.658 822.811 734.658 822.811 737.59 817.305C738.349 816.146 739.133 815.003 739.937 813.875C740.78 812.584 741.617 811.289 742.449 809.992C743.09 809.008 743.09 809.008 743.744 808.003C749.666 798.561 753.824 788.434 757.09 777.816C758 775 758 775 759 774Z" fill="#A3C398"/>
<path d="M154 459C154.99 459.33 155.98 459.66 157 460C157.809 462.844 157.809 462.844 158.438 466.5C160.261 475.796 162.896 484.561 170.904 490.385C173.016 491.721 175.15 492.998 177.312 494.25C179.925 495.778 182.463 497.343 185 499C185 499.66 185 500.32 185 501C184.059 501.375 183.118 501.75 182.148 502.137C170.535 506.86 163.896 511.523 158 523C156.023 527.897 154.483 532.935 153 538C151.515 537.505 151.515 537.505 150 537C149.262 534.262 149.262 534.262 148.688 530.688C146.975 522.029 144.442 513.304 137.312 507.562C132.531 504.434 127.264 502.187 122 500C122.279 498.128 122.279 498.128 123 496C124.547 494.863 124.547 494.863 126.535 493.957C127.259 493.611 127.982 493.265 128.727 492.909C129.498 492.547 130.269 492.185 131.062 491.812C141.447 486.535 146.922 481.858 150.671 470.591C151.871 466.749 152.956 462.887 154 459Z" fill="#B2CFB6"/>
<path d="M869 310C869.66 310.33 870.32 310.66 871 311C871.793 313.495 872.503 315.976 873.188 318.5C875.971 327.982 880.042 334.954 888.867 339.938C892.523 341.759 896.227 343.437 900 345C900 345.66 900 346.32 900 347C898.805 347.472 898.805 347.472 897.586 347.953C886.933 352.256 879.817 356.079 875.153 366.979C873.306 371.607 871.629 376.291 870 381C869.34 381 868.68 381 868 381C867.685 379.77 867.371 378.54 867.047 377.273C866.615 375.64 866.183 374.008 865.75 372.375C865.545 371.567 865.34 370.759 865.129 369.926C863.574 364.131 861.88 359.004 856.738 355.426C855.938 355.058 855.137 354.691 854.312 354.312C853.445 353.913 852.577 353.513 851.684 353.102C847.849 351.528 843.973 350.18 840 349C840 347.68 840 346.36 840 345C841.085 344.504 842.171 344.007 843.289 343.496C856.026 337.587 856.026 337.587 863.688 326.25C865.109 321.968 866.234 317.592 867.352 313.223C868 311 868 311 869 310Z" fill="#FED07C"/>
<path d="M272 1070C283.915 1070.87 295.699 1073.98 306.936 1077.95C309.928 1078.98 312.934 1079.9 315.965 1080.8C323.17 1083.01 330.242 1085.52 337.312 1088.12C337.958 1088.36 338.604 1088.6 339.269 1088.84C356.188 1095.07 372.766 1102.03 389.18 1109.48C407.204 1117.65 425.463 1125.23 443.812 1132.62C454.436 1136.91 465.046 1141.21 475.562 1145.75C476.483 1146.14 477.404 1146.54 478.353 1146.94C479.186 1147.31 480.02 1147.67 480.879 1148.05C481.586 1148.35 482.293 1148.66 483.022 1148.98C485.214 1150.11 487.068 1151.47 489 1153C488.34 1153 487.68 1153 487 1153C487 1154.32 487 1155.64 487 1157C483.47 1156.41 480.568 1155.48 477.352 1153.92C476.444 1153.49 475.536 1153.05 474.601 1152.61C473.619 1152.14 472.637 1151.67 471.625 1151.19C459.429 1145.47 446.988 1140.6 434.402 1135.82C421.968 1131.09 409.86 1126.11 397.881 1120.34C383.447 1113.39 368.891 1106.99 353.965 1101.16C351.208 1100.08 348.463 1098.98 345.719 1097.87C326.826 1090.32 307.155 1084.89 287.547 1079.54C282.63 1078.2 277.807 1076.69 273 1075C272.67 1073.35 272.34 1071.7 272 1070Z" fill="#9CB999"/>
<path d="M763 1071C763.33 1072.32 763.66 1073.64 764 1075C761.327 1075.89 759.736 1076.13 756.992 1076.18C724.662 1077.01 695.618 1085.48 666 1098C665.053 1098.4 664.107 1098.79 663.131 1099.2C650.216 1104.61 637.582 1110.55 624.994 1116.67C593.498 1131.99 593.498 1131.99 577.812 1138.19C576.762 1138.61 576.762 1138.61 575.691 1139.04C565.458 1142.95 565.458 1142.95 560.562 1141.06C560.047 1140.71 559.531 1140.36 559 1140C560 1137 560 1137 561.569 1136.08C562.249 1135.83 562.928 1135.57 563.629 1135.31C564.404 1135.01 565.18 1134.71 565.979 1134.4C566.832 1134.08 567.684 1133.77 568.562 1133.44C570.395 1132.73 572.227 1132.02 574.059 1131.31C575.028 1130.93 575.997 1130.56 576.996 1130.18C594.662 1123.26 612.369 1115.99 629.25 1107.31C646.921 1098.31 665.394 1090.77 684 1083.94C685.196 1083.5 686.393 1083.06 687.625 1082.6C712.943 1073.47 736.234 1070.27 763 1071Z" fill="#9CBA9A"/>
<path d="M654 731C655.32 731 656.64 731 658 731C658.093 737.42 657.874 743.704 657.23 750.09C657.063 751.84 656.897 753.59 656.73 755.34C656.641 756.251 656.553 757.162 656.462 758.101C653.597 787.747 651.062 817.483 650.29 847.268C650.171 851.862 649.996 856.414 649.543 860.988C648.688 869.698 648.367 878.449 647.938 887.188C647.846 889.016 647.754 890.845 647.662 892.674C647.439 897.116 647.219 901.558 647 906C644 906 644 906 642.337 904.47C640.541 901.151 640.575 898.163 640.61 894.484C640.607 893.734 640.604 892.983 640.6 892.21C640.596 889.723 640.617 887.237 640.641 884.75C640.645 883.888 640.649 883.026 640.653 882.137C640.754 863.195 642.011 844.382 643.548 825.51C643.817 822.164 644.071 818.817 644.325 815.47C645.687 797.541 647.265 779.639 649.078 761.75C649.16 760.936 649.241 760.121 649.325 759.282C651.973 733.027 651.973 733.027 654 731Z" fill="#C26759"/>
<path d="M172 268C172.99 268 173.98 268 175 268C175.291 268.857 175.583 269.714 175.883 270.598C179.971 282 184.018 287.813 195 293C197.317 294.057 199.638 295.045 202 296C198.939 299.697 194.554 301.241 190.27 303.131C183.036 306.531 179.815 311.747 176.688 318.875C176.176 320.027 175.664 321.18 175.137 322.367C174.762 323.236 174.386 324.105 174 325C172.515 324.505 172.515 324.505 171 324C170.262 321.812 170.262 321.812 169.688 319C168.202 313.17 166.318 308.309 162 304C158.775 302.206 155.503 301.116 152 300C150.654 299.359 149.316 298.7 148 298C148.074 296.215 148.074 296.215 149 294C151.277 292.684 153.415 291.601 155.812 290.562C161.455 288.108 165.231 285.673 167.977 279.973C168.191 279.342 168.405 278.712 168.625 278.062C168.861 277.383 169.097 276.704 169.34 276.004C169.558 275.343 169.776 274.681 170 274C170.392 272.845 170.784 271.69 171.188 270.5C171.456 269.675 171.724 268.85 172 268Z" fill="#FECF7B"/>
<path d="M139 874C145.465 874.301 150.386 876.866 156.062 879.812C157.018 880.3 157.973 880.787 158.957 881.288C169.415 886.657 179.727 892.288 190 898C190.638 898.351 191.276 898.702 191.933 899.063C208.543 908.205 225.238 918.055 240 930C237.812 932.562 237.812 932.562 235 935C231.056 934.73 228.509 933.272 225.305 931.051C224.423 930.449 223.541 929.848 222.633 929.229C221.268 928.28 221.268 928.28 219.875 927.312C213.654 923.013 207.435 919.037 200.755 915.486C197.031 913.477 193.406 911.314 189.768 909.154C173.844 899.706 157.491 891.148 140.876 882.983C139 882 139 882 138 881C137.875 878 137.875 878 138 875C138.33 874.67 138.66 874.34 139 874Z" fill="#89AD80"/>
<path d="M111 1001C116.041 1003.88 119.239 1008.01 121.34 1013.36C122.625 1018.5 122.918 1023.79 122 1029C119.565 1032.92 117.461 1034.81 113 1036C100.982 1037.32 100.982 1037.32 95.8125 1033.87C95.2144 1032.93 94.6163 1031.98 94 1031C93.1028 1029.7 93.1028 1029.7 92.1875 1028.37C90.4817 1023.53 90.3247 1019.08 91 1014C93.6705 1008.45 97.9143 1005.02 103 1001.69C105.991 1000.66 107.841 1000.5 111 1001Z" fill="#FEEBCB"/>
<path d="M912.187 1001C918.219 1002.58 922.963 1006 926.5 1011.19C929.097 1016.42 929.077 1022.66 927.305 1028.16C925.854 1031.03 924.068 1032.95 921.562 1034.94C915.687 1036.69 908.698 1037.44 902.859 1035.17C900.632 1033.72 899.192 1032.38 898 1030C897.352 1020.4 897.433 1013.37 903.5 1005.69C907.86 1001 907.86 1001 912.187 1001Z" fill="#FEEBCB"/>
<path d="M485.766 521.277C489.807 522.584 493.492 524.629 497.23 526.625C504.234 530.102 512.564 530.084 520.086 528.246C524.165 526.821 527.849 525.262 531.375 522.75C534.281 520.813 535.586 520.354 539 521C540.813 522.062 540.813 522.062 542 524C542.5 527.375 542.5 527.375 542 531C537.675 536.812 531.055 539.925 524 541C514.389 541.758 505.351 541.032 495.938 538.937C494.636 538.668 494.636 538.668 493.309 538.394C487.134 536.89 481.834 534.246 478 529C477.697 526.156 477.647 524.624 479.063 522.125C481.445 520.742 483.086 520.779 485.766 521.277Z" fill="#DA6743"/>
<path d="M588.438 398.375C591.584 400.538 594.07 402.643 596 406C595.75 408.812 595.75 408.812 595 411C590.011 410.609 585.897 409.642 581.188 407.937C569.441 404.163 556.094 405.478 544 407C543.67 406.01 543.34 405.02 543 404C545.645 399.043 550.102 395.672 555.254 393.656C566.354 391.004 578.586 392.635 588.438 398.375Z" fill="#46342A"/>
<path d="M886 524C890.077 526.782 893.265 529.898 896 534C896.472 538.166 896.261 540.477 894.375 544.25C891.24 547.88 888.626 549.618 883.824 550.316C878.372 550.6 875.307 549.571 871 546C868.426 543.426 868.673 542.264 868.625 538.687C868.701 535.038 868.835 533.298 870.625 530.062C875.622 525.723 879.13 522.697 886 524Z" fill="#B1CEB4"/>
<path d="M460.25 392.5C460.994 392.481 461.739 392.463 462.505 392.444C467.909 392.505 472.636 393.674 477 397C478.912 400.109 479.296 402.354 479 406C478.67 406.33 478.34 406.66 478 407C476.413 406.906 474.829 406.747 473.25 406.562C462.026 405.494 452.539 405.991 441.727 409.027C438.116 409.97 434.695 410.546 431 411C430.5 407.938 430.5 407.938 431 404C437.806 394.573 449.393 392.677 460.25 392.5Z" fill="#47352A"/>
<path d="M509 472C510.65 472.33 512.3 472.66 514 473C514.687 474.621 514.687 474.621 515 477C513.75 479.91 513.75 479.91 512 483.062C510.251 486.118 510.251 486.118 509 489C510.356 493.068 512.948 493.863 516.562 495.688C517.486 496.168 517.486 496.168 518.428 496.658C519.947 497.447 521.473 498.225 523 499C523.25 501.312 523.25 501.312 523 504C520.912 506.229 519.533 506.914 516.52 507.398C502.275 507.275 502.275 507.275 498 503C496.621 492.499 500.098 483.619 506.312 475.25C507.195 474.156 508.086 473.068 509 472Z" fill="#DA6844"/>
<path d="M789 443C793.058 444.561 796.103 445.995 798 450C798.656 453.821 798.877 457.354 797.016 460.848C794.716 463.737 792.397 465.636 789 467C784.986 467.416 781.423 467.003 778.082 464.648C775.279 461.732 773.607 459.075 773.25 455C773.607 450.179 776.513 447.117 780 444C783.072 442.464 785.602 442.774 789 443Z" fill="#FED17E"/>
<path d="M273.781 387.535C278.587 388.542 281.346 391.019 284 395C284.791 398.924 284.7 402.486 283.008 406.144C280.862 409.12 279.158 410.714 275.551 411.605C270.902 411.863 268.681 411.528 264.937 408.625C261.426 403.867 261.245 399.811 262 394C264.231 388.45 268.17 387.152 273.781 387.535Z" fill="#FED17F"/>
<path d="M966 1041C964.5 1044.75 962.365 1046.56 959.188 1049C958.335 1049.66 957.483 1050.32 956.605 1051C955.746 1051.66 954.886 1052.32 954 1053C953.205 1053.66 952.409 1054.32 951.59 1055C937.77 1065.67 919.57 1072.89 902 1072C901.67 1070.02 901.34 1068.04 901 1066C907.305 1062.81 913.446 1061.51 920.375 1060.56C928.216 1059.46 934.9 1057.63 942 1054C942.931 1053.53 943.861 1053.07 944.82 1052.59C950.535 1049.6 955.75 1046.19 960.906 1042.32C963 1041 963 1041 966 1041Z" fill="#F38956"/>
<path d="M56 1043C60.4386 1043.56 63.2841 1045.25 67 1047.69C82.1062 1057.26 97.364 1061.67 114.988 1063.51C118 1064 118 1064 121 1066C121.375 1068.5 121.375 1068.5 121 1071C116.521 1073.99 113.153 1072.98 108 1072C88.6587 1067.15 71.7152 1058.62 57 1045C56.67 1044.34 56.34 1043.68 56 1043Z" fill="#F28754"/>
<path d="M865.75 1041.62C879.084 1041.75 894.883 1045.37 906 1053C908 1056 908 1056 907.625 1058.69C907.419 1059.45 907.213 1060.21 907 1061C901.862 1060.46 897.732 1059.24 893 1057.19C882.666 1052.86 871.952 1050.31 861 1048C860.618 1046.34 860.286 1044.68 860 1043C861.653 1041.35 863.461 1041.71 865.75 1041.62Z" fill="#F48956"/>
<path d="M152.625 1041.81C154.346 1041.79 154.346 1041.79 156.102 1041.77C159 1042 159 1042 161 1044C161 1045.32 161 1046.64 161 1048C159.826 1048.22 158.651 1048.44 157.441 1048.66C149.034 1050.3 140.835 1052.15 132.75 1055C132.073 1055.24 131.395 1055.47 130.698 1055.72C127.328 1056.95 124.283 1058.36 121.199 1060.2C118 1062 118 1062 115.062 1061.75C114.382 1061.5 113.701 1061.25 113 1061C113.33 1059.68 113.66 1058.36 114 1057C114.66 1057 115.32 1057 116 1057C116.268 1056.4 116.536 1055.8 116.812 1055.19C119.087 1051 121.601 1049.54 126.062 1048C127.034 1047.66 128.006 1047.33 129.008 1046.98C133.315 1045.57 137.635 1044.22 142 1043C142.617 1042.81 143.235 1042.62 143.871 1042.43C146.806 1041.84 149.634 1041.83 152.625 1041.81Z" fill="#F38956"/>
<path d="M439 441C441.509 442.038 442.815 442.731 444.375 445C446.716 447.882 448.346 448.231 452 449C458.42 449.423 463.949 449.361 470 447C472.875 446.875 472.875 446.875 475 447C475.66 448.32 476.32 449.64 477 451C474.246 455.43 471.556 457.097 466.695 458.492C459.065 459.93 451.387 460.257 444.586 456.125C439.355 452.414 439.355 452.414 438.508 449.039C437.702 443.596 437.702 443.596 439 441Z" fill="#48352A"/>
<path d="M762 920C762.495 922.475 762.495 922.475 763 925C757.47 928.544 751.831 931.8 746.062 934.938C740.392 938.032 734.938 941.159 729.824 945.137C727.283 946.34 725.639 945.75 723 945C723.49 940.745 724.473 939.031 727.812 936.375C736.88 929.462 750.318 919.684 762 920Z" fill="#C4695B"/>
<path d="M255 920C259.995 919.66 263.156 920.667 267.648 922.816C268.573 923.258 268.573 923.258 269.516 923.708C270.814 924.332 272.11 924.961 273.403 925.597C275.354 926.552 277.316 927.481 279.281 928.408C293.404 935.188 293.404 935.188 298 941C298 941.99 298 942.98 298 944C295.07 944.967 292.908 945.372 289.998 944.18C287.68 942.874 285.433 941.489 283.188 940.062C276.053 935.711 268.886 931.872 261.257 928.463C256.178 926.178 256.178 926.178 254 924C254.375 921.875 254.375 921.875 255 920Z" fill="#C3675A"/>
<path d="M581 441C581.99 441 582.98 441 584 441C584.405 444.31 584.589 446.929 582.945 449.918C579.437 454.365 575.658 457.084 570 458C567.103 458.238 564.218 458.333 561.312 458.375C560.575 458.389 559.838 458.403 559.079 458.418C554.582 458.377 551.487 457.93 548 455C547.188 451.312 547.188 451.312 547 448C551 448 551 448 554.125 449C560.824 450.994 567.791 450.762 574.25 448.066C577.192 446.273 578.899 443.701 581 441Z" fill="#453329"/>
<path d="M640 448C642.625 448.375 642.625 448.375 645 449C645.312 451.188 645.312 451.188 645 454C643.356 455.689 641.686 457.353 640 459C634.895 465.734 635.211 473.915 635 482C632.625 482.625 632.625 482.625 630 483C628 481 628 481 627.625 477.75C627.948 466.682 632.162 455.838 640 448Z" fill="#DC6D48"/>
<path d="M384 449C387.633 449.253 389.669 449.755 392.625 451.938C398.325 459.288 401.018 468.749 400 478C398.5 480.562 398.5 480.562 397 482C395.68 481.67 394.36 481.34 393 481C392.961 479.641 392.961 479.641 392.922 478.254C392.501 469.21 391.476 462.345 385.75 455.188C384 453 384 453 384 449Z" fill="#DF7049"/>
<path d="M953.875 1030.25C954.576 1030.5 955.277 1030.74 956 1031C956.438 1033.62 956.438 1033.62 956 1037C954.38 1038.78 952.644 1040.16 950.73 1041.61C948.843 1042.98 948.843 1042.98 947.5 1045.31C946 1047 946 1047 942.812 1047.31C938.026 1048.18 936.205 1050.19 932.895 1053.6C932.269 1054.06 931.644 1054.52 931 1055C928.882 1054.59 928.882 1054.59 927 1054C928.04 1053.33 929.081 1052.66 930.152 1051.97C934.25 1049.05 936.785 1045.59 939.562 1041.44C947.451 1029.69 947.451 1029.69 953.875 1030.25Z" fill="#F58C59"/>
<path d="M64 1032C68.9354 1031.4 71.5533 1032.45 75.3516 1035.38C77.6423 1037.63 79.0353 1040.17 80.6211 1042.94C84.0978 1048.13 89.531 1052.09 95 1055C92.3701 1056.02 91.3333 1056.15 88.7031 1055C87.4888 1054.22 87.4888 1054.22 86.25 1053.44C85.3709 1052.88 84.4917 1052.33 83.5859 1051.75C80.6164 1049.74 77.7879 1047.59 74.957 1045.38C72.9001 1043.93 70.8315 1042.84 68.5625 1041.75C65 1040 65 1040 64 1038C63.96 1036 63.9565 1034 64 1032Z" fill="#F28855"/>
<path d="M678 1236C680.292 1236.14 682.584 1236.29 684.875 1236.44C686.151 1236.52 687.427 1236.6 688.742 1236.68C692 1237 692 1237 694 1238C696.017 1238.32 698.039 1238.61 700.062 1238.88C705.688 1239.7 710.681 1241.02 716 1243C716 1243.99 716 1244.98 716 1246C710.574 1246.13 705.727 1245.75 700.375 1244.69C699.696 1244.55 699.016 1244.42 698.316 1244.28C691.527 1242.94 684.759 1241.49 678 1240C678 1238.68 678 1237.36 678 1236Z" fill="#E57B50"/>
<path d="M687 1226C693.548 1225.45 698.476 1227.38 704.5 1229.81C705.411 1230.17 706.323 1230.53 707.262 1230.89C712.214 1232.84 717.121 1234.88 722 1237C722 1238.32 722 1239.64 722 1241C716.362 1240.45 711.851 1238.9 706.688 1236.63C701.09 1234.21 695.661 1232.12 689.688 1230.8C688 1230 688 1230 687.25 1227.92C687.167 1227.29 687.085 1226.65 687 1226Z" fill="#E67C51"/>
<path d="M661 660C675.951 665.386 687.405 679.195 696 692C696.54 692.768 697.08 693.537 697.637 694.328C698.107 695.024 698.578 695.72 699.062 696.438C699.466 697.034 699.869 697.631 700.285 698.246C701.208 700.511 700.792 701.735 700 704C699.694 703.368 699.389 702.737 699.074 702.086C690.654 685.625 678.189 672.379 662.766 662.242C662.183 661.832 661.6 661.422 661 661C661 660.67 661 660.34 661 660Z" fill="#E48678"/>
<path d="M407 290C407.66 290.33 408.32 290.66 409 291C407.251 292.918 405.501 294.834 403.75 296.75C403.259 297.289 402.768 297.828 402.262 298.383C396.286 304.916 396.286 304.916 394 307C393.34 307 392.68 307 392 307C391.773 307.743 391.546 308.485 391.312 309.25C389.756 312.511 387.915 313.929 385 316C386.458 311.267 389.268 308.188 392.625 304.688C393.159 304.12 393.693 303.553 394.243 302.968C398.41 298.56 402.654 294.231 407 290Z" fill="#3C2A24"/>
<path d="M265 781C268.02 783.859 270.388 786.833 272.75 790.25C278.776 798.789 278.776 798.789 287 805C286.67 806.98 286.34 808.96 286 811C285.67 811 285.34 811 285 811C284.777 810.117 284.554 809.234 284.324 808.324C282.766 804.412 280.911 802.637 277.812 799.812C272.536 794.826 268.356 789.494 265 783C265 782.34 265 781.68 265 781Z" fill="#AACFA0"/>
<path d="M577 448C578.65 448 580.3 448 582 448C582 448.99 582 449.98 582 451C576.603 456.269 571.851 458.251 564.141 458.176C563.143 458.151 563.143 458.151 562.125 458.125C561.437 458.116 560.748 458.107 560.039 458.098C558.359 458.074 556.68 458.038 555 458C555 457.67 555 457.34 555 457C556.879 456.801 556.879 456.801 558.797 456.598C560.448 456.419 562.099 456.241 563.75 456.062C564.987 455.932 564.987 455.932 566.25 455.799C567.049 455.712 567.848 455.625 568.672 455.535C569.405 455.457 570.138 455.378 570.894 455.297C572.981 455.003 574.966 454.549 577 454C576.814 453.381 576.629 452.762 576.438 452.125C576 450 576 450 577 448Z" fill="#392A23"/>
<path d="M206 649C216.451 653.621 225.068 664.956 233 673C230 673 230 673 228.33 671.655C227.736 671.039 227.143 670.423 226.531 669.789C225.878 669.121 225.224 668.454 224.551 667.766C223.536 666.706 223.536 666.706 222.5 665.625C221.158 664.24 219.815 662.857 218.469 661.477C217.875 660.859 217.282 660.241 216.67 659.604C214.888 657.798 214.888 657.798 212 656C212 655.34 212 654.68 212 654C211.381 653.732 210.762 653.464 210.125 653.188C208 652 208 652 206 649Z" fill="#9ABF93"/>
<path d="M366 476C368.696 478.422 370.266 481.057 372.062 484.188C375.76 490.155 380.299 493.997 386 498C385.01 498.33 384.02 498.66 383 499C375.38 492.766 368.045 486.042 366 476Z" fill="#3D2D24"/>
<path d="M589 400C592.342 401.383 594.258 402.79 596 406C595.688 408.75 595.688 408.75 595 411C593.35 411 591.7 411 590 411C589.67 410.34 589.34 409.68 589 409C590.65 409 592.3 409 594 409C592.464 405.858 590.943 402.914 589 400Z" fill="#3D2C25"/>
<path d="M435 383C435.66 383.66 436.32 384.32 437 385C434.36 387.64 431.72 390.28 429 393C428.34 392.34 427.68 391.68 427 391C429.64 388.36 432.28 385.72 435 383Z" fill="#ECA97B"/>
<path d="M906 1053C908.562 1055.25 908.562 1055.25 911 1058C910.812 1060.31 910.812 1060.31 910 1062C908.68 1061.67 907.36 1061.34 906 1061C906.186 1060.24 906.371 1059.47 906.562 1058.69C907.228 1055.91 907.228 1055.91 906 1053Z" fill="#FB9D6C"/>
<path d="M548 447C548.99 447.33 549.98 447.66 551 448C551.33 449.65 551.66 451.3 552 453C551.01 453.33 550.02 453.66 549 454C548.34 453.67 547.68 453.34 547 453C546.957 451.334 546.959 449.666 547 448C547.33 447.67 547.66 447.34 548 447Z" fill="#543D2E"/>
</g>
<defs>
<clipPath id="clip0_5_3">
<rect width="1024" height="1536" fill="white"/>
</clipPath>
</defs>
</svg>
