<svg width="1024" height="1024" viewBox="0 0 1024 1024" fill="none" xmlns="http://www.w3.org/2000/svg">
<path d="M76.2215 761.595C77.0161 761.901 77.8107 762.206 78.6294 762.521C81.7137 763.815 84.6434 765.349 87.5977 766.952C105.874 776.856 124.64 785.16 143.683 793.223C147.747 794.942 147.747 794.942 151.74 796.842C155.418 798.591 159.233 799.926 163.037 801.328C163.935 801.66 164.833 801.993 165.758 802.336C176.847 806.435 187.953 810.479 199.066 814.502C199.915 814.81 200.763 815.118 201.637 815.435C241.987 830.065 283.15 839.443 325.355 845.384C326.103 845.49 326.851 845.596 327.622 845.705C345.377 848.193 363.092 849.299 380.983 849.779C383.174 849.839 385.365 849.907 387.555 849.976C388.21 849.991 388.864 850.006 389.539 850.021C393.317 850.143 396.752 850.661 400.398 851.728C401.071 850.864 401.071 850.864 401.757 849.983C404.276 849.636 404.276 849.636 407.295 849.57C408.445 849.522 409.595 849.474 410.78 849.424C412.63 849.357 412.63 849.357 414.517 849.289C423.704 848.905 432.834 848.412 441.973 847.322C445.334 846.941 447.622 846.944 450.965 847.788C451.638 846.924 451.638 846.924 452.324 846.043C454.291 845.641 456.276 845.34 458.264 845.083C459.492 844.92 460.72 844.756 461.986 844.587C462.637 844.504 463.288 844.42 463.959 844.334C467.322 843.899 470.681 843.434 474.039 842.969C475.026 842.833 475.026 842.833 476.033 842.694C489.405 840.836 502.267 837.625 515.278 833.886C517.359 833.306 519.444 832.781 521.54 832.271C537.88 828.183 553.769 821.822 569.269 815.018C570.144 814.634 571.019 814.251 571.92 813.855C582.362 809.244 592.585 804.36 602.564 798.694C604.208 797.778 605.875 796.911 607.543 796.045C621.04 788.995 633.621 780.137 646.323 771.596C648.388 770.211 650.463 768.843 652.549 767.494C655.151 765.721 655.151 765.721 657.65 763.221C658.936 762.123 660.232 761.038 661.534 759.961C662.882 758.831 664.229 757.701 665.576 756.57C666.744 755.589 667.913 754.61 669.082 753.631C678.718 745.542 687.792 737.122 696.491 727.896C698.316 725.985 700.201 724.151 702.095 722.32C705.081 719.345 707.652 716.148 710.214 712.754C712.115 710.293 714.092 707.921 716.088 705.548C736.21 681.468 764.379 645.734 771.473 613.484C772.154 613.311 772.835 613.139 773.537 612.961C774.239 611.292 774.239 611.292 774.9 608.98C776.161 604.795 777.542 600.693 779.026 596.592C779.458 595.393 779.89 594.194 780.335 592.958C781.223 590.505 782.112 588.053 783.005 585.601C788.409 570.573 792.211 555.392 795.613 539.74C795.813 538.829 796.012 537.919 796.218 536.981C798.787 525.266 801.241 513.556 803.147 501.693C803.684 497.406 803.684 497.406 805.611 493.736C804.697 493.505 803.783 493.274 802.841 493.037C803.142 491.82 803.442 490.603 803.752 489.349C805.011 483.592 805.481 477.843 805.895 471.957C805.978 470.81 806.061 469.663 806.146 468.481C807.038 455.023 807.322 441.415 806.776 427.93C806.544 422.259 806.544 422.259 808.78 417.31C810.935 415.844 812.923 414.67 815.217 413.52C815.861 413.184 816.505 412.848 817.168 412.502C819.163 411.469 821.166 410.461 823.175 409.462C823.758 409.171 824.34 408.881 824.941 408.581C828.408 406.863 831.894 405.194 835.387 403.538C837.526 402.521 839.659 401.49 841.791 400.457C861.989 390.686 882.398 381.392 903.242 373.308C904.032 373 904.823 372.692 905.637 372.375C914.606 368.884 923.58 365.402 932.622 362.131C933.684 361.747 934.746 361.362 935.84 360.966C938.171 360.036 938.171 360.036 940.124 360.697C940.781 360.252 941.438 359.807 942.115 359.349C945.088 357.413 947.837 356.533 951.188 355.531C952.499 355.132 953.809 354.732 955.119 354.33C955.807 354.12 956.496 353.91 957.205 353.693C960.916 352.54 964.601 351.297 968.288 350.062C976.134 347.444 984.003 344.921 991.89 342.449C992.223 338.396 991.709 335.52 990.416 331.707C990.049 330.626 989.683 329.545 989.305 328.431C987.556 323.582 985.716 318.775 983.814 313.993C982.649 311.03 981.798 308.621 981.525 305.396C978.755 304.698 978.755 304.698 977.179 305.674C976.265 306.313 976.265 306.313 975.332 306.965C973.702 307.616 972.054 308.217 970.395 308.781C968.923 309.287 968.923 309.287 967.421 309.803C965.846 310.338 965.846 310.338 964.238 310.884C962.034 311.643 959.83 312.404 957.626 313.166C956.521 313.548 955.416 313.93 954.278 314.324C924.684 324.654 895.237 336.564 867.362 351.46C864.25 353.116 861.202 354.644 857.916 355.864C857.012 356.242 856.109 356.619 855.178 357.008C855.035 357.661 854.891 358.313 854.743 358.986C854.213 359.077 853.683 359.167 853.137 359.261C849.616 360.336 846.509 362.161 843.289 363.988C842.6 364.374 841.911 364.76 841.202 365.158C836.23 367.955 831.296 370.822 826.383 373.734C823.374 375.508 820.341 377.225 817.299 378.93C815.545 379.938 813.808 380.977 812.079 382.032C810.591 382.936 810.591 382.936 809.073 383.859C808.16 384.422 807.247 384.986 806.307 385.566C803.189 387.151 803.189 387.151 799.88 386.888C797.091 385.171 797.091 385.171 794.293 382.935C789.113 378.954 789.113 378.954 787.118 378.45C787.029 377.395 786.939 376.339 786.847 375.251C785.909 374.95 784.97 374.649 784.003 374.338C777.927 371.916 769.678 367.858 766.541 361.604C766.244 360.583 766.244 360.583 765.94 359.541C765.195 359.547 764.45 359.553 763.683 359.559C760.974 359.57 760.974 359.57 758.554 357.678C755.485 356.031 752.407 354.405 749.322 352.791C742.818 349.479 742.818 349.479 737.137 344.839C735.366 343.479 735.366 343.479 732.243 342.756C726.945 341.483 722.071 339.149 717.077 336.908C700.894 329.79 684.537 323.948 667.642 319.089C667.015 318.906 666.388 318.723 665.741 318.535C629.964 308.287 590.907 304.15 554.075 308.179C552.476 308.339 550.878 308.5 549.279 308.66C540.198 309.604 531.201 310.803 522.218 312.526C519.232 313.084 517.084 313.457 514.099 312.704C513.617 313.041 513.134 313.378 512.637 313.725C509.828 315.51 507.143 315.655 503.918 316.07C502.734 316.228 501.55 316.385 500.33 316.547C499.424 316.659 498.519 316.771 497.587 316.886C497.443 317.539 497.299 318.192 497.152 318.864C496.387 318.889 495.623 318.914 494.836 318.94C489.834 319.629 485.23 321.228 480.436 322.865C479.412 323.212 478.388 323.559 477.333 323.917C459.965 329.877 442.847 336.759 426.629 345.755C423.755 347.463 423.755 347.463 420.671 347.574C419.271 348.701 417.875 349.833 416.499 350.992C414.667 352.406 412.827 353.474 410.812 354.565C405.121 357.745 399.695 361.347 394.246 364.975C393.248 365.633 392.25 366.292 391.221 366.97C386.339 370.209 381.641 373.514 377.104 377.283C375.967 378.044 374.826 378.801 373.682 379.55C365.551 385.879 357.85 392.784 350.191 399.746C349.07 400.764 347.948 401.778 346.822 402.788C332.521 415.629 320.005 430.459 307.566 445.313C307.028 444.833 306.491 444.353 305.937 443.859C305.709 444.619 305.482 445.38 305.247 446.163C303.135 450.825 300.104 454.414 296.917 458.28C296.308 458.127 295.699 457.973 295.071 457.815C294.977 458.516 294.883 459.217 294.786 459.94C293.773 463.497 292.114 465.506 289.841 468.301C289.094 469.228 288.347 470.154 287.578 471.109C287.003 471.808 286.427 472.506 285.834 473.225C285.224 473.071 284.615 472.918 283.987 472.759C283.717 473.664 283.446 474.568 283.167 475.5C281.292 480.604 278.141 484.743 275.093 489.104C262.057 508.104 249.987 527.69 238.363 547.702C237.106 549.819 235.829 551.908 234.52 553.989C231.952 558.075 229.481 562.223 227.016 566.381C226.533 567.194 226.05 568.007 225.552 568.844C224.016 571.431 222.48 574.018 220.945 576.606C219.939 578.299 218.933 579.993 217.927 581.686C217.431 582.522 216.935 583.357 216.424 584.218C214.428 587.578 212.432 590.938 210.436 594.298C209.441 595.972 208.447 597.647 207.453 599.322C206.008 601.755 204.562 604.187 203.116 606.62C202.69 607.338 202.264 608.057 201.825 608.797C198.577 614.255 195.235 619.64 191.818 624.979C189.163 629.159 189.163 629.159 188.683 631.343C188.073 631.189 187.464 631.035 186.836 630.877C186.353 632.068 185.87 633.259 185.372 634.486C183.312 639.096 180.604 642.881 177.598 646.829C176.023 649.021 176.023 649.021 175.189 650.771C173.431 654.386 170.946 657.533 168.648 660.771C165.69 664.985 165.69 664.985 165.21 667.164C164.529 667.337 163.848 667.509 163.146 667.687C161.797 669.548 161.797 669.548 160.324 671.932C158.227 675.244 156.064 678.053 153.421 680.887C153.177 681.426 152.934 681.964 152.683 682.519C150.362 687.116 146.753 690.925 143.574 694.874C142.245 696.527 140.925 698.188 139.605 699.849C138.764 700.899 137.922 701.948 137.08 702.997C136.315 703.952 135.549 704.908 134.761 705.892C133.036 708.202 133.036 708.202 130.765 708.566C129.528 710.073 128.344 711.63 127.186 713.208C122.736 719.029 117.855 724.033 112.62 729.035C112.16 729.481 111.7 729.927 111.226 730.386C105.124 736.306 98.8361 741.923 92.3324 747.332C91.7088 747.853 91.0852 748.374 90.4427 748.911C86.5874 752.077 82.6553 754.836 78.4218 757.393C76.874 758.629 76.874 758.629 76.2215 761.595ZM762.736 360.82C764.365 362.274 764.365 362.274 764.365 362.274L762.736 360.82ZM784.783 375.774C786.412 377.229 786.412 377.229 786.412 377.229L784.783 375.774Z" fill="#76AD48"/>
<path d="M799.662 387.877C800.056 389.009 800.451 390.142 800.857 391.309C807.937 387.647 814.955 383.905 821.879 379.915C823.316 379.103 824.753 378.291 826.19 377.481C829.605 375.544 832.997 373.566 836.382 371.573C838.247 370.478 840.112 369.383 841.978 368.288C843.024 367.67 843.024 367.67 844.091 367.04C849.722 363.771 855.502 360.864 861.297 357.947C865.06 356.047 868.772 354.097 872.428 351.968C874.718 350.635 876.801 349.584 879.259 348.604C883.638 346.856 887.707 344.573 891.859 342.284C894.652 340.968 896.843 340.572 899.829 340.096C901.738 339.179 903.618 338.19 905.471 337.15C910.499 334.432 915.492 332.344 920.834 330.459C923.536 329.433 926.045 328.222 928.621 326.88C932.838 324.723 936.949 323.539 941.527 322.586C943.773 321.962 943.773 321.962 945.537 320.76C947.549 319.467 948.793 319.651 951.106 319.638C952.824 318.783 952.824 318.783 954.589 317.647C958.617 315.268 962.584 314.258 967.077 313.313C969.194 312.722 969.194 312.722 970.552 310.977C963.979 310.532 959.084 312.225 952.971 314.694C949.896 315.906 946.792 317.025 943.691 318.157C917.731 327.635 891.923 338.336 867.362 351.46C864.25 353.116 861.202 354.644 857.916 355.865C856.561 356.431 856.561 356.431 855.179 357.008C855.035 357.661 854.891 358.313 854.744 358.986C853.949 359.122 853.949 359.122 853.137 359.261C849.616 360.337 846.509 362.161 843.289 363.988C842.6 364.374 841.912 364.76 841.202 365.158C836.231 367.955 831.296 370.822 826.383 373.734C823.374 375.508 820.339 377.225 817.298 378.935C813.608 381.048 809.97 383.262 806.328 385.47C804.06 386.686 802.145 387.399 799.662 387.877Z" fill="#85BA4D"/>
<path d="M585.143 308.71C585.071 309.036 584.999 309.362 584.925 309.699C590.181 310.649 595.122 311.076 600.455 310.812C604.105 310.679 606.447 310.642 609.511 312.836C610.377 313.377 611.243 313.918 612.135 314.476C613.99 313.608 615.819 312.674 617.621 311.686C620.946 312.264 620.946 312.264 624.084 313.316C625.088 313.279 625.088 313.279 626.111 313.241C628.112 313.123 628.112 313.123 630.194 314.336C633.014 315.518 635.061 315.96 638.027 316.353C645.576 317.507 652.943 319.397 660.355 321.287C662.762 321.9 665.172 322.502 667.581 323.103C675.078 324.992 682.418 326.939 689.637 329.854C690.309 328.99 690.309 328.99 690.995 328.109C687.097 324.582 682.77 323.483 677.948 322.078C676.655 321.695 676.655 321.695 675.335 321.304C672.774 320.552 670.209 319.817 667.643 319.087C666.995 318.9 666.348 318.712 665.681 318.518C640.885 311.413 613.124 306.547 587.424 307.198C586.671 307.697 585.918 308.196 585.143 308.71Z" fill="#85BA4E"/>
<path d="M76.2223 761.594C81.5989 763.467 81.5989 763.467 87.0842 765.378C86.0808 764.091 85.0774 762.805 84.0435 761.48C84.4357 760.976 84.8279 760.472 85.232 759.953C86.1716 758.747 87.0949 757.525 87.9893 756.279C89.4883 754.382 89.4883 754.382 91.6394 752.699C93.7191 750.944 95.4573 749.231 97.2928 747.212C100.49 743.758 103.962 741 107.676 738.221C110.935 735.72 113.74 733.27 116.314 729.965C117.371 729.543 118.429 729.121 119.518 728.686C120.579 727.231 121.632 725.767 122.621 724.255C123.874 722.369 125.195 720.577 126.568 718.79C126.991 718.236 127.415 717.682 127.851 717.112C129.411 715.291 131.101 713.798 132.884 712.23C134.288 710.865 135.669 709.473 137.029 708.058C138.071 706.997 138.071 706.997 139.134 705.915C140.598 703.74 140.598 703.74 140.333 701.26C140.098 700.62 139.863 699.979 139.622 699.32C139.155 699.943 138.689 700.567 138.209 701.209C137.597 702.014 136.985 702.819 136.355 703.648C135.749 704.452 135.142 705.255 134.517 706.083C132.994 708.218 132.994 708.218 130.766 708.565C129.529 710.072 128.345 711.629 127.187 713.206C122.737 719.028 117.856 724.032 112.62 729.033C112.161 729.479 111.701 729.925 111.227 730.385C105.125 736.304 98.8369 741.922 92.3332 747.33C91.7096 747.851 91.086 748.372 90.4435 748.909C86.5882 752.075 82.6561 754.835 78.4226 757.392C76.8748 758.628 76.8748 758.628 76.2223 761.594Z" fill="#689943"/>
<path d="M694.69 329.042C694.546 329.694 694.403 330.347 694.255 331.019C697.22 332.299 700.19 333.566 703.161 334.831C703.993 335.19 704.825 335.55 705.682 335.92C709.463 337.524 713.135 339.001 717.114 339.929C720.393 340.744 722.261 342.025 724.948 344.119C727.953 346.134 731.12 347.632 734.361 349.16C734.977 349.452 735.593 349.744 736.227 350.046C739.137 351.397 741.824 352.412 744.924 353.194C745.068 352.542 745.211 351.889 745.359 351.217C744.315 350.48 743.271 349.743 742.196 348.984C740.316 347.651 738.662 346.425 737.037 344.747C735.367 343.478 735.367 343.478 732.282 342.777C725.771 341.21 719.722 338.078 713.602 335.297C707.376 332.527 701.307 330.443 694.69 329.042Z" fill="#84B84D"/>
<path d="M522.627 313.811C523.093 314.617 523.559 315.423 524.039 316.254C526.175 315.402 528.312 314.549 530.449 313.697C533.472 313.579 536.479 313.627 539.504 313.666C542.18 313.526 542.18 313.526 544.462 312.014C546.387 311.986 548.312 311.962 550.237 311.979C552.283 311.9 552.283 311.9 555.45 311.069C558.909 310.226 561.638 310.626 565.156 310.973C567.533 310.56 569.905 310.117 572.271 309.638C573.187 309.675 574.104 309.713 575.048 309.751C575.727 309.772 576.406 309.792 577.105 309.814C577.777 308.95 577.777 308.95 578.463 308.069C570.251 306.488 562.314 307.341 554.076 308.178C553.242 308.262 552.408 308.346 551.549 308.433C548.92 308.703 546.292 308.983 543.665 309.269C542.851 309.357 542.037 309.444 541.198 309.534C526.569 311.199 526.569 311.199 522.627 313.811Z" fill="#85B94E"/>
<path d="M479.281 324.789C479.819 325.269 480.356 325.749 480.91 326.244C483.716 325.65 486.41 324.954 489.167 324.152C490.126 323.878 491.086 323.604 492.075 323.321C495.905 322.211 499.718 321.101 503.49 319.78C505.806 319.011 507.414 318.94 509.807 318.924C511.875 318.42 513.939 317.896 515.999 317.355C517.68 317.064 519.363 316.786 521.051 316.542C521.194 315.89 521.338 315.237 521.486 314.565C516.049 312.888 516.049 312.888 514.099 312.702C512.959 313.457 511.818 314.213 510.677 314.969C508.437 315.418 506.181 315.777 503.918 316.068C502.734 316.226 501.55 316.383 500.33 316.545C499.425 316.657 498.52 316.769 497.587 316.885C497.443 317.537 497.3 318.19 497.152 318.862C495.999 318.894 495.999 318.894 494.823 318.927C482.489 320.669 482.489 320.669 479.281 324.789Z" fill="#82B74D"/>
<path d="M389.872 367.98C389.962 369.036 390.051 370.092 390.143 371.179C391.223 370.449 391.223 370.449 392.325 369.704C397.591 366.174 402.861 362.807 408.381 359.756C411.134 358.177 413.749 356.394 416.388 354.609C419.951 352.295 423.651 350.259 427.354 348.216C424.801 346.528 424.801 346.528 422.948 346.648C420.403 347.684 418.579 349.228 416.454 351.022C414.672 352.403 412.887 353.444 410.925 354.507C403.644 358.497 396.795 363.329 389.872 367.98Z" fill="#7FB44C"/>
<path d="M167.493 665.654C171.099 662.918 173.429 660.426 175.425 656.176C175.336 655.121 175.247 654.065 175.155 652.977C171.131 656.191 167.017 660.028 167.493 665.654ZM175.101 648.789C175.424 650.248 175.746 651.707 176.078 653.21C181.723 647.611 185.788 642.055 188.955 634.543C190.485 631.779 192.076 629.058 193.682 626.344C193.144 625.864 192.607 625.384 192.053 624.889C190.941 627.019 189.829 629.15 188.684 631.344C188.075 631.191 187.465 631.037 186.837 630.879C186.113 632.665 186.113 632.665 185.374 634.488C182.954 639.905 179.565 644.398 176.025 649.022C175.72 648.945 175.415 648.869 175.101 648.789Z" fill="#689A43"/>
<path d="M429.145 344.494C429.002 345.147 428.858 345.799 428.71 346.472C431.137 346.236 431.137 346.236 433.762 345.659C434.282 344.757 434.802 343.855 435.337 342.926C437.014 342.611 438.7 342.349 440.389 342.113C446.497 339.943 446.497 339.943 448.157 337.811C449.142 337.716 450.128 337.62 451.144 337.521C451.288 336.869 451.431 336.216 451.579 335.544C452.197 335.657 452.816 335.77 453.453 335.886C457.105 335.681 459.628 334.371 462.913 332.733C465.73 331.342 468.596 330.217 471.514 329.094C469.538 327.727 468.535 327.081 466.172 327.518C465.503 327.793 464.833 328.068 464.144 328.351C463 328.812 463 328.812 461.834 329.282C461.019 329.629 460.204 329.976 459.364 330.333C458.523 330.68 457.683 331.027 456.817 331.384C435.403 340.349 435.403 340.349 429.145 344.494Z" fill="#81B64D"/>
<path d="M252.182 829.992C252.11 830.318 252.038 830.644 251.964 830.98C265.506 834.542 279.078 837.619 292.806 840.24C292.878 839.914 292.95 839.588 293.024 839.252C269.604 831.832 269.604 831.832 261.85 830.343C261.473 830.593 261.097 830.842 260.709 831.099C259.26 830.976 257.815 830.799 256.374 830.593C255.593 830.483 254.812 830.373 254.007 830.26C253.405 830.172 252.802 830.083 252.182 829.992Z" fill="#6FA144"/>
<path d="M140.98 697.577C141.141 698.306 141.303 699.036 141.469 699.787C145.548 698.319 147.291 696.13 149.889 692.519C150.815 691.337 151.744 690.159 152.677 688.983C158.206 681.827 158.206 681.827 158.413 678.69C158.344 678.091 158.274 677.492 158.203 676.876C152.768 679.947 152.768 679.947 151.499 683.28C150.019 686.984 148.029 689.26 145.456 692.183C143.916 693.935 142.411 695.723 140.98 697.577Z" fill="#669943"/>
<path d="M76.8742 758.631C76.6589 759.61 76.4436 760.589 76.2217 761.597C79.8061 762.846 83.3905 764.095 87.0835 765.381C86.0801 764.095 85.0767 762.809 84.0429 761.483C84.4878 761.014 84.9326 760.545 85.3909 760.062C87.0783 757.512 87.0372 755.888 86.9236 752.818C85.6759 753.502 84.429 754.188 83.1823 754.874C82.4878 755.256 81.7933 755.638 81.0778 756.031C79.6474 756.841 78.2503 757.719 76.8742 758.631ZM92.41 750.028C92.8983 752.238 92.8983 752.238 92.8983 752.238L92.41 750.028Z" fill="#61903E"/>
<path d="M963.212 348.783C965.764 350.47 965.764 350.47 967.754 350.182C968.518 349.952 969.282 349.722 970.069 349.485C970.902 349.235 971.734 348.985 972.592 348.728C973.46 348.454 974.328 348.181 975.222 347.899C976.094 347.643 976.966 347.386 977.864 347.122C984.357 345.125 984.357 345.125 986.134 342.042C978.161 342.264 970.576 345.736 963.212 348.783Z" fill="#7FB449"/>
<path d="M848.979 394.057C851.531 395.744 851.531 395.744 853.269 395.314C853.919 395.018 854.568 394.722 855.238 394.417C856.306 393.933 856.306 393.933 857.396 393.439C858.137 393.088 858.878 392.738 859.642 392.377C860.382 392.046 861.123 391.716 861.885 391.375C865.599 389.659 868.028 388.413 870.489 384.873C866.339 385.705 862.575 387.477 858.696 389.203C858.013 389.502 857.331 389.8 856.627 390.108C853.965 391.284 851.432 392.432 848.979 394.057Z" fill="#80B44B"/>
<path d="M926.33 361.394C928.416 362.864 929.422 363.372 931.935 362.996C934.367 362.179 936.791 361.355 939.202 360.467C939.938 360.202 940.673 359.937 941.431 359.664C946.459 357.678 946.459 357.678 947.856 355.186C948.083 354.608 948.311 354.029 948.546 353.432C947.825 353.705 947.104 353.978 946.362 354.259C939.718 356.759 933.05 359.142 926.33 361.394Z" fill="#81B64B"/>
<path d="M371.452 385.252C377.042 381.663 382.383 377.807 387.641 373.682C387.479 372.953 387.318 372.224 387.152 371.472C385.209 372.428 383.271 373.399 381.337 374.375C380.257 374.914 379.178 375.453 378.065 376.008C371.024 380.197 371.024 380.197 371.452 385.252Z" fill="#7EB34C"/>
<path d="M804.262 459.999C804.043 461.619 803.83 463.239 803.619 464.86C803.5 465.762 803.38 466.664 803.257 467.593C803.01 470.12 803.01 470.12 803.281 473.319C803.109 475.076 802.903 476.829 802.672 478.579C802.494 479.944 802.494 479.944 802.313 481.337C802.172 482.377 802.172 482.377 802.029 483.439C802.71 483.266 803.391 483.094 804.093 482.916C805.412 475.039 806.488 467.489 806.326 459.477C805.645 459.649 804.964 459.822 804.262 459.999Z" fill="#84B94D"/>
<path d="M808.292 415.101C808.453 415.83 808.614 416.56 808.78 417.311C809.796 416.751 810.811 416.19 811.857 415.613C813.187 414.882 814.518 414.151 815.849 413.42C816.518 413.05 817.188 412.68 817.877 412.299C821.438 410.292 821.438 410.292 825.24 408.941C825.383 408.288 825.527 407.635 825.675 406.963C818.59 407.151 813.621 410.289 808.292 415.101Z" fill="#80B54C"/>
<path d="M754.645 357.736C754.501 358.388 754.358 359.041 754.21 359.713C758.26 361.768 762.31 363.823 766.483 365.94C767.136 362.974 767.136 362.974 765.942 359.542C765.197 359.548 764.452 359.554 763.684 359.56C760.975 359.571 760.975 359.571 758.555 357.679C756.441 357.602 756.441 357.602 754.645 357.736ZM762.737 360.821C764.366 362.275 764.366 362.275 764.366 362.275L762.737 360.821Z" fill="#83B54C"/>
<path d="M628.212 312.273C630.719 314.872 632.476 315.621 635.922 316.053C636.765 316.164 637.607 316.276 638.475 316.391C639.349 316.494 640.223 316.598 641.124 316.704C642.01 316.819 642.897 316.934 643.811 317.052C645.996 317.333 648.183 317.603 650.37 317.863C650.442 317.537 650.514 317.21 650.588 316.874C647.42 316.045 644.251 315.227 641.08 314.41C640.18 314.175 639.281 313.939 638.354 313.696C637.489 313.475 636.623 313.253 635.732 313.025C634.537 312.715 634.537 312.715 633.318 312.399C631.199 311.983 631.199 311.983 628.212 312.273Z" fill="#8BC250"/>
<path d="M785.491 376.997C785.58 378.052 785.669 379.108 785.762 380.196C786.98 380.503 788.199 380.811 789.455 381.127C789.311 381.78 789.168 382.432 789.02 383.105C790.052 383.923 791.095 384.726 792.142 385.523C792.722 385.972 793.301 386.421 793.899 386.883C796.013 388.082 797.311 388.121 799.664 387.877C797.562 385.468 795.624 383.796 793.117 381.921C792.384 381.367 791.65 380.813 790.894 380.243C788.966 378.917 788.966 378.917 787.12 378.451C786.959 377.722 786.798 376.992 786.632 376.241C786.255 376.49 785.879 376.74 785.491 376.997Z" fill="#85B94E"/>
<path d="M708.284 710.25C708.445 710.979 708.606 711.708 708.772 712.46C713.347 710.055 716.516 706.19 718.986 701.47C719.011 700.074 718.999 698.677 718.933 697.282C717.14 699.39 715.356 701.506 713.578 703.628C713.066 704.228 712.554 704.828 712.026 705.446C710.729 707.001 709.501 708.622 708.284 710.25Z" fill="#80B54B"/>
<path d="M224.702 822.012C224.63 822.338 224.558 822.665 224.484 823.001C228.711 824.45 232.947 825.865 237.193 827.251C237.963 827.504 238.734 827.758 239.528 828.019C243.769 829.273 244.622 829.093 248.924 827.079C240.931 825.407 232.937 823.735 224.702 822.012Z" fill="#6E9E44"/>
<path d="M670.799 747.753C670.96 748.483 671.122 749.212 671.288 749.964C675.737 748.011 679.839 745.448 682.913 741.417C682.823 740.361 682.734 739.306 682.642 738.218C681.349 739.195 680.058 740.174 678.768 741.154C678.049 741.699 677.33 742.244 676.589 742.806C674.589 744.38 672.685 746.026 670.799 747.753Z" fill="#7FB34B"/>
<path d="M188.422 809.729C188.351 810.055 188.279 810.382 188.205 810.718C195.374 813.215 202.543 815.712 209.929 818.285C210.072 817.633 210.216 816.98 210.364 816.308C209.5 815.995 209.5 815.995 208.618 815.676C207.874 815.401 207.129 815.126 206.362 814.842C205.619 814.57 204.876 814.298 204.111 814.017C202.238 813.434 202.238 813.434 201.566 812.001C197.132 810.712 193.031 809.897 188.422 809.729Z" fill="#6E9F44"/>
<path d="M254.049 524.689C254.638 524.02 255.228 523.351 255.835 522.661C257.807 520.381 257.807 520.381 260.188 518.933C259.955 518.53 259.722 518.126 259.482 517.711C260.306 516.886 261.131 516.061 261.981 515.211C263.557 512.478 263.557 512.478 263.167 510.096C262.973 509.423 262.78 508.75 262.58 508.057C261.059 510.409 259.547 512.767 258.04 515.13C257.605 515.799 257.171 516.468 256.724 517.158C253.505 522.228 253.505 522.228 254.049 524.689Z" fill="#6FA246"/>
<path d="M193.899 625.354C197.914 621.79 199.704 619.122 201.343 613.665C200.805 613.185 200.268 612.705 199.714 612.211C198.684 613.794 197.667 615.387 196.654 616.983C196.086 617.869 195.518 618.754 194.933 619.667C193.628 622.155 193.628 622.155 193.899 625.354Z" fill="#699D43"/>
<path d="M881.461 379.294C882.303 379.851 883.146 380.408 884.013 380.981C886.817 380.193 886.817 380.193 890.012 378.907C891.073 378.488 892.134 378.068 893.227 377.635C894.04 377.301 894.854 376.967 895.692 376.623C895.602 375.567 895.513 374.511 895.421 373.424C894.059 373.769 892.697 374.114 891.293 374.469C891.149 375.122 891.006 375.774 890.858 376.447C889.742 376.585 889.742 376.585 888.604 376.726C885.943 377.234 883.88 378.035 881.461 379.294Z" fill="#82B64B"/>
<path d="M722.354 695.014C722.874 694.112 723.394 693.21 723.929 692.281C724.915 692.185 725.901 692.09 726.917 691.991C728.805 689.717 729.831 688.35 729.904 685.264C729.851 684.305 729.851 684.305 729.797 683.326C728.496 684.663 727.207 686.014 725.923 687.371C725.204 688.121 724.485 688.872 723.744 689.646C722.083 691.815 722.083 691.815 722.354 695.014Z" fill="#81B64C"/>
<path d="M772.728 368.56C772.584 369.212 772.44 369.865 772.293 370.537C772.902 370.691 773.511 370.844 774.139 371.003C773.996 371.655 773.852 372.308 773.704 372.98C774.682 373.378 775.66 373.775 776.667 374.184C779.912 375.468 779.912 375.468 782.502 377.287C782.231 374.088 782.231 374.088 780.829 372.744C780.232 372.339 779.635 371.934 779.02 371.517C778.43 371.106 777.84 370.694 777.231 370.271C775.497 369.258 775.497 369.258 772.728 368.56Z" fill="#86BA4E"/>
<path d="M154.926 744.926C156.555 746.38 156.555 746.38 158.829 746.29C159.723 746.153 160.617 746.017 161.538 745.877C162.43 745.753 163.321 745.63 164.24 745.502C166.977 744.656 167.823 743.767 169.374 741.266C164.45 742.193 159.652 743.126 154.926 744.926Z" fill="#63953F"/>
<path d="M211.016 596.275C214 594.666 215.401 593.592 217.053 590.428C217.807 587.553 217.807 587.553 216.613 584.121C215.581 585.726 214.558 587.339 213.54 588.955C212.969 589.852 212.399 590.749 211.811 591.674C210.527 594.065 210.527 594.065 211.016 596.275Z" fill="#6B9E44"/>
<path d="M950.608 352.906C951.946 354.026 951.946 354.026 954.084 354.827C957.479 353.792 957.479 353.792 960.494 352.27C960.637 351.617 960.781 350.964 960.929 350.292C957.107 349.969 954.113 351.397 950.608 352.906Z" fill="#81B64B"/>
<path d="M108.106 753.985C109.182 754.945 110.257 755.905 111.364 756.894C112.337 756.493 113.309 756.093 114.311 755.68C116.868 754.688 119.251 753.869 121.902 753.291C121.06 752.734 120.218 752.177 119.35 751.603C117.497 752.148 115.644 752.7 113.82 753.347C111.859 753.978 110.148 754.144 108.106 753.985Z" fill="#61923F"/>
<path d="M777.668 594.176C778.093 593.616 778.518 593.056 778.955 592.479C780.218 590.712 780.218 590.712 781.526 589.931C782.071 587.634 782.58 585.327 783.048 583.01C782.511 582.53 781.973 582.05 781.419 581.556C779.442 585.658 778.58 589.693 777.668 594.176Z" fill="#84BA4C"/>
<path d="M205.852 606.453C208.425 604.749 209.472 603.187 211.068 600.464C211.283 599.485 211.499 598.506 211.72 597.498C210.806 597.267 209.892 597.037 208.951 596.799C205.341 602.448 205.341 602.448 205.852 606.453Z" fill="#6B9E43"/>
<path d="M184.964 736.849C185.053 737.905 185.142 738.961 185.234 740.048C185.868 739.498 185.868 739.498 186.514 738.936C189.509 737.321 192.242 737.467 195.555 737.434C195.393 736.705 195.232 735.975 195.066 735.224C191.346 735.331 188.472 735.449 184.964 736.849Z" fill="#669941"/>
<path d="M732.082 681.814C735.114 680.421 735.56 679.41 736.941 676.061C737.274 675.004 737.607 673.947 737.95 672.858C734.604 674.728 731.119 677.459 732.082 681.814Z" fill="#7FB44B"/>
<path d="M160.483 675.364C165.939 670.181 165.939 670.181 167.275 666.641C166.737 666.161 166.199 665.681 165.645 665.187C165.502 665.839 165.358 666.492 165.21 667.164C164.529 667.337 163.848 667.509 163.146 667.687C159.88 672.633 159.88 672.633 160.483 675.364Z" fill="#679842"/>
<path d="M915.573 365.985C916.416 366.541 917.258 367.098 918.126 367.672C921.463 366.622 921.463 366.622 924.535 365.115C924.679 364.462 924.822 363.81 924.97 363.137C921.271 362.803 918.814 364.18 915.573 365.985Z" fill="#82B64B"/>
<path d="M827.034 405.217C827.876 405.774 828.718 406.331 829.586 406.905C832.448 405.801 832.448 405.801 835.072 404.115C835.288 403.136 835.503 402.157 835.725 401.149C832.303 401.791 829.912 403.16 827.034 405.217Z" fill="#80B54B"/>
<path d="M416.912 847.547C419.934 849.545 421.098 849.329 424.566 849.021C425.461 848.947 426.355 848.872 427.277 848.796C427.961 848.73 428.645 848.665 429.349 848.597C428.274 847.637 427.199 846.677 426.091 845.688C425.034 846.11 423.976 846.532 422.886 846.967C420.426 846.521 420.426 846.521 418.27 845.802C417.822 846.378 417.374 846.954 416.912 847.547Z" fill="#6F9F43"/>
<path d="M335.66 844.788C335.588 845.115 335.516 845.441 335.443 845.777C340.179 847.066 344.634 847.936 349.509 848.282C349.581 847.956 349.653 847.63 349.727 847.293C344.791 845.094 341.081 843.734 335.66 844.788Z" fill="#709F44"/>
<path d="M984.945 320.87C984.887 323.912 985.243 326.54 985.974 329.479C986.584 329.632 987.193 329.786 987.821 329.944C988.05 326.48 987.952 324.674 986.791 321.336C986.182 321.182 985.572 321.029 984.945 320.87Z" fill="#82B74B"/>
<path d="M804.592 449.648C804.15 453.32 804.15 453.32 803.993 456.802C804.602 456.956 805.211 457.11 805.839 457.268C806.181 454.255 806.522 451.241 806.873 448.137C806.121 448.636 805.368 449.134 804.592 449.648Z" fill="#84BA4D"/>
<path d="M349.943 846.303C349.872 846.629 349.8 846.955 349.726 847.291C357.578 849.57 357.578 849.57 361.24 848.109C357.153 845.913 354.456 845.556 349.943 846.303Z" fill="#6E9E43"/>
<path d="M300.879 697.216C300.735 697.868 300.591 698.521 300.444 699.193C304.333 698.85 306.336 698.058 309.135 695.124C307.163 695.316 305.191 695.507 303.16 695.704C303.017 696.357 302.873 697.009 302.725 697.681C302.116 697.528 301.506 697.374 300.879 697.216Z" fill="#629540"/>
<path d="M949.913 316.206C953.323 317.067 955.526 316.285 958.875 315.336C959.018 314.684 959.162 314.031 959.309 313.359C955.844 313.788 953.052 314.572 949.913 316.206Z" fill="#81B34A"/>
<path d="M898.844 371.156C898.701 371.808 898.557 372.461 898.409 373.133C900.656 373.439 900.656 373.439 903.243 373.309C904.903 371.575 904.903 371.575 905.96 369.82C901.166 370.567 901.166 370.567 898.844 371.156Z" fill="#83B74B"/>
<path d="M760.662 631.626C761.576 631.857 762.49 632.087 763.432 632.325C764.077 629.388 764.723 626.452 765.389 623.426C762.786 626.031 761.473 627.939 760.662 631.626Z" fill="#80B64B"/>
<path d="M217.534 584.355C218.52 584.26 219.506 584.164 220.522 584.066C221.602 581.925 221.602 581.925 222.532 579.355C222.138 578.222 221.744 577.09 221.338 575.923C218.268 581.019 218.268 581.019 217.534 584.355Z" fill="#6EA046"/>
<path d="M796.095 541.427C795.592 543.711 795.09 545.995 794.572 548.348C794.877 548.425 795.183 548.502 795.497 548.582C796 546.298 796.502 544.014 797.02 541.66C796.715 541.583 796.409 541.506 796.095 541.427Z" fill="#78A746"/>
<path d="M673.4 319.498C673.328 319.824 673.257 320.151 673.183 320.487C674.706 320.871 676.229 321.255 677.799 321.651C677.871 321.325 677.943 320.999 678.017 320.663C676.493 320.278 674.97 319.894 673.4 319.498Z" fill="#7BAB4A"/>
<path d="M216.173 820.904C216.101 821.231 216.029 821.557 215.955 821.893C217.479 822.277 219.002 822.662 220.572 823.058C220.644 822.731 220.715 822.405 220.789 822.069C219.266 821.685 217.742 821.3 216.173 820.904Z" fill="#689240"/>
<path d="M144.976 794.594C144.905 794.92 144.833 795.246 144.759 795.582C146.282 795.967 147.806 796.351 149.375 796.747C149.447 796.421 149.519 796.095 149.593 795.758C148.069 795.374 146.546 794.99 144.976 794.594Z" fill="#618C3D"/>
<path d="M700.663 328.462C704.139 330.382 704.139 330.382 704.139 330.382L700.663 328.462Z" fill="#7AA849"/>
<path d="M211.831 588.133C211.886 592.321 211.886 592.321 211.886 592.321L211.831 588.133Z" fill="#659240"/>
<path d="M991.078 332.854C991.544 333.66 992.01 334.466 992.49 335.297C992.633 334.644 992.777 333.992 992.925 333.319C992.316 333.166 991.706 333.012 991.078 332.854Z" fill="#68933C"/>
<path d="M797.619 534.507C797.892 537.707 797.892 537.707 797.892 537.707L797.619 534.507Z" fill="#78A746"/>
<path d="M807.467 458.72C807.739 461.92 807.739 461.92 807.739 461.92L807.467 458.72Z" fill="#7CAB47"/>
<path d="M794.354 549.337C794.844 551.548 794.844 551.548 794.844 551.548L794.354 549.337Z" fill="#77A646"/>
<path d="M774.625 608.018C775.116 610.229 775.116 610.229 775.116 610.229L774.625 608.018Z" fill="#76A346"/>
<path d="M772.18 614.707C772.67 616.918 772.67 616.918 772.67 616.918L772.18 614.707Z" fill="#76A444"/>
<path d="M807.476 423.242C807.966 425.453 807.966 425.453 807.966 425.453L807.476 423.242Z" fill="#80B24C"/>
<path d="M807.422 419.056C807.912 421.267 807.912 421.267 807.912 421.267L807.422 419.056Z" fill="#7FB14B"/>
<path d="M724.201 695.48C724.691 697.691 724.691 697.691 724.691 697.691L724.201 695.48Z" fill="#76A346"/>
<path d="M664.932 756.709C665.422 758.92 665.422 758.92 665.422 758.92L664.932 756.709Z" fill="#74A346"/>
<path d="M336.797 409.9C337.287 412.111 337.287 412.111 337.287 412.111L336.797 409.9Z" fill="#709C44"/>
<path d="M260.517 508.581C261.007 510.792 261.007 510.792 261.007 510.792L260.517 508.581Z" fill="#689543"/>
<path d="M199.226 610C199.716 612.211 199.716 612.211 199.716 612.211L199.226 610Z" fill="#658F40"/>
<path d="M141.634 694.612C142.124 696.823 142.124 696.823 142.124 696.823L141.634 694.612Z" fill="#618C3F"/>
</svg>
