<svg width="1024" height="1024" viewBox="0 0 1024 1024" fill="none" xmlns="http://www.w3.org/2000/svg">
<path d="M848 84C848.101 84.8843 848.201 85.7686 848.305 86.6797C848.799 90.1368 849.561 93.4893 850.383 96.8828C855.455 117.873 858.876 139.004 861.998 160.365C862.663 164.924 862.663 164.924 863.519 169.449C864.306 173.619 864.663 177.835 865.086 182.055C865.188 183.051 865.289 184.048 865.394 185.074C866.641 197.379 867.831 209.688 869 222C869.09 222.94 869.18 223.88 869.273 224.848C873.537 269.556 872.572 313.912 868.062 358.562C867.983 359.354 867.904 360.146 867.822 360.961C865.914 379.742 862.691 398.17 858.826 416.637C858.354 418.899 857.89 421.162 857.426 423.426C857.282 424.101 857.138 424.776 856.99 425.471C856.193 429.376 855.86 433.018 856 437C855.01 437.495 855.01 437.495 854 438C853.058 440.507 853.058 440.507 852.266 443.59C851.941 444.759 851.617 445.928 851.283 447.133C850.772 449.016 850.772 449.016 850.25 450.938C847.661 460.278 844.982 469.535 841.728 478.668C840.55 482.03 840 484.378 840 488C839.01 488.495 839.01 488.495 838 489C837.139 490.928 836.371 492.897 835.645 494.879C835.191 496.102 834.737 497.326 834.269 498.586C834.032 499.236 833.794 499.885 833.549 500.554C832.32 503.906 831.062 507.248 829.805 510.59C829.436 511.572 829.436 511.572 829.059 512.573C824.046 525.875 817.86 538.349 811.132 550.857C810.073 552.861 809.065 554.882 808.07 556.918C800.203 572.762 790.266 587.631 780 602C779.421 602.811 778.841 603.623 778.245 604.458C771.302 614.132 764.15 623.52 756.308 632.481C755.033 633.962 753.799 635.477 752.566 636.992C742.548 649.251 731.019 660.162 719.764 671.268C717.937 673.074 716.125 674.894 714.328 676.73C712 679 712 679 709 681C707.637 682.072 706.284 683.157 704.938 684.25C703.529 685.378 702.121 686.506 700.711 687.632C699.489 688.609 698.267 689.588 697.047 690.567C686.966 698.629 676.704 706.039 665.761 712.884C663.488 714.324 661.276 715.845 659.062 717.375C655.491 719.768 651.805 721.685 647.934 723.547C645.116 724.943 642.365 726.435 639.609 727.948C611.67 743.161 570.618 764 538 764C537.67 764.66 537.34 765.32 537 766C535.231 766.344 535.231 766.344 532.855 766.5C528.541 766.85 524.276 767.341 519.988 767.938C518.735 768.11 517.481 768.283 516.189 768.461C513.624 768.818 511.059 769.177 508.494 769.539C492.788 771.692 477.321 772.167 461.5 772.125C460.579 772.124 459.659 772.124 458.71 772.123C446.864 772.115 435.049 771.989 423.221 771.268C418.983 770.851 418.983 770.851 415 772C415 771.01 415 770.02 415 769C413.761 769.034 412.522 769.067 411.246 769.102C405.426 769.095 399.803 768.279 394.062 767.375C392.943 767.201 391.824 767.027 390.67 766.848C377.559 764.726 364.451 761.945 351.661 758.341C346.283 756.823 346.283 756.823 341 758C339.075 759.881 337.469 761.656 335.812 763.75C335.335 764.335 334.857 764.92 334.365 765.522C332.893 767.336 331.443 769.164 330 771C329.581 771.532 329.161 772.065 328.729 772.613C326.244 775.783 323.802 778.983 321.372 782.194C319.879 784.159 318.376 786.115 316.871 788.07C302.625 806.591 288.786 825.435 276 845C275.514 845.742 275.028 846.483 274.527 847.247C269.013 855.663 263.507 864.085 258.188 872.625C257.562 873.628 256.937 874.631 256.293 875.664C254.839 877.847 254.839 877.847 255 880C254.415 880.574 253.83 881.147 253.227 881.738C250.653 884.353 249.145 886.975 247.375 890.188C246.676 891.442 245.975 892.696 245.273 893.949C244.906 894.608 244.538 895.268 244.159 895.947C242.156 899.494 240.075 902.995 238 906.5C233.595 913.96 229.275 921.465 225 929C221.035 928.428 218.404 927.25 215.062 925.062C214.115 924.442 213.168 923.822 212.191 923.184C207.968 920.294 203.806 917.321 199.684 914.289C197.127 912.425 195.024 911.008 192 910C192 907 192 907 193.317 905.604C194.15 904.81 194.15 904.81 195 904C196.018 902.474 196.992 900.918 197.934 899.344C198.774 897.947 198.774 897.947 199.632 896.523C200.526 895.026 200.526 895.026 201.438 893.5C202.698 891.409 203.96 889.32 205.223 887.23C205.856 886.183 206.489 885.135 207.141 884.056C224.194 856.019 242.726 828.492 263.738 803.25C266.078 800.43 268.278 797.647 270.242 794.551C270.822 793.709 271.402 792.867 272 792C272.66 792 273.32 792 274 792C274.215 791.477 274.431 790.953 274.652 790.414C276.534 787.044 279.034 784.267 281.562 781.375C282.099 780.755 282.635 780.136 283.188 779.498C287.07 775.028 291.01 770.612 294.988 766.227C297.415 763.54 299.794 760.815 302.164 758.078C303.553 756.506 304.969 754.958 306.398 753.422C307.624 752.099 307.624 752.099 308.875 750.75C309.636 749.94 310.396 749.131 311.18 748.297C313.452 745.455 313.452 745.455 314 742C313.029 738.75 313.029 738.75 311.562 735.375C309 729.161 309 729.161 309 727C308.01 726.67 307.02 726.34 306 726C305.938 724.969 305.876 723.938 305.812 722.875C304.96 716.094 303.066 706.713 297.832 702.082C296.925 701.546 296.925 701.546 296 701C296.186 700.237 296.371 699.474 296.562 698.688C297.228 695.91 297.228 695.91 296 693C295.164 689.479 294.35 685.953 293.549 682.424C291.948 675.001 291.948 675.001 288.875 668.125C288 666 288 666 288.062 662.633C288.123 656.908 287.065 651.381 286.125 645.75C283.217 627.537 281.572 609.433 281 591C280.977 590.315 280.953 589.63 280.929 588.924C279.758 549.898 285.235 508.886 298 472C298.541 470.396 299.081 468.792 299.621 467.188C302.721 458.082 306.044 449.12 309.867 440.291C311.124 437.353 312 435.233 312 432C312.44 431.581 312.879 431.162 313.332 430.73C315.722 428.251 316.51 425.528 317.688 422.312C318.124 421.133 318.561 419.954 319.012 418.738C319.338 417.835 319.664 416.931 320 416C320.66 416 321.32 416 322 416C322.209 415.221 322.418 414.443 322.633 413.641C324.502 408.664 327.147 404.301 329.875 399.75C330.455 398.778 331.035 397.806 331.633 396.804C341.543 380.327 352.276 364.315 364.816 349.703C367.148 347.139 367.148 347.139 368 344C369.418 342.818 370.84 341.641 372.284 340.491C374.081 338.929 375.55 337.282 377.082 335.461C381.505 330.34 386.269 325.585 391.062 320.812C391.935 319.937 392.807 319.061 393.705 318.158C397.99 313.88 402.292 309.805 407 306C408.005 305.005 409.005 304.005 410 303C418.03 296.085 426.509 289.741 435.032 283.454C436.277 282.534 437.521 281.61 438.761 280.683C454.523 268.907 471.759 259.412 489 250C488.67 249.34 488.34 248.68 488 248C488.784 247.938 489.567 247.876 490.375 247.812C495.353 246.697 499.525 244.397 504 242C504 241.34 504 240.68 504 240C504.695 240.062 505.39 240.124 506.105 240.188C509.759 239.951 512.085 238.702 515.312 237C516.381 236.443 517.45 235.886 518.551 235.312C519.359 234.879 520.167 234.446 521 234C521 233.34 521 232.68 521 232C521.932 231.927 522.864 231.853 523.824 231.777C529.169 231.005 533.897 228.706 538.812 226.562C560.171 217.474 581.856 209.51 603.842 202.1C606.175 201.287 608.486 200.448 610.795 199.575C615.332 197.862 619.904 196.263 624.484 194.672C625.38 194.36 626.276 194.048 627.199 193.726C630.049 192.733 632.899 191.742 635.75 190.75C637.616 190.1 639.482 189.451 641.348 188.801C642.268 188.48 643.189 188.16 644.137 187.829C647.839 186.54 651.541 185.25 655.243 183.96C657.088 183.318 658.933 182.675 660.779 182.033C663.459 181.1 666.14 180.165 668.82 179.23C669.612 178.955 670.403 178.68 671.219 178.397C677.234 176.296 683.202 174.082 689.144 171.78C693.792 170 693.792 170 696 170C696 169.34 696 168.68 696 168C697.258 167.773 698.516 167.546 699.812 167.312C704.728 166.239 709.009 164.314 713.52 162.121C716 161 716 161 717.879 160.539C721.768 159.551 725.384 157.712 729.043 156.084C733.796 154 733.796 154 736 154C736.33 153.34 736.66 152.68 737 152C739.109 151.035 739.109 151.035 741.75 150.062C745.43 148.658 748.645 147.072 752 145C752.575 144.872 753.149 144.743 753.741 144.611C758.707 143.267 763.23 140.424 767.782 138.053C769.688 137.062 771.598 136.083 773.51 135.104C774.719 134.477 775.928 133.85 777.137 133.223C778.237 132.653 779.338 132.083 780.471 131.496C783.102 130.248 783.102 130.248 784 128C785.743 127.071 787.521 126.207 789.312 125.375C795.967 122.123 801.942 118.244 808 114C808.539 113.629 809.077 113.258 809.632 112.875C816.78 107.95 823.682 102.765 830.438 97.3125C831.088 96.7902 831.738 96.2679 832.407 95.7297C836.373 92.4884 839.968 89.0762 843.442 85.3093C845 84 845 84 848 84ZM298 698C299 700 299 700 299 700L298 698ZM307 724C308 726 308 726 308 726L307 724Z" fill="#76AD48"/>
<path d="M315 742C315.99 742.66 316.98 743.32 318 744C312.78 750.439 307.497 756.796 302 763C300.874 764.291 299.749 765.583 298.625 766.875C295.943 769.941 293.229 772.975 290.5 776C289 777.667 287.5 779.333 286 781C285.155 781.934 285.155 781.934 284.293 782.887C279.799 787.927 275.616 793.202 271.421 798.491C268.69 801.923 265.924 805.292 263 808.562C261.169 810.612 259.659 812.512 258.125 814.812C255.392 818.912 252.221 822.572 249.023 826.316C247.087 828.885 246.178 831.044 245 834C243.66 835.752 242.258 837.458 240.812 839.125C236.993 843.671 233.786 848.323 230.688 853.379C229.051 855.92 227.284 858.222 225.375 860.562C222.289 864.402 220.161 868.354 218.141 872.836C217 875 217 875 215.422 876.539C213.696 878.312 213.572 879.63 213 882C211.766 883.57 211.766 883.57 210.25 885.125C206.997 888.722 205.071 892.564 203.078 896.961C202 899 202 899 200 900C201.162 893.154 203.968 888.513 207.812 882.798C209.716 879.916 211.539 876.984 213.374 874.057C228.732 849.558 245.225 825.49 263.738 803.25C266.078 800.43 268.278 797.647 270.242 794.551C271.112 793.288 271.112 793.288 272 792C272.66 792 273.32 792 274 792C274.323 791.215 274.323 791.215 274.652 790.414C276.534 787.044 279.034 784.267 281.562 781.375C282.099 780.755 282.635 780.136 283.188 779.498C287.07 775.028 291.01 770.612 294.988 766.227C297.416 763.54 299.795 760.813 302.168 758.078C305.085 754.769 308.086 751.535 311.082 748.297C312.796 746.244 313.942 744.44 315 742Z" fill="#85BA4D"/>
<path d="M291 504C291.33 504 291.66 504 292 504C291.64 509.608 290.855 514.774 289.313 520.188C288.303 523.903 287.701 526.297 289.063 529.938C289.372 530.948 289.681 531.959 290 533C288.719 534.707 287.382 536.374 286 538C285.75 541.542 285.75 541.542 286 545C285.722 546.021 285.722 546.021 285.438 547.062C284.841 549.09 284.841 549.09 285.5 551.5C285.951 554.66 285.88 556.861 285.539 559.992C284.82 567.999 284.85 575.986 284.87 584.019C284.875 586.627 284.87 589.235 284.863 591.844C284.86 599.962 284.952 607.934 286 616C285.01 616.495 285.01 616.495 284 617C281.562 612.204 281.556 607.515 281.375 602.25C281.32 600.836 281.32 600.836 281.264 599.394C281.163 596.596 281.079 593.798 281 591C280.977 590.293 280.953 589.587 280.929 588.858C280.114 561.81 282.163 532.225 289 506C289.66 505.34 290.32 504.68 291 504Z" fill="#85BA4E"/>
<path d="M848 84C848.495 89.94 848.495 89.94 849 96C848.01 94.68 847.02 93.36 846 92C845.423 92.2887 844.845 92.5775 844.25 92.875C842.866 93.5668 841.472 94.2383 840.062 94.875C837.882 95.9849 837.882 95.9849 835.75 97.8125C833.565 99.5504 831.503 100.947 829.125 102.375C825.043 104.876 821.561 107.816 818 111C814.815 113.78 811.79 116.105 808 118C807.34 118.99 806.68 119.98 806 121C804.349 121.76 802.692 122.51 801.004 123.184C798.894 124.043 796.857 124.995 794.812 126C794.18 126.309 793.547 126.619 792.895 126.938C790.773 128.127 788.934 129.525 787 131C785.353 132.133 783.685 133.236 782 134.312C780.732 135.142 780.732 135.142 779.438 135.988C777 137 777 137 774.688 136.168C774.131 135.783 773.574 135.397 773 135C773.71 134.662 774.421 134.325 775.152 133.977C776.071 133.531 776.991 133.085 777.938 132.625C778.854 132.184 779.771 131.743 780.715 131.289C783.129 130.208 783.129 130.208 784 128C785.743 127.071 787.521 126.207 789.312 125.375C795.967 122.123 801.942 118.244 808 114C808.539 113.629 809.077 113.258 809.632 112.875C816.78 107.95 823.682 102.765 830.438 97.3125C831.088 96.7902 831.738 96.2679 832.407 95.7297C836.373 92.4884 839.968 89.0762 843.442 85.3093C845 84 845 84 848 84Z" fill="#689943"/>
<path d="M284 621C284.66 621 285.32 621 286 621C286.51 624.332 287.006 627.666 287.5 631C287.643 631.935 287.786 632.869 287.934 633.832C288.557 638.075 289.084 642.175 289.012 646.469C289 650.017 289.776 652.223 291.133 655.453C292.338 658.991 293.007 662.58 293.688 666.25C293.819 666.948 293.95 667.646 294.085 668.365C294.677 671.656 295 674.643 295 678C294.34 678 293.68 678 293 678C292.546 676.763 292.093 675.525 291.625 674.25C290.802 672.02 290.027 670.046 288.813 668C288 666 288 666 288.074 662.676C288.146 655.641 286.607 648.727 285.422 641.818C284.273 634.804 283.743 628.106 284 621Z" fill="#84B84D"/>
<path d="M311 441C311.66 441.66 312.32 442.32 313 443C311.667 445 310.333 447 309 449C308.156 452.076 307.476 455.172 306.781 458.285C306 461 306 461 304 463C303.508 464.969 303.02 466.939 302.57 468.918C302 471 302 471 300.438 474.062C298.794 477.421 298.518 480.312 298 484C297.029 486.346 296.031 488.68 295 491C294.814 491.949 294.629 492.897 294.438 493.875C294.293 494.576 294.149 495.277 294 496C293.01 496.495 293.01 496.495 292 497C292.471 488.216 295.207 480.264 298 472C298.282 471.163 298.564 470.326 298.855 469.464C299.749 466.827 300.653 464.194 301.562 461.562C301.843 460.747 302.124 459.931 302.413 459.091C307.545 444.455 307.545 444.455 311 441Z" fill="#85B94E"/>
<path d="M332 399C332.33 399.66 332.66 400.32 333 401C331.752 403.745 330.435 406.353 329 409C328.505 409.923 328.01 410.846 327.5 411.797C325.511 415.476 323.525 419.139 321.348 422.711C320.051 424.914 319.594 426.548 319 429C318.017 431.008 317.016 433.008 316 435C315.315 436.659 314.641 438.323 314 440C313.34 440 312.68 440 312 440C311.707 434.043 311.707 434.043 312 432C313 431 314 430 315 429C315.971 426.803 316.861 424.568 317.688 422.312C318.124 421.133 318.561 419.954 319.012 418.738C319.338 417.835 319.664 416.931 320 416C320.66 416 321.32 416 322 416C322.309 414.824 322.309 414.824 322.625 413.625C327.277 401.362 327.277 401.362 332 399Z" fill="#82B74D"/>
<path d="M395 317C395.99 317.33 396.98 317.66 398 318C397.039 318.944 397.039 318.944 396.059 319.906C391.403 324.513 386.902 329.161 382.644 334.137C380.466 336.605 378.126 338.886 375.777 341.191C372.698 344.324 369.853 347.662 367 351C366 348 366 348 366.562 346.125C368.171 343.747 370.091 342.224 372.324 340.449C374.078 338.932 375.507 337.336 377 335.562C382.583 328.992 388.869 323.054 395 317Z" fill="#7FB44C"/>
<path d="M734 156C730.506 159.083 727.555 160.911 723 162C722.01 161.67 721.02 161.34 720 161C724.052 157.596 728.723 154.241 734 156ZM716 160C717.32 160.66 718.64 161.32 720 162C713.27 166.528 706.963 169.446 699 171C695.981 171.947 692.989 172.965 690 174C689.67 173.34 689.34 172.68 689 172C691.31 171.34 693.62 170.68 696 170C696 169.34 696 168.68 696 168C697.887 167.66 697.887 167.66 699.812 167.313C705.589 166.052 710.713 163.589 716 161C716 160.67 716 160.34 716 160Z" fill="#689A43"/>
<path d="M363 352C363.66 352 364.32 352 365 352C364.188 354.438 364.188 354.438 363 357C362.01 357.33 361.02 357.66 360 358C359.293 359.65 358.634 361.321 358 363C354.445 368.778 354.445 368.778 352 370C351.67 370.99 351.34 371.98 351 373C350.34 373 349.68 373 349 373C348.959 373.66 348.918 374.32 348.875 375C347.796 378.701 345.93 380.994 343.566 383.996C341.552 386.573 339.782 389.259 338 392C337.168 389.664 336.792 388.489 337.782 386.163C338.207 385.538 338.632 384.913 339.07 384.27C339.788 383.2 339.788 383.2 340.52 382.109C341.05 381.351 341.579 380.593 342.125 379.812C342.66 379.028 343.196 378.244 343.747 377.436C357.515 357.485 357.515 357.485 363 352Z" fill="#81B64D"/>
<path d="M871 280C871.33 280 871.66 280 872 280C872.14 294.7 871.807 309.321 871 324C870.67 324 870.34 324 870 324C868.552 298.293 868.552 298.293 869 290C869.33 289.67 869.66 289.34 870 289C870.232 287.485 870.412 285.962 870.563 284.438C870.646 283.611 870.73 282.785 870.816 281.934C870.877 281.296 870.938 280.657 871 280Z" fill="#6FA144"/>
<path d="M771 136C771.66 136.33 772.32 136.66 773 137C770.607 140.855 768.088 142.149 764 144C762.644 144.683 761.29 145.371 759.938 146.062C751.743 150.121 751.743 150.121 748.688 149.625C748.131 149.419 747.574 149.213 747 149C751.257 144.117 751.257 144.117 754.758 143.566C758.664 142.884 761.326 141.355 764.75 139.375C766.8 138.191 768.878 137.049 771 136Z" fill="#669943"/>
<path d="M845 84C845.99 84 846.98 84 848 84C848.33 87.96 848.66 91.92 849 96C848.01 94.68 847.02 93.36 846 92C845.443 92.3506 844.886 92.7012 844.312 93.0625C841.461 94.2185 839.915 93.8097 837 93C837.957 91.8741 838.916 90.7493 839.875 89.625C840.409 88.9985 840.942 88.372 841.492 87.7266C842.614 86.4416 843.794 85.2063 845 84ZM833 98C835 99 835 99 835 99L833 98Z" fill="#61903E"/>
<path d="M238 901C239 904 239 904 238.243 905.977C237.838 906.709 237.433 907.441 237.016 908.195C236.575 908.993 236.134 909.791 235.68 910.613C235.208 911.442 234.736 912.271 234.25 913.125C233.794 913.962 233.337 914.798 232.867 915.66C229.384 921.872 229.384 921.872 226 923C228.14 914.868 233.3 907.869 238 901Z" fill="#7FB449"/>
<path d="M309 794C310 797 310 797 309.167 798.686C308.727 799.286 308.286 799.886 307.832 800.504C307.11 801.491 307.11 801.491 306.373 802.498C305.858 803.179 305.343 803.861 304.812 804.562C304.317 805.248 303.821 805.933 303.311 806.639C300.768 810.062 298.987 812.274 295 814C296.801 809.928 299.408 806.467 302 802.875C302.451 802.242 302.902 801.609 303.367 800.957C305.137 798.491 306.85 796.15 309 794Z" fill="#80B44B"/>
<path d="M259 866C259.904 868.473 260.148 869.619 259.18 872.113C257.808 874.425 256.433 876.726 255 879C254.568 879.695 254.136 880.39 253.691 881.105C250.573 885.817 250.573 885.817 247.848 886.688C247.238 886.791 246.628 886.894 246 887C246.436 886.322 246.871 885.644 247.32 884.945C251.322 878.692 255.217 872.388 259 866Z" fill="#81B64B"/>
<path d="M416 302C411.209 306.925 406.223 311.536 401 316C400.34 315.67 399.68 315.34 399 315C400.386 313.221 401.784 311.452 403.188 309.687C403.965 308.701 404.742 307.715 405.543 306.699C411.259 300.419 411.259 300.419 416 302Z" fill="#7EB34C"/>
<path d="M383 763C384.605 763.141 386.209 763.288 387.812 763.438C388.706 763.519 389.599 763.6 390.52 763.684C393 764 393 764 396 765C397.725 765.22 399.455 765.405 401.188 765.562C402.539 765.688 402.539 765.688 403.918 765.816C404.949 765.907 404.949 765.907 406 766C405.67 766.66 405.34 767.32 405 768C397.133 767.575 389.638 766.975 382 765C382.33 764.34 382.66 763.68 383 763Z" fill="#84B94D"/>
<path d="M339 757C339.66 757.33 340.32 757.66 341 758C340.218 758.915 339.435 759.83 338.629 760.773C337.607 761.974 336.585 763.174 335.562 764.375C335.046 764.978 334.53 765.582 333.998 766.203C331.214 769.404 331.214 769.404 329 773C328.34 773 327.68 773 327 773C328.893 765.773 333.101 761.382 339 757Z" fill="#80B54C"/>
<path d="M297 689C297.66 689 298.32 689 299 689C299.99 693.62 300.98 698.24 302 703C299 703 299 703 296 701C296.186 700.237 296.371 699.474 296.562 698.688C297.228 695.91 297.228 695.91 296 693C296.438 690.812 296.438 690.812 297 689ZM298 698C299 700 299 700 299 700L298 698Z" fill="#83B54C"/>
<path d="M284 549C285.885 552.16 286.177 554.131 285.758 557.766C285.661 558.655 285.564 559.545 285.465 560.461C285.353 561.381 285.241 562.302 285.125 563.25C285.021 564.186 284.916 565.122 284.809 566.086C284.55 568.392 284.28 570.696 284 573C283.67 573 283.34 573 283 573C282.971 569.563 282.953 566.125 282.938 562.688C282.929 561.711 282.921 560.735 282.912 559.729C282.909 558.791 282.906 557.853 282.902 556.887C282.894 555.591 282.894 555.591 282.886 554.268C283 552 283 552 284 549Z" fill="#8BC250"/>
<path d="M308 725C308.99 725.33 309.98 725.66 311 726C311 727.32 311 728.64 311 730C311.66 730 312.32 730 313 730C313.535 731.244 314.052 732.496 314.562 733.75C314.853 734.446 315.143 735.142 315.441 735.859C316.078 738.3 315.802 739.64 315 742C313.2 739.3 312.066 736.933 310.875 733.938C310.522 733.06 310.169 732.182 309.805 731.277C309 729 309 729 309 727C308.34 726.67 307.68 726.34 307 726C307.33 725.67 307.66 725.34 308 725Z" fill="#85B94E"/>
<path d="M646 721C646.66 721.33 647.32 721.66 648 722C644.59 726.152 640.119 728.531 635 730C633.656 729.711 632.32 729.383 631 729C633.453 727.636 635.912 726.284 638.375 724.938C639.074 724.548 639.772 724.158 640.492 723.756C642.296 722.776 644.146 721.881 646 721Z" fill="#80B54B"/>
<path d="M870 250C870.33 250 870.66 250 871 250C871.367 254.665 871.699 259.331 872 264C872.057 264.848 872.113 265.696 872.172 266.57C872.348 271.205 871.97 272.04 869 276C869.33 267.42 869.66 258.84 870 250Z" fill="#6E9E44"/>
<path d="M691 691C691.66 691.33 692.32 691.66 693 692C690.053 696.125 686.605 699.756 682 702C681.01 701.67 680.02 701.34 679 701C680.248 699.894 681.499 698.79 682.75 697.688C683.446 697.073 684.142 696.458 684.859 695.824C686.851 694.127 688.889 692.545 691 691Z" fill="#7FB34B"/>
<path d="M867 210C867.33 210 867.66 210 868 210C868.66 217.92 869.32 225.84 870 234C869.34 234 868.68 234 868 234C867.909 233.043 867.909 233.043 867.816 232.066C867.733 231.24 867.649 230.414 867.563 229.562C867.481 228.739 867.4 227.915 867.316 227.066C867.211 225.013 867.211 225.013 866 224C865.836 219.16 866.047 214.767 867 210Z" fill="#6E9F44"/>
<path d="M578 213C577.216 213.454 576.433 213.907 575.625 214.375C572.963 215.884 572.963 215.884 571 218C570.67 217.67 570.34 217.34 570 217C569.01 217.66 568.02 218.32 567 219C564 220 564 220 561.812 219.062C561.214 218.712 560.616 218.361 560 218C562.622 216.97 565.247 215.95 567.875 214.937C568.621 214.643 569.368 214.348 570.137 214.045C575.773 211.887 575.773 211.887 578 213Z" fill="#6FA246"/>
<path d="M689 174C684.615 177.316 681.625 178.55 676 179C675.67 178.34 675.34 177.68 675 177C676.766 176.301 678.538 175.617 680.312 174.938C681.299 174.555 682.285 174.172 683.301 173.778C686 173 686 173 689 174Z" fill="#699D43"/>
<path d="M287 824C287.33 824.99 287.66 825.98 288 827C286.566 829.699 286.566 829.699 284.562 832.688C283.904 833.681 283.245 834.675 282.566 835.699C282.049 836.458 281.533 837.218 281 838C280.01 837.67 279.02 837.34 278 837C278.66 835.68 279.32 834.36 280 833C280.66 833 281.32 833 282 833C282.402 831.886 282.402 831.886 282.812 830.75C283.942 828.134 285.209 826.198 287 824Z" fill="#82B64B"/>
<path d="M628 732C627.01 732.33 626.02 732.66 625 733C624.67 733.99 624.34 734.98 624 736C621.365 737.425 619.806 738.169 616.832 737.547C615.925 737.277 615.925 737.277 615 737C616.596 735.967 618.202 734.949 619.812 733.938C620.706 733.37 621.599 732.801 622.52 732.215C625 731 625 731 628 732Z" fill="#81B64C"/>
<path d="M303 710C303.66 710 304.32 710 305 710C305 710.66 305 711.32 305 712C305.66 712 306.32 712 307 712C307.144 713.093 307.289 714.186 307.438 715.312C307.883 718.931 307.883 718.931 309 722C306 721 306 721 305.051 719.258C304.807 718.554 304.564 717.85 304.312 717.125C304.061 716.426 303.81 715.728 303.551 715.008C303 713 303 713 303 710Z" fill="#86BA4E"/>
<path d="M813 161C814 163 814 163 813.363 165.312C813.017 166.199 812.67 167.086 812.312 168C811.979 168.887 811.645 169.774 811.301 170.688C809.828 173.306 808.772 173.973 806 175C808.079 170.156 810.133 165.444 813 161Z" fill="#63953F"/>
<path d="M657 185C654.736 187.7 653.369 188.895 649.938 189.875C647 190 647 190 644 188C645.788 187.303 647.581 186.618 649.375 185.938C650.373 185.555 651.37 185.172 652.398 184.778C655 184 655 184 657 185Z" fill="#6B9E44"/>
<path d="M245 889C245.75 890.625 245.75 890.625 246 893C244.188 896.25 244.188 896.25 242 899C241.34 899 240.68 899 240 899C240.615 895.005 242.706 892.255 245 889Z" fill="#81B64B"/>
<path d="M833 115C833.66 116.32 834.32 117.64 835 119C834.381 119.908 833.762 120.815 833.125 121.75C831.556 124.149 830.196 126.41 829 129C828.67 128.01 828.34 127.02 828 126C828.97 124.221 829.947 122.445 831.008 120.719C832.087 118.849 832.659 117.131 833 115Z" fill="#61923F"/>
<path d="M518 766C517.361 766.31 516.721 766.619 516.062 766.938C514.064 767.835 514.064 767.835 513 769C510.667 769.041 508.333 769.043 506 769C505.67 768.34 505.34 767.68 505 767C509.409 765.898 513.484 765.924 518 766Z" fill="#84BA4C"/>
<path d="M668 182C665.745 184.256 663.995 184.978 661 186C660.01 186 659.02 186 658 186C658 185.01 658 184.02 658 183C664.286 180.572 664.286 180.572 668 182Z" fill="#6B9E43"/>
<path d="M798 190C798.99 190.33 799.98 190.66 801 191C800.319 191.526 800.319 191.526 799.625 192.062C797.353 194.771 796.832 197.608 796 201C795.34 200.67 794.68 200.34 794 200C795.002 196.207 795.81 193.285 798 190Z" fill="#669941"/>
<path d="M613 739C610.932 741.797 609.856 742.027 606.312 742.688C605.219 742.791 604.126 742.894 603 743C605.601 739.989 609.059 737.03 613 739Z" fill="#7FB44B"/>
<path d="M745 151C738.714 155.428 738.714 155.428 735 156C734.67 155.34 734.34 154.68 734 154C734.66 154 735.32 154 736 154C736.33 153.34 736.66 152.68 737 152C742.529 149.764 742.529 149.764 745 151Z" fill="#679842"/>
<path d="M266 856C266.33 856.99 266.66 857.98 267 859C265.188 862.188 265.188 862.188 263 865C262.34 865 261.68 865 261 865C261.574 861.129 263.487 858.918 266 856Z" fill="#82B64B"/>
<path d="M325 774C325.33 774.99 325.66 775.98 326 777C324.25 779.688 324.25 779.688 322 782C321.01 782 320.02 782 319 782C320.443 778.634 322.333 776.49 325 774Z" fill="#80B54B"/>
<path d="M848 453C849.184 456.552 848.695 457.698 847.562 461.188C847.275 462.089 846.988 462.99 846.691 463.918C846.463 464.605 846.235 465.292 846 466C845.34 464.68 844.68 463.36 844 462C844.66 461.01 845.32 460.02 846 459C846.167 456.375 846.167 456.375 846 454C846.66 453.67 847.32 453.34 848 453Z" fill="#6F9F43"/>
<path d="M865 369C865.33 369 865.66 369 866 369C866.09 374.152 865.847 378.919 865 384C864.67 384 864.34 384 864 384C863.086 378.438 862.679 374.324 865 369Z" fill="#709F44"/>
<path d="M206 917C208.929 917.628 211.361 918.586 214 920C214 920.66 214 921.32 214 922C210.625 921.453 208.918 920.945 206 919C206 918.34 206 917.68 206 917Z" fill="#82B74B"/>
<path d="M373 761C376.625 761.375 376.625 761.375 380 762C380 762.66 380 763.32 380 764C377.03 763.67 374.06 763.34 371 763C371.66 762.34 372.32 761.68 373 761Z" fill="#84BA4D"/>
<path d="M863 384C863.33 384 863.66 384 864 384C864.286 392.571 864.286 392.571 862 396C860.883 391.31 861.194 388.462 863 384Z" fill="#6E9E43"/>
<path d="M732 300C732.66 300 733.32 300 734 300C732.731 303.914 731.488 305.791 728 308C728.66 306.02 729.32 304.04 730 302C730.66 302 731.32 302 732 302C732 301.34 732 300.68 732 300Z" fill="#629540"/>
<path d="M210 880C210 883.694 208.718 885.778 207 889C206.34 889 205.68 889 205 889C206.249 885.541 207.675 882.853 210 880Z" fill="#81B34A"/>
<path d="M275 840C275.66 840 276.32 840 277 840C276.75 842.375 276.75 842.375 276 845C273.938 846.312 273.938 846.312 272 847C273.875 842.25 273.875 842.25 275 840Z" fill="#83B74B"/>
<path d="M558 757C558 757.99 558 758.98 558 760C555.03 760 552.06 760 549 760C552.125 757.917 554.271 757 558 757Z" fill="#80B64B"/>
<path d="M644 189C643.67 189.99 643.34 190.98 643 192C640.688 192.625 640.688 192.625 638 193C637.01 192.34 636.02 191.68 635 191C640.625 189 640.625 189 644 189Z" fill="#6EA046"/>
<path d="M463 773C465.31 773 467.62 773 470 773C470 773.33 470 773.66 470 774C467.69 774 465.38 774 463 774C463 773.67 463 773.34 463 773Z" fill="#78A746"/>
<path d="M280 597C280.33 597 280.66 597 281 597C281 598.65 281 600.3 281 602C280.67 602 280.34 602 280 602C280 600.35 280 598.7 280 597Z" fill="#7BAB4A"/>
<path d="M871 241C871.33 241 871.66 241 872 241C872 242.65 872 244.3 872 246C871.67 246 871.34 246 871 246C871 244.35 871 242.7 871 241Z" fill="#689240"/>
<path d="M863 162C863.33 162 863.66 162 864 162C864 163.65 864 165.3 864 167C863.67 167 863.34 167 863 167C863 165.35 863 163.7 863 162Z" fill="#618C3D"/>
<path d="M282 627C283 631 283 631 283 631L282 627Z" fill="#7AA849"/>
<path d="M649 184C653 185 653 185 653 185L649 184Z" fill="#659240"/>
<path d="M216 926C216.66 926.66 217.32 927.32 218 928C217.34 928 216.68 928 216 928C216 927.34 216 926.68 216 926Z" fill="#68933C"/>
<path d="M456 773C459 774 459 774 459 774L456 773Z" fill="#78A746"/>
<path d="M381 766C384 767 384 767 384 767L381 766Z" fill="#7CAB47"/>
<path d="M471 773C473 774 473 774 473 774L471 773Z" fill="#77A646"/>
<path d="M532 766C534 767 534 767 534 767L532 766Z" fill="#76A346"/>
<path d="M539 765C541 766 541 766 541 766L539 765Z" fill="#76A444"/>
<path d="M347 758C349 759 349 759 349 759L347 758Z" fill="#80B24C"/>
<path d="M343 757C345 758 345 758 345 758L343 757Z" fill="#7FB14B"/>
<path d="M628 734C630 735 630 735 630 735L628 734Z" fill="#76A346"/>
<path d="M701 687C703 688 703 688 703 688L701 687Z" fill="#74A346"/>
<path d="M448 272C450 273 450 273 450 273L448 272Z" fill="#709C44"/>
<path d="M561 216C563 217 563 217 563 217L561 216Z" fill="#689543"/>
<path d="M673 176C675 177 675 177 675 177L673 176Z" fill="#658F40"/>
<path d="M768 136C770 137 770 137 770 137L768 136Z" fill="#618C3F"/>
</svg>
