<svg width="1024" height="1536" viewBox="0 0 1024 1536" fill="none" xmlns="http://www.w3.org/2000/svg">
<path d="M573 271C573.809 271.172 574.617 271.343 575.45 271.52C599.419 276.704 624.074 285.441 642.938 301.5C651.556 308.714 661.545 309.622 672.43 310.736C675.637 311.066 678.813 311.522 682 312C682 312.66 682 313.32 682 314C682.83 314.09 683.66 314.181 684.516 314.274C688.669 315.14 691.997 316.696 695.75 318.625C696.457 318.986 697.165 319.348 697.894 319.72C724.17 333.395 742.479 357.609 751.625 385.5C760.967 415.477 762.335 455.442 749.781 484.856C748.829 487.469 748.871 488.47 750 491C751.744 493.103 751.744 493.103 753.938 495.25C775.051 518.176 783.035 550.232 781.895 580.818C781.168 592.704 779.501 604.362 777 616C777.66 616 778.32 616 779 616C780.706 617.626 782.367 619.3 784 621C784.755 621.709 785.511 622.418 786.289 623.149C806.831 642.729 819.366 668.395 821.25 696.766C821.397 704.978 820.371 712.917 819 721C818.813 722.124 818.626 723.248 818.434 724.406C818.291 725.262 818.147 726.118 818 727C818.99 727.33 819.98 727.66 821 728C822.478 729.656 823.886 731.375 825.25 733.125C827.832 736.367 830.355 739.475 833.375 742.313C837.761 746.558 841.367 751.434 845.082 756.258C846.884 758.592 848.72 760.877 850.637 763.117C858.077 771.906 864.386 781.382 870.688 791C871.131 791.676 871.575 792.352 872.032 793.049C913.123 855.818 941.7 925.845 954.312 999.938C954.57 1001.44 954.57 1001.44 954.833 1002.97C955.662 1008.05 956.193 1012.85 956 1018C956.99 1018.33 957.98 1018.66 959 1019C958.34 1019 957.68 1019 957 1019C957.091 1019.57 957.182 1020.14 957.275 1020.73C964.462 1067.3 961.323 1121.57 933.039 1161.23C926.098 1170.69 919.033 1179.47 910 1187C909.318 1187.6 908.636 1188.21 907.934 1188.83C889.043 1204.96 866.216 1213.17 842 1217C840.987 1217.16 839.974 1217.33 838.93 1217.5C825.708 1219.13 811.779 1217.43 799 1214C798.032 1213.75 797.064 1213.49 796.066 1213.23C783.426 1209.47 770.875 1202.75 761 1194C758.39 1197 756.437 1199.99 754.625 1203.5C752.724 1207.03 750.905 1209.04 747.652 1211.45C745.385 1213.58 743.921 1216.01 742.25 1218.63C735.312 1229.32 727.536 1238.77 714.938 1242.63C701.478 1245.18 690.558 1238.37 679.199 1232.19C664.221 1224.07 647.495 1215.26 630 1216C630 1215.34 630 1214.68 630 1214C609.446 1215.17 592.915 1219.16 574.043 1227.26C564.56 1231.29 554.979 1234.44 545 1237C543.998 1237.26 543.998 1237.26 542.976 1237.52C519.079 1243.42 492.92 1242.07 470.762 1230.7C468.696 1229.75 468.696 1229.75 465 1230C464.907 1231.05 464.907 1231.05 464.812 1232.13C463.502 1236.76 461.152 1239.67 457.113 1242.16C422.62 1257.94 368.417 1250.96 332.113 1248.18C327.803 1247.93 323.511 1247.97 319.195 1248.06C317 1248 317 1248 316 1247C313.451 1246.61 310.915 1246.28 308.355 1245.98C306.727 1245.79 305.098 1245.59 303.469 1245.39C302.608 1245.29 301.747 1245.18 300.86 1245.08C242.321 1237.96 175.637 1226.86 129 1188C127.608 1186.9 127.608 1186.9 126.188 1185.78C120.494 1181.26 115.56 1176.66 111 1171C110.064 1169.87 109.126 1168.75 108.188 1167.63C107.466 1166.76 106.744 1165.89 106 1165C105.34 1164.34 104.68 1163.68 104 1163C97.3896 1154.75 92.7243 1144.72 88.125 1135.25C87.7439 1134.48 87.3629 1133.72 86.9702 1132.93C84.619 1127.99 83.3017 1123.38 82.4878 1117.96C82.3268 1117.31 82.1659 1116.67 82 1116C81.34 1115.67 80.68 1115.34 80 1115C79.4375 1113.25 79.4375 1113.25 79 1110.93C78.836 1110.07 78.6719 1109.2 78.5029 1108.31C78.337 1107.36 78.171 1106.41 78 1105.44C77.8263 1104.47 77.6526 1103.5 77.4736 1102.51C75.5796 1091.41 74.7274 1080.23 74 1069C73.34 1069 72.68 1069 72 1069C72 1067.35 72 1065.7 72 1064C72.66 1064 73.32 1064 74 1064C73.9652 1062.89 73.9304 1061.78 73.8945 1060.64C72.5936 997.828 89.6522 935.568 111.23 877.106C111.848 875.414 112.43 873.709 113 872C113.715 870.576 114.446 869.161 115.188 867.75C117.423 863.332 119.356 858.846 121.188 854.25C121.562 853.312 121.562 853.312 121.944 852.355C123.42 848.607 124.76 844.832 126 841C124.938 840.36 123.876 839.719 122.781 839.059C106.358 829.047 106.358 829.047 102 824C102 823.34 102 822.68 102 822C101.107 821.604 101.107 821.604 100.195 821.199C87.175 814.087 78.2887 793.458 74 780C71.3022 770.54 69.3469 760.848 69 751C68.9601 750.086 68.9201 749.172 68.8789 748.231C68.1752 717.308 79.9148 692.159 101 670C101.476 669.497 101.951 668.994 102.441 668.476C109.825 660.718 117.568 653.826 126.135 647.404C128.097 645.928 130.041 644.43 131.984 642.93C139.421 637.223 146.956 632.014 155.01 627.202C166.253 620.41 177.409 613.402 188 605.625C188.628 605.174 189.255 604.724 189.902 604.259C198.486 597.795 203.209 589.574 205 579C205.094 577.348 205.145 575.692 205.158 574.037C205.168 573.074 205.178 572.111 205.189 571.12C205.196 570.086 205.203 569.053 205.211 567.989C205.239 565.763 205.268 563.537 205.297 561.311C205.338 557.832 205.375 554.352 205.401 550.873C205.554 532.574 207.109 515.691 212 498C211.34 497.67 210.68 497.34 210 497C210.633 496.913 211.266 496.825 211.918 496.735C212.605 496.492 213.292 496.25 214 496C214.719 493.945 215.422 491.882 216.039 489.793C219.402 480.019 225.299 471.74 232 464C232.603 463.253 233.207 462.505 233.828 461.735C246.667 446.307 266.568 435.365 285 428C285.66 428 286.32 428 287 428C287 427.01 287 426.02 287 425C287.99 425.33 288.98 425.66 290 426C292.336 425.257 294.507 424.449 296.758 423.5C297.42 423.227 298.083 422.954 298.765 422.672C300.171 422.088 301.575 421.499 302.977 420.906C305.09 420.015 307.212 419.149 309.336 418.285C318.473 414.497 325.945 410.198 332.938 403.063C333.618 402.382 334.299 401.701 335 401C335.66 401 336.32 401 337 401C337 400.34 337 399.68 337 399C337.66 399 338.32 399 339 399C339 398.34 339 397.68 339 397C339.66 397 340.32 397 341 397C341 396.34 341 395.68 341 395C341.66 395 342.32 395 343 395C343.233 394.443 343.467 393.886 343.707 393.313C345.329 390.411 347.368 388.386 349.688 386C359.559 375.537 367.745 363.589 376.071 351.892C382.283 343.181 388.758 334.882 396 327C396.499 326.456 396.999 325.911 397.513 325.35C409.568 312.376 423.624 301.749 439 293C440.63 292.037 440.63 292.037 442.293 291.055C455.892 283.245 470.988 277.916 486.028 273.607C488.049 273.044 488.049 273.044 490 272C491.926 271.752 493.853 271.507 495.783 271.286C497.842 271.021 499.886 270.638 501.926 270.246C524.719 265.904 550.354 265.991 573 271ZM465 1227C465 1227.66 465 1228.32 465 1229C465.66 1228.67 466.32 1228.34 467 1228C466.34 1227.67 465.68 1227.34 465 1227Z" fill="black"/>
<path d="M405 636C403.562 642.83 401.786 649.535 399.902 656.254C394.264 679.66 398.043 706.284 408 728C408.289 728.629 408.577 729.259 408.875 729.907C421.789 757.323 445.673 777.538 473.812 788.312C476.523 789.271 479.255 790.143 482 791C483.093 791.362 483.093 791.362 484.208 791.731C506.137 798.803 532.979 798.832 555 792C555.715 791.785 556.429 791.571 557.166 791.35C572.409 786.681 586.503 779.955 599 770C601.21 772.048 602.658 773.941 604.016 776.625C604.376 777.326 604.736 778.027 605.108 778.749C605.485 779.492 605.862 780.235 606.25 781C611.966 792.009 618.591 802.05 626 812C625.319 812.66 624.639 813.32 623.938 814C615.037 822.368 615.037 822.368 611.694 833.543C611.823 839.419 613.243 844.701 614.895 850.312C615.198 851.383 615.501 852.453 615.813 853.556C616.464 855.849 617.12 858.14 617.782 860.43C619.537 866.509 621.249 872.599 622.969 878.687C623.315 879.909 623.661 881.131 624.018 882.389C627.084 893.225 629.988 904.099 632.813 915C633.257 916.711 633.701 918.422 634.146 920.133C634.798 922.645 635.45 925.158 636.1 927.672C638.17 935.67 640.273 943.659 642.38 951.647C643.414 955.569 644.445 959.491 645.477 963.414C646.753 968.264 648.03 973.115 649.312 977.964C652.572 990.301 655.806 1002.64 659 1015C659.271 1016.05 659.542 1017.1 659.821 1018.17C661.537 1024.82 663.238 1031.47 664.925 1038.13C665.472 1040.28 666.023 1042.43 666.576 1044.59C667.347 1047.58 668.105 1050.58 668.859 1053.59C669.092 1054.48 669.325 1055.38 669.565 1056.3C669.77 1057.13 669.975 1057.95 670.187 1058.81C670.369 1059.52 670.551 1060.24 670.739 1060.98C671.032 1063.25 670.687 1064.83 670 1067C669.292 1066.88 668.584 1066.76 667.855 1066.63C623.367 1059.16 582.937 1067.86 540.15 1080.54C515.287 1087.87 515.287 1087.87 510 1086C510.081 1085.35 510.162 1084.7 510.246 1084.02C510.309 1083.15 510.372 1082.28 510.438 1081.37C510.519 1080.52 510.6 1079.66 510.684 1078.77C509.599 1074.37 506.68 1072.44 503 1070C500.028 1068.4 496.974 1067.18 493.812 1066C492.841 1065.63 491.869 1065.26 490.868 1064.88C438.227 1045.35 383.438 1032.04 328.845 1019.31C322.884 1017.92 316.932 1016.51 311 1015C315.316 998.329 319.65 981.662 324 965C324.287 963.901 324.573 962.803 324.869 961.672C326.778 954.362 328.697 947.055 330.625 939.75C330.891 938.742 331.157 937.734 331.431 936.696C334.26 925.993 337.158 915.317 340.262 904.691C340.522 903.802 340.781 902.912 341.049 901.996C342.267 897.84 343.499 893.689 344.75 889.544C345.081 888.432 345.081 888.432 345.419 887.298C346.006 885.328 346.601 883.359 347.197 881.392C348.384 876.381 348.724 873.299 346.188 868.75C344.007 866.009 342.464 864.236 338.914 863.664C338.159 863.651 337.403 863.638 336.625 863.625C335.875 863.596 335.125 863.568 334.352 863.539C330.925 864.211 329.481 865.531 327 868C325.7 870.782 324.996 873.672 324.254 876.644C323.889 878.007 323.889 878.007 323.517 879.397C322.969 881.453 322.428 883.512 321.894 885.572C320.936 889.243 319.948 892.906 318.953 896.568C316.799 904.497 314.675 912.435 312.555 920.374C311.932 922.709 311.308 925.043 310.683 927.378C303.328 954.886 296.101 982.425 289 1010C283.953 1009.42 279.049 1008.66 274.078 1007.59C272.805 1007.32 271.531 1007.05 270.219 1006.78C268.239 1006.36 266.26 1005.94 264.283 1005.51C249.936 1002.03 249.936 1002.03 235.812 1004.44C233.182 1008.16 232.742 1011.49 233 1016C234.22 1019.88 235.107 1021.45 238.58 1023.57C242.624 1025.26 246.345 1025.87 250.664 1026.44C260.658 1027.89 270.499 1029.84 280.375 1031.94C281.28 1032.13 282.185 1032.32 283.117 1032.52C349.517 1046.57 415.546 1062.06 479.847 1083.93C481.896 1084.62 483.947 1085.32 486 1086C484.687 1089.57 483.034 1092.84 481.184 1096.16C460.428 1133.72 448.009 1176.71 442 1219C437.329 1220.42 432.857 1221.43 428 1222.06C426.268 1222.3 426.268 1222.3 424.5 1222.53C354.682 1230.2 278.247 1222.51 211 1202C210.132 1201.74 209.263 1201.47 208.369 1201.2C184.014 1193.74 160.675 1183.38 141 1167C140.105 1166.26 139.211 1165.52 138.289 1164.75C120.287 1149.22 107.996 1127.85 102.125 1104.94C101.934 1104.2 101.743 1103.45 101.546 1102.69C97.8521 1086.98 97.6291 1071.05 97.6875 1055C97.6902 1053.44 97.6902 1053.44 97.693 1051.85C97.7357 1037.39 98.0999 1023.24 100.508 1008.95C101.052 1005.69 101.524 1002.42 101.996 999.144C114.588 914.738 149.605 831.408 202 764C202.944 762.784 202.944 762.784 203.906 761.543C211.274 752.198 218.863 742.809 227.449 734.551C229.118 732.882 230.61 731.122 232.125 729.312C239.506 720.773 248.311 713.349 257.105 706.316C259.152 704.678 261.17 703.025 263.176 701.34C278.903 688.259 296.302 677.048 314.131 667.05C315.892 666.06 317.642 665.05 319.391 664.039C343.642 650.474 376.44 634.523 405 636Z" fill="#DA8074"/>
<path d="M749 702C763.78 708.936 776.06 720.116 788 731C789.708 732.521 791.417 734.042 793.125 735.562C800.269 742.016 806.639 748.652 812.664 756.168C814.935 758.922 817.309 761.522 819.75 764.125C831.026 776.413 840.548 790.292 850 804C850.635 804.915 850.635 804.915 851.283 805.848C868.375 830.544 883.403 857.295 895 885C895.452 886.074 895.904 887.148 896.37 888.254C914.118 930.725 928.258 975.199 934 1021C934.154 1022.22 934.154 1022.22 934.312 1023.47C935.848 1036.25 936.203 1049.01 936.25 1061.88C936.258 1062.96 936.258 1062.96 936.266 1064.07C936.451 1097.05 929.9 1131.89 907 1157C906.547 1157.5 906.093 1158 905.626 1158.52C888.33 1177.4 863.872 1191.34 837.926 1193.22C811.499 1194.14 790.472 1189.21 770 1172C769.416 1171.59 768.832 1171.18 768.23 1170.75C766.156 1167.8 766.358 1164.31 766.125 1160.81C763.703 1134.12 749.126 1112.61 729.047 1095.48C720.429 1088.46 710.526 1081.75 700.038 1077.92C696.026 1075.39 695.455 1072.71 694.449 1068.32C694.247 1067.53 694.046 1066.74 693.838 1065.93C693.169 1063.29 692.536 1060.64 691.902 1057.99C691.433 1056.11 690.961 1054.23 690.487 1052.35C689.474 1048.31 688.477 1044.27 687.491 1040.23C685.929 1033.82 684.333 1027.43 682.73 1021.03C681.086 1014.46 679.445 1007.89 677.814 1001.32C673.116 982.388 668.274 963.494 663.36 944.616C662.281 940.469 661.207 936.321 660.134 932.173C655.992 916.167 651.801 900.177 647.477 884.219C646.852 881.911 646.229 879.603 645.607 877.294C645.204 875.801 644.801 874.309 644.398 872.816C644.203 872.091 644.007 871.366 643.805 870.618C642.666 866.4 641.512 862.185 640.348 857.973C639.483 854.833 638.636 851.687 637.785 848.543C637.47 847.421 637.154 846.299 636.829 845.144C636.556 844.121 636.282 843.098 636 842.044C635.757 841.16 635.514 840.276 635.264 839.366C634.948 836.532 635.454 835.358 637 833C668.716 802.441 725.509 775.903 769.289 773.078C773.809 774.615 776.129 778.321 779 782C779.775 782.971 779.775 782.971 780.566 783.961C782.109 785.916 783.621 787.89 785.125 789.875C785.96 790.975 785.96 790.975 786.811 792.097C788.546 794.394 790.274 796.696 792 799C792.534 799.709 793.069 800.419 793.619 801.15C808.955 821.596 821.813 843.567 834 866C834.314 866.574 834.628 867.148 834.952 867.739C839.998 876.977 844.633 886.333 848.938 895.938C849.235 896.599 849.533 897.26 849.84 897.942C856.651 913.096 863.323 928.469 867.221 944.66C868.583 948.751 870.195 949.956 874 952C878.757 952.998 881.892 952.715 886 950.062C889.272 945.052 889.422 940.074 888.242 934.273C887.809 932.966 887.351 931.667 886.875 930.375C886.612 929.629 886.349 928.883 886.078 928.115C870.598 885.422 849.667 844.447 824 807C823.305 805.979 822.61 804.958 821.895 803.906C813.692 791.943 805.176 780.237 796 769C795.259 768.062 794.518 767.123 793.754 766.156C786.936 757.399 786.936 757.399 778 751C772.544 750.708 767.803 751.309 762.492 752.562C759.625 753.066 756.905 753.067 754 753C751.942 747.473 749.901 741.939 747.881 736.398C747.138 734.376 746.376 732.361 745.609 730.348C741.488 719.071 744.142 712.756 749 702Z" fill="#DA8074"/>
<path d="M627 364C627.66 364 628.32 364 629 364C631.004 366.266 632.855 368.537 634.688 370.938C635.541 372.049 635.541 372.049 636.411 373.184C642.09 380.786 646.904 388.867 651.622 397.092C655.567 403.903 659.941 409.975 665 416C665.959 417.208 666.918 418.416 667.875 419.625C674.64 427.324 683.103 432.487 692.023 437.323C700.679 442.155 704.07 448.171 706.863 457.637C720.097 506.845 711.188 571.312 686.676 615.48C680.925 625.434 673.88 634.398 666.051 642.797C664.113 644.878 662.273 647.016 660.438 649.188C635.288 677.816 595.338 694.067 558 697C520.396 698.598 482.562 690.463 453 666C452.152 665.316 451.304 664.631 450.43 663.926C436.691 652.276 424.863 636.179 422.625 617.945C421.701 610.801 420.613 604.728 416 599C411.338 595.503 406.621 595.204 401 596C398.821 596.624 396.654 597.294 394.5 598C384.589 601.22 377.438 600.616 368 596C355.523 588.219 347.476 576.61 343.125 562.688C340.113 549.017 340.19 532.869 346 520C346.424 519.053 346.848 518.105 347.285 517.129C351.862 507.937 358.434 499.01 368.059 494.777C375.279 492.869 384.542 492.434 391.5 495.5C393.281 496.633 393.281 496.633 395 498C395.65 498.513 396.299 499.026 396.969 499.555C401.904 503.978 404.985 509.172 408.143 514.913C412.673 523.125 416.761 528.29 426 531C433.725 532.266 439.535 529.122 446 525C457.863 515.593 465.225 501.24 472.776 488.398C486.775 464.904 506.627 453.479 531.723 444.582C550.437 437.931 567.779 429.912 583 417C584.392 415.826 584.392 415.826 585.812 414.629C588.269 412.476 590.642 410.26 593 408C593.856 407.207 594.712 406.414 595.594 405.598C607.858 393.88 619.381 379.238 627 364Z" fill="#FAC492"/>
<path d="M711.191 1109.62C713.866 1112.02 716.455 1114.46 719 1117C719.857 1117.85 720.714 1118.7 721.598 1119.58C722.39 1120.38 723.183 1121.18 724 1122C724.574 1122.58 725.147 1123.15 725.738 1123.75C733.936 1132.55 739.684 1143.18 742 1155C735.571 1149.55 735.571 1149.55 732.941 1147.02C708.171 1123.45 671.001 1107.48 636.707 1107.43C633.267 1108.15 631.525 1109.6 629 1112C627.59 1114.82 627.755 1116.87 628 1120C629.415 1123.58 630.525 1124.75 633.941 1126.56C638.761 1128.52 643.739 1128.85 648.875 1129.37C679.038 1132.94 705.907 1146.47 725.438 1170.12C735.241 1183.06 735.241 1183.06 734.73 1187.18C733.812 1189.47 733.057 1190.6 731 1192C727.868 1191.79 726.401 1191.39 724.141 1189.17C723.517 1188.37 722.893 1187.57 722.25 1186.75C703.188 1164.66 672.089 1149.95 644 1144C642.998 1143.77 641.997 1143.53 640.965 1143.29C633.916 1141.79 627.546 1141.15 621 1144.56C618.266 1147.89 617.711 1150.73 618 1155C619.722 1159.3 621.888 1161.01 626 1163C629.595 1163.83 633.228 1164.34 636.875 1164.87C665.16 1169.46 694.566 1183.27 713 1206C714.289 1208.57 714.289 1208.57 715 1211C713.444 1214.52 712.233 1215.84 709 1218C698.788 1219.49 690.434 1212.84 681.938 1207.94C657.792 1194.01 628.303 1185.15 600.512 1191.96C591.521 1194.61 582.946 1198.08 574.433 1201.97C545.188 1215.35 512.141 1222.14 481 1211C480.357 1210.77 479.715 1210.54 479.053 1210.3C469.374 1206.75 469.374 1206.75 468 1204C468.234 1202.03 468.234 1202.03 468.75 1199.58C468.943 1198.67 469.135 1197.76 469.333 1196.82C469.553 1195.82 469.773 1194.83 470 1193.81C470.226 1192.79 470.453 1191.76 470.686 1190.7C473.207 1179.61 476.477 1168.81 480 1158C480.27 1157.15 480.541 1156.31 480.819 1155.44C485.828 1139.85 491.65 1122.54 501 1109C504.098 1108.28 504.098 1108.28 508.062 1108.06C525.527 1106.61 542.517 1101.44 559.375 1096.87C570.067 1093.98 580.715 1091.27 591.637 1089.41C593.225 1089.13 594.811 1088.85 596.395 1088.55C634.66 1081.46 680.13 1083.4 711.191 1109.62Z" fill="#FAC493"/>
<path d="M737 516C742.426 521.22 742.426 521.22 744.098 524.531C744.422 525.171 744.747 525.81 745.082 526.469C745.567 527.475 745.567 527.475 746.062 528.5C746.406 529.199 746.75 529.898 747.104 530.618C765.574 569.229 751.725 617.673 739 656C738.728 656.819 738.457 657.638 738.177 658.483C735.951 665.183 733.699 671.874 731.438 678.562C731.122 679.499 730.807 680.435 730.482 681.399C729.556 684.145 728.621 686.887 727.684 689.629C727.384 690.511 727.084 691.394 726.776 692.303C725.032 697.344 723.057 702.184 720.835 707.031C717.342 714.352 717.342 714.352 717.742 722.234C718.455 723.841 719.211 725.429 720 727C720.828 729.146 721.642 731.297 722.445 733.453C723.789 736.879 725.145 740.299 726.504 743.719C726.938 744.827 727.373 745.936 727.82 747.078C728.215 748.072 728.61 749.067 729.016 750.091C730.02 753.059 730.571 755.901 731 759C730.404 759.185 729.808 759.369 729.194 759.56C702.233 768.006 676.036 778.815 652.885 795.191C652.174 795.686 651.463 796.181 650.73 796.691C650.106 797.137 649.481 797.582 648.837 798.041C647 799 647 799 643 799C641.243 796.961 639.864 795.071 638.438 792.812C638.011 792.151 637.584 791.49 637.144 790.809C623.486 769.182 609.711 741.472 613 715C614.657 709.941 616.469 708.508 621 706C622.768 705.127 624.537 704.255 626.314 703.402C642.057 695.805 655.77 686.399 669 675C669.819 674.295 669.819 674.295 670.654 673.576C718.028 632.43 730.111 575.43 737 516Z" fill="#FAC492"/>
<path d="M422 668C422.639 668.639 423.279 669.279 423.937 669.938C424.405 670.399 424.873 670.86 425.355 671.336C426.509 672.503 427.635 673.699 428.738 674.914C454.063 701.96 495.797 719.702 532.481 721.211C548.924 721.74 565.62 722.048 581.789 718.656C585 718 585 718 589 718C589.276 721.654 589.532 725.307 589.742 728.965C589.881 731.378 590.089 733.726 590.383 736.129C590.739 740.164 590.733 742.85 588.52 746.324C578.398 757.205 564.873 764.25 551 769C549.573 769.491 549.573 769.491 548.117 769.992C522.75 778.138 494.351 773.761 471 762C448.768 750.486 431.374 729.786 423.613 705.977C420.363 694.701 418.238 679.286 422 668Z" fill="#FAC492"/>
<path d="M892.25 223.75C893.009 223.756 893.767 223.762 894.549 223.768C899.249 223.851 903.636 224.252 908.215 225.367C911.328 226.074 914.445 226.569 917.599 227.061C939.977 230.569 939.977 230.569 947.312 238.5C950.288 242.909 950.427 246.708 950 252C946.449 264.439 938.891 271.205 929 279C927.448 280.3 925.905 281.611 924.375 282.937C923.428 283.755 923.428 283.755 922.461 284.59C920.883 285.956 920.883 285.956 920 288C918.366 288.926 916.73 289.849 915.085 290.756C911.174 293.089 907.649 295.953 904.062 298.75C902.894 299.653 902.894 299.653 901.701 300.574C899.798 302.045 897.897 303.521 896 305C900.54 306.675 904.963 307.547 909.742 308.148C911.236 308.351 912.729 308.554 914.223 308.758C916.548 309.068 918.873 309.375 921.2 309.672C940.486 312.157 940.486 312.157 946 318.187C947.431 322.212 947.67 325.78 947 330C944.791 334.419 942.549 337.035 938 339C930.547 340.561 923.817 339.304 916.375 338.062C913.988 337.674 911.6 337.29 909.211 336.91C908.162 336.736 907.113 336.562 906.033 336.383C902.987 335.998 900.066 335.933 897 336C897 335.34 897 334.68 897 334C896.331 333.974 895.662 333.948 894.973 333.922C887.762 333.496 881.032 332.225 874.053 330.46C869.708 329.365 865.447 328.558 861 328C861 327.01 861 326.02 861 325C860.361 324.278 859.721 323.556 859.062 322.812C856.491 319.305 855.795 316.268 856 312C858.147 302.463 864.556 297.573 872.125 292.062C873.928 290.73 875.73 289.397 877.531 288.062C878.898 287.051 878.898 287.051 880.293 286.019C886.64 281.284 892.864 276.388 899.091 271.498C900.815 270.145 902.544 268.798 904.273 267.453C905.173 266.747 906.073 266.04 907 265.312C907.742 264.731 908.485 264.15 909.25 263.551C911.234 261.926 911.234 261.926 913 259C912.67 257.35 912.34 255.7 912 254C906.39 254 900.78 254 895 254C894.67 254.66 894.34 255.32 894 256C893.278 255.814 892.556 255.629 891.812 255.437C888.86 254.978 886.887 255.376 884 256C881.76 254.88 879.984 253.531 878 252C877.134 251.361 876.267 250.721 875.375 250.062C872.444 247.517 871.29 245.51 870.559 241.703C870.305 236.57 870.796 233.527 874.125 229.5C879.161 224.039 885.156 223.659 892.25 223.75ZM914 257C914 257.66 914 258.32 914 259C914.99 258.67 915.98 258.34 917 258C916.01 257.67 915.02 257.34 914 257Z" fill="black"/>
<path d="M687 484C690.884 486.066 692.947 488.681 694.496 492.832C697.442 505.507 693.198 518.034 686.941 528.953C681.223 537.927 674.085 544.89 663.5 547.652C660.86 548.019 658.352 548.098 655.688 548.062C654.363 548.049 654.363 548.049 653.012 548.035C652.348 548.024 651.684 548.012 651 548C651.083 549.217 651.165 550.434 651.25 551.687C651.179 563.049 646.507 572.673 639 581C629.696 589.666 619.6 591.494 607.16 591.285C598.017 590.868 590.05 587.353 583.188 581.437C580.333 577.982 580.671 573.694 580.715 569.445C581.122 565.954 582.404 564.307 585 562C589.509 559.281 593.877 559.585 599 560C600.702 560.495 600.702 560.495 602.438 561C607.351 562.379 611.938 562.735 617 562C620.827 559.579 622.338 556.866 623.813 552.687C624.353 550.337 624.353 550.337 624 548C622.28 545.685 620.332 543.97 618.168 542.066C609.613 533.912 606.953 518.912 606.534 507.467C606.427 500.956 606.822 497.192 611 492C614.42 489.591 616.951 488.753 621.063 489.062C624.964 489.77 627.268 491.034 630 494C632.294 498.236 633.288 502.242 634.313 506.937C636.022 514.043 638.913 518.736 644.813 523.062C649.189 524.35 652.632 524.347 657 523C662.091 520.195 665.096 516.093 667.234 510.766C668.526 506.101 668.966 501.356 669.41 496.551C670.183 491.896 671.485 488.49 674.879 485.152C678.753 483.047 682.726 483.389 687 484Z" fill="#010100"/>
<path d="M842 344C842 344.66 842 345.32 842 346C842.577 346.186 843.155 346.371 843.75 346.563C847.056 348.675 848.656 351.407 850 355C851.479 362.986 848.519 369.97 844.34 376.656C839.899 383.003 834.819 388.652 829.516 394.274C826.997 396.935 826.997 396.935 824.871 399.684C823.273 401.662 821.809 403.143 819.812 404.688C816.984 406.694 816.984 406.694 816 409C816.536 408.928 817.072 408.856 817.625 408.781C842.638 405.819 842.638 405.819 851 412C853.974 415.264 854.891 417.128 855.438 421.5C854.944 425.45 854.262 427.717 852 431C844.284 436.49 836.53 436.151 827.375 435.688C826.375 435.64 825.374 435.592 824.344 435.543C817.404 435.186 810.482 434.693 803.562 434.063C802.718 433.988 801.874 433.914 801.003 433.837C793.567 433.108 786.584 432.42 781 427C779 424 779 424 779 420C778.34 419.67 777.68 419.34 777 419C779.346 409.128 784.258 404.259 792 398C801.017 390.359 810.13 382.269 816.914 372.524C818 371 818 371 820 369C819.01 368.67 818.02 368.34 817 368C816.67 368.66 816.34 369.32 816 370C816 369.34 816 368.68 816 368C815.411 368.091 814.822 368.182 814.215 368.276C811.499 368.691 808.781 369.095 806.062 369.5C805.136 369.643 804.21 369.786 803.256 369.934C788.741 372.073 788.741 372.073 783.125 369.875C779.395 366.584 778.15 363.403 777.625 358.5C778.044 354.591 778.839 352.279 781 349C787.142 344.262 794.872 342.52 802.438 341.75C803.212 341.669 803.987 341.587 804.786 341.503C817.314 340.35 829.654 341.789 842 344Z" fill="black"/>
<path d="M570 492C574.034 493.933 575.284 496.209 576.812 500.25C580.142 512.075 576.221 524.12 570.875 534.813C564.373 546.049 555.461 553.59 543.059 557.633C532.712 559.478 522.61 558.233 513.719 552.539C511.748 551.091 509.875 549.569 508 548C507.154 547.423 506.309 546.845 505.438 546.25C496.155 537.681 490.155 524.805 489.625 512.188C489.657 506.774 491.492 503.071 495 499C497.536 497.732 499.48 497.725 502.312 497.625C503.257 497.576 504.202 497.527 505.176 497.477C509.169 498.217 510.544 499.819 513 503C513.934 506.199 513.934 506.199 514.438 509.688C515.892 517.473 518.436 524.843 525.188 529.563C529.688 531.863 532.955 532.496 538 532C543.163 529.852 546.804 526.912 549.262 521.867C551.758 515.554 552.285 509.564 552.559 502.832C554.168 492.505 560.806 490.841 570 492Z" fill="#020101"/>
<path d="M636.625 625.937C640.388 629.205 640.884 630.823 641.375 635.812C641.253 640.493 639.72 643.222 637 647C633.365 649.627 629.476 649.173 625.191 649.019C623.623 648.989 622.055 648.96 620.486 648.932C618.038 648.876 615.59 648.813 613.142 648.733C603.354 648.429 595.649 648.692 586.625 652.864C581.636 655.023 577.808 654.648 572.688 652.812C569.59 650.723 568.387 649.468 567 646C566.466 641.197 566.458 639.043 568.688 634.75C576.176 625.844 588.495 622.855 599.707 621.281C611.896 620.24 625.757 619.359 636.625 625.937Z" fill="#030201"/>
<path d="M737 516C741.165 519.767 743.63 523.463 746.062 528.5C746.406 529.199 746.75 529.898 747.104 530.618C751.65 540.122 755.121 550.243 755.133 560.859C755.135 562.534 755.135 562.534 755.137 564.242C755.133 565.4 755.129 566.557 755.125 567.75C755.131 569.463 755.131 569.463 755.137 571.211C755.129 577.559 754.843 583.707 754 590C753.67 590 753.34 590 753 590C752.986 588.49 752.986 588.49 752.972 586.949C752.931 583.132 752.865 579.315 752.792 575.498C752.765 573.861 752.743 572.225 752.729 570.588C752.594 555.888 750.991 542.088 743.75 529C743.205 527.964 743.205 527.964 742.648 526.906C741.781 525.263 740.893 523.63 740 522C739.01 523.32 738.02 524.64 737 526C737 522.7 737 519.4 737 516Z" fill="#F4E6BD"/>
<path d="M548 795C545.353 796.461 544.106 797 541 797C541 797.66 541 798.32 541 799C531.91 799.97 523.281 799.897 514.188 799.062C513.006 798.963 511.825 798.863 510.607 798.76C507.737 798.516 504.868 798.262 502 798C502 797.67 502 797.34 502 797C502.999 796.975 503.997 796.95 505.026 796.924C508.75 796.829 512.473 796.729 516.197 796.628C517.805 796.584 519.413 796.543 521.021 796.503C523.34 796.444 525.658 796.381 527.977 796.316C529.046 796.291 529.046 796.291 530.136 796.266C536.17 796.089 541.96 794.856 548 795Z" fill="#DA8074"/>
<path d="M708 482C708.33 482 708.66 482 709 482C709.025 482.838 709.05 483.675 709.076 484.539C709.171 487.644 709.27 490.748 709.372 493.853C709.437 495.859 709.497 497.865 709.557 499.871C709.599 501.128 709.64 502.385 709.684 503.68C709.72 504.842 709.757 506.005 709.795 507.203C709.818 509.954 709.818 509.954 711 512C711.071 514.041 711.084 516.083 711.062 518.125C711.053 519.221 711.044 520.316 711.035 521.445C711.024 522.288 711.012 523.131 711 524C710.67 524 710.34 524 710 524C709.34 527.96 708.68 531.92 708 536C707.67 536 707.34 536 707 536C707.33 518.18 707.66 500.36 708 482Z" fill="#EEB884"/>
<path d="M772 774C774.324 776.031 774.324 776.031 776 778C775.67 778.66 775.34 779.32 775 780C774.52 779.335 774.041 778.67 773.547 777.984C769.808 775.071 766.801 775.775 762.25 776.25C761.457 776.316 760.664 776.382 759.848 776.449C757.897 776.614 755.948 776.804 754 777C754 777.66 754 778.32 754 779C750.7 779.33 747.4 779.66 744 780C743.67 779.34 743.34 778.68 743 778C764.38 772.326 764.38 772.326 772 774Z" fill="#EF9A8C"/>
<path d="M422 668C426.667 672.667 431.333 677.333 436 682C433 682 433 682 430.738 680.031C429.938 679.196 429.137 678.361 428.312 677.5C427.504 676.665 426.696 675.829 425.863 674.969C425.248 674.319 424.634 673.669 424 673C422.844 676.467 422.672 679.541 422.438 683.188C422.354 684.46 422.27 685.732 422.184 687.043C422.123 688.019 422.062 688.995 422 690C421.67 690 421.34 690 421 690C420.971 686.896 420.953 683.792 420.938 680.688C420.929 679.806 420.921 678.925 420.912 678.018C420.909 677.17 420.906 676.322 420.902 675.449C420.897 674.669 420.892 673.889 420.886 673.085C421 671 421 671 422 668Z" fill="#F4EBC9"/>
<path d="M589 718C589 724.93 589 731.86 589 739C588.67 739 588.34 739 588 739C587.67 732.73 587.34 726.46 587 720C585.68 720.33 584.36 720.66 583 721C580.667 721.039 578.333 721.045 576 721C580.349 718.584 584.038 718 589 718Z" fill="#F7EAC5"/>
<path d="M616 800C620.244 803.88 623.109 808.043 626 813C624.377 814.482 622.752 815.96 621.125 817.438C619.768 818.673 619.768 818.673 618.383 819.934C616 822 616 822 614 823C615.651 818.708 618.738 816.121 622 813C620.916 809.928 619.695 807.543 617.875 804.812C616 802 616 802 616 800Z" fill="#F1A291"/>
<path d="M752 583C752.33 583 752.66 583 753 583C753.835 589.876 754.195 596.153 753 603C752.34 603.66 751.68 604.32 751 605C750.971 601.708 750.953 598.417 750.938 595.125C750.925 593.719 750.925 593.719 750.912 592.285C750.909 591.389 750.906 590.493 750.902 589.57C750.897 588.743 750.892 587.915 750.886 587.063C751 585 751 585 752 583Z" fill="#F3D2A4"/>
<path d="M325 868C326.142 871.425 325.831 872.317 324.785 875.668C324.511 876.561 324.237 877.453 323.955 878.373C323.661 879.302 323.366 880.231 323.063 881.188C322.772 882.128 322.481 883.068 322.182 884.037C321.462 886.361 320.735 888.681 320 891C319.001 887.469 319.149 885.119 319.875 881.5C320.058 880.562 320.241 879.623 320.43 878.656C320.909 876.423 321.427 874.211 322 872C322.66 872 323.32 872 324 872C324.33 870.68 324.66 869.36 325 868Z" fill="#DA8074"/>
<path d="M399 636C400.98 636 402.96 636 405 636C403.475 643.496 401.32 650.714 399 658C398.022 654.944 397.992 653.147 398.996 650.109C399.225 649.4 399.454 648.691 399.689 647.961C399.936 647.231 400.183 646.502 400.437 645.75C400.802 644.632 400.802 644.632 401.174 643.492C401.773 641.658 402.385 639.829 403 638C401.68 638 400.36 638 399 638C399 637.34 399 636.68 399 636Z" fill="#F3A292"/>
<path d="M512 1078C512.33 1078 512.66 1078 513 1078C513 1080.31 513 1082.62 513 1085C513.976 1084.77 514.952 1084.54 515.957 1084.31C517.865 1083.88 517.865 1083.88 519.812 1083.44C521.709 1083 521.709 1083 523.645 1082.56C527 1082 527 1082 530 1083C527.419 1083.7 524.836 1084.38 522.25 1085.06C521.52 1085.26 520.791 1085.46 520.039 1085.67C516.095 1086.69 514.037 1087.01 510 1086C510.66 1083.36 511.32 1080.72 512 1078Z" fill="#F9AD9C"/>
<path d="M729 1142C732.402 1143.61 735.103 1145.59 738 1148C738.33 1147.01 738.66 1146.02 739 1145C739.99 1148.3 740.98 1151.6 742 1155C737.128 1151.01 732.958 1146.9 729 1142Z" fill="#FBF0C9"/>
<path d="M675 981C677.093 984.402 677.179 987.053 677 991C677.66 991.33 678.32 991.66 679 992C679 994.64 679 997.28 679 1000C676.493 997.493 676.177 995.608 675.312 992.188C675.04 991.15 674.768 990.112 674.488 989.043C673.997 985.984 674.184 983.962 675 981Z" fill="#DA8074"/>
<path d="M651 822C651.66 822.33 652.32 822.66 653 823C652.095 824.155 651.176 825.299 650.25 826.438C649.74 827.076 649.229 827.714 648.703 828.371C645.975 830.981 643.684 831 640 831C647.298 824.665 647.298 824.665 651 822Z" fill="#F89889"/>
<path d="M831 863C833.988 865.583 835.494 868.555 837.25 872.062C838.062 873.658 838.062 873.658 838.891 875.285C839.257 876.181 839.623 877.077 840 878C839.67 878.66 839.34 879.32 839 880C836.292 877.64 835.15 875.4 833.875 872.062C833.542 871.208 833.21 870.353 832.867 869.473C832.114 867.325 831.504 865.217 831 863Z" fill="#F8A192"/>
<path d="M627 364C627.66 364 628.32 364 629 364C630.436 365.615 631.801 367.292 633.125 369C633.849 369.928 634.574 370.856 635.32 371.812C635.875 372.534 636.429 373.256 637 374C636.67 374.66 636.34 375.32 636 376C633.69 373.36 631.38 370.72 629 368C627.02 368.99 627.02 368.99 625 370C625.66 368.02 626.32 366.04 627 364Z" fill="#F0E2BA"/>
<path d="M634 1140C634 1140.33 634 1140.66 634 1141C633.336 1141.1 632.672 1141.2 631.988 1141.3C626.617 1142.21 622.978 1143.02 619 1147C618.34 1147.66 617.68 1148.32 617 1149C617 1147.35 617 1145.7 617 1144C622.934 1140.92 627.299 1139.51 634 1140Z" fill="#F8E9C0"/>
<path d="M441 1203C441.66 1203.33 442.32 1203.66 443 1204C442.67 1208.95 442.34 1213.9 442 1219C441.34 1218.67 440.68 1218.34 440 1218C439.973 1216.25 439.954 1214.5 439.938 1212.75C439.926 1211.78 439.914 1210.8 439.902 1209.8C439.988 1207.34 440.293 1205.34 441 1203Z" fill="#F9A293"/>
<path d="M330 1044C331.438 1044.11 332.876 1044.24 334.312 1044.38C335.513 1044.48 335.513 1044.48 336.738 1044.59C339 1045 339 1045 342 1047C338.7 1047 335.4 1047 332 1047C332 1046.34 332 1045.68 332 1045C331.34 1044.67 330.68 1044.34 330 1044Z" fill="#F89F90"/>
<path d="M260 1029C261.691 1029.09 263.38 1029.25 265.062 1029.44C266.441 1029.59 266.441 1029.59 267.848 1029.75C268.558 1029.83 269.268 1029.91 270 1030C270 1030.33 270 1030.66 270 1031C268.544 1031.22 267.085 1031.43 265.625 1031.62C264.813 1031.74 264.001 1031.86 263.164 1031.98C262.45 1031.98 261.736 1031.99 261 1032C260.34 1031.34 259.68 1030.68 259 1030C259.33 1029.67 259.66 1029.34 260 1029Z" fill="#FA988B"/>
<path d="M304 944C305.251 947.547 304.723 949.723 303.563 953.25C303.275 954.142 302.988 955.034 302.691 955.953C302.463 956.629 302.235 957.304 302 958C300.968 954.905 301.025 953.474 301.438 950.312C301.539 949.504 301.641 948.696 301.746 947.863C301.83 947.248 301.914 946.634 302 946C302.66 946 303.32 946 304 946C304 945.34 304 944.68 304 944Z" fill="#DA8074"/>
<path d="M667 1058C668.461 1060.65 669 1061.89 669 1065C667.35 1065.33 665.7 1065.66 664 1066C663.67 1065.01 663.34 1064.02 663 1063C664.32 1063 665.64 1063 667 1063C667 1061.35 667 1059.7 667 1058Z" fill="#ED7065"/>
<path d="M276 1032C277.438 1032.11 278.876 1032.24 280.312 1032.38C281.513 1032.48 281.513 1032.48 282.738 1032.59C285 1033 285 1033 288 1035C284.37 1035 280.74 1035 277 1035C276.67 1034.01 276.34 1033.02 276 1032Z" fill="#F9A797"/>
<path d="M644 1140C644 1140.66 644 1141.32 644 1142C644.66 1142.33 645.32 1142.66 646 1143C639.375 1143.25 639.375 1143.25 636 1141C641.75 1140 641.75 1140 644 1140Z" fill="#F0DDB6"/>
<path d="M508 690C510.64 690.33 513.28 690.66 516 691C514 693 514 693 510.875 693.125C509.452 693.063 509.452 693.063 508 693C508 692.01 508 691.02 508 690Z" fill="#F3CC9E"/>
<path d="M856 320C856.99 320.99 857.98 321.98 859 323C858.67 323.99 858.34 324.98 858 326C856 323 856 323 856 320Z" fill="#0A0403"/>
<path d="M896 254C898.64 254 901.28 254 904 254C902.25 255.125 902.25 255.125 900 256C897.75 255.125 897.75 255.125 896 254Z" fill="#070302"/>
<path d="M700 320C701.32 320 702.64 320 704 320C704 320.66 704 321.32 704 322C702.68 321.34 701.36 320.68 700 320Z" fill="#020000"/>
<path d="M97 1157C97.99 1157 98.98 1157 100 1157C99.67 1157.99 99.34 1158.98 99 1160C99 1159.34 99 1158.68 99 1158C98.34 1157.67 97.68 1157.34 97 1157Z" fill="#251411"/>
<path d="M74 1087C74.33 1087 74.66 1087 75 1087C75 1088.65 75 1090.3 75 1092C74.67 1092 74.34 1092 74 1092C74 1090.35 74 1088.7 74 1087Z" fill="#271613"/>
<path d="M204 538C204.33 538 204.66 538 205 538C205 539.65 205 541.3 205 543C204.67 543 204.34 543 204 543C204 541.35 204 539.7 204 538Z" fill="#030001"/>
<path d="M758 447C758.33 447 758.66 447 759 447C759 448.65 759 450.3 759 452C758.67 452 758.34 452 758 452C758 450.35 758 448.7 758 447Z" fill="#080202"/>
<path d="M785 372C786.32 372.33 787.64 372.66 789 373C788.01 373.495 788.01 373.495 787 374C786.34 373.34 785.68 372.68 785 372Z" fill="#080302"/>
<path d="M784 344C785.32 344.33 786.64 344.66 788 345C786.68 345.33 785.36 345.66 784 346C784 345.34 784 344.68 784 344Z" fill="#040101"/>
<path d="M904 264C904.66 264 905.32 264 906 264C905.67 264.99 905.34 265.98 905 267C904.67 266.01 904.34 265.02 904 264Z" fill="#050201"/>
<path d="M289 1245C293 1246 293 1246 293 1246L289 1245Z" fill="#26100E"/>
<path d="M73 1080C74 1084 74 1084 74 1084L73 1080Z" fill="#281512"/>
<path d="M74 1018C75 1022 75 1022 75 1022L74 1018Z" fill="#221310"/>
<path d="M131 640C131.66 640 132.32 640 133 640C133 640.66 133 641.32 133 642C132.34 642 131.68 642 131 642C131 641.34 131 640.68 131 640Z" fill="#040101"/>
<path d="M204 567C205 571 205 571 205 571L204 567Z" fill="#050102"/>
<path d="M204 561C205 565 205 565 205 565L204 561Z" fill="#070101"/>
<path d="M758 417C759 421 759 421 759 421L758 417Z" fill="#040100"/>
<path d="M808 379C808.66 379 809.32 379 810 379C810 379.66 810 380.32 810 381C809.34 381 808.68 381 808 381C808 380.34 808 379.68 808 379Z" fill="#070203"/>
<path d="M820 340C824 341 824 341 824 341L820 340Z" fill="#070302"/>
<path d="M804 340C808 341 808 341 808 341L804 340Z" fill="#060201"/>
<path d="M705 1244C708 1245 708 1245 708 1245L705 1244Z" fill="#2A1915"/>
<path d="M273 1242C276 1243 276 1243 276 1243L273 1242Z" fill="#26110F"/>
<path d="M481 1236C484 1237 484 1237 484 1237L481 1236Z" fill="#2B1914"/>
<path d="M829 1219C832 1220 832 1220 832 1220L829 1219Z" fill="#271411"/>
<path d="M954 1116C954.66 1116.66 955.32 1117.32 956 1118C955.34 1118 954.68 1118 954 1118C954 1117.34 954 1116.68 954 1116Z" fill="#2B1916"/>
<path d="M72 1010C72.99 1010.5 72.99 1010.5 74 1011C73.01 1011.5 73.01 1011.5 72 1012C72 1011.34 72 1010.68 72 1010Z" fill="#251311"/>
<path d="M240 451C243 452 243 452 243 452L240 451Z" fill="#020000"/>
<path d="M777 344C777.66 344 778.32 344 779 344C778.67 344.66 778.34 345.32 778 346C777.67 345.34 777.34 344.68 777 344Z" fill="#030201"/>
<path d="M687 312C687.33 312.66 687.66 313.32 688 314C687.34 313.67 686.68 313.34 686 313C686.33 312.67 686.66 312.34 687 312Z" fill="#010000"/>
<path d="M661 307C664 308 664 308 664 308L661 307Z" fill="black"/>
<path d="M428 296C428.66 296.66 429.32 297.32 430 298C429.34 298 428.68 298 428 298C428 297.34 428 296.68 428 296Z" fill="#010000"/>
<path d="M892 274C895 275 895 275 895 275L892 274Z" fill="#080302"/>
<path d="M591 274C594 275 594 275 594 275L591 274Z" fill="black"/>
<path d="M585 272C588 273 588 273 588 273L585 272Z" fill="black"/>
<path d="M484 272C484.33 272.66 484.66 273.32 485 274C484.34 273.67 483.68 273.34 483 273C483.33 272.67 483.66 272.34 484 272Z" fill="#010000"/>
<path d="M545 264C548 265 548 265 548 265L545 264Z" fill="black"/>
<path d="M906 255C909 256 909 256 909 256L906 255Z" fill="#070202"/>
<path d="M306 1247C308 1248 308 1248 308 1248L306 1247Z" fill="#230E0C"/>
<path d="M299 1246C301 1247 301 1247 301 1247L299 1246Z" fill="#22100C"/>
<path d="M296 1246C298 1247 298 1247 298 1247L296 1246Z" fill="#24100E"/>
<path d="M718 1242C720 1243 720 1243 720 1243L718 1242Z" fill="#291713"/>
<path d="M548 1239C550 1240 550 1240 550 1240L548 1239Z" fill="#301C18"/>
<path d="M540 1239C542 1240 542 1240 542 1240L540 1239Z" fill="#321C18"/>
<path d="M491 1239C493 1240 493 1240 493 1240L491 1239Z" fill="#2D1918"/>
<path d="M550 1236C552 1237 552 1237 552 1237L550 1236Z" fill="#301B17"/>
<path d="M241 1236C243 1237 243 1237 243 1237L241 1236Z" fill="#24110E"/>
<path d="M597 1219C599 1220 599 1220 599 1220L597 1219Z" fill="#2F1D19"/>
<path d="M169 1214C171 1215 171 1215 171 1215L169 1214Z" fill="#231110"/>
<path d="M789 1212C791 1213 791 1213 791 1213L789 1212Z" fill="#281611"/>
<path d="M869 1211C871 1212 871 1212 871 1212L869 1211Z" fill="#2B1715"/>
<path d="M786 1211C788 1212 788 1212 788 1212L786 1211Z" fill="#271212"/>
<path d="M1004 1090C1006 1091 1006 1091 1006 1091L1004 1090Z" fill="#493631"/>
<path d="M96 672C98 673 98 673 98 673L96 672Z" fill="#050100"/>
<path d="M128 643C130 644 130 644 130 644L128 643Z" fill="#050201"/>
<path d="M140 635C142 636 142 636 142 636L140 635Z" fill="#040000"/>
<path d="M144 632C146 633 146 633 146 633L144 632Z" fill="#060100"/>
<path d="M169 616C171 617 171 617 171 617L169 616Z" fill="#040000"/>
<path d="M753 493C755 494 755 494 755 494L753 493Z" fill="#0C0504"/>
<path d="M290 424C292 425 292 425 292 425L290 424Z" fill="#000100"/>
<path d="M307 417C309 418 309 418 309 418L307 417Z" fill="#010000"/>
<path d="M846 408C848 409 848 409 848 409L846 408Z" fill="#0B0504"/>
<path d="M784 402C786 403 786 403 786 403L784 402Z" fill="#050000"/>
<path d="M801 387C803 388 803 388 803 388L801 387Z" fill="#050000"/>
<path d="M796 371C798 372 798 372 798 372L796 371Z" fill="#080303"/>
<path d="M814 340C816 341 816 341 816 341L814 340Z" fill="#070201"/>
<path d="M918 339C920 340 920 340 920 340L918 339Z" fill="#150C0B"/>
<path d="M910 338C912 339 912 339 912 339L910 338Z" fill="#140D0B"/>
<path d="M399 320C401 321 401 321 401 321L399 320Z" fill="#010000"/>
<path d="M683 312C685 313 685 313 685 313L683 312Z" fill="#010000"/>
<path d="M667 308C669 309 669 309 669 309L667 308Z" fill="#010000"/>
<path d="M910 307C912 308 912 308 912 308L910 307Z" fill="#090303"/>
<path d="M415 306C417 307 417 307 417 307L415 306Z" fill="#010000"/>
<path d="M890 275C892 276 892 276 892 276L890 275Z" fill="#080402"/>
<path d="M594 275C596 276 596 276 596 276L594 275Z" fill="#010000"/>
<path d="M588 273C590 274 590 274 590 274L588 273Z" fill="black"/>
<path d="M889 272C891 273 891 273 891 273L889 272Z" fill="#080303"/>
<path d="M592 272C594 273 594 273 594 273L592 272Z" fill="black"/>
<path d="M582 272C584 273 584 273 584 273L582 272Z" fill="black"/>
<path d="M566 268C568 269 568 269 568 269L566 268Z" fill="black"/>
<path d="M541 266C543 267 543 267 543 267L541 266Z" fill="black"/>
<path d="M533 266C535 267 535 267 535 267L533 266Z" fill="black"/>
<path d="M905 224C907 225 907 225 907 225L905 224Z" fill="#070303"/>
</svg>
